<svg id="Layer_3" data-name="Layer 3" xmlns="http://www.w3.org/2000/svg" viewBox="0 0 418.84 426.94"><defs><style>.cls-1,.cls-13,.cls-14,.cls-16,.cls-2,.cls-3,.cls-4,.cls-5{fill:none;}.cls-1{stroke:#1fda9a;stroke-dasharray:29.89 4.98;opacity:0.3;}.cls-1,.cls-10,.cls-13,.cls-14,.cls-16,.cls-2,.cls-3,.cls-4,.cls-5{stroke-miterlimit:10;}.cls-1,.cls-10,.cls-16,.cls-2,.cls-3,.cls-4{stroke-width:2.49px;}.cls-2,.cls-3,.cls-4,.cls-5{stroke:#c4c4c4;}.cls-3{stroke-dasharray:30.02 5;}.cls-4{stroke-dasharray:30.02 5;}.cls-5{stroke-width:1.87px;}.cls-6{fill:#c4c4c4;}.cls-7{font-size:22.1px;}.cls-15,.cls-17,.cls-19,.cls-22,.cls-7,.cls-9{fill:#616161;font-family:Noteworthy;font-weight:700;}.cls-8{letter-spacing:-1.13px;}.cls-9{font-size:23.68px;}.cls-10,.cls-11{fill:#fff;}.cls-10{stroke:#28abe3;}.cls-12{fill:#43b6e7;}.cls-13{stroke:#565656;stroke-width:4.4px;}.cls-14{stroke:#606060;stroke-width:3.43px;}.cls-15{font-size:21.95px;}.cls-16{stroke:#5b5b5b;}.cls-17{font-size:26.04px;}.cls-18{letter-spacing:-0.99px;}.cls-19{font-size:33.58px;}.cls-20{letter-spacing:-0.81px;}.cls-21{letter-spacing:-5.68px;}.cls-22{font-size:28.18px;}</style></defs><title>fit-model</title><line class="cls-1" x1="55.15" y1="254.13" x2="397.47" y2="254.13"/><line class="cls-1" x1="213.89" y1="366.38" x2="213.89" y2="146.95"/><path class="cls-2" d="M110.6,343.4c5.26,0,10.23,0,14.95,0" transform="translate(-76.81 -39.76)"/><path class="cls-3" d="M130.55,343.47C207.39,344,214,347.8,303.13,347.8c90.07,0,95.86-3.85,175.08-4.34" transform="translate(-76.81 -39.76)"/><path class="cls-2" d="M480.7,343.44c4.72,0,9.69,0,14.95,0" transform="translate(-76.81 -39.76)"/><path class="cls-2" d="M110.6,388.75c5.26,0,10.23,0,14.95,0" transform="translate(-76.81 -39.76)"/><path class="cls-3" d="M130.55,388.81c76.84,0.56,83.47,4.33,172.57,4.33,90.07,0,95.86-3.85,175.08-4.34" transform="translate(-76.81 -39.76)"/><path class="cls-2" d="M480.7,388.78c4.72,0,9.69,0,14.95,0" transform="translate(-76.81 -39.76)"/><path class="cls-2" d="M110.62,239.78c5.26,0,10.23,0,14.95,0" transform="translate(-76.81 -39.76)"/><path class="cls-4" d="M130.57,239.85c76.83,0.56,83.46,4.33,172.55,4.33,90.05,0,95.85-3.85,175.05-4.34" transform="translate(-76.81 -39.76)"/><path class="cls-2" d="M480.68,239.82c4.72,0,9.69,0,14.95,0" transform="translate(-76.81 -39.76)"/><path class="cls-2" d="M110.62,191c5.26,0,10.23,0,14.95,0" transform="translate(-76.81 -39.76)"/><path class="cls-4" d="M130.57,191c76.83,0.56,83.46,4.33,172.55,4.33,90.05,0,95.85-3.85,175.05-4.34" transform="translate(-76.81 -39.76)"/><path class="cls-2" d="M480.68,191c4.72,0,9.69,0,14.95,0" transform="translate(-76.81 -39.76)"/><path class="cls-5" d="M398.76,368.27c-17.71-36.28-5-76.23,29.11-90.06" transform="translate(-76.81 -39.76)"/><path class="cls-6" d="M401.18,352.87a0.93,0.93,0,0,0-1,.83l-1.56,14.18-12.19-7.41a0.93,0.93,0,0,0-1,1.59l13.45,8.17a0.93,0.93,0,0,0,1.41-.7L402,353.9A0.93,0.93,0,0,0,401.18,352.87Z" transform="translate(-76.81 -39.76)"/><text class="cls-7" transform="translate(165.83 417.33) scale(0.89 1)">C<tspan x="15.52" y="0">u</tspan><tspan x="26.32" y="0">p</tspan><tspan x="37.12" y="0">s </tspan><tspan x="52.61" y="0">o</tspan><tspan x="63.41" y="0">f C</tspan><tspan x="92.39" y="0">o</tspan><tspan class="cls-8" x="103.18" y="0">f</tspan><tspan class="cls-8" x="110.25" y="0">f</tspan><tspan x="117.96" y="0">ee</tspan></text><text class="cls-9" transform="matrix(-0.01, -0.87, 1, -0.02, 23.31, 301.77)">Work Do<tspan x="87.94" y="0">n</tspan><tspan x="100.7" y="0">e</tspan></text><path class="cls-10" d="M184.11,342.63a6.21,6.21,0,1,0,12.42,0c0-3.57.65-6.46-2.78-6.46S184.11,339.07,184.11,342.63Z" transform="translate(-76.81 -39.76)"/><ellipse class="cls-10" cx="257.36" cy="179.97" rx="6.21" ry="6.46"/><ellipse class="cls-10" cx="257.29" cy="238.82" rx="6.21" ry="6.46"/><ellipse class="cls-10" cx="226.31" cy="222.37" rx="6.21" ry="6.46"/><ellipse class="cls-11" cx="293.93" cy="254.02" rx="6.21" ry="6.46"/><path class="cls-12" d="M363.07,293.79a0.76,0.76,0,0,0,.54-0.06l-0.73-.06Z" transform="translate(-76.81 -39.76)"/><path class="cls-12" d="M364.44,293.4a6.75,6.75,0,0,0-1.63-.22c0.69,0.13.4,0.13,1.23,0.26,0.08,0.06-.24.1-0.51,0.08,0.19,0-.16.1,0.29,0.14s0.59-.16.13-0.29A2.83,2.83,0,0,1,364.44,293.4Z" transform="translate(-76.81 -39.76)"/><path class="cls-12" d="M367.71,289.38l-0.08,0Z" transform="translate(-76.81 -39.76)"/><path class="cls-12" d="M370.42,288.77a0.28,0.28,0,0,0,0,.16A0.34,0.34,0,0,0,370.42,288.77Z" transform="translate(-76.81 -39.76)"/><path class="cls-12" d="M370.85,289.56l0-.05C370.84,289.58,370.85,289.61,370.85,289.56Z" transform="translate(-76.81 -39.76)"/><path class="cls-12" d="M367.71,289.38l0.2,0.14C367.77,289.32,367.77,289.4,367.71,289.38Z" transform="translate(-76.81 -39.76)"/><path class="cls-12" d="M362.8,292.31a0.57,0.57,0,0,0,.18.1l-0.07-.07Z" transform="translate(-76.81 -39.76)"/><path class="cls-12" d="M367.24,290.65v0l0.22,0.2Z" transform="translate(-76.81 -39.76)"/><path class="cls-12" d="M366.85,291.44s-0.5-.31-0.74-0.45a1.87,1.87,0,0,1,.35.25Z" transform="translate(-76.81 -39.76)"/><path class="cls-12" d="M365.31,292.5l0.08,0Z" transform="translate(-76.81 -39.76)"/><path class="cls-12" d="M367.77,290.28l0.16,0.16Z" transform="translate(-76.81 -39.76)"/><path class="cls-12" d="M361.83,295.74l0.11,0A0.15,0.15,0,0,0,361.83,295.74Z" transform="translate(-76.81 -39.76)"/><polygon class="cls-12" points="287.88 254.03 287.91 254.04 288.26 254.05 287.88 254.03"/><path class="cls-12" d="M371.37,290.41h0C371.34,290.46,371.35,290.45,371.37,290.41Z" transform="translate(-76.81 -39.76)"/><path class="cls-12" d="M374.31,294.62c0.56,0,.66.27,1.29,0.27A6.41,6.41,0,0,0,374.31,294.62Z" transform="translate(-76.81 -39.76)"/><path class="cls-12" d="M362.88,292.28a0.1,0.1,0,0,1,0-.06S362.86,292.26,362.88,292.28Z" transform="translate(-76.81 -39.76)"/><path class="cls-12" d="M375.6,294.9h0Z" transform="translate(-76.81 -39.76)"/><path class="cls-12" d="M372.73,290.63l0.15-.23Z" transform="translate(-76.81 -39.76)"/><path class="cls-12" d="M372.07,289.31v0.09A0.16,0.16,0,0,0,372.07,289.31Z" transform="translate(-76.81 -39.76)"/><path class="cls-12" d="M373.78,290.37s-0.08.11,0,.07l0-.06C373.76,290.44,373.72,290.46,373.78,290.37Z" transform="translate(-76.81 -39.76)"/><path class="cls-12" d="M374.26,290.93l0.09-.08h0Z" transform="translate(-76.81 -39.76)"/><path class="cls-12" d="M363.93,299.54a5.15,5.15,0,0,1,.4-0.39C364,299.44,363.75,299.37,363.93,299.54Z" transform="translate(-76.81 -39.76)"/><path class="cls-12" d="M363.14,292.37a0.73,0.73,0,0,1-.26-0.08l0,0Z" transform="translate(-76.81 -39.76)"/><path class="cls-12" d="M377.25,287l0.1,0.23A0.32,0.32,0,0,0,377.25,287Z" transform="translate(-76.81 -39.76)"/><path class="cls-12" d="M373.22,302.39l0,0.09S373.23,302.46,373.22,302.39Z" transform="translate(-76.81 -39.76)"/><path class="cls-12" d="M377.89,287.66a1.6,1.6,0,0,0-.25.37l0.14-.08Z" transform="translate(-76.81 -39.76)"/><path class="cls-12" d="M364.33,299.14h0Z" transform="translate(-76.81 -39.76)"/><path class="cls-12" d="M362.28,298.69c0.1,0.21.75-.3,1.17-0.49,0.32,0.1-.46.4-0.77,0.69a9.87,9.87,0,0,1,1-.15,1.13,1.13,0,0,1-.29.2c0.63-.23.32,0.4,1.08,0.05l-0.14.14c0.3-.28.63-0.53,0.86-0.71,0.06,0.06.49-.21,0.1,0.15a0.7,0.7,0,0,0-.33.17l0.23-.08a2,2,0,0,1-.72.43c0.32,0,.92-0.28.84,0-0.53.52-.4-0.07-0.77,0.51l0.07-.35c-0.79.89,0-.16-0.89,0.77,0.05,0.39.52,0,.57,0.4,0.35-.24.43-0.44,0.77-0.69,0.8-.27-1.06,1.59-0.14,1.08,0.39-.31,1-1,0.86-0.51l-0.59.61c0.19,0.26.88-.85,0.77-0.22a2.79,2.79,0,0,1-.37.19c-0.24.65,0.4-.3,0.51-0.21l-0.41.63a10.08,10.08,0,0,0,1.26-.14,1.6,1.6,0,0,0-.33.6c0.57-.12.79,0.5,1.09,1.07l0.37-.55a0.66,0.66,0,0,1-.1.41c0.09,0.29.13-.39,0.29-0.6a0.59,0.59,0,0,1-.11.56c0.47-.44,1.06-0.93,1.24-0.21l-0.09.18c0.21,0.3.45-1.27,0.57-.64l-0.05.11c0.48,0.33,1-.24,1.43.69,0-.93.56,0.38,0.44-0.92a2.69,2.69,0,0,0,.83,1.19,5.59,5.59,0,0,0,.09-1l0.16,0.66v-0.74l0.31,0.76,0.08-.2A0.92,0.92,0,0,1,373,302c0.1-.34.6,0.31,0.73,0.63l0.14-.36,0.12-.35a1.21,1.21,0,0,1,.05.56c0-.74.32,0.64,0.31,0a2.57,2.57,0,0,1-.19-0.5c0.27,0.33.53,0.2,0.63,0l0.18,0.43a3.35,3.35,0,0,0,.94-0.81,1.62,1.62,0,0,1-.63-0.91l0.45,0.56a3.16,3.16,0,0,1-.45-0.68,1.64,1.64,0,0,1,.62.84V301c0.14,0.16.17,0.28,0.32,0.51-0.21-.4.71,0.36,0.32-0.32l0.14,0.16a3.47,3.47,0,0,0,.53-0.85,3.52,3.52,0,0,1-.54-0.85,1.35,1.35,0,0,0,1-.17,2.2,2.2,0,0,0-.62-0.66c0.45,0.33.58,0.07,0.82,0.43a1.17,1.17,0,0,0,0-1,1.4,1.4,0,0,1-.48-0.21c0-.11.28,0,0.51,0.13l0,0c-0.25-.41.23-0.43,0.68-0.52s0.87-.22.38-0.62l0,0-0.22-.29-0.23-.28a3.6,3.6,0,0,1,.74.22c-0.75-.68.32-0.64-0.2-1.13,0.85,0,.85-0.24.79-0.52s-0.22-.56.32-0.73h-0.39c-0.38-.12.23-0.11,0.32-0.18a1.61,1.61,0,0,1-.57,0,1.37,1.37,0,0,1,.13-1.27,5.56,5.56,0,0,0,.55-1.45c0-.36-2,0.32-1.2-0.3l0.73-.09a1,1,0,0,1-.69-0.8,0.88,0.88,0,0,0-.67-0.73,0.7,0.7,0,0,1,.38-0.09c0.42-.37-0.22-0.45-0.59-0.23a2.18,2.18,0,0,1,.48-0.38c0.2-.28-0.74.06-0.34-0.28a0.33,0.33,0,0,1,.21-0.06c-0.25.06-.18-0.38-0.63,0,0.1-.36-0.47-0.19-0.29-0.56-0.6.34,0-.51-0.76,0.09,0.76-.63.33-0.85-0.11-0.62,0.25-.18.13-0.31,0.47-0.56-0.14-.11-0.38-0.09-0.71.31,0.56-1.11-1.06.34-.24-0.95a14.26,14.26,0,0,1-1.76.18c0.5-.87.45,0.15,1-0.74-0.6.1-1.19,0.77-1.43,0.38a0.91,0.91,0,0,1,.34-0.5c-0.54.19-.73-0.4-1.25,0a0.66,0.66,0,0,1,.16-0.24c-0.08,0-.12-0.19-0.24.25l0.1-.1a8.19,8.19,0,0,1-.74,1.57c0.44-1.22-.22-0.39.35-1.93a1.21,1.21,0,0,0-.23.56,0.79,0.79,0,0,1,.12-0.6c-0.31.17-.32,0.67-0.53,0.62a5.07,5.07,0,0,1,.17-0.54c-0.2.4-.37,0.8-0.52,0.59a0.43,0.43,0,0,1,.09-0.29c-0.35,0-.64,1.07-0.93.64,0.13-.94-0.1-0.32-0.12-1.14l-0.2.25,0.08,0.4c-0.17,0-.28.6-0.43,0.34l0.1-.34-0.29.17,0.19,0.3c-0.12.43,0.09,1-.12,0.82a1.44,1.44,0,0,1-.27-0.47h0c0,0.27-.07.55-0.2,0.37s-0.12-.9-0.17-1.07c0,0.69-.34.24-0.27,1a4.25,4.25,0,0,0-.13-0.68l0.06,0.56A1.26,1.26,0,0,1,369,286c-0.24,0,.32,1,0,0.62a1.26,1.26,0,0,1,0-.22c-0.32-.16-0.36.46-0.66,0.29-0.35-.75.13-0.26-0.18-0.89-0.32.27-.31,1.18-0.67,1.16l0.1,0.05c0.51,1.05-.49-0.41-0.36.16a2.49,2.49,0,0,0-.22-0.47c-0.29,0-.27.5-0.31,1l-0.14-.27a0.89,0.89,0,0,0-.57.08,1.42,1.42,0,0,0,.38.57c-0.71-.52-0.74-0.17-0.69.15s0.16,0.66-.51.34a0.32,0.32,0,0,0-.15-0.23v0.43a3.32,3.32,0,0,0,.62.36,0.78,0.78,0,0,1,.29.48,2,2,0,0,0-.9-0.62c0.13,0.09.25,0.21,0.38,0.3-0.82-.41.8,0.64,0.19,0.44l-0.21-.16a0.68,0.68,0,0,1,.2.42,3.19,3.19,0,0,1-.58-0.5c-0.05.13,0.8,0.8,0.25,0.58-0.11-.13-0.08-0.19-0.19-0.33-0.64-.27-0.51-0.15-0.65-0.13h0l-0.39,0,0.19,0c1.25,0.89.07,0.43,0.88,1.07a2.8,2.8,0,0,0-1.07-.58,1.48,1.48,0,0,1-.58-0.14c0.44,0.33-.47,0,0.18.47a1.11,1.11,0,0,1-.56-0.13,1.05,1.05,0,0,0,.6.22c0.61,0.45-1,.2-0.17.82a12.56,12.56,0,0,0,1.32.88,1.85,1.85,0,0,1-.75-0.23c-0.33,0-.31.16-0.08,0.32a1.93,1.93,0,0,0-.58-0.07c0,0.11.76,0.2,0.43,0.27a7.7,7.7,0,0,1-.84-0.24c0.18,0.16.55,0.33,0.73,0.47a2.18,2.18,0,0,1-.79-0.22,1.15,1.15,0,0,0,.88.5l0.21-.06a1.55,1.55,0,0,1-.61-0.07c-0.44-.17.23-0.15,0.44-0.12L364,293c1.26,0.07-.16-0.33-0.06-0.5l0.89,0.22-0.72-.29a2.45,2.45,0,0,1,.87.18c0.46,0-.3-0.15.21-0.13a0.44,0.44,0,0,1,.15,0l-0.24-.15a1.12,1.12,0,0,1,.49.16c0.55,0-.6-0.43.08-0.31l0.05,0a7.54,7.54,0,0,0-1.34-.62l0.81,0.19L366,292l-0.63-.24a0.41,0.41,0,0,1,.34.05,5.24,5.24,0,0,0-.67-0.28c0.61,0.1-.14-0.44.86,0a2.05,2.05,0,0,1-.68-0.31c1.07,0.43-.12-0.22.41-0.1a1.67,1.67,0,0,0,.72.37c-0.87-.49.27-0.08,0.14-0.22-0.7-.38-0.2-0.32-0.36-0.58a3.06,3.06,0,0,0,.82.08l0.11,0.08c-0.64-.49-0.44-0.52-0.51-0.7a4.28,4.28,0,0,1,.66.61l0-.07a1,1,0,0,1-.31-0.39l0.45,0.4c0-.09-0.38-0.64,0-0.48a6.52,6.52,0,0,1-1.36-1.38,4.75,4.75,0,0,1,.65.69s-0.14-.22,0-0.15l0.31,0.41c0.21,0.11-.28-0.33-0.2-0.34,0.31,0.31.25,0.19,0.49,0.44,0,0-.16-0.09-0.06,0a1.41,1.41,0,0,1,.58.37,2,2,0,0,1-.41-0.5,1.91,1.91,0,0,1,.58.48,1.8,1.8,0,0,0-.35-0.55,1.79,1.79,0,0,1,.35.34,1,1,0,0,0-.32-0.73l0,0v0h0c-0.21-.67.57,0,0.58-0.29l0.11,0.19a1.51,1.51,0,0,0,0-.71,1.55,1.55,0,0,1,.35.56c0-.18-0.08-0.42.19-0.14,0.07,0.38.16,0.29,0,.29,0.18,0.12.32,0.45,0.22-.15,0.17,0.53.32,0.63,0.3,0.45l-0.2-.35c0-.1.09-0.07,0.15,0l0.21,0.7c0.22,0.39.18,0,.18-0.3s0-.57.27,0.15c0-.51-0.18-0.33-0.26-0.93a1.75,1.75,0,0,1,.26.58c0.09,0.26.16,0.52,0.17,0.52,0.16,0.39,0-1.08.14-.82a3.11,3.11,0,0,1,0-1.2,2.87,2.87,0,0,1,.16,1.3s0-.06,0-0.15a0.89,0.89,0,0,0,0,.49v-0.26a1.3,1.3,0,0,1,.18.66,0.88,0.88,0,0,0,0-.56c0.13,0.37.19,0,.3,0.26a2,2,0,0,1,0-.45c0.18,0.33.1-.49,0.25-0.6,0.05,0.4-.1.95,0.06,0.62a2.84,2.84,0,0,1-.09.9c0.15-.5.13,0.36,0.16,0.45l-0.07.2c0-.12.06-0.11,0.08-0.11l0.06-.52a0.6,0.6,0,0,1,0,.31c0.09-.33.12-0.86,0.27-1.31,0,0.27.21-.26,0.08,0.43-0.09-.26-0.13.68-0.26,0.77,0-.08.06-0.08,0.06,0a0.85,0.85,0,0,1,0,.18c0,0.63.22-.75,0.34-0.7a1.69,1.69,0,0,0-.13.65,3.17,3.17,0,0,1,.28-0.91c0,0.31.16-.2,0.2-0.14v-0.15a0.5,0.5,0,0,1,.28-0.39c-0.09.29-.13,0.17-0.15,0.31,0.31-.61-0.08.73,0.17,0.33-0.06.26-.28,0.68-0.31,0.86,0.3-.43-0.13.53,0.12,0.19a2.47,2.47,0,0,1,.44-0.79l-0.33.25,0.21-.32,0.22-.31a1.14,1.14,0,0,1-.25.14,1.88,1.88,0,0,0,.32-0.66c-0.25.76,0.37-.33,0.24,0.2l-0.6,1.15c-0.17.55,0.52-.47,0.52-0.09l0.07-.22c0.3-.42.14,0,0.31-0.14a7.38,7.38,0,0,0-.45.74,3.19,3.19,0,0,0,.62-0.58l-0.29.5c0,0.26.93-.84,1-0.61a8,8,0,0,1-.81.77s0,0.12.21-.1c-0.17.21,0.51-.33,0.25,0a1.56,1.56,0,0,1,.5-0.36l-0.15.15a2.73,2.73,0,0,0,.59-0.5c-0.43.53-.34,0.6-0.23,0.66s0.24,0.11-.18.51a0.81,0.81,0,0,1,.47.11c-0.11.06-.18,0.12-0.15,0.07-0.27.33,1.11-.57,0.82-0.18a1.86,1.86,0,0,1-.58.29c-1.24.72,0.28,0.07-.42,0.56l-0.08,0c-0.41.28,0.56-.07,0.53,0.1l-0.2.08a1.74,1.74,0,0,1,1.24,0,3.3,3.3,0,0,0-.83.24,5.44,5.44,0,0,1,1.05-.23,5.15,5.15,0,0,1-1.08.48l-0.06-.09c-0.73.28,0.06,0.12-.05,0.22l-0.33.08c0.14,0.11,1-.08,1,0.13l0.25-.07c0.86,0-.46.18,0.18,0.18l-0.85.17a3.46,3.46,0,0,1,1,.25c-0.64,0-1-.12-1.39-0.14,0,0.06.1,0.19,0.53,0.18-0.09,0-.3,0-0.17-0.07,0.7,0,1,.1,1,0.26-1.68.05-.4,0.39-1.72,0.45,0.62,0.24-.29.37-0.22,0.57a7.69,7.69,0,0,1,1.35.3c0.08,0.08,0,.1,0,0.09h-0.83a3.33,3.33,0,0,1-.57-0.18,3.51,3.51,0,0,1-.92-0.12c0.47,0.11.66,0.21,0.47,0.22l0.62,0.08c0.65,0.36-1.11-.2-0.48.14l-0.39-.18a1.65,1.65,0,0,0,.87.71,2.63,2.63,0,0,1-.57-0.25c-0.11,0,.11.25,0.26,0.45s0.23,0.37-.1.27l-0.27-.18c0.07,0.08.49,0.38,0.19,0.25a2,2,0,0,0-.29-0.19c0.09,0.07.42,0.39,0.24,0.33l-0.28-.24c-0.44-.12.57,0.76,0.6,1.06a4,4,0,0,0-1.21-.8l-0.1-.1c-0.21,0,.34.8,0.38,1.24-0.73-.75-0.61-0.11-1.06-0.53a3.39,3.39,0,0,1,.37.77c-0.13-.16.17,0.66-0.21-0.14h0c-0.42-.77-0.37-0.52-0.44-0.52l0.44,1.07c-0.43-.74-0.45-0.56-0.52-0.35s-0.13.42-.35-0.3c0,0.3,0,.31,0,0.59l-0.11-.61c-0.14-.14-0.19-0.2-0.31,0l0-.44c-0.06,0,.05,1.79-0.06,1.83l-0.07-.93c-0.18,0-.26-0.81-0.47,0a2.55,2.55,0,0,1,.07-0.44c-0.08,0-.15-0.66-0.32.61,0.12-.82-0.13-0.1-0.32.24l0.15-.59a2.75,2.75,0,0,1-.48,1.13c0-.08.1-0.48,0.1-0.32,0-.33-0.23.54-0.26,0.2l0.16-.36c-0.08-.07-0.13.13-0.33,0.54-0.15.21-.14-0.22,0.05-0.74-0.13.31-.36,0.71-0.36,0.54a1.93,1.93,0,0,1,.18-0.36c0-.43-0.53.54-0.37-0.05a3.13,3.13,0,0,0,.15-0.33,0.22,0.22,0,0,1,.15.18,9.32,9.32,0,0,1,.59-1.32c-0.22.37-.76,1.13-0.72,0.85l0.08-.18,0-.05c0-.06,0,0-0.09.05a0.37,0.37,0,0,0,0-.19c0.23-.41.05-0.26,0-0.3a6.59,6.59,0,0,0-.56.86,0.1,0.1,0,0,1,.09-0.06l0.05,0,0,0,0.13,0c-0.19.25-.38,0.45-0.24,0.13-0.24.32-.49,0.64-0.61,0.79a15.81,15.81,0,0,1,.88-1.66,2.94,2.94,0,0,0-1.24.78,0.88,0.88,0,0,1,.3-0.43,0.91,0.91,0,0,0,.23-0.15,1.51,1.51,0,0,0-.87.45c0.18-.35.58-0.47,0.38-0.5l0.2-.15c0.38-.55-0.07-0.27-0.53-0.09s-0.91.27-.32-0.34a1.16,1.16,0,0,1-.21.19c0.2-.39-0.06-0.46-0.26-0.62s-0.37-.36.12-0.74c0.18-.18-0.31,0-0.71,0l0.63-.22-0.77.08c-0.59-.08,1.5-0.66.44-0.66l-0.44.1c0.07-.1-0.3-0.24.21-0.29-0.08,0-.47,0-0.24,0l0.34,0-0.31-.07-0.3-.08c0.24-.18,1.38-0.08,1.43-0.28a5.64,5.64,0,0,0-1.25-.17,1,1,0,0,1-.56.1l-0.19-.09a7.22,7.22,0,0,0-2.78.21l0.64,0.2-0.49.1,0-.19c-0.46.13,0,.18,0.24,0.24a1.71,1.71,0,0,0-.54.13l0.49,0.07,0.49,0.06a2.58,2.58,0,0,0-1,.15,7.19,7.19,0,0,1,1.2-.06c-0.45.15-.83,0.17-0.42,0.24a1.17,1.17,0,0,1-.55,0,1.15,1.15,0,0,0,.72.25c-0.55.21,0.2,0.33-.74,0.51a2.16,2.16,0,0,1,.85.11c-1.17.09,0,.38-1.19,0.66,1-.14.61,0.37,1.23,0.41-0.08,0-.25,0-0.21,0a1.81,1.81,0,0,1-.46.47,7.21,7.21,0,0,1,1.6-.3,9.07,9.07,0,0,1-1.68.69,11.51,11.51,0,0,0,1.27-.31,3.74,3.74,0,0,1-.79.58c1-.46.22,0,0.85-0.18-0.38.41-.86,0.52-0.47,0.55A1.06,1.06,0,0,1,362.28,298.69Zm4.77,2.26h0Zm0.35,0.16a0.32,0.32,0,0,0-.14-0.1,0.76,0.76,0,0,1,.23-0.36A1.06,1.06,0,0,0,367.4,301.11Zm1.56-4c0.07-.06,0,0,0,0.16l-0.08,0,0,0.06Z" transform="translate(-76.81 -39.76)"/><path class="cls-12" d="M368.48,297.74l0,0-0.06.13,0.11-.16h0Z" transform="translate(-76.81 -39.76)"/><path class="cls-12" d="M367.62,289.32h0l-0.06-.06Z" transform="translate(-76.81 -39.76)"/><polygon class="cls-12" points="296.02 263.05 295.98 262.89 295.98 263.04 296.02 263.05"/><path class="cls-12" d="M364.94,289L364.8,289Z" transform="translate(-76.81 -39.76)"/><path class="cls-12" d="M364.35,289.66h-0.25A0.87,0.87,0,0,0,364.35,289.66Z" transform="translate(-76.81 -39.76)"/><path class="cls-12" d="M363.75,290.1l0.23,0.13h0Z" transform="translate(-76.81 -39.76)"/><path class="cls-12" d="M373.32,285.36l0,0C373.46,285.26,373.4,285.28,373.32,285.36Z" transform="translate(-76.81 -39.76)"/><path class="cls-12" d="M369.9,286.46a1.85,1.85,0,0,1,.06-0.3C369.9,286.11,369.86,286.11,369.9,286.46Z" transform="translate(-76.81 -39.76)"/><path class="cls-12" d="M377.24,286.93h0l0,0v0Z" transform="translate(-76.81 -39.76)"/><path class="cls-12" d="M370.11,286.15c-0.07-.12-0.11-0.09-0.15,0S370.07,286.25,370.11,286.15Z" transform="translate(-76.81 -39.76)"/><path class="cls-12" d="M362.65,292.92l0,0h0.1Z" transform="translate(-76.81 -39.76)"/><path class="cls-12" d="M362.72,293l0.07,0S362.79,293,362.72,293Z" transform="translate(-76.81 -39.76)"/><path class="cls-12" d="M362.94,293.1l-0.15-.09S362.76,293.07,362.94,293.1Z" transform="translate(-76.81 -39.76)"/><path class="cls-12" d="M363.08,292.06l-0.22-.06Z" transform="translate(-76.81 -39.76)"/><path class="cls-12" d="M363.08,291.77c-0.06.05-.51,0.06-0.39,0.18l0.17,0C362.54,291.88,363.43,291.92,363.08,291.77Z" transform="translate(-76.81 -39.76)"/><path class="cls-12" d="M366,291.7l-0.22.09a1.28,1.28,0,0,1,.58.22C367.08,292.08,365.84,291.85,366,291.7Z" transform="translate(-76.81 -39.76)"/><path class="cls-12" d="M366.51,291.41a1.09,1.09,0,0,0,.43.22A0.77,0.77,0,0,0,366.51,291.41Z" transform="translate(-76.81 -39.76)"/><path class="cls-12" d="M368.77,289.19L369,289.7A1.86,1.86,0,0,0,368.77,289.19Z" transform="translate(-76.81 -39.76)"/><polygon class="cls-12" points="291.63 246.43 291.44 246.13 291.56 246.63 291.63 246.43"/><polygon class="cls-12" points="293.12 250.18 293.13 250.26 293.15 250.04 293.12 250.18"/><path class="cls-12" d="M373.75,291.16l0.54-.44A1.43,1.43,0,0,0,373.75,291.16Z" transform="translate(-76.81 -39.76)"/><path class="cls-12" d="M375.24,292.78c-0.33.09-.55,0.19-0.21,0.17C375.08,292.89,375.34,292.78,375.24,292.78Z" transform="translate(-76.81 -39.76)"/><polygon class="cls-12" points="295.12 257.52 295.06 257.29 295.07 257.49 295.12 257.52"/><ellipse class="cls-10" cx="331.39" cy="340.99" rx="6.21" ry="6.46"/><ellipse class="cls-10" cx="294.61" cy="217.51" rx="6.21" ry="6.46"/><path class="cls-11" d="M227.44,363.77a6.06,6.06,0,0,0,8.64,1.62,6.63,6.63,0,0,0,1.56-9,6.06,6.06,0,0,0-8.64-1.62A6.63,6.63,0,0,0,227.44,363.77Z" transform="translate(-76.81 -39.76)"/><path class="cls-12" d="M226.23,364.59a0.76,0.76,0,0,0,.41-0.34l-0.63.36h0.22Z" transform="translate(-76.81 -39.76)"/><path class="cls-12" d="M227.15,363.5a6.76,6.76,0,0,0-1.48.72c0.65-.27.41-0.11,1.17-0.47,0.1,0-.14.22-0.38,0.35,0.17-.08-0.08.18,0.32,0,0.43-.38.41-0.46,0-0.32A2.82,2.82,0,0,1,227.15,363.5Z" transform="translate(-76.81 -39.76)"/><path class="cls-12" d="M227.64,358.32h0Z" transform="translate(-76.81 -39.76)"/><path class="cls-12" d="M229.51,356.19a0.28,0.28,0,0,0,.08.14A0.33,0.33,0,0,0,229.51,356.19Z" transform="translate(-76.81 -39.76)"/><path class="cls-12" d="M230.33,356.56l0,0S230.36,356.61,230.33,356.56Z" transform="translate(-76.81 -39.76)"/><path class="cls-12" d="M227.64,358.32h0.24C227.66,358.23,227.71,358.3,227.64,358.32Z" transform="translate(-76.81 -39.76)"/><path class="cls-12" d="M225.18,363.5a0.57,0.57,0,0,0,.2,0l-0.1,0Z" transform="translate(-76.81 -39.76)"/><path class="cls-12" d="M228,359.64v0l0.29,0Z" transform="translate(-76.81 -39.76)"/><path class="cls-12" d="M228.08,360.53s-0.59,0-.86,0a1.85,1.85,0,0,1,.42,0Z" transform="translate(-76.81 -39.76)"/><path class="cls-12" d="M227.38,362.27h0Z" transform="translate(-76.81 -39.76)"/><path class="cls-12" d="M228.2,359l0.22,0Z" transform="translate(-76.81 -39.76)"/><path class="cls-12" d="M226.31,366.91l0.08-.08A0.15,0.15,0,0,0,226.31,366.91Z" transform="translate(-76.81 -39.76)"/><polygon class="cls-12" points="150.76 323.92 150.8 323.92 151.09 323.73 150.76 323.92"/><path class="cls-12" d="M231.28,356.93h0C231.29,357,231.29,357,231.28,356.93Z" transform="translate(-76.81 -39.76)"/><path class="cls-12" d="M235.9,358.55c0.49-.28.7-0.14,1.23-0.48A6.42,6.42,0,0,0,235.9,358.55Z" transform="translate(-76.81 -39.76)"/><path class="cls-12" d="M225.23,363.43a0.1,0.1,0,0,1,0-.05S225.2,363.43,225.23,363.43Z" transform="translate(-76.81 -39.76)"/><path class="cls-12" d="M237.13,358.07h0l0,0Z" transform="translate(-76.81 -39.76)"/><path class="cls-12" d="M232.48,356.27l0-.27Z" transform="translate(-76.81 -39.76)"/><path class="cls-12" d="M231.16,355.62l0.06,0.07A0.14,0.14,0,0,0,231.16,355.62Z" transform="translate(-76.81 -39.76)"/><path class="cls-12" d="M233.14,355.45s0,0.13,0,.06v-0.08C233.17,355.51,233.15,355.55,233.14,355.45Z" transform="translate(-76.81 -39.76)"/><path class="cls-12" d="M233.84,355.6l0-.12,0,0v0.1Z" transform="translate(-76.81 -39.76)"/><path class="cls-12" d="M230.29,368.84a5.07,5.07,0,0,1,.08-0.55C230.28,368.72,230,368.82,230.29,368.84Z" transform="translate(-76.81 -39.76)"/><path class="cls-12" d="M225.49,363.36a0.73,0.73,0,0,1-.26.07l0,0Z" transform="translate(-76.81 -39.76)"/><path class="cls-12" d="M233.9,350.63l0.23,0.13A0.36,0.36,0,0,0,233.9,350.63Z" transform="translate(-76.81 -39.76)"/><path class="cls-12" d="M239.44,365.59l0,0.09S239.49,365.64,239.44,365.59Z" transform="translate(-76.81 -39.76)"/><path class="cls-12" d="M234.85,350.83a1.57,1.57,0,0,0,0,.44,1.3,1.3,0,0,0,.07-0.15Z" transform="translate(-76.81 -39.76)"/><path class="cls-12" d="M230.37,368.29h0Z" transform="translate(-76.81 -39.76)"/><path class="cls-12" d="M228.41,369.11c0.21,0.12.44-.67,0.68-1.08,0.32-.11-0.14.59-0.22,1,0.25-.12.64-0.77,0.74-0.7a1.11,1.11,0,0,1-.12.33c0.38-.55.5,0.15,0.91-0.58a1.57,1.57,0,0,1,0,.2c0.08-.4.19-0.8,0.28-1.08,0.08,0,.27-0.46.17,0.06a0.69,0.69,0,0,0-.17.33l0.14-.2a2,2,0,0,1-.33.77c0.25-.19.58-0.76,0.66-0.53-0.12.74-.36,0.17-0.32,0.86l-0.15-.33c-0.11,1.18-.12-0.11-0.26,1.15,0.28,0.28.43-.28,0.71,0,0.14-.4.08-0.61,0.21-1,0.48-.69.1,1.91,0.54,1,0.13-.49.21-1.43,0.39-0.93l-0.11.84c0.31,0.1.2-1.21,0.49-.63a2.72,2.72,0,0,1-.18.38c0.2,0.67.14-.47,0.29-0.48l0,0.75a8.43,8.43,0,0,0,.93-0.88,1.59,1.59,0,0,0,.1.68c0.38-.43.93-0.09,1.52,0.2l0-.67a0.65,0.65,0,0,1,.16.38c0.24,0.17-.13-0.39-0.14-0.66a0.59,0.59,0,0,1,.25.51c0.12-.62.28-1.38,0.86-0.91l0,0.2c0.35,0.11-.4-1.27.06-0.86l0,0.12a1.38,1.38,0,0,0,.66-0.34,0.75,0.75,0,0,1,.89,0c-0.55-.74.66,0-0.2-1a2.71,2.71,0,0,0,1.37.47,6,6,0,0,0-.52-0.85l0.52,0.43-0.43-.59,0.7,0.43-0.05-.21a0.94,0.94,0,0,1-.46-0.23c-0.12-.32.65-0.1,1,0.08l-0.1-.36-0.11-.35a1.22,1.22,0,0,1,.37.42c-0.44-.59.64,0.34,0.23-0.2a2.65,2.65,0,0,1-.45-0.3c0.41,0.11.55-.14,0.49-0.39l0.4,0.25a3.33,3.33,0,0,0,.29-1.18,1.65,1.65,0,0,1-1-.39l0.69,0.2a3.2,3.2,0,0,1-.75-0.3,1.66,1.66,0,0,1,1,.34l-0.18-.25c0.21,0.06.3,0.13,0.55,0.23-0.4-.21.79-0.1,0.08-0.44l0.21,0a3.58,3.58,0,0,0,0-1,3.55,3.55,0,0,1-.93-0.39,1.34,1.34,0,0,0,.72-0.68,2.23,2.23,0,0,0-.88-0.2c0.56,0,.52-0.26.92-0.1a1.16,1.16,0,0,0-.57-0.85,1.41,1.41,0,0,1-.52.09c-0.1-.06.23-0.17,0.5-0.18l0.06,0c-0.43-.2,0-0.48.28-0.8s0.61-.66,0-0.72h0.06l-0.35-.12-0.34-.11a3.6,3.6,0,0,1,.74-0.23c-1-.15-0.09-0.71-0.79-0.84,0.73-.44.58-0.68,0.37-0.87s-0.49-.35-0.14-0.79l-0.33.22c-0.38.11,0.13-.22,0.17-0.33a1.59,1.59,0,0,1-.46.33,1.4,1.4,0,0,1-.6-1.14,5.43,5.43,0,0,0-.38-1.52c-0.2-.32-1.48,1.39-1.16.43l0.55-.49a1,1,0,0,1-1-.28,0.91,0.91,0,0,0-1-.22,0.7,0.7,0,0,1,.27-0.29c0.12-.53-0.45-0.24-0.62.15a2.15,2.15,0,0,1,.17-0.59c0-.34-0.57.48-0.44,0a0.34,0.34,0,0,1,.14-0.18c-0.18.21-.38-0.2-0.5,0.4-0.13-.35-0.5.11-0.58-0.28-0.29.63-.32-0.41-0.57,0.51,0.24-1-.25-0.88-0.46-0.43,0.1-.29-0.08-0.33,0-0.73-0.18,0-.36.15-0.39,0.66-0.09-.61-0.28-0.39-0.43-0.2s-0.27.34-.34-0.42a17.25,17.25,0,0,1-1.31,1.21c-0.12-1,.45-0.16.33-1.19-0.42.44-.49,1.34-0.92,1.17a0.91,0.91,0,0,1,0-.61c-0.31.5-.84,0.11-1,0.76a0.65,0.65,0,0,1,0-.28c-0.06.06-.21-0.08,0,0.34l0-.14a8.11,8.11,0,0,1,.37,1.69c-0.39-1.24-.42-0.19-0.9-1.75a1.2,1.2,0,0,0,.15.58,0.79,0.79,0,0,1-.27-0.55c-0.13.34,0.16,0.73,0,.82a5.08,5.08,0,0,1-.19-0.53c0.08,0.44.19,0.86-.06,0.78a0.43,0.43,0,0,1-.11-0.28c-0.27.22,0.14,1.24-.35,1.07-0.47-.83-0.28-0.19-0.77-0.84v0.32l0.3,0.27c-0.14.09,0.13,0.64-.14,0.52l-0.13-.33-0.13.31,0.33,0.13c0.16,0.42.69,0.78,0.4,0.72a1.28,1.28,0,0,1-.49-0.21h0c0.13,0.24.27,0.48,0.06,0.41s-0.63-.65-0.77-0.76c0.44,0.53-.13.4,0.37,1a4.27,4.27,0,0,0-.51-0.47l0.38,0.41a1.27,1.27,0,0,1-.51-0.34c-0.22.1,0.84,0.62,0.34,0.52a1.26,1.26,0,0,1-.13-0.17c-0.35,0,0,.59-0.36.62-0.73-.4-0.05-0.28-0.67-0.61-0.1.4,0.45,1.13,0.14,1.31h0.11c1,0.57-.63-0.06-0.2.34a2.5,2.5,0,0,0-.45-0.26c-0.26.14,0.06,0.55,0.31,1l-0.27-.14a0.89,0.89,0,0,0-.43.38,1.44,1.44,0,0,0,.64.25c-0.88,0-.7.27-0.49,0.51s0.5,0.46-.23.56a0.33,0.33,0,0,0-.25-0.11l0.23,0.36a3.32,3.32,0,0,0,.71,0,0.78,0.78,0,0,1,.51.24,2,2,0,0,0-1.1,0c0.16,0,.33,0,0.48,0-0.91.11,1,.08,0.4,0.26l-0.27,0a0.68,0.68,0,0,1,.4.24,3.21,3.21,0,0,1-.75-0.09c0,0.14,1.11.23,0.53,0.35-0.17,0-.17-0.12-0.34-0.17-0.68.13-.51,0.15-0.61,0.25h0l-0.3.25,0.18-.07c1.54,0.05.29,0.32,1.33,0.4a2.81,2.81,0,0,0-1.21.11,1.48,1.48,0,0,1-.56.2c0.55,0-.39.26,0.41,0.28a1.11,1.11,0,0,1-.53.2,1.06,1.06,0,0,0,.63-0.14c0.75,0-.74.72,0.31,0.77a12.41,12.41,0,0,0,1.59,0,1.85,1.85,0,0,1-.75.22c-0.25.23-.17,0.31,0.11,0.32a1.92,1.92,0,0,0-.52.26c0.09,0.07.74-.26,0.51,0a7.65,7.65,0,0,1-.83.26c0.23,0,.65,0,0.87,0a2.17,2.17,0,0,1-.78.25,1.15,1.15,0,0,0,1-.07l0.14-.17a1.54,1.54,0,0,1-.55.28c-0.46.11,0.11-.25,0.3-0.35h0.16c1.09-.64-0.31-0.19-0.32-0.39l0.86-.31-0.76.16a2.45,2.45,0,0,1,.82-0.33c0.38-.26-0.33,0,0.1-0.23a0.44,0.44,0,0,1,.15-0.05h-0.29a1.12,1.12,0,0,1,.49-0.14c0.45-.32-0.74,0-0.1-0.3h0.06a7.52,7.52,0,0,0-1.46.22l0.78-.29,0.79-.27-0.65.15a0.41,0.41,0,0,1,.32-0.14,5.23,5.23,0,0,0-.71.13c0.56-.25-0.36-0.28.69-0.51a2,2,0,0,1-.74.12c1.13-.23-0.22-0.12.29-0.31a1.66,1.66,0,0,0,.81-0.08c-1,.07.18-0.22,0-0.27-0.8.07-.34-0.16-0.62-0.29a3,3,0,0,0,.73-0.39h0.13c-0.81-.05-0.65-0.19-0.81-0.3a4.22,4.22,0,0,1,.89.14v-0.08a1,1,0,0,1-.47-0.15l0.6,0.08c0-.1-0.68-0.32-0.26-0.4a6.54,6.54,0,0,1-1.91-.38,4.73,4.73,0,0,1,.93.2s-0.24-.1-0.1-0.11l0.49,0.16c0.24,0-.41-0.11-0.35-0.17,0.43,0.08.31,0,.65,0.09,0,0-.19,0,0,0.07a1.41,1.41,0,0,1,.69,0,2,2,0,0,1-.62-0.18,1.91,1.91,0,0,1,.75.07,1.74,1.74,0,0,0-.6-0.26,1.74,1.74,0,0,1,.48.08,0.94,0.94,0,0,0-.67-0.42h0l0,0h0c-0.55-.43.49-0.29,0.32-0.58l0.2,0.09a1.51,1.51,0,0,0-.39-0.6,1.55,1.55,0,0,1,.61.25c-0.1-.16-0.3-0.3.07-0.23,0.28,0.27.3,0.15,0.2,0.22,0.21,0,.52.17,0.09-0.25,0.44,0.33.63,0.32,0.52,0.19l-0.37-.16c0-.09,0-0.11.1-0.13l0.58,0.45c0.41,0.18.16-.1,0-0.36s-0.29-.49.31,0c-0.34-.39-0.34-0.15-0.75-0.59a1.65,1.65,0,0,1,.55.3c0.23,0.16.44,0.32,0.45,0.32,0.36,0.21-.67-0.84-0.37-0.75a3.14,3.14,0,0,1-.74-1,2.86,2.86,0,0,1,.91.94s-0.07,0-.13-0.09a0.87,0.87,0,0,0,.3.39l-0.16-.2a1.31,1.31,0,0,1,.54.42,0.86,0.86,0,0,0-.38-0.42c0.33,0.22.15-.11,0.4,0a1.94,1.94,0,0,1-.28-0.35c0.35,0.16-.21-0.45-0.15-0.62,0.28,0.29.49,0.81,0.42,0.46a2.78,2.78,0,0,1,.47.78c-0.18-.49.32,0.19,0.4,0.26l0.06,0.2c0-.12,0-0.13,0-0.13l-0.27-.45a0.61,0.61,0,0,1,.19.25c-0.13-.32-0.43-0.76-0.57-1.21,0.16,0.22,0-.33.32,0.29-0.22-.15.31,0.62,0.26,0.77,0-.08,0-0.09.07,0a0.86,0.86,0,0,1,.07.17c0.34,0.51-.28-0.73-0.15-0.77a1.7,1.7,0,0,0,.29.59,3.15,3.15,0,0,1-.32-0.89c0.19,0.25,0-.25.07-0.23l-0.1-.11a0.54,0.54,0,0,1,0-.49c0.1,0.28,0,.22.07,0.34-0.13-.68.38,0.63,0.34,0.16,0.11,0.24.19,0.71,0.27,0.87,0-.52.21,0.49,0.21,0.07a2.48,2.48,0,0,1-.13-0.9s-0.11.39-.11,0.4l0-.39v-0.38a1.76,1.76,0,0,1-.11.27,1.91,1.91,0,0,0-.14-0.72c0.26,0.74.1-.48,0.31,0l0.21,1.28c0.19,0.55.13-.7,0.35-0.38l-0.07-.22c0-.52.11-0.08,0.16-0.29a7.5,7.5,0,0,0,.08.86,3.45,3.45,0,0,0,.14-0.83l0.07,0.57c0.12,0.24.24-1.24,0.41-1.06a8.25,8.25,0,0,1-.19,1.1s0.07,0.1.11-.2c0,0.27.21-.56,0.2-0.15a1.58,1.58,0,0,1,.19-0.59,2,2,0,0,1,0,.21,2.84,2.84,0,0,0,.18-0.75c0,0.68.07,0.69,0.2,0.67s0.26-.06.15,0.52a0.87,0.87,0,0,1,.44-0.18c-0.05.12-.08,0.2-0.08,0.15,0,0.43.57-1.11,0.56-.62a1.89,1.89,0,0,1-.3.57c-0.59,1.31.26-.1,0,0.7l-0.06.06c-0.18.46,0.41-.38,0.49-0.22,0,0-.07.1-0.12,0.18a1.72,1.72,0,0,1,1-.73,3.33,3.33,0,0,0-.55.67,5.4,5.4,0,0,1,.73-0.79,5.11,5.11,0,0,1-.62,1l-0.1,0c-0.44.64,0.12,0.06,0.08,0.21l-0.23.26c0.18,0,.76-0.62.87-0.45l0.17-.2c0.69-.53-0.28.4,0.25,0l-0.61.62a3.42,3.42,0,0,1,1-.38c-0.55.34-.89,0.46-1.23,0.66,0,0,.18.1,0.53-0.15-0.08,0-.27.15-0.18,0,0.58-.39.91-0.49,1-0.36-1.37,1-.12.55-1.18,1.33,0.65-.15,0,0.46.13,0.59a7.73,7.73,0,0,1,1.29-.49c0.11,0,.09.06,0,0.1l-0.34.24-0.35.22a3.34,3.34,0,0,1-.58.16,3.51,3.51,0,0,1-.84.4c0.45-.17.66-0.19,0.51-0.08l0.56-.27c0.74-.06-1,0.45-0.32.39l-0.42.07a1.65,1.65,0,0,0,1.12.11,2.6,2.6,0,0,1-.61.1c-0.13.17,1.2,0.3,0.54,0.51h-0.33c0.1,0,.62,0,0.3.1a2,2,0,0,0-.35,0c0.11,0,.57.1,0.38,0.14l-0.37,0c-0.44.15,0.9,0.32,1.09,0.56a3.8,3.8,0,0,0-1.45,0l-0.13,0c-0.16.14,0.73,0.49,1,.83-1-.2-0.57.27-1.18,0.2a3.26,3.26,0,0,1,.74.42c-0.2-.05.52,0.44-0.25,0h0c-0.78-.38-0.61-0.21-0.67-0.16l1,0.62c-0.78-.35-0.71-0.19-0.63,0s0.14,0.42-.47,0c0.19,0.22.16,0.27,0.33,0.5l-0.46-.42c-0.2,0-.29-0.05-0.29.16l-0.28-.35c-0.07,0,1.11,1.41,1,1.51l-0.61-.7c-0.13.13-.7-0.47-0.36,0.31a2.46,2.46,0,0,1-.21-0.39c-0.07,0-.51-0.42.11,0.69-0.4-.73-0.17,0-0.11.38l-0.25-.56a2.73,2.73,0,0,1,.3,1.19c-0.06-.06-0.21-0.45-0.11-0.31-0.21-.27.14,0.57-0.09,0.31l-0.09-.38c-0.1,0,0,.18.07,0.64,0,0.26-.25-0.09-0.41-0.62,0.08,0.33.15,0.78,0,.64a1.92,1.92,0,0,1-.08-0.4c-0.24-.36-0.09.76-0.33,0.18a3.19,3.19,0,0,0-.08-0.36,0.24,0.24,0,0,1,.23.06,9.39,9.39,0,0,1-.33-1.4c0.05,0.42.08,1.35-.05,1.11l0-.19V364.1c0-.05,0,0,0,0.1a0.39,0.39,0,0,0-.09-0.16c-0.06-.46-0.11-0.25-0.16-0.27a6.72,6.72,0,0,0,.07,1,0.1,0.1,0,0,1,0-.1,0.17,0.17,0,0,0,0-.06v0.05l0.12,0c0,0.31,0,.58-0.12.24,0,0.4,0,.81,0,1a15.34,15.34,0,0,1-.29-1.84,3,3,0,0,0-.52,1.36,0.9,0.9,0,0,1,0-.52,0.9,0.9,0,0,0,.1-0.25,1.51,1.51,0,0,0-.42.88c-0.06-.38.19-0.73,0-0.62l0.07-.24c0-.67-0.21-0.19-0.47.24s-0.57.75-.45-0.08a1.15,1.15,0,0,1-.06.28c-0.07-.42-0.31-0.34-0.57-0.35s-0.5-.08-0.31-0.67c0.05-.25-0.27.16-0.58,0.42l0.39-.53-0.58.51c-0.53.26,0.87-1.38,0-.79l-0.3.33c0-.12-0.38,0,0-0.36-0.07,0-.37.28-0.22,0.11l0.26-.23-0.3.12-0.3.1a13.84,13.84,0,0,0,1-1,5.81,5.81,0,0,0-1.14.55,1.05,1.05,0,0,1-.41.4l-0.2,0a7.14,7.14,0,0,0-2.19,1.72l0.64-.19-0.36.35-0.14-.13c-0.31.36,0.06,0.18,0.33,0.06a1.69,1.69,0,0,0-.38.41l0.45-.21,0.44-.22a2.54,2.54,0,0,0-.75.68,7.14,7.14,0,0,1,1-.72c-0.29.37-.59,0.61-0.21,0.43a1.16,1.16,0,0,1-.45.32,1.14,1.14,0,0,0,.74-0.2c-0.34.48,0.35,0.16-.32,0.84a2.15,2.15,0,0,1,.77-0.38c-0.92.74,0.24,0.3-.6,1.22,0.77-.7.72,0,1.26-0.35-0.06.06-.18,0.18-0.16,0.12a1.82,1.82,0,0,1-.11.66,7.19,7.19,0,0,1,1.14-1.17,8.89,8.89,0,0,1-1,1.52,11,11,0,0,0,.86-1,3.72,3.72,0,0,1-.31.93c0.53-.94.2-0.09,0.6-0.64-0.07.55-.4,0.93-0.06,0.72A1,1,0,0,1,228.41,369.11Zm5.25-1h0l-0.09,0ZM234,368a0.32,0.32,0,0,0-.17,0,0.75,0.75,0,0,1,0-.42A1.07,1.07,0,0,0,234,368Zm-1.19-4.15c0-.09,0,0,0.06.16a0.21,0.21,0,0,0,0,.08v0.08Z" transform="translate(-76.81 -39.76)"/><path class="cls-12" d="M232.86,364.69a0.18,0.18,0,0,1,0,0l0,0.14v-0.19h0Z" transform="translate(-76.81 -39.76)"/><path class="cls-12" d="M227.54,358.32h0l-0.09,0Z" transform="translate(-76.81 -39.76)"/><polygon class="cls-12" points="162.56 326.38 162.44 326.28 162.52 326.4 162.56 326.38"/><path class="cls-12" d="M225.15,359.59l-0.16,0Z" transform="translate(-76.81 -39.76)"/><path class="cls-12" d="M225,360.43l-0.21.13A0.87,0.87,0,0,0,225,360.43Z" transform="translate(-76.81 -39.76)"/><path class="cls-12" d="M224.76,361.13l0.26,0h0Z" transform="translate(-76.81 -39.76)"/><path class="cls-12" d="M229.76,351.74a0.06,0.06,0,0,0,0,0C229.81,351.56,229.78,351.62,229.76,351.74Z" transform="translate(-76.81 -39.76)"/><path class="cls-12" d="M227.71,354.66a1.85,1.85,0,0,1-.13-0.28C227.51,354.38,227.47,354.4,227.71,354.66Z" transform="translate(-76.81 -39.76)"/><path class="cls-12" d="M233.88,350.62h0Z" transform="translate(-76.81 -39.76)"/><path class="cls-12" d="M227.69,354.28c-0.12-.05-0.14,0-0.11.09S227.72,354.39,227.69,354.28Z" transform="translate(-76.81 -39.76)"/><path class="cls-12" d="M225.39,364.09v0l0.09,0h-0.08Z" transform="translate(-76.81 -39.76)"/><path class="cls-12" d="M225.48,364.09h0.08S225.54,364.07,225.48,364.09Z" transform="translate(-76.81 -39.76)"/><path class="cls-12" d="M225.74,364.08h-0.18S225.57,364.15,225.74,364.08Z" transform="translate(-76.81 -39.76)"/><path class="cls-12" d="M225.27,363.13l-0.21.07Z" transform="translate(-76.81 -39.76)"/><path class="cls-12" d="M225.12,362.89c0,0.08-.39.33-0.23,0.37l0.17-.06C224.73,363.28,225.49,362.82,225.12,362.89Z" transform="translate(-76.81 -39.76)"/><path class="cls-12" d="M227.51,361.22l-0.14.19a1.28,1.28,0,0,1,.6-0.13C228.63,360.95,227.47,361.44,227.51,361.22Z" transform="translate(-76.81 -39.76)"/><path class="cls-12" d="M227.78,360.7a1.09,1.09,0,0,0,.48-0.05A0.77,0.77,0,0,0,227.78,360.7Z" transform="translate(-76.81 -39.76)"/><path class="cls-12" d="M228.41,357.54l0.49,0.28A1.81,1.81,0,0,0,228.41,357.54Z" transform="translate(-76.81 -39.76)"/><polygon class="cls-12" points="149.58 315.53 149.25 315.4 149.64 315.74 149.58 315.53"/><polygon class="cls-12" points="153 317.68 153.04 317.74 152.94 317.55 153 317.68"/><path class="cls-12" d="M233.57,356.09l0.18-.67A1.45,1.45,0,0,0,233.57,356.09Z" transform="translate(-76.81 -39.76)"/><path class="cls-12" d="M235.67,356.52c-0.22.26-.34,0.46-0.08,0.25C235.59,356.71,235.75,356.48,235.67,356.52Z" transform="translate(-76.81 -39.76)"/><polygon class="cls-12" points="158.58 322.44 158.41 322.29 158.53 322.44 158.58 322.44"/><path class="cls-10" d="M185.29,391.84a6.06,6.06,0,0,0,8.64,1.62,6.63,6.63,0,0,0,1.56-9,6.06,6.06,0,0,0-8.64-1.62A6.63,6.63,0,0,0,185.29,391.84Z" transform="translate(-76.81 -39.76)"/><ellipse class="cls-11" cx="187.13" cy="238.44" rx="6.21" ry="6.46"/><path class="cls-12" d="M256.27,278.2a0.76,0.76,0,0,0,.54-0.06l-0.73-.06Z" transform="translate(-76.81 -39.76)"/><path class="cls-12" d="M257.63,277.81a6.76,6.76,0,0,0-1.63-.22c0.69,0.13.4,0.13,1.23,0.26,0.08,0.06-.24.1-0.51,0.08,0.19,0-.16.1,0.29,0.14s0.59-.16.13-0.29A2.83,2.83,0,0,1,257.63,277.81Z" transform="translate(-76.81 -39.76)"/><path class="cls-12" d="M260.91,273.79l-0.08,0Z" transform="translate(-76.81 -39.76)"/><path class="cls-12" d="M263.62,273.18a0.28,0.28,0,0,0,0,.16A0.33,0.33,0,0,0,263.62,273.18Z" transform="translate(-76.81 -39.76)"/><path class="cls-12" d="M264.05,274l0-.05C264,274,264,274,264.05,274Z" transform="translate(-76.81 -39.76)"/><path class="cls-12" d="M260.91,273.79l0.2,0.14C261,273.73,261,273.81,260.91,273.79Z" transform="translate(-76.81 -39.76)"/><path class="cls-12" d="M256,276.72a0.57,0.57,0,0,0,.18.1l-0.07-.07Z" transform="translate(-76.81 -39.76)"/><path class="cls-12" d="M260.44,275.06v0l0.22,0.2Z" transform="translate(-76.81 -39.76)"/><path class="cls-12" d="M260,275.85s-0.5-.31-0.74-0.45a1.87,1.87,0,0,1,.35.25Z" transform="translate(-76.81 -39.76)"/><path class="cls-12" d="M258.5,276.91l0.08,0Z" transform="translate(-76.81 -39.76)"/><path class="cls-12" d="M261,274.69l0.16,0.16Z" transform="translate(-76.81 -39.76)"/><path class="cls-12" d="M255,280.15l0.11,0A0.15,0.15,0,0,0,255,280.15Z" transform="translate(-76.81 -39.76)"/><polygon class="cls-12" points="181.07 238.44 181.11 238.45 181.46 238.46 181.07 238.44"/><path class="cls-12" d="M264.57,274.82h0C264.54,274.87,264.55,274.86,264.57,274.82Z" transform="translate(-76.81 -39.76)"/><path class="cls-12" d="M267.51,279c0.56,0,.66.27,1.29,0.27A6.41,6.41,0,0,0,267.51,279Z" transform="translate(-76.81 -39.76)"/><path class="cls-12" d="M256.08,276.69a0.1,0.1,0,0,1,0-.06S256.06,276.67,256.08,276.69Z" transform="translate(-76.81 -39.76)"/><path class="cls-12" d="M268.8,279.31h0Z" transform="translate(-76.81 -39.76)"/><path class="cls-12" d="M265.93,275l0.15-.23Z" transform="translate(-76.81 -39.76)"/><path class="cls-12" d="M265.27,273.72v0.09A0.16,0.16,0,0,0,265.27,273.72Z" transform="translate(-76.81 -39.76)"/><path class="cls-12" d="M267,274.78s-0.08.11,0,.07l0-.06C267,274.85,266.92,274.87,267,274.78Z" transform="translate(-76.81 -39.76)"/><path class="cls-12" d="M267.45,275.34l0.09-.08h0Z" transform="translate(-76.81 -39.76)"/><path class="cls-12" d="M257.13,284a5.15,5.15,0,0,1,.4-0.39C257.19,283.85,256.94,283.78,257.13,284Z" transform="translate(-76.81 -39.76)"/><path class="cls-12" d="M256.33,276.78a0.73,0.73,0,0,1-.26-0.08l0,0Z" transform="translate(-76.81 -39.76)"/><path class="cls-12" d="M270.45,271.36l0.1,0.23A0.32,0.32,0,0,0,270.45,271.36Z" transform="translate(-76.81 -39.76)"/><path class="cls-12" d="M266.42,286.8l0,0.09S266.43,286.87,266.42,286.8Z" transform="translate(-76.81 -39.76)"/><path class="cls-12" d="M271.09,272.07a1.6,1.6,0,0,0-.25.37l0.14-.08Z" transform="translate(-76.81 -39.76)"/><path class="cls-12" d="M257.53,283.55h0Z" transform="translate(-76.81 -39.76)"/><path class="cls-12" d="M255.48,283.1c0.1,0.21.75-.3,1.17-0.49,0.32,0.1-.46.4-0.77,0.69a9.87,9.87,0,0,1,1-.15,1.13,1.13,0,0,1-.29.2c0.63-.23.32,0.4,1.08,0.05l-0.14.14c0.3-.28.63-0.53,0.86-0.71,0.06,0.06.49-.21,0.1,0.15a0.7,0.7,0,0,0-.33.17l0.23-.08a2,2,0,0,1-.72.43c0.32,0,.92-0.28.84,0-0.53.52-.4-0.07-0.77,0.51l0.07-.35c-0.79.89,0-.16-0.89,0.77,0.05,0.39.52,0,.57,0.4,0.35-.24.43-0.44,0.77-0.69,0.8-.27-1.06,1.59-0.14,1.08,0.39-.31,1-1,0.86-0.51l-0.59.61c0.19,0.26.88-.85,0.77-0.22a2.8,2.8,0,0,1-.37.19c-0.24.65,0.4-.3,0.51-0.21l-0.41.63a10.09,10.09,0,0,0,1.26-.14,1.6,1.6,0,0,0-.33.6c0.57-.12.79,0.5,1.09,1.07l0.37-.55a0.66,0.66,0,0,1-.1.41c0.09,0.29.13-.39,0.29-0.6a0.59,0.59,0,0,1-.11.56c0.47-.44,1.06-0.93,1.24-0.21l-0.09.18c0.21,0.3.45-1.27,0.57-.64l-0.05.11c0.48,0.33,1-.24,1.43.69,0-.93.56,0.38,0.44-0.92a2.69,2.69,0,0,0,.83,1.19,5.59,5.59,0,0,0,.09-1l0.16,0.66v-0.74l0.31,0.76,0.08-.2a0.92,0.92,0,0,1-.24-0.45c0.1-.34.6,0.31,0.73,0.63l0.14-.36,0.12-.35a1.21,1.21,0,0,1,.06.56c0-.74.32,0.64,0.31,0a2.57,2.57,0,0,1-.19-0.5c0.27,0.33.53,0.2,0.63,0l0.18,0.43a3.35,3.35,0,0,0,.94-0.81,1.62,1.62,0,0,1-.63-0.91l0.45,0.56a3.16,3.16,0,0,1-.45-0.68,1.64,1.64,0,0,1,.62.84v-0.31c0.14,0.16.17,0.28,0.32,0.51-0.21-.4.71,0.36,0.32-0.32l0.14,0.16a3.47,3.47,0,0,0,.53-0.85,3.52,3.52,0,0,1-.54-0.85,1.35,1.35,0,0,0,1-.17,2.2,2.2,0,0,0-.62-0.66c0.45,0.33.58,0.07,0.82,0.43a1.17,1.17,0,0,0,0-1,1.4,1.4,0,0,1-.48-0.21c0-.11.28,0,0.51,0.13l0,0c-0.25-.41.23-0.43,0.68-0.52s0.87-.22.38-0.62l0,0-0.22-.29-0.23-.28a3.6,3.6,0,0,1,.74.22c-0.75-.68.32-0.64-0.2-1.13,0.85,0,.85-0.24.79-0.52s-0.22-.56.32-0.73H273c-0.38-.12.23-0.11,0.32-0.18a1.61,1.61,0,0,1-.57,0,1.36,1.36,0,0,1,.13-1.27,5.56,5.56,0,0,0,.55-1.45c0-.36-2,0.32-1.2-0.3l0.73-.09a1,1,0,0,1-.69-0.8,0.88,0.88,0,0,0-.67-0.73,0.7,0.7,0,0,1,.38-0.09c0.42-.37-0.22-0.45-0.59-0.23a2.18,2.18,0,0,1,.48-0.38c0.2-.28-0.74.06-0.34-0.28a0.33,0.33,0,0,1,.21-0.06c-0.25.06-.18-0.38-0.63,0,0.1-.36-0.47-0.19-0.29-0.56-0.6.34,0-.51-0.76,0.09,0.76-.63.33-0.85-0.11-0.62,0.25-.18.13-0.31,0.47-0.56-0.14-.11-0.38-0.09-0.71.31,0.56-1.11-1.06.34-.24-0.95a14.26,14.26,0,0,1-1.76.18c0.5-.87.45,0.15,1-0.74-0.6.1-1.19,0.77-1.43,0.38a0.91,0.91,0,0,1,.34-0.5c-0.54.19-.73-0.4-1.25,0a0.66,0.66,0,0,1,.16-0.24c-0.08,0-.12-0.19-0.24.25l0.1-.1a8.19,8.19,0,0,1-.74,1.57c0.44-1.22-.22-0.39.35-1.93a1.21,1.21,0,0,0-.23.56,0.79,0.79,0,0,1,.12-0.6c-0.31.17-.32,0.67-0.53,0.62a5.07,5.07,0,0,1,.17-0.54c-0.2.4-.37,0.8-0.52,0.59a0.43,0.43,0,0,1,.09-0.29c-0.35,0-.64,1.07-0.93.64,0.13-.94-0.1-0.32-0.12-1.14l-0.2.25,0.08,0.4c-0.17,0-.28.6-0.43,0.34l0.1-.34-0.29.17,0.19,0.3c-0.12.43,0.09,1-.12,0.82a1.44,1.44,0,0,1-.27-0.47h0c0,0.27-.07.55-0.2,0.37s-0.12-.9-0.17-1.07c0,0.69-.34.24-0.27,1a4.25,4.25,0,0,0-.13-0.68l0.06,0.56a1.26,1.26,0,0,1-.21-0.57c-0.24,0,.32,1,0,0.62a1.26,1.26,0,0,1,0-.22c-0.32-.16-0.36.46-0.66,0.29-0.35-.75.13-0.26-0.18-0.89-0.32.27-.31,1.18-0.67,1.16l0.1,0.05c0.51,1.05-.49-0.41-0.36.16a2.49,2.49,0,0,0-.22-0.47c-0.29,0-.27.5-0.31,1l-0.14-.27a0.89,0.89,0,0,0-.57.08,1.42,1.42,0,0,0,.38.57c-0.71-.52-0.74-0.17-0.69.15s0.16,0.66-.51.34a0.32,0.32,0,0,0-.15-0.23v0.43a3.32,3.32,0,0,0,.62.36,0.78,0.78,0,0,1,.29.48,2,2,0,0,0-.9-0.62c0.13,0.09.25,0.21,0.38,0.3-0.82-.41.8,0.64,0.19,0.44L258.5,274a0.68,0.68,0,0,1,.2.42,3.19,3.19,0,0,1-.58-0.5c-0.05.13,0.8,0.8,0.25,0.58-0.11-.13-0.08-0.19-0.19-0.33-0.64-.27-0.51-0.15-0.65-0.13h0l-0.39,0,0.19,0c1.25,0.89.07,0.43,0.88,1.07a2.8,2.8,0,0,0-1.07-.58,1.48,1.48,0,0,1-.58-0.14c0.44,0.33-.47,0,0.18.47a1.11,1.11,0,0,1-.56-0.13,1.05,1.05,0,0,0,.6.22c0.61,0.45-1,.2-0.17.82a12.56,12.56,0,0,0,1.32.88,1.85,1.85,0,0,1-.75-0.23c-0.33,0-.31.16-0.08,0.32a1.93,1.93,0,0,0-.58-0.07c0,0.11.76,0.2,0.43,0.27a7.69,7.69,0,0,1-.84-0.24c0.18,0.16.55,0.33,0.73,0.47a2.18,2.18,0,0,1-.79-0.22,1.15,1.15,0,0,0,.88.5l0.21-.06a1.55,1.55,0,0,1-.61-0.07c-0.44-.17.23-0.15,0.44-0.12l0.13,0.1c1.26,0.07-.16-0.33-0.06-0.5l0.89,0.22-0.72-.29a2.45,2.45,0,0,1,.87.18c0.46,0-.3-0.15.21-0.13a0.44,0.44,0,0,1,.15,0l-0.24-.15a1.12,1.12,0,0,1,.49.16c0.55,0-.6-0.43.08-0.31l0.05,0a7.54,7.54,0,0,0-1.34-.62l0.81,0.19,0.8,0.21-0.63-.24a0.41,0.41,0,0,1,.34.05,5.24,5.24,0,0,0-.67-0.28c0.61,0.1-.14-0.44.86,0a2.05,2.05,0,0,1-.68-0.31c1.07,0.43-.12-0.22.41-0.1a1.67,1.67,0,0,0,.72.37c-0.87-.49.27-0.08,0.14-0.22-0.7-.38-0.2-0.32-0.36-0.58a3.07,3.07,0,0,0,.82.08l0.11,0.08c-0.64-.49-0.44-0.52-0.51-0.7a4.28,4.28,0,0,1,.66.61l0-.07a1,1,0,0,1-.31-0.39l0.45,0.4c0-.09-0.38-0.64,0-0.48a6.53,6.53,0,0,1-1.36-1.38,4.75,4.75,0,0,1,.65.69s-0.14-.22,0-0.15l0.31,0.41c0.21,0.11-.28-0.33-0.2-0.34,0.31,0.31.25,0.19,0.49,0.44,0,0-.16-0.09-0.06,0a1.41,1.41,0,0,1,.58.37,2,2,0,0,1-.41-0.5,1.91,1.91,0,0,1,.58.48,1.8,1.8,0,0,0-.35-0.55,1.79,1.79,0,0,1,.35.34,1,1,0,0,0-.32-0.73l0,0v0h0c-0.21-.67.57,0,0.58-0.29l0.11,0.19a1.51,1.51,0,0,0,0-.71,1.55,1.55,0,0,1,.35.56c0-.18-0.08-0.42.19-0.14,0.07,0.38.16,0.29,0,.29,0.18,0.12.32,0.45,0.22-.15,0.17,0.53.32,0.63,0.3,0.45l-0.2-.35c0-.1.09-0.07,0.15,0l0.21,0.7c0.22,0.39.18,0,.18-0.3s0-.57.27,0.15c0-.51-0.18-0.33-0.26-0.93a1.75,1.75,0,0,1,.26.58c0.09,0.26.16,0.52,0.17,0.52,0.16,0.39,0-1.08.14-.82a3.11,3.11,0,0,1,0-1.2,2.87,2.87,0,0,1,.16,1.3s0-.06,0-0.15a0.89,0.89,0,0,0,0,.49v-0.26a1.3,1.3,0,0,1,.18.66,0.88,0.88,0,0,0,0-.56c0.13,0.37.19,0,.3,0.26a2,2,0,0,1,0-.45c0.18,0.33.1-.49,0.25-0.6,0.05,0.4-.1.95,0.06,0.62a2.83,2.83,0,0,1-.09.9c0.15-.5.13,0.36,0.16,0.45l-0.07.2c0-.12.06-0.11,0.08-0.11l0.06-.52a0.6,0.6,0,0,1,0,.31c0.09-.33.12-0.86,0.27-1.31,0,0.27.21-.26,0.08,0.43-0.09-.26-0.13.68-0.26,0.77,0-.08.06-0.08,0.06,0a0.85,0.85,0,0,1,0,.18c0,0.63.22-.75,0.34-0.7a1.69,1.69,0,0,0-.13.65,3.17,3.17,0,0,1,.28-0.91c0,0.31.16-.2,0.2-0.14v-0.15a0.5,0.5,0,0,1,.28-0.39c-0.09.29-.13,0.17-0.15,0.31,0.31-.61-0.08.73,0.17,0.33-0.06.26-.28,0.68-0.31,0.86,0.3-.43-0.13.53,0.12,0.19a2.47,2.47,0,0,1,.44-0.79l-0.33.25,0.21-.32,0.22-.31a1.14,1.14,0,0,1-.25.14,1.88,1.88,0,0,0,.32-0.66c-0.25.76,0.37-.33,0.24,0.2l-0.6,1.15c-0.17.55,0.52-.47,0.52-0.09l0.07-.22c0.3-.42.14,0,0.31-0.14a7.39,7.39,0,0,0-.45.74,3.19,3.19,0,0,0,.62-0.58l-0.29.5c0,0.26.93-.84,1-0.61a8,8,0,0,1-.81.77s0,0.12.21-.1c-0.17.21,0.51-.33,0.25,0a1.56,1.56,0,0,1,.5-0.36l-0.15.15a2.73,2.73,0,0,0,.59-0.5c-0.43.53-.34,0.6-0.23,0.66s0.24,0.11-.18.51a0.81,0.81,0,0,1,.47.11c-0.11.06-.18,0.12-0.15,0.07-0.27.33,1.11-.57,0.82-0.18a1.86,1.86,0,0,1-.58.29c-1.24.72,0.28,0.07-.42,0.56l-0.08,0c-0.41.28,0.56-.07,0.53,0.1l-0.2.08a1.74,1.74,0,0,1,1.24,0,3.3,3.3,0,0,0-.83.24,5.44,5.44,0,0,1,1.05-.23,5.15,5.15,0,0,1-1.08.48l-0.06-.09c-0.73.28,0.06,0.12-.05,0.22l-0.33.08c0.14,0.11,1-.08,1,0.13l0.25-.07c0.86,0-.46.18,0.18,0.18l-0.85.17a3.46,3.46,0,0,1,1,.25c-0.64,0-1-.12-1.39-0.14,0,0.06.1,0.19,0.53,0.18-0.09,0-.3,0-0.17-0.07,0.7,0,1,.1,1,0.26-1.68.05-.4,0.39-1.72,0.45,0.62,0.24-.29.37-0.22,0.57a7.69,7.69,0,0,1,1.35.3c0.08,0.08,0,.1,0,0.09H268a3.33,3.33,0,0,1-.57-0.18,3.51,3.51,0,0,1-.92-0.12c0.47,0.11.66,0.21,0.47,0.22l0.62,0.08c0.65,0.36-1.11-.2-0.48.14l-0.39-.18a1.65,1.65,0,0,0,.87.71,2.64,2.64,0,0,1-.57-0.25c-0.11,0,.11.25,0.26,0.45s0.23,0.37-.1.27l-0.27-.18c0.07,0.08.49,0.38,0.19,0.25a2,2,0,0,0-.29-0.19c0.09,0.07.42,0.39,0.24,0.33l-0.28-.24c-0.44-.12.57,0.76,0.6,1.06a4,4,0,0,0-1.21-.8l-0.1-.1c-0.21,0,.34.8,0.38,1.24-0.73-.75-0.61-0.11-1.06-0.53a3.39,3.39,0,0,1,.37.77c-0.13-.16.17,0.66-0.21-0.14h0c-0.42-.77-0.37-0.52-0.44-0.52l0.44,1.07c-0.43-.74-0.45-0.56-0.52-0.35s-0.13.42-.35-0.3c0,0.3,0,.31,0,0.59l-0.11-.61c-0.14-.14-0.19-0.2-0.31,0l0-.44c-0.06,0,.05,1.79-0.06,1.83l-0.07-.93c-0.18,0-.26-0.81-0.47,0a2.55,2.55,0,0,1,.07-0.44c-0.08,0-.15-0.66-0.32.61,0.12-.82-0.13-0.1-0.32.24l0.15-.59a2.75,2.75,0,0,1-.48,1.13c0-.08.1-0.48,0.1-0.32,0-.33-0.23.54-0.26,0.2l0.16-.36c-0.08-.07-0.13.13-0.33,0.54-0.15.21-.14-0.22,0.05-0.74-0.13.31-.36,0.71-0.36,0.54a1.92,1.92,0,0,1,.18-0.36c0-.43-0.53.54-0.37-0.05a3.14,3.14,0,0,0,.15-0.33,0.22,0.22,0,0,1,.15.18,9.32,9.32,0,0,1,.59-1.32c-0.22.37-.76,1.13-0.72,0.85l0.08-.18,0-.05c0-.06,0,0-0.09.05a0.37,0.37,0,0,0,0-.19c0.23-.41.05-0.26,0-0.3a6.6,6.6,0,0,0-.56.86,0.1,0.1,0,0,1,.09-0.06l0.05,0,0,0,0.13,0c-0.19.25-.38,0.45-0.24,0.13-0.24.32-.49,0.64-0.61,0.79a15.8,15.8,0,0,1,.88-1.66,2.94,2.94,0,0,0-1.24.78,0.88,0.88,0,0,1,.3-0.43,0.91,0.91,0,0,0,.23-0.15,1.51,1.51,0,0,0-.87.45c0.18-.35.58-0.47,0.38-0.5l0.2-.15c0.38-.55-0.07-0.27-0.53-0.09s-0.91.27-.32-0.34a1.16,1.16,0,0,1-.21.19c0.2-.39-0.06-0.46-0.26-0.62s-0.37-.36.12-0.74c0.18-.18-0.31,0-0.71,0l0.63-.22-0.77.08c-0.59-.08,1.5-0.66.44-0.66l-0.44.1c0.07-.1-0.3-0.24.21-0.29-0.08,0-.47,0-0.24,0l0.34,0-0.31-.07-0.3-.08c0.24-.18,1.38-0.08,1.43-0.28a5.64,5.64,0,0,0-1.25-.17,1,1,0,0,1-.56.1l-0.19-.09a7.22,7.22,0,0,0-2.78.21l0.64,0.2-0.49.1,0-.19c-0.46.13,0,.18,0.24,0.24a1.71,1.71,0,0,0-.54.13l0.49,0.07,0.49,0.06a2.58,2.58,0,0,0-1,.15,7.19,7.19,0,0,1,1.2-.06c-0.45.15-.83,0.17-0.42,0.24a1.17,1.17,0,0,1-.55,0,1.15,1.15,0,0,0,.72.25c-0.55.21,0.2,0.33-.74,0.51a2.16,2.16,0,0,1,.85.11c-1.17.09,0,.38-1.19,0.66,1-.14.61,0.37,1.23,0.41-0.08,0-.25,0-0.21,0a1.81,1.81,0,0,1-.46.47,7.21,7.21,0,0,1,1.6-.3,9.07,9.07,0,0,1-1.68.69,11.51,11.51,0,0,0,1.27-.31,3.74,3.74,0,0,1-.79.58c1-.46.22,0,0.85-0.18-0.38.41-.86,0.52-0.47,0.55A1.06,1.06,0,0,1,255.48,283.1Zm4.77,2.26h0Zm0.35,0.16a0.32,0.32,0,0,0-.14-0.1,0.76,0.76,0,0,1,.23-0.36A1.06,1.06,0,0,0,260.6,285.52Zm1.56-4c0.07-.06,0,0,0,0.16l-0.08,0,0,0.06Z" transform="translate(-76.81 -39.76)"/><path class="cls-12" d="M261.68,282.15l0,0-0.06.13,0.11-.16h0Z" transform="translate(-76.81 -39.76)"/><path class="cls-12" d="M260.82,273.73h0l-0.06-.06Z" transform="translate(-76.81 -39.76)"/><polygon class="cls-12" points="189.22 247.46 189.18 247.31 189.18 247.45 189.22 247.46"/><path class="cls-12" d="M258.14,273.44l-0.14-.07Z" transform="translate(-76.81 -39.76)"/><path class="cls-12" d="M257.54,274.07h-0.25A0.87,0.87,0,0,0,257.54,274.07Z" transform="translate(-76.81 -39.76)"/><path class="cls-12" d="M256.95,274.51l0.23,0.13h0Z" transform="translate(-76.81 -39.76)"/><path class="cls-12" d="M266.51,269.77l0,0C266.65,269.67,266.59,269.69,266.51,269.77Z" transform="translate(-76.81 -39.76)"/><path class="cls-12" d="M263.1,270.87a1.85,1.85,0,0,1,.06-0.3C263.1,270.52,263.05,270.52,263.1,270.87Z" transform="translate(-76.81 -39.76)"/><path class="cls-12" d="M270.44,271.34h0l0,0v0Z" transform="translate(-76.81 -39.76)"/><path class="cls-12" d="M263.31,270.56c-0.07-.12-0.11-0.09-0.15,0S263.27,270.66,263.31,270.56Z" transform="translate(-76.81 -39.76)"/><path class="cls-12" d="M255.85,277.33l0,0h0.1Z" transform="translate(-76.81 -39.76)"/><path class="cls-12" d="M255.92,277.38l0.07,0S256,277.39,255.92,277.38Z" transform="translate(-76.81 -39.76)"/><path class="cls-12" d="M256.14,277.51l-0.15-.09S256,277.48,256.14,277.51Z" transform="translate(-76.81 -39.76)"/><path class="cls-12" d="M256.27,276.47l-0.22-.06Z" transform="translate(-76.81 -39.76)"/><path class="cls-12" d="M256.27,276.18c-0.06.05-.51,0.06-0.39,0.18l0.17,0C255.74,276.29,256.63,276.33,256.27,276.18Z" transform="translate(-76.81 -39.76)"/><path class="cls-12" d="M259.2,276.11l-0.22.09a1.28,1.28,0,0,1,.58.22C260.28,276.49,259,276.26,259.2,276.11Z" transform="translate(-76.81 -39.76)"/><path class="cls-12" d="M259.71,275.82a1.09,1.09,0,0,0,.43.22A0.77,0.77,0,0,0,259.71,275.82Z" transform="translate(-76.81 -39.76)"/><path class="cls-12" d="M262,273.6l0.24,0.51A1.86,1.86,0,0,0,262,273.6Z" transform="translate(-76.81 -39.76)"/><polygon class="cls-12" points="184.83 230.84 184.63 230.54 184.76 231.04 184.83 230.84"/><polygon class="cls-12" points="186.32 234.59 186.32 234.67 186.35 234.45 186.32 234.59"/><path class="cls-12" d="M266.95,275.57l0.54-.44A1.43,1.43,0,0,0,266.95,275.57Z" transform="translate(-76.81 -39.76)"/><path class="cls-12" d="M268.44,277.19c-0.33.09-.55,0.19-0.21,0.17C268.28,277.3,268.54,277.2,268.44,277.19Z" transform="translate(-76.81 -39.76)"/><polygon class="cls-12" points="188.31 241.93 188.26 241.7 188.27 241.9 188.31 241.93"/><ellipse class="cls-10" cx="227.28" cy="273.55" rx="6.21" ry="6.46"/><ellipse class="cls-10" cx="187.13" cy="281.42" rx="6.21" ry="6.46"/><line class="cls-10" x1="120.75" y1="313.86" x2="120.75" y2="313.86"/><path class="cls-10" d="M225.58,323.46a6.06,6.06,0,0,0,8.64,1.62,6.63,6.63,0,0,0,1.56-9,6.06,6.06,0,0,0-8.64-1.62A6.63,6.63,0,0,0,225.58,323.46Z" transform="translate(-76.81 -39.76)"/><path class="cls-10" d="M407.67,186.73a6.38,6.38,0,0,0-5.79,6.86,6.3,6.3,0,0,0,6.6,6,6.38,6.38,0,0,0,5.79-6.86A6.3,6.3,0,0,0,407.67,186.73Z" transform="translate(-76.81 -39.76)"/><path class="cls-13" d="M112.82,174.59c0,23.35-4.4,23.35-4.4,46.71s4.4,23.35,4.4,46.71-4.4,23.36-4.4,46.71,4.4,23.35,4.4,46.71-4.4,23.36-4.4,46.72,4.4,23.36,4.4,46.72" transform="translate(-76.81 -39.76)"/><path class="cls-13" d="M83.27,420.4c34.36,0,34.36,4.4,68.72,4.4s34.36-4.4,68.72-4.4,34.36,4.4,68.72,4.4,34.36-4.4,68.73-4.4,34.36,4.4,68.73,4.4,34.36-4.4,68.73-4.4" transform="translate(-76.81 -39.76)"/><line class="cls-14" x1="112.63" y1="382.54" x2="112.63" y2="389.45"/><line class="cls-14" x1="155.73" y1="379.33" x2="155.73" y2="389.45"/><line class="cls-14" x1="193.33" y1="382.84" x2="193.33" y2="389.45"/><line class="cls-14" x1="227.28" y1="382.84" x2="227.28" y2="389.45"/><line class="cls-14" x1="257.29" y1="382.84" x2="257.29" y2="389.45"/><line class="cls-14" x1="293.93" y1="379.33" x2="293.93" y2="389.45"/><line class="cls-14" x1="331.26" y1="382.84" x2="331.26" y2="393.13"/><text class="cls-15" transform="translate(328.66 232.68) scale(0.6 1)">Wee<tspan x="39.49" y="0">k</tspan><tspan x="49.42" y="0">end O</tspan><tspan x="104.47" y="0">u</tspan><tspan x="114.32" y="0">t</tspan><tspan x="122.47" y="0">l</tspan><tspan x="127.11" y="0">i</tspan><tspan x="131.14" y="0">er</tspan></text><path class="cls-11" d="M141.86,386.67c50-32.25,52.4-28.56,102.42-60.81s47.64-36,97.66-68.21,52.4-28.56,102.42-60.82" transform="translate(-76.81 -39.76)"/><path class="cls-16" d="M141.86,386.67c50-32.25,52.4-28.56,102.42-60.81s47.64-36,97.66-68.21,52.4-28.56,102.42-60.82" transform="translate(-76.81 -39.76)"/><text class="cls-17" transform="translate(140.19 110.35) scale(1.01 1)">D<tspan class="cls-18" x="18.1" y="0">a</tspan><tspan class="cls-18" x="31.02" y="0">t</tspan><tspan x="38.93" y="0">a An</tspan><tspan x="91.81" y="0">a</tspan><tspan x="106.23" y="0">l</tspan><tspan x="110.95" y="0">y</tspan><tspan x="123.48" y="0">st </tspan></text><text class="cls-19" transform="translate(87.72 72.63) scale(1.23 1)">Jon<tspan class="cls-20" x="58.26" y="0">a</tspan><tspan x="74.92" y="0">t</tspan><tspan x="86.72" y="0">h</tspan><tspan x="102.37" y="0">a</tspan><tspan x="120.76" y="0">n </tspan><tspan class="cls-21" x="145.64" y="0">T</tspan><tspan x="161.18" y="0">ow</tspan></text><text class="cls-22" transform="matrix(1.32, -0.36, 0.34, 0.94, 50.19, 36.63)">Im</text><text x="-76.81" y="-39.76"/></svg>