<svg id="Layer_4" data-name="Layer 4" xmlns="http://www.w3.org/2000/svg" viewBox="0 0 500.17 359.2"><defs><style>.cls-1,.cls-14,.cls-15,.cls-18,.cls-2,.cls-3,.cls-4,.cls-5{fill:none;}.cls-1,.cls-13{stroke:#28abe3;}.cls-1,.cls-10,.cls-13,.cls-14,.cls-15,.cls-18,.cls-2,.cls-3,.cls-4,.cls-5{stroke-miterlimit:10;}.cls-1,.cls-10,.cls-13,.cls-18,.cls-2,.cls-3,.cls-4{stroke-width:2.49px;}.cls-1{stroke-dasharray:29.89 4.98;opacity:0.3;}.cls-2,.cls-3,.cls-4,.cls-5{stroke:#c4c4c4;}.cls-3{stroke-dasharray:29.33 4.89;}.cls-4{stroke-dasharray:29.32 4.89;}.cls-5{stroke-width:1.87px;}.cls-6{fill:#c4c4c4;}.cls-7{font-size:26.6px;}.cls-16,.cls-7,.cls-9{fill:#616161;font-family:Noteworthy;font-weight:700;}.cls-8{letter-spacing:-1.17px;}.cls-9{font-size:27.38px;}.cls-10,.cls-11,.cls-13{fill:#fff;}.cls-10{stroke:#1fda9a;}.cls-12{fill:#3bdfa7;}.cls-14{stroke:#565656;stroke-width:4.4px;}.cls-15{stroke:#606060;stroke-width:3.43px;}.cls-16{font-size:26.43px;}.cls-17{letter-spacing:-1.75px;}.cls-18{stroke:#5b5b5b;}</style></defs><title>fit-model</title><line class="cls-1" x1="79.65" y1="143.66" x2="475.47" y2="143.66"/><line class="cls-1" x1="263.2" y1="278.81" x2="263.2" y2="14.6"/><path class="cls-2" d="M105.37,263.91l14.95,0" transform="translate(-50.41 -60.19)"/><path class="cls-3" d="M125.2,264c91.92,0.49,98.51,4.35,202.78,4.35,105.18,0,111-3.93,205.22-4.36" transform="translate(-50.41 -60.19)"/><path class="cls-2" d="M535.64,263.93l14.95,0" transform="translate(-50.41 -60.19)"/><path class="cls-2" d="M105.37,318.51l14.95,0" transform="translate(-50.41 -60.19)"/><path class="cls-3" d="M125.2,318.56c91.92,0.49,98.51,4.35,202.78,4.35,105.18,0,111-3.93,205.22-4.36" transform="translate(-50.41 -60.19)"/><path class="cls-2" d="M535.64,318.54l14.95,0" transform="translate(-50.41 -60.19)"/><path class="cls-2" d="M105.39,139.14l14.95,0" transform="translate(-50.41 -60.19)"/><path class="cls-4" d="M125.23,139.19c91.9,0.49,98.49,4.35,202.75,4.35,105.17,0,111-3.93,205.19-4.36" transform="translate(-50.41 -60.19)"/><path class="cls-2" d="M535.61,139.17l14.95,0" transform="translate(-50.41 -60.19)"/><path class="cls-2" d="M105.39,80.38l14.95,0" transform="translate(-50.41 -60.19)"/><path class="cls-4" d="M125.23,80.43c91.9,0.49,98.49,4.35,202.75,4.35,105.17,0,111-3.93,205.19-4.36" transform="translate(-50.41 -60.19)"/><path class="cls-2" d="M535.61,80.4l14.95,0" transform="translate(-50.41 -60.19)"/><path class="cls-5" d="M438.74,293.8C418,250,432.69,201.66,472.22,185" transform="translate(-50.41 -60.19)"/><path class="cls-6" d="M441.41,278.43a0.93,0.93,0,0,0-1,.81l-1.78,14.16-12.08-7.6a0.93,0.93,0,0,0-1,1.58l13.32,8.38a0.93,0.93,0,0,0,1.42-.67l2-15.61A0.93,0.93,0,0,0,441.41,278.43Z" transform="translate(-50.41 -60.19)"/><text class="cls-7" transform="translate(203.13 347.63) scale(0.85 1)">C<tspan x="18.69" y="0">u</tspan><tspan x="31.69" y="0">p</tspan><tspan x="44.7" y="0">s </tspan><tspan x="63.35" y="0">o</tspan><tspan x="76.36" y="0">f C</tspan><tspan x="111.24" y="0">o</tspan><tspan class="cls-8" x="124.24" y="0">f</tspan><tspan class="cls-8" x="132.76" y="0">f</tspan><tspan x="142.04" y="0">ee</tspan></text><text class="cls-9" transform="matrix(-0.01, -0.9, 1, -0.02, 26.95, 199.15)">Work Do<tspan x="101.68" y="0">n</tspan><tspan x="116.43" y="0">e</tspan></text><path class="cls-10" d="M190.36,262.54c0,4.3,3.21,7.78,7.18,7.78s7.18-3.48,7.18-7.78,0.75-7.78-3.21-7.78S190.36,258.24,190.36,262.54Z" transform="translate(-50.41 -60.19)"/><ellipse class="cls-10" cx="313.46" cy="54.36" rx="7.18" ry="7.78"/><ellipse class="cls-10" cx="313.38" cy="125.23" rx="7.18" ry="7.78"/><ellipse class="cls-10" cx="277.56" cy="105.41" rx="7.18" ry="7.78"/><ellipse class="cls-11" cx="355.74" cy="143.53" rx="7.18" ry="7.78"/><path class="cls-12" d="M397.52,203.72a0.67,0.67,0,0,0,.54-0.06l-0.73-.06Z" transform="translate(-50.41 -60.19)"/><path class="cls-12" d="M398.88,203.26a5.75,5.75,0,0,0-1.63-.23c0.69,0.14.4,0.15,1.23,0.28,0.08,0.07-.24.12-0.51,0.1,0.19,0-.17.12,0.29,0.16s0.6-.19.14-0.34A2.42,2.42,0,0,1,398.88,203.26Z" transform="translate(-50.41 -60.19)"/><path class="cls-12" d="M402.53,198.27l-0.08,0A0.16,0.16,0,0,0,402.53,198.27Z" transform="translate(-50.41 -60.19)"/><path class="cls-12" d="M405.77,197.39a0.24,0.24,0,0,0,0,.16A0.28,0.28,0,0,0,405.77,197.39Z" transform="translate(-50.41 -60.19)"/><path class="cls-12" d="M406.3,198.18l0-.05C406.28,198.19,406.29,198.23,406.3,198.18Z" transform="translate(-50.41 -60.19)"/><path class="cls-12" d="M402.53,198.27l0.21,0.12C402.6,198.2,402.6,198.29,402.53,198.27Z" transform="translate(-50.41 -60.19)"/><path class="cls-12" d="M397.25,202a0.53,0.53,0,0,0,.18.1l-0.07-.08Z" transform="translate(-50.41 -60.19)"/><path class="cls-12" d="M401.9,199.75v0l0.22,0.2Z" transform="translate(-50.41 -60.19)"/><path class="cls-12" d="M401.41,200.74a8.23,8.23,0,0,0-.74-0.43,1.51,1.51,0,0,1,.35.25Z" transform="translate(-50.41 -60.19)"/><path class="cls-12" d="M399.77,202.17l0.07,0.05Z" transform="translate(-50.41 -60.19)"/><path class="cls-12" d="M402.52,199.26l0.16,0.15Z" transform="translate(-50.41 -60.19)"/><path class="cls-12" d="M396.29,205.89l0.11,0A0.14,0.14,0,0,0,396.29,205.89Z" transform="translate(-50.41 -60.19)"/><polygon class="cls-12" points="348.72 143.53 348.76 143.55 349.1 143.56 348.72 143.53"/><path class="cls-12" d="M407,199.05h0C406.94,199.1,407,199.09,407,199.05Z" transform="translate(-50.41 -60.19)"/><path class="cls-12" d="M410.68,204.83a10.82,10.82,0,0,0,1.3.26A5,5,0,0,0,410.68,204.83Z" transform="translate(-50.41 -60.19)"/><path class="cls-12" d="M397.34,202a0.12,0.12,0,0,1,0-.07A0,0,0,0,0,397.34,202Z" transform="translate(-50.41 -60.19)"/><path class="cls-12" d="M412,205.09h0Z" transform="translate(-50.41 -60.19)"/><path class="cls-12" d="M408.7,199.48l0.15-.23Z" transform="translate(-50.41 -60.19)"/><path class="cls-12" d="M407.79,198v0.09A0.15,0.15,0,0,0,407.79,198Z" transform="translate(-50.41 -60.19)"/><path class="cls-12" d="M409.88,199.37s-0.07.11,0,.08l0-.06C409.87,199.44,409.83,199.45,409.88,199.37Z" transform="translate(-50.41 -60.19)"/><path class="cls-12" d="M410.46,200.08l0.09-.08h0Z" transform="translate(-50.41 -60.19)"/><path class="cls-12" d="M398.51,210.2a4.81,4.81,0,0,1,.4-0.39C398.58,210.09,398.32,210,398.51,210.2Z" transform="translate(-50.41 -60.19)"/><path class="cls-12" d="M397.59,202.1a0.66,0.66,0,0,1-.26-0.09l0,0.05Z" transform="translate(-50.41 -60.19)"/><path class="cls-12" d="M413.46,196.06l0.11,0.26A0.38,0.38,0,0,0,413.46,196.06Z" transform="translate(-50.41 -60.19)"/><path class="cls-12" d="M409,213.57l0,0.09S409,213.64,409,213.57Z" transform="translate(-50.41 -60.19)"/><path class="cls-12" d="M414.15,196.87a1.54,1.54,0,0,0-.25.38l0.15-.07Z" transform="translate(-50.41 -60.19)"/><path class="cls-12" d="M398.92,209.8h0Z" transform="translate(-50.41 -60.19)"/><path class="cls-12" d="M396.78,209.14c0.11,0.24.76-.27,1.2-0.44,0.34,0.13-.46.4-0.77,0.69a7.72,7.72,0,0,1,1-.08,1,1,0,0,1-.29.19c0.65-.19.35,0.46,1.13,0.15l-0.15.14a10.92,10.92,0,0,1,.88-0.69c0.06,0.07.5-.17,0.11,0.17a0.63,0.63,0,0,0-.34.15l0.24-.06c-0.55.54-.3,0.06-0.74,0.39,0.33,0,1-.21.89,0-0.55.51-.42-0.12-0.8,0.47l0.06-.37c-0.8.88,0-.17-0.91,0.75,0.07,0.42.55,0.07,0.61,0.48,0.36-.22.44-0.43,0.79-0.66,0.85-.21-1.07,1.58-0.11,1.14,0.41-.3,1.06-1,0.91-0.45l-0.62.58c0.21,0.28.93-.81,0.83-0.16a2.76,2.76,0,0,1-.4.17c-0.24.66,0.42-.27,0.55-0.17l-0.43.62a11.46,11.46,0,0,0,1.37,0,1.41,1.41,0,0,0-.34.59c0.63-.08.89,0.58,1.24,1.17l0.4-.54a0.58,0.58,0,0,1-.11.41c0.11,0.3.14-.38,0.31-0.59,0.11,0,0,.39-0.11.56,0.53-.42,1.19-0.87,1.41-0.16l-0.1.18c0.24,0.31.5-1.26,0.65-.63l-0.06.11c0.56,0.34,1.15-.23,1.65.7,0-.92.64,0.37,0.52-0.93a2.62,2.62,0,0,0,.93,1.17,5.39,5.39,0,0,0,.12-1l0.17,0.65,0-.74,0.34,0.75,0.1-.21a0.83,0.83,0,0,1-.26-0.44c0.12-.34.67,0.27,0.81,0.59l0.16-.37,0.14-.37a1.1,1.1,0,0,1,0,.56c0-.75.34,0.63,0.35-0.06a2.29,2.29,0,0,1-.2-0.5,0.39,0.39,0,0,0,.7-0.09l0.19,0.43a4,4,0,0,0,1.05-.92,1.45,1.45,0,0,1-.65-0.89l0.47,0.54a2.77,2.77,0,0,1-.46-0.67,1.45,1.45,0,0,1,.65.82V212a5.39,5.39,0,0,1,.33.5c-0.21-.4.76,0.31,0.36-0.36l0.15,0.15a4.59,4.59,0,0,0,.59-1,3.18,3.18,0,0,1-.55-0.85,1.48,1.48,0,0,0,1-.28,2,2,0,0,0-.63-0.66c0.46,0.32.6,0,.84,0.39a1.32,1.32,0,0,0,0-1.12,1.26,1.26,0,0,1-.49-0.19c0-.11.3,0,0.53,0.09l0,0c-0.24-.43.25-0.49,0.71-0.62s0.89-.3.4-0.71l0,0-0.22-.31-0.22-.3c0.16-.16.37,0.24,0.75,0.2-0.75-.72.33-0.72-0.19-1.25,0.85,0,.86-0.29.8-0.6s-0.22-.62.32-0.81h-0.39c-0.38-.13.23-0.12,0.32-0.2a1.46,1.46,0,0,1-.57,0c-0.42-.89.54-1.88,0.67-3,0-.4-2,0.27-1.21-0.37l0.73-.07a1.22,1.22,0,0,1-.71-0.92,1,1,0,0,0-.69-0.85,0.65,0.65,0,0,1,.39-0.07c0.42-.37-0.23-0.51-0.61-0.3a1.94,1.94,0,0,1,.49-0.37c0.19-.29-0.77,0-0.35-0.32a0.31,0.31,0,0,1,.22,0c-0.26,0-.19-0.43-0.65,0,0.09-.38-0.5-0.25-0.33-0.63-0.61.3,0-.55-0.8,0,0.79-.61.31-0.87-0.13-0.67,0.26-.16.13-0.31,0.48-0.55-0.15-.13-0.41-0.13-0.74.26,0.3-.54,0-0.5-0.25-0.46s-0.45.09,0-.56a15,15,0,0,1-1.92,0c0.52-.85.5,0.2,1-0.68-0.65.05-1.29,0.69-1.57,0.27a0.81,0.81,0,0,1,.36-0.49c-0.59.14-.83-0.46-1.4-0.11a0.57,0.57,0,0,1,.17-0.23c-0.09,0-.14-0.2-0.27.23l0.11-.09a7,7,0,0,1-.8,1.55c0.48-1.21-.26-0.41.35-1.93a1.08,1.08,0,0,0-.26.55,0.7,0.7,0,0,1,.12-0.59c-0.35.16-.35,0.65-0.6,0.6a4.51,4.51,0,0,1,.19-0.53c-0.22.39-.41,0.79-0.59,0.58a0.39,0.39,0,0,1,.1-0.29c-0.4,0-.73,1.06-1.07.63,0.14-.94-0.12-0.32-0.14-1.14l-0.23.25,0.09,0.39c-0.2,0-.33.6-0.5,0.34l0.12-.35-0.34.18,0.22,0.3c-0.15.43,0.09,1-.14,0.82a1.36,1.36,0,0,1-.31-0.46h0c-0.05.27-.09,0.56-0.24,0.38s-0.13-.9-0.18-1.07c0,0.69-.4.25-0.33,1a3.65,3.65,0,0,0-.13-0.68l0.06,0.56a1.1,1.1,0,0,1-.23-0.57c-0.27,0,.34,1-0.05.63a1.12,1.12,0,0,1,0-.22c-0.36-.15-0.43.49-0.76,0.34-0.38-.74.15-0.28-0.18-0.89-0.37.29-.38,1.23-0.79,1.24l0.11,0c0.53,1-.53-0.38-0.41.21a2.15,2.15,0,0,0-.23-0.47c-0.32,0-.33.53-0.39,1.06l-0.15-.27a1.08,1.08,0,0,0-.63.14,1.25,1.25,0,0,0,.39.57c-0.75-.46-0.79-0.1-0.76.24s0.14,0.7-.56.42a0.29,0.29,0,0,0-.15-0.23l0,0.47a2.88,2.88,0,0,0,.64.33,0.74,0.74,0,0,1,.29.5,1.75,1.75,0,0,0-.93-0.59c0.13,0.08.26,0.2,0.39,0.29-0.84-.37.82,0.62,0.18,0.47l-0.21-.16c0.06,0.15.31,0.41,0.19,0.45a2.8,2.8,0,0,1-.58-0.49c-0.06.15,0.8,0.82,0.24,0.63-0.11-.13-0.07-0.21-0.18-0.35-0.66-.23-0.52-0.12-0.67-0.08h0l-0.4.08,0.2,0c1.26,0.88.06,0.47,0.87,1.12a2.42,2.42,0,0,0-1.08-.56,1.32,1.32,0,0,1-.59-0.11c0.44,0.33-.48,0,0.17.5a1,1,0,0,1-.56-0.1,0.93,0.93,0,0,0,.61.21c0.61,0.47-1,.28-0.19.93a14,14,0,0,0,1.32.94,1.6,1.6,0,0,1-.75-0.23c-0.34.07-.32,0.2-0.09,0.38a1.69,1.69,0,0,0-.58-0.06c0,0.12.76,0.2,0.43,0.29a7,7,0,0,1-.84-0.24c0.17,0.17.55,0.36,0.73,0.51a2,2,0,0,1-.79-0.23,1.11,1.11,0,0,0,.87.55l0.21-.08a1.35,1.35,0,0,1-.61-0.07c-0.45-.18.23-0.17,0.44-0.15l0.12,0.11c1.26,0-.15-0.38,0-0.58l0.89,0.22-0.72-.31a2.08,2.08,0,0,1,.87.18c0.46,0-.3-0.17.22-0.17a0.37,0.37,0,0,1,.15,0l-0.24-.17a0.93,0.93,0,0,1,.49.16c0.56-.07-0.59-0.47.1-0.38l0.05,0c-0.23-.35-0.65-0.2-1.34-0.64l0.82,0.17,0.81,0.18-0.63-.23a0.36,0.36,0,0,1,.35,0,4.29,4.29,0,0,0-.67-0.28c0.62,0.07-.14-0.5.88-0.13a1.73,1.73,0,0,1-.69-0.3c1.08,0.4-.11-0.24.43-0.16a1.39,1.39,0,0,0,.72.36c-0.88-.48.29-0.12,0.16-0.28-0.71-.37-0.19-0.35-0.33-0.63a2.8,2.8,0,0,0,.87,0l0.11,0.08c-0.65-.48-0.43-0.53-0.49-0.73a3.42,3.42,0,0,1,.67.6l0.05-.09a0.88,0.88,0,0,1-.31-0.4l0.46,0.39c0.05-.11-0.37-0.67.05-0.54a5.58,5.58,0,0,1-1.4-1.35,4,4,0,0,1,.67.67s-0.14-.22,0-0.16l0.32,0.41c0.22,0.09-.28-0.32-0.19-0.35,0.31,0.3.26,0.18,0.5,0.42,0,0-.17-0.08-0.07.05a1.25,1.25,0,0,1,.61.33,1.66,1.66,0,0,1-.41-0.49,1.63,1.63,0,0,1,.61.45,1.45,1.45,0,0,0-.35-0.55,1.43,1.43,0,0,1,.37.31c-0.14-.26.2-0.26-0.3-0.75l0,0v0h0c-0.19-.69.64,0,0.68-0.38l0.12,0.18a1.51,1.51,0,0,0,.08-0.75,1.32,1.32,0,0,1,.38.54c0-.19-0.07-0.43.23-0.17,0.06,0.39.17,0.29,0,.3,0.2,0.1.36,0.43,0.26-.18,0.17,0.53.35,0.62,0.34,0.44l-0.23-.34c0-.1.11-0.08,0.19-0.06l0.22,0.7c0.25,0.37.22,0,.24-0.32s0.08-.58.33,0.13c0-.52-0.21-0.32-0.28-0.92a4.94,4.94,0,0,1,.5,1.08c0.19,0.38,0-1.08.19-.83a2.62,2.62,0,0,1,0-1.2,2.42,2.42,0,0,1,.18,1.3s0-.06-0.05-0.15a0.73,0.73,0,0,0,0,.49v-0.26a1.12,1.12,0,0,1,.21.66,0.72,0.72,0,0,0-.05-0.56c0.16,0.37.23,0,.38,0.26a1.6,1.6,0,0,1,0-.45c0.22,0.34.12-.49,0.3-0.59,0.07,0.4-.11.95,0.08,0.62a2.28,2.28,0,0,1-.1.9c0.18-.5.18,0.36,0.21,0.46l-0.09.2c0-.12.08-0.11,0.1-0.1l0.06-.52a0.49,0.49,0,0,1,0,.32,12.75,12.75,0,0,1,.3-1.3c0,0.27.25-.25,0.11,0.44-0.11-.27-0.14.67-0.29,0.76,0-.08.07-0.07,0.08,0a0.65,0.65,0,0,1-.05.17c0,0.64.24-.74,0.4-0.68a1.31,1.31,0,0,0-.13.65,2.51,2.51,0,0,1,.3-0.9c0,0.32.19-.19,0.24-0.13l0-.16a0.46,0.46,0,0,1,.32-0.37c-0.1.29-.15,0.17-0.16,0.3,0.34-.6-0.06.74,0.23,0.36-0.05.26-.29,0.67-0.32,0.85,0.33-.4-0.12.54,0.17,0.22a2,2,0,0,1,.47-0.78l-0.38.22,0.23-.31,0.24-.3a1.17,1.17,0,0,1-.29.12,1.54,1.54,0,0,0,.34-0.65c-0.25.76,0.42-.3,0.29,0.24l-0.63,1.13c-0.16.56,0.59-.41,0.61,0l0.07-.23c0.32-.41.17,0,0.35-0.1a5.67,5.67,0,0,0-.46.73,2.49,2.49,0,0,0,.66-0.54l-0.29.5c0,0.28,1-.78,1-0.52a6.17,6.17,0,0,1-.85.73s0,0.14.23-.08c-0.17.21,0.54-.29,0.29,0a1.27,1.27,0,0,1,.52-0.33,1.64,1.64,0,0,1-.16.14,2.24,2.24,0,0,0,.61-0.47c-0.43.54-.33,0.62-0.2,0.7s0.27,0.17-.16.57a0.92,0.92,0,0,1,.51.2c-0.12.06-.19,0.11-0.16,0.07-0.26.36,1.13-.52,0.85-0.1a1.53,1.53,0,0,1-.59.27c-1.25.69,0.3,0.12-.4,0.62h-0.09c-0.4.29,0.59,0,.57,0.19l-0.2.08a1.66,1.66,0,0,1,1.27.1,2.74,2.74,0,0,0-.84.22,4.72,4.72,0,0,1,1.07-.19,4.52,4.52,0,0,1-1.09.5l-0.07-.12c-0.73.28,0.07,0.16,0,.27l-0.33.08c0.15,0.16,1,0,1,.23l0.25-.07c0.86,0-.46.19,0.19,0.22l-0.85.17a3.34,3.34,0,0,1,1.05.34c-0.64,0-1-.18-1.39-0.22,0,0.08.1,0.25,0.53,0.25-0.08,0-.3,0-0.17-0.09,0.7,0,1,.15,1,0.34-1.68,0-.4.47-1.72,0.56,0.62,0.3-.29.49-0.24,0.76,1.31,0.1,0,.09,1.35.3,0.08,0.1,0,.13,0,0.12l-0.42,0-0.42,0a2.48,2.48,0,0,1-.57-0.19,2.82,2.82,0,0,1-.94-0.07c0.47,0.1.66,0.21,0.46,0.24l0.62,0c0.64,0.4-1.12-.14-0.51.24l-0.38-.18a1.35,1.35,0,0,0,.85.81,2,2,0,0,1-.57-0.24c-0.12.07,0.09,0.31,0.23,0.53s0.21,0.42-.13.34l-0.28-.18c0.06,0.08.49,0.39,0.18,0.27a1.52,1.52,0,0,0-.3-0.18c0.09,0.08.42,0.41,0.22,0.36l-0.28-.24c-0.49-.07.55,0.82,0.55,1.15a3,3,0,0,0-1.28-.71l-0.1-.09c-0.25.07,0.29,0.87,0.3,1.34-0.78-.71-0.71,0-1.21-0.4a2.68,2.68,0,0,1,.38.76c-0.14-.15.16,0.67-0.24-0.12h0c-0.44-.75-0.42-0.5-0.5-0.48l0.46,1.06c-0.47-.73-0.52-0.54-0.61-0.31s-0.18.44-.42-0.28c0,0.3-.05.32-0.05,0.61l-0.12-.61c-0.18-.14-0.24-0.19-0.4,0v-0.44c-0.08,0,0,1.79-.1,1.84l-0.08-.93c-0.22,0-.34-0.81-0.59,0a2,2,0,0,1,.08-0.44c-0.09,0-.21-0.67-0.39.6,0.13-.83-0.17-0.1-0.38.22l0.16-.59a2.38,2.38,0,0,1-.54,1.11c0-.09.11-0.48,0.11-0.32,0-.34-0.26.53-0.3,0.18l0.17-.36c-0.1-.07-0.15.12-0.37,0.53-0.16.2-.18-0.24,0-0.75-0.14.31-.39,0.7-0.4,0.52a1.58,1.58,0,0,1,.19-0.36c0-.45-0.59.5-0.44-0.1a2.5,2.5,0,0,0,.16-0.33,0.3,0.3,0,0,1,.19.21,7.35,7.35,0,0,1,.62-1.31c-0.24.35-.83,1.09-0.81,0.8l0.09-.18,0,0c0-.06,0,0-0.1,0a0.33,0.33,0,0,0,0-.19c0.24-.4,0-0.28,0-0.32a5.22,5.22,0,0,0-.59.84,0.09,0.09,0,0,1,.1-0.05,0.16,0.16,0,0,0,.06,0l0,0,0.15,0.05c-0.21.24-.4,0.43-0.27,0.1-0.25.31-.52,0.62-0.65,0.77a15.27,15.27,0,0,1,.88-1.67,2.47,2.47,0,0,0-1.35.66c-0.15.06,0.18-.29,0.3-0.43a0.8,0.8,0,0,0,.25-0.13,1.34,1.34,0,0,0-.93.38c0.17-.36.61-0.44,0.38-0.5l0.2-.14c0.38-.57-0.11-0.32-0.59-0.19s-1,.2-0.37-0.44a1,1,0,0,1-.22.2c0.19-.43-0.11-0.55-0.32-0.76s-0.4-.46.08-0.88c0.18-.2-0.32-0.06-0.73,0l0.63-.21-0.78,0c-0.6-.13,1.49-0.71.42-0.78l-0.44.11c0.07-.11-0.31-0.3.2-0.34-0.08,0-.47,0-0.24,0l0.34,0-0.31-.1-0.3-.11c0.24-.22,1.38-0.07,1.43-0.32a4.3,4.3,0,0,0-1.26-.23,0.88,0.88,0,0,1-.56.13l-0.19-.11a6.47,6.47,0,0,0-2.78.23L397,204.2l-0.49.1,0-.21c-0.46.14,0,.2,0.24,0.27a1.57,1.57,0,0,0-.54.14l0.49,0.09,0.49,0.08a2.34,2.34,0,0,0-1,.15,6.31,6.31,0,0,1,1.2,0c-0.45.16-.83,0.17-0.41,0.26a1.06,1.06,0,0,1-.55,0,1.14,1.14,0,0,0,.73.29c-0.55.21,0.2,0.37-.74,0.54a2,2,0,0,1,.86.16c-1.18.06,0,.42-1.18,0.68,1-.11.61,0.44,1.25,0.52-0.08,0-.25,0-0.21,0a1.7,1.7,0,0,1-.46.49,6.26,6.26,0,0,1,1.62-.23,8.13,8.13,0,0,1-1.69.64c0.64-.27.78,0,1.29-0.25a3.3,3.3,0,0,1-.8.58c1-.43.22,0.05,0.87-0.13-0.38.42-.88,0.51-0.47,0.56A1,1,0,0,1,396.78,209.14Zm5.14,2.85h0l-0.11,0Zm0.39,0.2a0.41,0.41,0,0,0-.16-0.11,0.67,0.67,0,0,1,.24-0.35A1,1,0,0,0,402.32,212.19Zm1.56-4c0.08-.05,0,0.05,0,0.16l-0.09,0,0,0.06Z" transform="translate(-50.41 -60.19)"/><path class="cls-12" d="M403.37,208.79l0,0-0.06.13,0.12-.15h0Z" transform="translate(-50.41 -60.19)"/><path class="cls-12" d="M402.43,198.22h0l-0.07-.06Z" transform="translate(-50.41 -60.19)"/><polygon class="cls-12" points="358.13 153.82 358.09 153.66 358.08 153.81 358.13 153.82"/><path class="cls-12" d="M399.54,198.23l-0.15-.07Z" transform="translate(-50.41 -60.19)"/><path class="cls-12" d="M398.89,199l-0.26,0A0.85,0.85,0,0,0,398.89,199Z" transform="translate(-50.41 -60.19)"/><path class="cls-12" d="M398.26,199.52l0.23,0.13h0Z" transform="translate(-50.41 -60.19)"/><path class="cls-12" d="M409.1,194.07h0C409.26,194,409.19,194,409.1,194.07Z" transform="translate(-50.41 -60.19)"/><path class="cls-12" d="M405.18,195.08a1.7,1.7,0,0,1,.08-0.31C405.18,194.74,405.13,194.74,405.18,195.08Z" transform="translate(-50.41 -60.19)"/><path class="cls-12" d="M413.45,196h0l0,0v0Z" transform="translate(-50.41 -60.19)"/><path class="cls-12" d="M405.42,194.77c-0.08-.12-0.13-0.09-0.17,0S405.38,194.87,405.42,194.77Z" transform="translate(-50.41 -60.19)"/><path class="cls-12" d="M397.1,202.75l0,0h0.1Z" transform="translate(-50.41 -60.19)"/><path class="cls-12" d="M397.17,202.8l0.07,0S397.24,202.81,397.17,202.8Z" transform="translate(-50.41 -60.19)"/><path class="cls-12" d="M397.39,202.94l-0.15-.1S397.21,202.91,397.39,202.94Z" transform="translate(-50.41 -60.19)"/><path class="cls-12" d="M397.53,201.75l-0.22-.06Z" transform="translate(-50.41 -60.19)"/><path class="cls-12" d="M397.54,201.43c-0.07.06-.51,0.08-0.4,0.22l0.17,0C397,201.58,397.89,201.58,397.54,201.43Z" transform="translate(-50.41 -60.19)"/><path class="cls-12" d="M400.51,201.15l-0.23.12a1,1,0,0,1,.58.21C401.6,201.51,400.34,201.35,400.51,201.15Z" transform="translate(-50.41 -60.19)"/><path class="cls-12" d="M401.06,200.76a0.88,0.88,0,0,0,.43.21A0.62,0.62,0,0,0,401.06,200.76Z" transform="translate(-50.41 -60.19)"/><path class="cls-12" d="M403.77,197.94l0.25,0.51A1.5,1.5,0,0,0,403.77,197.94Z" transform="translate(-50.41 -60.19)"/><polygon class="cls-12" points="353.1 134.7 352.88 134.41 353 134.91 353.1 134.7"/><polygon class="cls-12" points="354.73 138.4 354.72 138.48 354.76 138.26 354.73 138.4"/><path class="cls-12" d="M409.92,200.27l0.55-.43A1.13,1.13,0,0,0,409.92,200.27Z" transform="translate(-50.41 -60.19)"/><path class="cls-12" d="M411.61,202.45c-0.34.1-.55,0.21-0.2,0.2C411.45,202.58,411.71,202.47,411.61,202.45Z" transform="translate(-50.41 -60.19)"/><polygon class="cls-12" points="357.27 148.26 357.21 148.03 357.22 148.24 357.27 148.26"/><ellipse class="cls-10" cx="399.06" cy="248.25" rx="7.18" ry="7.78"/><ellipse class="cls-10" cx="356.53" cy="99.56" rx="7.18" ry="7.78"/><path class="cls-11" d="M240.47,288a6.84,6.84,0,0,0,10,1.95,8.2,8.2,0,0,0,1.8-10.83,6.84,6.84,0,0,0-10-1.95A8.2,8.2,0,0,0,240.47,288Z" transform="translate(-50.41 -60.19)"/><path class="cls-12" d="M239.24,288.78a0.67,0.67,0,0,0,.42-0.34l-0.64.34h0.23Z" transform="translate(-50.41 -60.19)"/><path class="cls-12" d="M240.14,287.65a5.75,5.75,0,0,0-1.5.68c0.66-.25.42-0.09,1.19-0.42,0.11,0-.14.23-0.37,0.35,0.17-.07-0.08.19,0.33,0,0.43-.38.4-0.48-0.07-0.36A2.41,2.41,0,0,1,240.14,287.65Z" transform="translate(-50.41 -60.19)"/><path class="cls-12" d="M240.52,281.44h0Z" transform="translate(-50.41 -60.19)"/><path class="cls-12" d="M242.64,278.7a0.25,0.25,0,0,0,.08.14A0.29,0.29,0,0,0,242.64,278.7Z" transform="translate(-50.41 -60.19)"/><path class="cls-12" d="M243.57,279l-0.05,0S243.59,279,243.57,279Z" transform="translate(-50.41 -60.19)"/><path class="cls-12" d="M240.52,281.44l0.25,0C240.54,281.34,240.59,281.41,240.52,281.44Z" transform="translate(-50.41 -60.19)"/><path class="cls-12" d="M238.11,287.5a0.53,0.53,0,0,0,.21,0l-0.1,0Z" transform="translate(-50.41 -60.19)"/><path class="cls-12" d="M240.81,283.05v0l0.29,0Z" transform="translate(-50.41 -60.19)"/><path class="cls-12" d="M240.94,284.17a8.06,8.06,0,0,0-.86,0,1.49,1.49,0,0,1,.42,0Z" transform="translate(-50.41 -60.19)"/><path class="cls-12" d="M240.31,286.26h0Z" transform="translate(-50.41 -60.19)"/><path class="cls-12" d="M241.06,282.28l0.22,0Z" transform="translate(-50.41 -60.19)"/><path class="cls-12" d="M239.42,291.29l0.08-.08A0.13,0.13,0,0,0,239.42,291.29Z" transform="translate(-50.41 -60.19)"/><polygon class="cls-12" points="190.19 227.71 190.23 227.71 190.52 227.53 190.19 227.71"/><path class="cls-12" d="M244.68,279.21h0C244.68,279.27,244.69,279.25,244.68,279.21Z" transform="translate(-50.41 -60.19)"/><path class="cls-12" d="M250.6,281.46a10.86,10.86,0,0,0,1.24-.47A5.06,5.06,0,0,0,250.6,281.46Z" transform="translate(-50.41 -60.19)"/><path class="cls-12" d="M238.17,287.42a0.13,0.13,0,0,1,0-.06A0,0,0,0,0,238.17,287.42Z" transform="translate(-50.41 -60.19)"/><path class="cls-12" d="M251.84,281h0l0,0Z" transform="translate(-50.41 -60.19)"/><path class="cls-12" d="M246.24,278.42l0-.27C246.21,278.22,246.22,278.29,246.24,278.42Z" transform="translate(-50.41 -60.19)"/><path class="cls-12" d="M244.62,277.86l0.07,0.06A0.14,0.14,0,0,0,244.62,277.86Z" transform="translate(-50.41 -60.19)"/><path class="cls-12" d="M247.05,277.6s0,0.14.05,0.06v-0.08C247.08,277.66,247.06,277.7,247.05,277.6Z" transform="translate(-50.41 -60.19)"/><path class="cls-12" d="M247.91,277.8l0-.12,0,0v0.1Z" transform="translate(-50.41 -60.19)"/><path class="cls-12" d="M243.88,293.59A4.49,4.49,0,0,1,244,293C243.86,293.46,243.58,293.55,243.88,293.59Z" transform="translate(-50.41 -60.19)"/><path class="cls-12" d="M238.43,287.36a0.65,0.65,0,0,1-.26.06l0.05,0Z" transform="translate(-50.41 -60.19)"/><path class="cls-12" d="M247.81,272.79l0.26,0.13A0.44,0.44,0,0,0,247.81,272.79Z" transform="translate(-50.41 -60.19)"/><path class="cls-12" d="M254.16,289.67l0,0.09S254.21,289.72,254.16,289.67Z" transform="translate(-50.41 -60.19)"/><path class="cls-12" d="M248.89,273a1.42,1.42,0,0,0,0,.45,1.15,1.15,0,0,0,.07-0.15Z" transform="translate(-50.41 -60.19)"/><path class="cls-12" d="M244,293h0Z" transform="translate(-50.41 -60.19)"/><path class="cls-12" d="M241.79,293.75c0.24,0.13.46-.66,0.71-1.06,0.36-.09-0.13.6-0.2,1a9.88,9.88,0,0,1,.8-0.67,1,1,0,0,1-.12.33c0.41-.54.57,0.18,1-0.54a1.37,1.37,0,0,1,0,.2,10.53,10.53,0,0,1,.28-1.08c0.1,0,.3-0.45.2,0.07a0.61,0.61,0,0,0-.18.33l0.16-.2c-0.1.76-.2,0.22-0.35,0.76,0.28-.18.64-0.75,0.74-0.5-0.11.74-.41,0.16-0.35,0.86l-0.18-.34c-0.09,1.19-.14-0.12-0.26,1.15,0.32,0.3.48-.26,0.81,0,0.15-.4.08-0.61,0.22-1,0.54-.68.16,1.93,0.64,1,0.14-.49.22-1.43,0.44-0.92L246,294c0.35,0.09.21-1.2,0.55-.63a2.4,2.4,0,0,1-.21.38c0.24,0.67.16-.48,0.32-0.48l0.06,0.75a8.51,8.51,0,0,0,1.06-.91,1.39,1.39,0,0,0,.12.67c0.44-.44,1.06-0.14,1.72.11l0-.68a0.57,0.57,0,0,1,.18.38c0.27,0.15-.14-0.39-0.14-0.66,0.08-.08.27,0.29,0.28,0.5,0.14-.63.33-1.45,1-1l0,0.2c0.39,0.09-.42-1.28.09-0.9l0,0.12c0.65-.07.72-0.91,1.7-0.47-0.58-.73.7-0.12-0.2-1.05a2.58,2.58,0,0,0,1.44.35,5.72,5.72,0,0,0-.52-0.86l0.54,0.41-0.44-.59,0.72,0.39-0.06-.22a0.83,0.83,0,0,1-.47-0.2c-0.13-.35.68-0.18,1,0,0,0-.19-0.76-0.21-0.76a1.14,1.14,0,0,1,.38.42c-0.45-.6.65,0.31,0.23-0.24a2.36,2.36,0,0,1-.46-0.28,0.38,0.38,0,0,0,.51-0.47l0.4,0.24a4.07,4.07,0,0,0,.3-1.31,1.49,1.49,0,0,1-1-.36l0.69,0.18a2.83,2.83,0,0,1-.76-0.29,1.49,1.49,0,0,1,1,.31l-0.18-.27a5.6,5.6,0,0,1,.56.22c-0.4-.2.8-0.15,0.09-0.48l0.21,0a5,5,0,0,0,0-1.08,3.17,3.17,0,0,1-.94-0.4,1.45,1.45,0,0,0,.72-0.78,2,2,0,0,0-.88-0.21c0.56,0,.52-0.3.92-0.13a1.32,1.32,0,0,0-.58-0.94,1.27,1.27,0,0,1-.52.1c-0.1-.07.23-0.19,0.5-0.2l0.06,0c-0.43-.23,0-0.54.27-0.89s0.6-.72,0-0.81h0.06L255.6,281l-0.35-.14c0-.22.44,0,0.74-0.22-1-.21-0.11-0.79-0.82-1,0.73-.44.57-0.71,0.35-0.94s-0.52-.41-0.17-0.86l-0.33.21c-0.39.09,0.13-.23,0.16-0.35a1.44,1.44,0,0,1-.46.33,1.76,1.76,0,0,1-.67-1.28,6.17,6.17,0,0,0-.46-1.65c-0.22-.35-1.52,1.35-1.22.35l0.57-.46a1.27,1.27,0,0,1-1.14-.38,1.11,1.11,0,0,0-1.09-.3,0.65,0.65,0,0,1,.28-0.28c0.11-.54-0.51-0.28-0.69.11a1.91,1.91,0,0,1,.17-0.59c0-.35-0.62.45-0.49-0.06a0.31,0.31,0,0,1,.15-0.17c-0.19.2-.43-0.23-0.55,0.38-0.16-.36-0.56.08-0.66-0.31-0.31.62-.37-0.43-0.63,0.5,0.25-1-.3-0.89-0.54-0.44,0.1-.29-0.1-0.33,0-0.73-0.21,0-.41.14-0.43,0.66-0.11-.62-0.33-0.39-0.5-0.2s-0.3.34-.4-0.42c-0.6.54-1.07,0.93-1.5,1.25-0.14-1,.52-0.19.38-1.21-0.47.48-.56,1.35-1,1.22a0.82,0.82,0,0,1,0-.61c-0.36.52-.95,0.16-1.14,0.84a0.59,0.59,0,0,1,0-.28c-0.07.06-.24-0.06-0.06,0.35l0-.14a6.85,6.85,0,0,1,.38,1.69c-0.41-1.24-.46-0.15-1-1.71a1.12,1.12,0,0,0,.16.59,0.7,0.7,0,0,1-.29-0.53c-0.16.36,0.16,0.73-.07,0.84a4.51,4.51,0,0,1-.2-0.53c0.08,0.44.18,0.86-.09,0.81a0.4,0.4,0,0,1-.11-0.28c-0.29.27,0.12,1.27-.41,1.16-0.49-.82-0.29-0.17-0.82-0.79l0,0.33,0.32,0.25c-0.16.11,0.12,0.66-.18,0.56l-0.12-.34s-0.15.34-.15,0.35l0.35,0.09c0.16,0.43.72,0.75,0.41,0.73a1.21,1.21,0,0,1-.52-0.17h0c0.13,0.24.27,0.49,0,.44s-0.65-.63-0.8-0.73c0.44,0.51-.13.45,0.37,1a3.69,3.69,0,0,0-.52-0.45l0.39,0.4a1.12,1.12,0,0,1-.53-0.31c-0.24.13,0.87,0.58,0.34,0.52a1.12,1.12,0,0,1-.13-0.17c-0.38.09,0,.66-0.39,0.72-0.75-.37,0-0.31-0.68-0.6-0.12.44,0.45,1.21,0.11,1.44l0.11,0c1,0.54-.64,0-0.21.4a2.18,2.18,0,0,0-.46-0.25c-0.27.17,0,.61,0.3,1.07l-0.27-.14a1.07,1.07,0,0,0-.44.46,1.31,1.31,0,0,0,.65.25c-0.88,0-.71.35-0.5,0.61s0.5,0.51-.23.65a0.3,0.3,0,0,0-.25-0.11l0.23,0.41a2.88,2.88,0,0,0,.71-0.07,0.74,0.74,0,0,1,.52.26,1.76,1.76,0,0,0-1.1,0c0.16,0,.33,0,0.48,0-0.91.15,1,.07,0.4,0.29l-0.27,0c0.13,0.1.48,0.18,0.4,0.28a2.83,2.83,0,0,1-.75-0.1c0,0.16,1.12.26,0.54,0.4-0.17-.05-0.17-0.14-0.34-0.19-0.68.16-.51,0.18-0.61,0.29h0l-0.3.28,0.18-.08c1.54,0.07.3,0.36,1.34,0.48a2.43,2.43,0,0,0-1.21.1,1.32,1.32,0,0,1-.55.22c0.55,0-.39.29,0.42,0.33a1,1,0,0,1-.53.21,0.94,0.94,0,0,0,.63-0.15c0.76,0.07-.73.79,0.33,0.89a13.82,13.82,0,0,0,1.61.09,1.6,1.6,0,0,1-.76.2c-0.25.24-.16,0.34,0.12,0.37a1.68,1.68,0,0,0-.52.26c0.1,0.09.75-.24,0.52,0a7,7,0,0,1-.84.24c0.24,0.05.66,0,.89,0a1.94,1.94,0,0,1-.79.22,1.11,1.11,0,0,0,1,0l0.14-.18a1.34,1.34,0,0,1-.55.27c-0.47.08,0.1-.27,0.29-0.37l0.16,0c1.09-.63-0.33-0.24-0.35-0.46l0.87-.29-0.78.12a2.08,2.08,0,0,1,.83-0.31c0.37-.27-0.34,0,0.09-0.26a0.37,0.37,0,0,1,.15-0.05H240a0.94,0.94,0,0,1,.5-0.13c0.44-.35-0.75-0.09-0.12-0.37h0.06c-0.38-.18-0.65.18-1.47,0.17l0.78-.29,0.78-.28-0.66.14a0.36,0.36,0,0,1,.32-0.16,4.28,4.28,0,0,0-.72.12c0.56-.27-0.38-0.35.68-0.57a1.73,1.73,0,0,1-.74.11c1.13-.24-0.22-0.15.28-0.36a1.38,1.38,0,0,0,.81-0.08c-1,.06.18-0.26,0-0.33-0.8.07-.34-0.19-0.62-0.36a2.7,2.7,0,0,0,.73-0.49h0.13c-0.81,0-.65-0.22-0.81-0.35a3.33,3.33,0,0,1,.89.14v-0.1a0.87,0.87,0,0,1-.47-0.17l0.6,0.08c0-.13-0.67-0.36-0.25-0.49a5.58,5.58,0,0,1-1.91-.35,4,4,0,0,1,.93.19s-0.24-.11-0.11-0.13l0.49,0.17c0.23-.05-0.42-0.12-0.36-0.18,0.43,0.08.32,0,.65,0.07,0,0-.19,0,0,0.08a1.25,1.25,0,0,1,.7-0.07,1.63,1.63,0,0,1-.62-0.18,1.62,1.62,0,0,1,.76,0,1.39,1.39,0,0,0-.6-0.27,1.42,1.42,0,0,1,.48.05c-0.26-.14,0-0.34-0.67-0.46h0l0,0h0c-0.54-.45.51-0.4,0.35-0.72l0.2,0.08a1.47,1.47,0,0,0-.38-0.67,1.33,1.33,0,0,1,.63.21c-0.09-.17-0.3-0.3.09-0.28,0.28,0.28.31,0.13,0.19,0.23,0.23,0,.53.11,0.11-0.31,0.45,0.33.65,0.28,0.54,0.14l-0.39-.13c0-.1,0-0.13.12-0.16l0.59,0.43c0.44,0.15.17-.16,0-0.42s-0.28-.51.35-0.1c-0.35-.38-0.36-0.12-0.79-0.55a4.84,4.84,0,0,1,1.06.53c0.4,0.18-.68-0.83-0.35-0.77a2.65,2.65,0,0,1-.77-0.93,2.37,2.37,0,0,1,1,.89s-0.07,0-.13-0.08a0.73,0.73,0,0,0,.31.39l-0.17-.2a1.07,1.07,0,0,1,.58.37,0.7,0.7,0,0,0-.4-0.4c0.37,0.19.19-.14,0.47,0a1.52,1.52,0,0,1-.29-0.34c0.38,0.1-.22-0.46-0.14-0.65,0.31,0.27.52,0.8,0.46,0.43a2.19,2.19,0,0,1,.49.76c-0.17-.49.37,0.14,0.46,0.2l0.06,0.21c0-.13,0-0.13,0-0.14l-0.29-.44a0.51,0.51,0,0,1,.21.24,12.6,12.6,0,0,1-.61-1.19c0.18,0.21,0-.34.37,0.27-0.26-.13.33,0.61,0.27,0.77,0-.08,0-0.1.08,0a0.65,0.65,0,0,1,.07.17c0.39,0.49-.3-0.74-0.13-0.79a1.34,1.34,0,0,0,.32.58,2.48,2.48,0,0,1-.35-0.88c0.22,0.24,0-.26.1-0.25l-0.12-.11a0.49,0.49,0,0,1,0-.5c0.11,0.28,0,.23.07,0.34-0.13-.69.43,0.6,0.4,0.13,0.13,0.24.21,0.7,0.3,0.86,0-.52.25,0.48,0.26,0a2,2,0,0,1-.14-0.9s-0.14.41-.14,0.41l0-.39v-0.39a1.45,1.45,0,0,1-.14.29,1.57,1.57,0,0,0-.15-0.72c0.29,0.73.12-.51,0.37,0l0.24,1.28c0.24,0.55.17-.72,0.44-0.4l-0.09-.22c0-.52.14-0.08,0.2-0.29a5.89,5.89,0,0,0,.1.86,2.83,2.83,0,0,0,.17-0.84l0.09,0.58c0.15,0.24.27-1.24,0.47-1.06a6.58,6.58,0,0,1-.2,1.1c0.05,0,.09.1,0.13-0.2,0,0.27.24-.56,0.24-0.14a1.34,1.34,0,0,1,.2-0.59,1.69,1.69,0,0,1,0,.21,2.35,2.35,0,0,0,.19-0.75c0,0.68.11,0.7,0.27,0.68s0.31-.05.21,0.54a1.06,1.06,0,0,1,.51-0.15c-0.06.12-.08,0.2-0.09,0.15,0,0.44.6-1.1,0.62-.59a1.56,1.56,0,0,1-.32.56c-0.6,1.3.3-.08,0,0.73l-0.07.06c-0.17.47,0.46-.35,0.55-0.17a2,2,0,0,0-.12.18,1.6,1.6,0,0,1,1.09-.65,2.77,2.77,0,0,0-.57.65,4.66,4.66,0,0,1,.77-0.76,4.43,4.43,0,0,1-.61,1l-0.12-.06c-0.44.64,0.14,0.08,0.11,0.24l-0.23.25c0.21,0,.81-0.58.94-0.37l0.17-.2c0.71-.49-0.27.41,0.28,0.08l-0.62.61a3.27,3.27,0,0,1,1.06-.3c-0.56.32-.94,0.4-1.28,0.58,0,0.06.21,0.14,0.58-.09-0.09,0-.28.13-0.2,0,0.6-.37.95-0.44,1-0.28-1.39.95-.08,0.61-1.15,1.4,0.68-.09,0,0.56.2,0.76,1.16-.61.07,0.06,1.31-0.46,0.12,0,.1.08,0,0.12l-0.34.26-0.34.24a2.5,2.5,0,0,1-.58.14,2.82,2.82,0,0,1-.83.43c0.45-.17.67-0.17,0.52,0l0.55-.29c0.76,0-1,.48-0.3.47l-0.42,0a1.35,1.35,0,0,0,1.15.24,2,2,0,0,1-.61.1c-0.06.13,0.24,0.22,0.49,0.33s0.4,0.25.07,0.37h-0.33c0.1,0,.62.06,0.3,0.13a1.48,1.48,0,0,0-.35,0c0.12,0,.57.12,0.38,0.19l-0.37-.06c-0.45.22,0.9,0.41,1.09,0.69a2.82,2.82,0,0,0-1.46.12l-0.14,0c-0.17.22,0.72,0.59,1,1-1-.13-0.6.42-1.24,0.42a2.56,2.56,0,0,1,.75.4c-0.21,0,.52.46-0.27,0.05h0c-0.8-.35-0.64-0.15-0.71-0.08l1,0.58c-0.8-.29-0.75-0.1-0.69.14s0.11,0.47-.52.06c0.19,0.23.14,0.28,0.32,0.52l-0.47-.41c-0.22,0-.33,0-0.36.25l-0.29-.34c-0.09,0,1.15,1.4,1.07,1.51l-0.64-.67c-0.17.16-.78-0.38-0.46,0.41a1.86,1.86,0,0,1-.22-0.39c-0.1,0-.59-0.35.08,0.73-0.43-.71-0.21,0-0.16.41l-0.26-.56a2.4,2.4,0,0,1,.3,1.2c-0.07-.06-0.23-0.44-0.12-0.31-0.23-.25.14,0.57-0.12,0.32l-0.1-.38c-0.13,0,0,.19.06,0.65,0,0.27-.29-0.06-0.47-0.59,0.09,0.33.15,0.78,0,.64a1.56,1.56,0,0,1-.08-0.4c-0.29-.35-0.12.78-0.4,0.21a2.58,2.58,0,0,0-.09-0.36,0.34,0.34,0,0,1,.28,0,7.45,7.45,0,0,1-.37-1.4c0,0.44.07,1.36-.1,1.12l0-.19v-0.06c0-.05,0,0-0.05.1a0.3,0.3,0,0,0-.11-0.15c-0.07-.46-0.14-0.24-0.2-0.26a5.39,5.39,0,0,0,.08,1,0.09,0.09,0,0,1,0-.1,0.15,0.15,0,0,0,0-.07v0.05l0.15-.05c0,0.32,0,.58-0.14.25,0,0.4,0,.81,0,1a14.36,14.36,0,0,1-.37-1.84,2.5,2.5,0,0,0-.61,1.36,0.78,0.78,0,0,1,0-.53,0.77,0.77,0,0,0,.11-0.25,1.31,1.31,0,0,0-.49.87c-0.09-.38.21-0.73,0-0.62l0.07-.24c0-.67-0.26-0.2-0.56.22s-0.64.73-.54-0.12a1,1,0,0,1-.06.28c-0.1-.43-0.39-0.39-0.69-0.41s-0.58-.13-0.42-0.76c0-.27-0.29.13-0.62,0.38l0.4-.53-0.61.47c-0.27.13-.08-0.25,0.09-0.56s0.31-.57-0.17-0.31l-0.31.33c0-.13-0.42-0.08,0-0.4-0.07,0-.38.27-0.23,0.09l0.27-.22-0.31.09-0.31.08c0.09-.31,1.12-0.81,1-1a4.48,4.48,0,0,0-1.18.49,0.89,0.89,0,0,1-.4.41h-0.21a6.35,6.35,0,0,0-2.21,1.7l0.66-.15-0.36.35-0.15-.16c-0.31.37,0.07,0.2,0.35,0.1a1.54,1.54,0,0,0-.38.41L239,290l0.46-.2a2.27,2.27,0,0,0-.76.67,6.22,6.22,0,0,1,1-.69c-0.29.38-.6,0.6-0.2,0.45a1,1,0,0,1-.46.3,1.12,1.12,0,0,0,.77-0.15c-0.34.49,0.38,0.2-.31,0.87a2,2,0,0,1,.81-0.34c-0.95.7,0.27,0.34-.59,1.24,0.8-.67.78,0,1.35-0.26-0.06.06-.18,0.17-0.17,0.12a1.73,1.73,0,0,1-.09.68,6.25,6.25,0,0,1,1.21-1.12,7.84,7.84,0,0,1-1,1.5c0.37-.59.67-0.41,0.91-0.94a3.29,3.29,0,0,1-.3.94c0.55-.93.21-0.08,0.64-0.61-0.05.57-.41,0.92,0,0.74A0.94,0.94,0,0,1,241.79,293.75Zm6-.9h0l-0.1.05Zm0.43-.09a0.43,0.43,0,0,0-.19,0,0.66,0.66,0,0,1,0-.42A1,1,0,0,0,248.18,292.77Zm-1.38-4.11c0-.09,0,0,0.07.16a0.22,0.22,0,0,0-.05.08V289Z" transform="translate(-50.41 -60.19)"/><path class="cls-12" d="M246.81,289.47a0.16,0.16,0,0,1,0,0l0,0.14v-0.19h0Z" transform="translate(-50.41 -60.19)"/><path class="cls-12" d="M240.41,281.45h0Z" transform="translate(-50.41 -60.19)"/><polygon class="cls-12" points="203.67 230.09 203.55 229.99 203.63 230.11 203.67 230.09"/><path class="cls-12" d="M238,283.06l-0.16,0Z" transform="translate(-50.41 -60.19)"/><path class="cls-12" d="M237.86,284l-0.21.15A0.85,0.85,0,0,0,237.86,284Z" transform="translate(-50.41 -60.19)"/><path class="cls-12" d="M237.62,284.82l0.27,0h0Z" transform="translate(-50.41 -60.19)"/><path class="cls-12" d="M243.1,274a0.06,0.06,0,0,0,0,0C243.15,273.84,243.12,273.91,243.1,274Z" transform="translate(-50.41 -60.19)"/><path class="cls-12" d="M240.75,277.28a1.69,1.69,0,0,1-.13-0.29C240.54,277,240.5,277,240.75,277.28Z" transform="translate(-50.41 -60.19)"/><path class="cls-12" d="M247.78,272.77h0Z" transform="translate(-50.41 -60.19)"/><path class="cls-12" d="M240.74,276.89c-0.13,0-.15,0-0.12.11S240.77,277,240.74,276.89Z" transform="translate(-50.41 -60.19)"/><path class="cls-12" d="M238.35,288.17v0l0.09,0h-0.09Z" transform="translate(-50.41 -60.19)"/><path class="cls-12" d="M238.44,288.18h0.09S238.5,288.15,238.44,288.18Z" transform="translate(-50.41 -60.19)"/><path class="cls-12" d="M238.71,288.19h-0.18S238.54,288.25,238.71,288.19Z" transform="translate(-50.41 -60.19)"/><path class="cls-12" d="M238.19,287.09l-0.21.07Z" transform="translate(-50.41 -60.19)"/><path class="cls-12" d="M238,286.82c0,0.09-.39.34-0.22,0.4l0.17-.05C237.65,287.23,238.41,286.76,238,286.82Z" transform="translate(-50.41 -60.19)"/><path class="cls-12" d="M240.39,285l-0.13.23a1,1,0,0,1,.6-0.13C241.51,284.73,240.36,285.26,240.39,285Z" transform="translate(-50.41 -60.19)"/><path class="cls-12" d="M240.65,284.37a0.87,0.87,0,0,0,.48-0.05A0.62,0.62,0,0,0,240.65,284.37Z" transform="translate(-50.41 -60.19)"/><path class="cls-12" d="M241.35,280.42l0.5,0.26A1.43,1.43,0,0,0,241.35,280.42Z" transform="translate(-50.41 -60.19)"/><polygon class="cls-12" points="188.92 217.94 188.57 217.83 188.97 218.16 188.92 217.94"/><polygon class="cls-12" points="192.46 219.88 192.51 219.95 192.41 219.74 192.46 219.88"/><path class="cls-12" d="M247.61,278.27l0.18-.67A1.17,1.17,0,0,0,247.61,278.27Z" transform="translate(-50.41 -60.19)"/><path class="cls-12" d="M250.13,279c-0.22.26-.34,0.47-0.06,0.27C250.07,279.2,250.22,279,250.13,279Z" transform="translate(-50.41 -60.19)"/><polygon class="cls-12" points="199.63 226.18 199.46 226.03 199.58 226.19 199.63 226.18"/><path class="cls-10" d="M191.73,321.79a6.84,6.84,0,0,0,10,1.95,8.2,8.2,0,0,0,1.8-10.83,6.84,6.84,0,0,0-10-1.95A8.2,8.2,0,0,0,191.73,321.79Z" transform="translate(-50.41 -60.19)"/><ellipse class="cls-11" cx="232.25" cy="124.76" rx="7.18" ry="7.78"/><path class="cls-12" d="M274,185a0.67,0.67,0,0,0,.54-0.06l-0.73-.06Z" transform="translate(-50.41 -60.19)"/><path class="cls-12" d="M275.39,184.49a5.75,5.75,0,0,0-1.63-.23c0.69,0.14.4,0.15,1.23,0.28,0.08,0.07-.24.12-0.51,0.1,0.19,0-.17.12,0.29,0.16s0.6-.19.14-0.34A2.42,2.42,0,0,1,275.39,184.49Z" transform="translate(-50.41 -60.19)"/><path class="cls-12" d="M279,179.5l-0.08,0A0.16,0.16,0,0,0,279,179.5Z" transform="translate(-50.41 -60.19)"/><path class="cls-12" d="M282.28,178.62a0.24,0.24,0,0,0,0,.16A0.28,0.28,0,0,0,282.28,178.62Z" transform="translate(-50.41 -60.19)"/><path class="cls-12" d="M282.81,179.4l0-.05C282.79,179.42,282.8,179.46,282.81,179.4Z" transform="translate(-50.41 -60.19)"/><path class="cls-12" d="M279,179.5l0.21,0.12C279.11,179.43,279.1,179.51,279,179.5Z" transform="translate(-50.41 -60.19)"/><path class="cls-12" d="M273.76,183.28a0.53,0.53,0,0,0,.18.1l-0.07-.08Z" transform="translate(-50.41 -60.19)"/><path class="cls-12" d="M278.41,181v0l0.22,0.2Z" transform="translate(-50.41 -60.19)"/><path class="cls-12" d="M277.92,182a8.23,8.23,0,0,0-.74-0.43,1.51,1.51,0,0,1,.35.25Z" transform="translate(-50.41 -60.19)"/><path class="cls-12" d="M276.28,183.4l0.07,0.05Z" transform="translate(-50.41 -60.19)"/><path class="cls-12" d="M279,180.49l0.16,0.15Z" transform="translate(-50.41 -60.19)"/><path class="cls-12" d="M272.79,187.11l0.11,0A0.14,0.14,0,0,0,272.79,187.11Z" transform="translate(-50.41 -60.19)"/><polygon class="cls-12" points="225.23 124.76 225.27 124.78 225.61 124.78 225.23 124.76"/><path class="cls-12" d="M283.48,180.28h0C283.45,180.33,283.46,180.32,283.48,180.28Z" transform="translate(-50.41 -60.19)"/><path class="cls-12" d="M287.19,186.06a10.82,10.82,0,0,0,1.3.26A5,5,0,0,0,287.19,186.06Z" transform="translate(-50.41 -60.19)"/><path class="cls-12" d="M273.85,183.25a0.12,0.12,0,0,1,0-.07A0,0,0,0,0,273.85,183.25Z" transform="translate(-50.41 -60.19)"/><path class="cls-12" d="M288.48,186.32h0Z" transform="translate(-50.41 -60.19)"/><path class="cls-12" d="M285.21,180.7l0.15-.23Z" transform="translate(-50.41 -60.19)"/><path class="cls-12" d="M284.3,179.22v0.09A0.15,0.15,0,0,0,284.3,179.22Z" transform="translate(-50.41 -60.19)"/><path class="cls-12" d="M286.39,180.6s-0.07.11,0,.08l0-.06C286.37,180.66,286.33,180.68,286.39,180.6Z" transform="translate(-50.41 -60.19)"/><path class="cls-12" d="M287,181.31l0.09-.08h0Z" transform="translate(-50.41 -60.19)"/><path class="cls-12" d="M275,191.43a4.8,4.8,0,0,1,.4-0.39C275.09,191.32,274.82,191.22,275,191.43Z" transform="translate(-50.41 -60.19)"/><path class="cls-12" d="M274.1,183.33a0.66,0.66,0,0,1-.26-0.09l0,0.05Z" transform="translate(-50.41 -60.19)"/><path class="cls-12" d="M290,177.29l0.11,0.26A0.39,0.39,0,0,0,290,177.29Z" transform="translate(-50.41 -60.19)"/><path class="cls-12" d="M285.5,194.79l0,0.09S285.51,194.86,285.5,194.79Z" transform="translate(-50.41 -60.19)"/><path class="cls-12" d="M290.66,178.1a1.54,1.54,0,0,0-.25.38l0.15-.07Z" transform="translate(-50.41 -60.19)"/><path class="cls-12" d="M275.43,191h0Z" transform="translate(-50.41 -60.19)"/><path class="cls-12" d="M273.29,190.37c0.11,0.24.76-.27,1.2-0.44,0.34,0.13-.46.4-0.77,0.69a7.72,7.72,0,0,1,1-.08,1,1,0,0,1-.29.19c0.65-.19.35,0.46,1.13,0.15l-0.15.14a10.92,10.92,0,0,1,.88-0.69c0.06,0.07.5-.17,0.11,0.17a0.63,0.63,0,0,0-.34.15l0.24-.06c-0.55.54-.3,0.06-0.74,0.39,0.33,0,1-.21.89,0-0.55.51-.42-0.12-0.8,0.47l0.06-.37c-0.8.88,0-.17-0.91,0.75,0.07,0.42.55,0.07,0.61,0.48,0.36-.22.44-0.43,0.79-0.66,0.85-.21-1.07,1.58-0.11,1.14,0.41-.3,1.06-1,0.91-0.45l-0.62.58c0.21,0.28.93-.81,0.83-0.16a2.76,2.76,0,0,1-.4.17c-0.24.66,0.42-.27,0.55-0.17l-0.43.62a11.46,11.46,0,0,0,1.37,0,1.41,1.41,0,0,0-.34.59c0.63-.08.89,0.58,1.24,1.17l0.4-.54a0.58,0.58,0,0,1-.11.41c0.11,0.3.14-.38,0.31-0.59,0.11,0,0,.39-0.11.56,0.53-.42,1.19-0.87,1.41-0.16L281,195c0.24,0.31.5-1.26,0.65-.63l-0.06.11c0.56,0.34,1.15-.23,1.65.7,0-.92.64,0.37,0.52-0.93a2.62,2.62,0,0,0,.93,1.17,5.39,5.39,0,0,0,.12-1l0.17,0.65,0-.74,0.34,0.75,0.1-.21a0.83,0.83,0,0,1-.26-0.44c0.12-.34.67,0.27,0.81,0.59l0.16-.37,0.14-.37a1.1,1.1,0,0,1,0,.56c0-.75.34,0.63,0.35-0.06a2.29,2.29,0,0,1-.2-0.5,0.39,0.39,0,0,0,.7-0.09l0.19,0.43a4,4,0,0,0,1.05-.92,1.45,1.45,0,0,1-.65-0.89l0.47,0.54a2.77,2.77,0,0,1-.46-0.67,1.45,1.45,0,0,1,.65.82v-0.33a5.39,5.39,0,0,1,.33.5c-0.21-.4.76,0.31,0.36-0.36l0.15,0.15a4.59,4.59,0,0,0,.59-1,3.18,3.18,0,0,1-.55-0.85,1.48,1.48,0,0,0,1-.28,2,2,0,0,0-.63-0.66c0.46,0.32.6,0,.84,0.39a1.32,1.32,0,0,0,0-1.12,1.26,1.26,0,0,1-.49-0.19c0-.11.3,0,0.53,0.09l0,0c-0.24-.43.25-0.49,0.71-0.62s0.89-.3.4-0.71l0,0-0.22-.31-0.22-.3c0.16-.16.37,0.24,0.75,0.2-0.75-.72.33-0.72-0.19-1.25,0.85,0,.86-0.29.8-0.6s-0.22-.62.32-0.81H292.7c-0.38-.13.23-0.12,0.32-0.2a1.46,1.46,0,0,1-.57,0c-0.42-.89.54-1.88,0.67-3,0-.4-2,0.27-1.21-0.37l0.73-.07a1.22,1.22,0,0,1-.71-0.92,1,1,0,0,0-.69-0.85,0.65,0.65,0,0,1,.39-0.07c0.42-.37-0.23-0.51-0.61-0.3a1.94,1.94,0,0,1,.49-0.37c0.19-.29-0.77,0-0.35-0.32a0.31,0.31,0,0,1,.22,0c-0.26,0-.19-0.43-0.65,0,0.09-.38-0.5-0.25-0.33-0.63-0.61.3,0-.55-0.8,0,0.79-.61.31-0.87-0.13-0.67,0.26-.16.13-0.31,0.48-0.55-0.15-.13-0.41-0.13-0.74.26,0.3-.54,0-0.5-0.25-0.46s-0.45.09,0-.56a15,15,0,0,1-1.92,0c0.52-.85.5,0.2,1-0.68-0.65.05-1.29,0.69-1.57,0.27a0.81,0.81,0,0,1,.36-0.49c-0.59.14-.83-0.46-1.4-0.11a0.57,0.57,0,0,1,.17-0.23c-0.09,0-.14-0.2-0.27.23l0.11-.09a7,7,0,0,1-.8,1.55c0.48-1.21-.26-0.41.35-1.93a1.08,1.08,0,0,0-.26.55,0.7,0.7,0,0,1,.12-0.59c-0.35.16-.35,0.65-0.6,0.6a4.51,4.51,0,0,1,.19-0.53c-0.22.39-.41,0.79-0.59,0.58a0.39,0.39,0,0,1,.1-0.29c-0.4,0-.73,1.06-1.07.63,0.14-.94-0.12-0.32-0.14-1.14l-0.23.25,0.09,0.39c-0.2,0-.33.6-0.5,0.34l0.12-.35-0.34.18,0.22,0.3c-0.15.43,0.09,1-.14,0.82a1.36,1.36,0,0,1-.31-0.46h0c-0.05.27-.09,0.56-0.24,0.38s-0.13-.9-0.18-1.07c0,0.69-.4.25-0.33,1a3.65,3.65,0,0,0-.13-0.68l0.06,0.56a1.1,1.1,0,0,1-.23-0.57c-0.27,0,.34,1-0.05.63a1.12,1.12,0,0,1,0-.22c-0.36-.15-0.43.49-0.76,0.34-0.38-.74.15-0.28-0.18-0.89-0.37.29-.38,1.23-0.79,1.24l0.11,0c0.53,1-.53-0.38-0.41.21a2.15,2.15,0,0,0-.23-0.47c-0.32,0-.33.53-0.39,1.06l-0.15-.27a1.08,1.08,0,0,0-.63.14,1.25,1.25,0,0,0,.39.57c-0.75-.46-0.79-0.1-0.76.24s0.14,0.7-.56.42a0.29,0.29,0,0,0-.15-0.23l0,0.47a2.88,2.88,0,0,0,.64.33,0.74,0.74,0,0,1,.29.5,1.75,1.75,0,0,0-.93-0.59c0.13,0.08.26,0.2,0.39,0.29-0.84-.37.82,0.62,0.18,0.47l-0.21-.16c0.06,0.15.31,0.41,0.19,0.45A2.8,2.8,0,0,1,276,180c-0.06.15,0.8,0.82,0.24,0.63-0.11-.13-0.07-0.21-0.18-0.35-0.66-.23-0.52-0.12-0.67-0.08h0l-0.4.08,0.2,0c1.26,0.88.06,0.47,0.87,1.12a2.42,2.42,0,0,0-1.08-.56,1.32,1.32,0,0,1-.59-0.11c0.44,0.33-.48,0,0.17.5a1,1,0,0,1-.56-0.1,0.93,0.93,0,0,0,.61.21c0.61,0.47-1,.28-0.19.93a14,14,0,0,0,1.32.94A1.6,1.6,0,0,1,275,183c-0.34.07-.32,0.2-0.09,0.38a1.69,1.69,0,0,0-.58-0.06c0,0.12.76,0.2,0.43,0.29a7,7,0,0,1-.84-0.24c0.17,0.17.55,0.36,0.73,0.51a2,2,0,0,1-.79-0.23,1.11,1.11,0,0,0,.87.55l0.21-.08a1.35,1.35,0,0,1-.61-0.07c-0.45-.18.23-0.17,0.44-0.15l0.12,0.11c1.26,0-.15-0.38,0-0.58l0.89,0.22-0.72-.31a2.08,2.08,0,0,1,.87.18c0.46,0-.3-0.17.22-0.17a0.37,0.37,0,0,1,.15,0l-0.24-.17a0.93,0.93,0,0,1,.49.16c0.56-.07-0.59-0.47.1-0.38l0.05,0c-0.23-.35-0.65-0.2-1.34-0.64l0.82,0.17,0.81,0.18-0.63-.23a0.36,0.36,0,0,1,.35,0,4.29,4.29,0,0,0-.67-0.28c0.62,0.07-.14-0.5.88-0.13a1.73,1.73,0,0,1-.69-0.3c1.08,0.4-.11-0.24.43-0.16a1.39,1.39,0,0,0,.72.36c-0.88-.48.29-0.12,0.16-0.28-0.71-.37-0.19-0.35-0.33-0.63a2.8,2.8,0,0,0,.87,0l0.11,0.08c-0.65-.48-0.43-0.53-0.49-0.73a3.42,3.42,0,0,1,.67.6l0.05-.09a0.88,0.88,0,0,1-.31-0.4l0.46,0.39c0.05-.11-0.37-0.67.05-0.54a5.58,5.58,0,0,1-1.4-1.35,4,4,0,0,1,.67.67s-0.14-.22,0-0.16l0.32,0.41c0.22,0.09-.28-0.32-0.19-0.35,0.31,0.3.26,0.18,0.5,0.42,0,0-.17-0.08-0.07.05a1.25,1.25,0,0,1,.61.33,1.66,1.66,0,0,1-.41-0.49,1.63,1.63,0,0,1,.61.45,1.45,1.45,0,0,0-.35-0.55,1.43,1.43,0,0,1,.37.31c-0.14-.26.2-0.26-0.3-0.75l0,0v0h0c-0.19-.69.64,0,0.68-0.38l0.12,0.18a1.51,1.51,0,0,0,.08-0.75,1.32,1.32,0,0,1,.38.54c0-.19-0.07-0.43.23-0.17,0.06,0.39.17,0.29,0,.3,0.2,0.1.36,0.43,0.26-.18,0.17,0.53.35,0.62,0.34,0.44l-0.23-.34c0-.1.11-0.08,0.19-0.06l0.22,0.7c0.25,0.37.22,0,.24-0.32s0.08-.58.33,0.13c0-.52-0.21-0.32-0.28-0.92a4.94,4.94,0,0,1,.5,1.08c0.19,0.38,0-1.08.19-.83a2.62,2.62,0,0,1,0-1.2,2.42,2.42,0,0,1,.18,1.3s0-.06-0.05-0.15a0.73,0.73,0,0,0,0,.49V179a1.12,1.12,0,0,1,.21.66,0.72,0.72,0,0,0-.05-0.56c0.16,0.37.23,0,.38,0.26a1.6,1.6,0,0,1,0-.45c0.22,0.34.12-.49,0.3-0.59,0.07,0.4-.11.95,0.08,0.62a2.28,2.28,0,0,1-.1.9c0.18-.5.18,0.36,0.21,0.46l-0.09.2c0-.12.08-0.11,0.1-0.1l0.06-.52a0.49,0.49,0,0,1,0,.32,12.76,12.76,0,0,1,.3-1.3c0,0.27.25-.25,0.11,0.44-0.11-.27-0.14.67-0.29,0.76,0-.08.07-0.07,0.08,0a0.65,0.65,0,0,1-.05.17c0,0.64.24-.74,0.4-0.68a1.31,1.31,0,0,0-.13.65,2.51,2.51,0,0,1,.3-0.9c0,0.32.19-.19,0.24-0.13l0-.16a0.46,0.46,0,0,1,.32-0.37c-0.1.29-.15,0.17-0.16,0.3,0.34-.6-0.06.74,0.23,0.36-0.05.26-.29,0.67-0.32,0.85,0.33-.4-0.12.54,0.17,0.22a2,2,0,0,1,.47-0.78l-0.38.22,0.23-.31,0.24-.3a1.17,1.17,0,0,1-.29.12,1.54,1.54,0,0,0,.34-0.65c-0.25.76,0.42-.3,0.29,0.24l-0.63,1.13c-0.16.56,0.59-.41,0.61,0l0.07-.23c0.32-.41.17,0,0.35-0.1a5.67,5.67,0,0,0-.46.73,2.5,2.5,0,0,0,.66-0.54l-0.29.5c0,0.28,1-.78,1-0.52a6.17,6.17,0,0,1-.85.73s0,0.14.23-.08c-0.17.21,0.54-.29,0.29,0a1.27,1.27,0,0,1,.52-0.33,1.64,1.64,0,0,1-.16.14,2.24,2.24,0,0,0,.61-0.47c-0.43.54-.33,0.62-0.2,0.7s0.27,0.17-.16.57a0.92,0.92,0,0,1,.51.2c-0.12.06-.19,0.11-0.16,0.07-0.26.36,1.13-.52,0.85-0.1a1.53,1.53,0,0,1-.59.27c-1.25.69,0.3,0.12-.4,0.62h-0.09c-0.4.29,0.59,0,.57,0.19l-0.2.08a1.66,1.66,0,0,1,1.27.1,2.74,2.74,0,0,0-.84.22,4.72,4.72,0,0,1,1.07-.19,4.52,4.52,0,0,1-1.09.5l-0.07-.12c-0.73.28,0.07,0.16,0,.27l-0.33.08c0.15,0.16,1,0,1,.23l0.25-.07c0.86,0-.46.19,0.19,0.22l-0.85.17a3.34,3.34,0,0,1,1.05.34c-0.64,0-1-.18-1.39-0.22,0,0.08.1,0.25,0.53,0.25-0.08,0-.3,0-0.17-0.09,0.7,0,1,.15,1,0.34-1.68,0-.4.47-1.72,0.56,0.62,0.3-.29.49-0.24,0.76,1.31,0.1,0,.09,1.35.3,0.08,0.1,0,.13,0,0.12l-0.42,0-0.42,0a2.48,2.48,0,0,1-.57-0.19,2.82,2.82,0,0,1-.94-0.07c0.47,0.1.66,0.21,0.46,0.24l0.62,0c0.64,0.4-1.12-.14-0.51.24l-0.38-.18a1.35,1.35,0,0,0,.85.81,2,2,0,0,1-.57-0.24c-0.12.07,0.09,0.31,0.23,0.53s0.21,0.42-.13.34l-0.28-.18c0.06,0.08.49,0.39,0.18,0.27a1.52,1.52,0,0,0-.3-0.18c0.09,0.08.42,0.41,0.22,0.36l-0.28-.24c-0.49-.07.55,0.82,0.55,1.15a3,3,0,0,0-1.28-.71l-0.1-.09c-0.25.07,0.29,0.87,0.3,1.34-0.78-.71-0.71,0-1.21-0.4a2.68,2.68,0,0,1,.38.76c-0.14-.15.16,0.67-0.24-0.12h0c-0.44-.75-0.42-0.5-0.5-0.48l0.46,1.06c-0.47-.73-0.52-0.54-0.61-0.31s-0.18.44-.42-0.28c0,0.3-.05.32-0.05,0.61l-0.12-.61c-0.18-.14-0.24-0.19-0.4,0v-0.44c-0.08,0,0,1.79-.1,1.84l-0.08-.93c-0.22,0-.34-0.81-0.59,0a2,2,0,0,1,.08-0.44c-0.09,0-.21-0.67-0.39.6,0.13-.83-0.17-0.1-0.38.22l0.16-.59a2.38,2.38,0,0,1-.54,1.11c0-.09.11-0.48,0.11-0.32,0-.34-0.26.53-0.3,0.18l0.17-.36c-0.1-.07-0.15.12-0.37,0.53-0.16.2-.18-0.24,0-0.75-0.14.31-.39,0.7-0.4,0.52a1.58,1.58,0,0,1,.19-0.36c0-.45-0.59.5-0.44-0.1a2.5,2.5,0,0,0,.16-0.33,0.3,0.3,0,0,1,.19.21,7.35,7.35,0,0,1,.62-1.31c-0.24.35-.83,1.09-0.81,0.8l0.09-.18,0,0c0-.06,0,0-0.1,0a0.33,0.33,0,0,0,0-.19c0.24-.4,0-0.28,0-0.32a5.22,5.22,0,0,0-.59.84,0.09,0.09,0,0,1,.1-0.05,0.16,0.16,0,0,0,.06,0l0,0,0.15,0.05c-0.21.24-.4,0.43-0.27,0.1-0.25.31-.52,0.62-0.65,0.77a15.26,15.26,0,0,1,.88-1.67,2.47,2.47,0,0,0-1.35.66c-0.15.06,0.18-.29,0.3-0.43a0.8,0.8,0,0,0,.25-0.13,1.34,1.34,0,0,0-.93.38c0.17-.36.61-0.44,0.38-0.5l0.2-.14c0.38-.57-0.11-0.32-0.59-0.19s-1,.2-0.37-0.44a1,1,0,0,1-.22.2c0.19-.43-0.11-0.55-0.32-0.76s-0.4-.46.08-0.88c0.18-.2-0.32-0.06-0.73,0l0.63-.21-0.78,0c-0.6-.13,1.49-0.71.42-0.78l-0.44.11c0.07-.11-0.31-0.3.2-0.34-0.08,0-.47,0-0.24,0l0.34,0-0.31-.1-0.3-.11c0.24-.22,1.38-0.07,1.43-0.32a4.3,4.3,0,0,0-1.26-.23,0.88,0.88,0,0,1-.56.13l-0.19-.11a6.47,6.47,0,0,0-2.78.23l0.64,0.22-0.49.1,0-.21c-0.46.14,0,.2,0.24,0.27a1.57,1.57,0,0,0-.54.14l0.49,0.09,0.49,0.08a2.34,2.34,0,0,0-1,.15,6.31,6.31,0,0,1,1.2,0c-0.45.16-.83,0.17-0.41,0.26a1.06,1.06,0,0,1-.55,0,1.14,1.14,0,0,0,.73.29c-0.55.21,0.2,0.37-.74,0.54a2,2,0,0,1,.86.16c-1.18.06,0,.42-1.18,0.68,1-.11.61,0.44,1.25,0.52-0.08,0-.25,0-0.21,0a1.7,1.7,0,0,1-.46.49,6.26,6.26,0,0,1,1.62-.23,8.13,8.13,0,0,1-1.69.64c0.64-.27.78,0,1.29-0.25a3.3,3.3,0,0,1-.8.58c1-.43.22,0.05,0.87-0.13-0.38.42-.88,0.51-0.47,0.56A1,1,0,0,1,273.29,190.37Zm5.14,2.85h0l-0.11,0Zm0.39,0.2a0.41,0.41,0,0,0-.16-0.11,0.67,0.67,0,0,1,.24-0.35A1,1,0,0,0,278.83,193.42Zm1.56-4c0.08-.05,0,0.05,0,0.16l-0.09,0,0,0.06Z" transform="translate(-50.41 -60.19)"/><path class="cls-12" d="M279.88,190l0,0-0.06.13,0.12-.15h0Z" transform="translate(-50.41 -60.19)"/><path class="cls-12" d="M278.94,179.45h0l-0.07-.06Z" transform="translate(-50.41 -60.19)"/><polygon class="cls-12" points="234.64 135.04 234.6 134.89 234.59 135.04 234.64 135.04"/><path class="cls-12" d="M276,179.45l-0.15-.07Z" transform="translate(-50.41 -60.19)"/><path class="cls-12" d="M275.4,180.21l-0.26,0A0.85,0.85,0,0,0,275.4,180.21Z" transform="translate(-50.41 -60.19)"/><path class="cls-12" d="M274.77,180.75l0.23,0.13h0Z" transform="translate(-50.41 -60.19)"/><path class="cls-12" d="M285.61,175.29h0C285.77,175.2,285.7,175.22,285.61,175.29Z" transform="translate(-50.41 -60.19)"/><path class="cls-12" d="M281.68,176.31a1.71,1.71,0,0,1,.08-0.31C281.69,176,281.64,176,281.68,176.31Z" transform="translate(-50.41 -60.19)"/><path class="cls-12" d="M290,177.26h0l0,0v0Z" transform="translate(-50.41 -60.19)"/><path class="cls-12" d="M281.93,176c-0.08-.12-0.13-0.09-0.17,0S281.89,176.1,281.93,176Z" transform="translate(-50.41 -60.19)"/><path class="cls-12" d="M273.6,184l0,0h0.1Z" transform="translate(-50.41 -60.19)"/><path class="cls-12" d="M273.68,184l0.07,0S273.74,184,273.68,184Z" transform="translate(-50.41 -60.19)"/><path class="cls-12" d="M273.9,184.17l-0.15-.1S273.72,184.14,273.9,184.17Z" transform="translate(-50.41 -60.19)"/><path class="cls-12" d="M274,183l-0.22-.06Z" transform="translate(-50.41 -60.19)"/><path class="cls-12" d="M274,182.66c-0.07.06-.51,0.08-0.4,0.22l0.17,0C273.51,182.81,274.4,182.81,274,182.66Z" transform="translate(-50.41 -60.19)"/><path class="cls-12" d="M277,182.38l-0.23.12a1,1,0,0,1,.58.21C278.11,182.74,276.85,182.58,277,182.38Z" transform="translate(-50.41 -60.19)"/><path class="cls-12" d="M277.56,182a0.88,0.88,0,0,0,.43.21A0.62,0.62,0,0,0,277.56,182Z" transform="translate(-50.41 -60.19)"/><path class="cls-12" d="M280.28,179.17l0.25,0.51A1.5,1.5,0,0,0,280.28,179.17Z" transform="translate(-50.41 -60.19)"/><polygon class="cls-12" points="229.6 115.93 229.39 115.64 229.51 116.14 229.6 115.93"/><polygon class="cls-12" points="231.24 119.63 231.23 119.71 231.27 119.48 231.24 119.63"/><path class="cls-12" d="M286.43,181.5l0.55-.43A1.13,1.13,0,0,0,286.43,181.5Z" transform="translate(-50.41 -60.19)"/><path class="cls-12" d="M288.12,183.68c-0.34.1-.55,0.21-0.2,0.2C288,183.81,288.21,183.7,288.12,183.68Z" transform="translate(-50.41 -60.19)"/><polygon class="cls-12" points="233.77 129.49 233.72 129.26 233.72 129.47 233.77 129.49"/><ellipse class="cls-10" cx="278.68" cy="167.05" rx="7.18" ry="7.78"/><ellipse class="cls-10" cx="232.25" cy="176.51" rx="7.18" ry="7.78"/><line class="cls-13" x1="155.5" y1="215.58" x2="155.5" y2="215.58"/><path class="cls-10" d="M238.31,239.46a6.84,6.84,0,0,0,10,1.95,8.2,8.2,0,0,0,1.8-10.83,6.84,6.84,0,0,0-10-1.95A8.2,8.2,0,0,0,238.31,239.46Z" transform="translate(-50.41 -60.19)"/><path class="cls-10" d="M448.86,74.81c-4,.28-7,4-6.7,8.27s3.67,7.54,7.63,7.26,7-4,6.7-8.27S452.81,74.53,448.86,74.81Z" transform="translate(-50.41 -60.19)"/><path class="cls-14" d="M107.59,60.19c0,28.12-4.4,28.12-4.4,56.24s4.4,28.12,4.4,56.24-4.4,28.12-4.4,56.24,4.4,28.12,4.4,56.24-4.4,28.13-4.4,56.25,4.4,28.13,4.4,56.25" transform="translate(-50.41 -60.19)"/><path class="cls-14" d="M73.77,356.63c39.73,0,39.73,4.4,79.46,4.4s39.73-4.4,79.46-4.4,39.73,4.4,79.46,4.4,39.73-4.4,79.46-4.4,39.73,4.4,79.47,4.4,39.73-4.4,79.47-4.4" transform="translate(-50.41 -60.19)"/><line class="cls-15" x1="146.12" y1="298.27" x2="146.12" y2="306.59"/><line class="cls-15" x1="195.95" y1="294.42" x2="195.95" y2="306.59"/><line class="cls-15" x1="239.43" y1="298.63" x2="239.43" y2="306.59"/><line class="cls-15" x1="278.68" y1="298.63" x2="278.68" y2="306.59"/><line class="cls-15" x1="313.38" y1="298.63" x2="313.38" y2="306.59"/><line class="cls-15" x1="355.74" y1="294.42" x2="355.74" y2="306.59"/><line class="cls-15" x1="398.91" y1="298.63" x2="398.91" y2="311.03"/><text class="cls-16" transform="translate(395.91 117.83) scale(0.57 1)">Wee<tspan class="cls-17" x="47.55" y="0">k</tspan><tspan x="59.51" y="0">end O</tspan><tspan x="125.79" y="0">u</tspan><tspan x="137.65" y="0">t</tspan><tspan x="147.46" y="0">l</tspan><tspan x="153.05" y="0">i</tspan><tspan x="157.9" y="0">er</tspan></text><path class="cls-11" d="M141.66,316c57.83-38.84,60.29-35.19,118.12-74S315.17,199.45,373,160.61s60.29-35.19,118.12-74" transform="translate(-50.41 -60.19)"/><path class="cls-18" d="M141.66,316c57.83-38.84,60.29-35.19,118.12-74S315.17,199.45,373,160.61s60.29-35.19,118.12-74" transform="translate(-50.41 -60.19)"/></svg>