<svg id="Layer_3" data-name="Layer 3" xmlns="http://www.w3.org/2000/svg" viewBox="0 0 445.12 408.67"><defs><style>.cls-1,.cls-13,.cls-14,.cls-17,.cls-2,.cls-3,.cls-4,.cls-5{fill:none;}.cls-1{stroke:#1fda9a;stroke-dasharray:29.89 4.98;opacity:0.3;}.cls-1,.cls-10,.cls-13,.cls-14,.cls-17,.cls-2,.cls-3,.cls-4,.cls-5{stroke-miterlimit:10;}.cls-1,.cls-10,.cls-17,.cls-2,.cls-3,.cls-4{stroke-width:2.49px;}.cls-2,.cls-3,.cls-4,.cls-5{stroke:#c4c4c4;}.cls-3{stroke-dasharray:28.59 4.77;}.cls-4{stroke-dasharray:28.59 4.76;}.cls-5{stroke-width:1.87px;}.cls-6{fill:#c4c4c4;}.cls-7{font-size:20.71px;}.cls-15,.cls-18,.cls-20,.cls-23,.cls-7,.cls-9{fill:#616161;font-family:Noteworthy;font-weight:700;}.cls-8{letter-spacing:-1.01px;}.cls-9{font-size:24.69px;}.cls-10,.cls-11{fill:#fff;}.cls-10{stroke:#28abe3;}.cls-12{fill:#43b6e7;}.cls-13{stroke:#565656;stroke-width:4.4px;}.cls-14{stroke:#606060;stroke-width:3.43px;}.cls-15{font-size:20.58px;}.cls-16{letter-spacing:-1.38px;}.cls-17{stroke:#5b5b5b;}.cls-18{font-size:25.84px;}.cls-19{letter-spacing:-0.96px;}.cls-20{font-size:33.33px;}.cls-21{letter-spacing:-0.88px;}.cls-22{letter-spacing:-6.19px;}.cls-23{font-size:28.07px;}</style></defs><title>fit-model</title><line class="cls-1" x1="57.5" y1="246.68" x2="414.39" y2="246.68"/><line class="cls-1" x1="223" y1="351.9" x2="223" y2="146.22"/><path class="cls-2" d="M107,347c5.25,0,10.22,0,14.95,0" transform="translate(-71.81 -54.04)"/><path class="cls-3" d="M126.75,347c81.14,0.53,87.69,4.34,181,4.34,94.22,0,100-3.88,183.39-4.35" transform="translate(-71.81 -54.04)"/><path class="cls-2" d="M493.53,347c4.73,0,9.7,0,14.95,0" transform="translate(-71.81 -54.04)"/><path class="cls-2" d="M107,389.49c5.25,0,10.22,0,14.95,0" transform="translate(-71.81 -54.04)"/><path class="cls-3" d="M126.75,389.55c81.14,0.53,87.69,4.34,181,4.34,94.22,0,100-3.88,183.39-4.35" transform="translate(-71.81 -54.04)"/><path class="cls-2" d="M493.53,389.53c4.73,0,9.7,0,14.95,0" transform="translate(-71.81 -54.04)"/><path class="cls-2" d="M107.06,249.86c5.25,0,10.22,0,14.95,0" transform="translate(-71.81 -54.04)"/><path class="cls-4" d="M126.77,249.92c81.13,0.53,87.68,4.34,181,4.34,94.21,0,100-3.88,183.37-4.35" transform="translate(-71.81 -54.04)"/><path class="cls-2" d="M493.51,249.9c4.73,0,9.7,0,14.95,0" transform="translate(-71.81 -54.04)"/><path class="cls-2" d="M107.06,204.11c5.25,0,10.22,0,14.95,0" transform="translate(-71.81 -54.04)"/><path class="cls-4" d="M126.77,204.17c81.13,0.53,87.68,4.34,181,4.34,94.21,0,100-3.88,183.37-4.35" transform="translate(-71.81 -54.04)"/><path class="cls-2" d="M493.51,204.15c4.73,0,9.7,0,14.95,0" transform="translate(-71.81 -54.04)"/><path class="cls-5" d="M407.42,370.35c-18.4-34-5.11-71.39,30.4-84.34" transform="translate(-71.81 -54.04)"/><path class="cls-6" d="M409.17,354.86a0.93,0.93,0,0,0-1,.87L407.24,370l-12.51-6.87a0.93,0.93,0,0,0-.9,1.63l13.79,7.58a0.93,0.93,0,0,0,1.38-.76l1-15.7A0.93,0.93,0,0,0,409.17,354.86Z" transform="translate(-71.81 -54.04)"/><text class="cls-7" transform="translate(172.89 399.66) scale(0.99 1)">C<tspan x="14.55" y="0">u</tspan><tspan x="24.67" y="0">p</tspan><tspan x="34.79" y="0">s </tspan><tspan x="49.32" y="0">o</tspan><tspan x="59.44" y="0">f C</tspan><tspan x="86.6" y="0">o</tspan><tspan class="cls-8" x="96.72" y="0">f</tspan><tspan class="cls-8" x="103.35" y="0">f</tspan><tspan x="110.57" y="0">ee</tspan></text><text class="cls-9" transform="matrix(-0.01, -0.78, 1, -0.02, 24.3, 291.34)">Work Do<tspan x="91.68" y="0">n</tspan><tspan x="104.98" y="0">e</tspan></text><path class="cls-10" d="M183.68,346.41a6.49,6.49,0,0,0,12.95,0c0-3.34.68-6.06-2.9-6.06S183.68,343.06,183.68,346.41Z" transform="translate(-71.81 -54.04)"/><ellipse class="cls-10" cx="268.32" cy="177.16" rx="6.47" ry="6.06"/><ellipse class="cls-10" cx="268.24" cy="232.33" rx="6.47" ry="6.06"/><ellipse class="cls-10" cx="235.94" cy="216.91" rx="6.47" ry="6.06"/><ellipse class="cls-11" cx="306.44" cy="246.58" rx="6.47" ry="6.06"/><path class="cls-12" d="M370.32,300.62a0.76,0.76,0,0,0,.54-0.06l-0.73-.06Z" transform="translate(-71.81 -54.04)"/><path class="cls-12" d="M371.69,300.23a6.83,6.83,0,0,0-1.63-.24c0.69,0.14.4,0.14,1.23,0.27,0.08,0.07-.24.1-0.51,0.08,0.19,0-.17.1,0.29,0.15s0.59-.15.14-0.29A2.84,2.84,0,0,1,371.69,300.23Z" transform="translate(-71.81 -54.04)"/><path class="cls-12" d="M375.14,296.49l-0.07-.05A0.17,0.17,0,0,0,375.14,296.49Z" transform="translate(-71.81 -54.04)"/><path class="cls-12" d="M377.92,296a0.28,0.28,0,0,0,0,.16A0.33,0.33,0,0,0,377.92,296Z" transform="translate(-71.81 -54.04)"/><path class="cls-12" d="M378.37,296.79l0-.05C378.36,296.81,378.37,296.85,378.37,296.79Z" transform="translate(-71.81 -54.04)"/><path class="cls-12" d="M375.14,296.49l0.19,0.15C375.2,296.44,375.2,296.51,375.14,296.49Z" transform="translate(-71.81 -54.04)"/><path class="cls-12" d="M370.07,299.1a0.57,0.57,0,0,0,.18.1l-0.07-.08Z" transform="translate(-71.81 -54.04)"/><path class="cls-12" d="M374.58,297.72v0l0.2,0.21Z" transform="translate(-71.81 -54.04)"/><path class="cls-12" d="M374.15,298.45s-0.48-.34-0.7-0.5a2,2,0,0,1,.33.27Z" transform="translate(-71.81 -54.04)"/><path class="cls-12" d="M372.58,299.38l0.07,0Z" transform="translate(-71.81 -54.04)"/><path class="cls-12" d="M375.12,297.4l0.14,0.17Z" transform="translate(-71.81 -54.04)"/><path class="cls-12" d="M369.13,302.65l0.11,0A0.15,0.15,0,0,0,369.13,302.65Z" transform="translate(-71.81 -54.04)"/><polygon class="cls-12" points="300.13 246.58 300.16 246.6 300.51 246.6 300.13 246.58"/><path class="cls-12" d="M379,297.64h0C378.93,297.7,378.94,297.69,379,297.64Z" transform="translate(-71.81 -54.04)"/><path class="cls-12" d="M382.08,301.35c0.56,0.05.65,0.29,1.28,0.32A6.92,6.92,0,0,0,382.08,301.35Z" transform="translate(-71.81 -54.04)"/><path class="cls-12" d="M370.15,299.08a0.1,0.1,0,0,1,0-.06S370.13,299.06,370.15,299.08Z" transform="translate(-71.81 -54.04)"/><path class="cls-12" d="M383.37,301.67h0Z" transform="translate(-71.81 -54.04)"/><path class="cls-12" d="M380.43,297.81l0.13-.24Z" transform="translate(-71.81 -54.04)"/><path class="cls-12" d="M379.64,296.52v0.09A0.14,0.14,0,0,0,379.64,296.52Z" transform="translate(-71.81 -54.04)"/><path class="cls-12" d="M381.45,297.49s-0.07.12,0,.07l0-.06C381.43,297.55,381.4,297.57,381.45,297.49Z" transform="translate(-71.81 -54.04)"/><path class="cls-12" d="M382,298l0.09-.09h0Z" transform="translate(-71.81 -54.04)"/><path class="cls-12" d="M371.49,306.39a5.2,5.2,0,0,1,.36-0.42C371.54,306.28,371.28,306.23,371.49,306.39Z" transform="translate(-71.81 -54.04)"/><path class="cls-12" d="M370.41,299.17a0.72,0.72,0,0,1-.25-0.09l0,0Z" transform="translate(-71.81 -54.04)"/><path class="cls-12" d="M384.64,293.8l0.12,0.22A0.34,0.34,0,0,0,384.64,293.8Z" transform="translate(-71.81 -54.04)"/><path class="cls-12" d="M380.62,308.88l0,0.08S380.63,309,380.62,308.88Z" transform="translate(-71.81 -54.04)"/><path class="cls-12" d="M385.33,294.45a1.6,1.6,0,0,0-.22.39l0.14-.09Z" transform="translate(-71.81 -54.04)"/><path class="cls-12" d="M371.86,306h0Z" transform="translate(-71.81 -54.04)"/><path class="cls-12" d="M369.77,305.65c0.12,0.21.72-.35,1.14-0.56,0.33,0.08-.43.44-0.72,0.75,0.27,0,1-.33,1-0.22a1.13,1.13,0,0,1-.27.22c0.61-.28.34,0.39,1.08,0l-0.13.15c0.28-.3.58-0.58,0.8-0.77,0.07,0,.47-0.25.11,0.14a0.69,0.69,0,0,0-.32.2l0.23-.1a2,2,0,0,1-.68.48c0.31,0,.89-0.35.83-0.1-0.49.57-.39,0-0.73,0.57l0-.36c-0.72.95,0-.16-0.83,0.84,0.08,0.39.51,0,.6,0.35,0.33-.27.39-0.47,0.71-0.74,0.77-.33-0.94,1.67-0.06,1.09,0.37-.35.94-1.1,0.82-0.58l-0.54.65c0.2,0.24.81-.91,0.74-0.28a2.74,2.74,0,0,1-.35.22c-0.2.67,0.37-.32,0.49-0.25l-0.36.65a8.84,8.84,0,0,0,1.22-.25,1.65,1.65,0,0,0-.29.62c0.54-.15.79,0.43,1.09,1l0.34-.57a0.67,0.67,0,0,1-.09.41c0.1,0.28.12-.39,0.26-0.62a0.61,0.61,0,0,1-.08.56c0.44-.45,1-1,1.18-0.26l-0.08.18c0.2,0.29.41-1.28,0.54-.65l0,0.11c0.46,0.31,1-.26,1.37.69,0-.93.53,0.39,0.43-0.92a2.8,2.8,0,0,0,.77,1.21,5.84,5.84,0,0,0,.11-1l0.14,0.66,0-.73,0.28,0.77,0.08-.2a1,1,0,0,1-.21-0.46c0.1-.34.57,0.35,0.68,0.67l0.14-.35,0.13-.35a1.27,1.27,0,0,1,0,.56c0-.74.28,0.66,0.3,0a2.68,2.68,0,0,1-.17-0.51c0.25,0.35.51,0.25,0.61,0l0.15,0.44a3.08,3.08,0,0,0,1-.73,1.66,1.66,0,0,1-.56-1l0.41,0.59a3.21,3.21,0,0,1-.39-0.71,1.68,1.68,0,0,1,.56.89l0-.3c0.12,0.17.15,0.29,0.28,0.53-0.18-.41.67,0.41,0.33-0.29l0.13,0.17a3.06,3.06,0,0,0,.58-0.8,3.47,3.47,0,0,1-.48-0.88,1.28,1.28,0,0,0,1-.09,2.15,2.15,0,0,0-.56-0.7c0.43,0.37.57,0.11,0.78,0.49a1.23,1.23,0,0,0,.08-1,1.38,1.38,0,0,1-.46-0.24c0-.11.28,0,0.5,0.16l0,0c-0.23-.43.27-0.41,0.72-0.48s0.88-.18.43-0.61l0,0-0.2-.31-0.21-.3a3.52,3.52,0,0,1,.73.25c-0.71-.73.36-0.65-0.14-1.17,0.85,0.06.87-.23,0.81-0.52s-0.2-.59.33-0.76h-0.39c-0.38-.13.23-0.11,0.32-0.19a1.54,1.54,0,0,1-.57,0,1.5,1.5,0,0,1,.13-1.32,5.39,5.39,0,0,0,.5-1.52c0-.38-2,0.39-1.22-0.27l0.73-.12a1.08,1.08,0,0,1-.75-0.8,0.89,0.89,0,0,0-.72-0.7,0.72,0.72,0,0,1,.38-0.11c0.38-.39-0.25-0.44-0.61-0.2a2.18,2.18,0,0,1,.46-0.41c0.18-.3-0.74.11-0.36-0.25a0.34,0.34,0,0,1,.21-0.08c-0.26.08-.21-0.37-0.63,0.08,0.08-.37-0.48-0.17-0.34-0.53-0.57.38,0-.51-0.75,0.14,0.72-.7.26-0.87-0.16-0.6,0.23-.2.11-0.32,0.42-0.6-0.14-.1-0.38-0.06-0.67.36,0.48-1.15-1,.43-0.3-0.92a14,14,0,0,1-1.72.32c0.44-.89.45,0.1,0.91-0.82-0.58.15-1.12,0.86-1.37,0.49a0.94,0.94,0,0,1,.31-0.52c-0.52.24-.72-0.36-1.21,0.07a0.68,0.68,0,0,1,.14-0.24c-0.08,0-.12-0.18-0.23.26l0.1-.1a8.13,8.13,0,0,1-.66,1.6c0.39-1.23-.22-0.39.28-1.94a1.26,1.26,0,0,0-.21.57,0.83,0.83,0,0,1,.1-0.6c-0.29.19-.29,0.69-0.5,0.64a5.36,5.36,0,0,1,.16-0.54c-0.18.4-.34,0.81-0.49,0.6a0.45,0.45,0,0,1,.08-0.29c-0.33,0-.6,1.09-0.89.66,0.12-.94-0.1-0.32-0.11-1.14l-0.19.25,0.08,0.4c-0.16,0-.27.6-0.41,0.33l0.1-.34-0.28.17,0.18,0.3c-0.12.43,0.08,1-.12,0.82a1.42,1.42,0,0,1-.25-0.48h0c0,0.27-.08.55-0.2,0.36s-0.1-.9-0.14-1.07c0,0.69-.33.24-0.29,1a4.34,4.34,0,0,0-.11-0.68l0,0.56a1.29,1.29,0,0,1-.19-0.58c-0.23-.05.28,1,0,0.62a1.31,1.31,0,0,1,0-.22c-0.3-.16-0.37.44-0.65,0.26-0.32-.77.13-0.26-0.15-0.9-0.31.26-.35,1.15-0.7,1.11l0.09,0.06c0.44,1.08-.45-0.43-0.37.14a2.51,2.51,0,0,0-.19-0.48c-0.29-.07-0.29.48-0.37,0.95l-0.12-.27a0.8,0.8,0,0,0-.57,0,1.46,1.46,0,0,0,.34.6c-0.67-.58-0.72-0.24-0.7.09s0.09,0.65-.53.29a0.33,0.33,0,0,0-.13-0.24l0,0.44a3.32,3.32,0,0,0,.58.41,0.77,0.77,0,0,1,.26.5,2,2,0,0,0-.85-0.7c0.12,0.1.24,0.23,0.36,0.33-0.79-.48.75,0.69,0.16,0.45l-0.2-.18a0.7,0.7,0,0,1,.18.44,3.21,3.21,0,0,1-.54-0.54c-0.06.13,0.74,0.86,0.2,0.6-0.1-.14-0.06-0.19-0.16-0.33-0.63-.32-0.5-0.2-0.65-0.18h0l-0.39,0,0.19,0.05c1.19,1,0,.44.8,1.13a2.82,2.82,0,0,0-1-.65,1.46,1.46,0,0,1-.56-0.17c0.42,0.36-.47,0,0.16.48a1.09,1.09,0,0,1-.55-0.16,1,1,0,0,0,.59.26c0.56,0.48-1,.15-0.22.82a10.35,10.35,0,0,0,1.28.93,1.86,1.86,0,0,1-.74-0.26c-0.34,0-.31.15-0.1,0.32a1.89,1.89,0,0,0-.58-0.09c0,0.11.75,0.22,0.42,0.28a7.37,7.37,0,0,1-.83-0.26c0.17,0.17.55,0.35,0.72,0.49a2.13,2.13,0,0,1-.78-0.24,1.13,1.13,0,0,0,.86.52l0.22-.06a1.53,1.53,0,0,1-.61-0.08c-0.44-.18.23-0.14,0.44-0.12l0.12,0.1c1.26,0.09-.15-0.33,0-0.51l0.89,0.24-0.36-.15-0.35-.16a2.46,2.46,0,0,1,.86.21c0.47,0-.29-0.16.22-0.12a0.45,0.45,0,0,1,.15,0l-0.24-.16a1.17,1.17,0,0,1,.49.17c0.55,0-.59-0.45.09-0.3l0,0a7.85,7.85,0,0,0-1.3-.68l0.8,0.23,0.79,0.25-0.61-.27a0.41,0.41,0,0,1,.34.07,5.46,5.46,0,0,0-.66-0.32c0.59,0.13-.11-0.44.86,0a2.09,2.09,0,0,1-.66-0.35c1,0.5-.11-0.22.41-0.07a1.71,1.71,0,0,0,.69.42c-0.85-.55.29,0,0.16-0.2-0.67-.43-0.18-0.33-0.32-0.6a2.88,2.88,0,0,0,.81.15l0.1,0.09c-0.61-.54-0.4-0.55-0.45-0.73a4.29,4.29,0,0,1,.6.65l0.05-.06a1.06,1.06,0,0,1-.28-0.41l0.42,0.44c0-.09-0.35-0.68,0-0.47a6.59,6.59,0,0,1-1.25-1.49,4.82,4.82,0,0,1,.6.74s-0.12-.23,0-0.15l0.28,0.43c0.2,0.12-.25-0.35-0.17-0.35,0.28,0.33.23,0.21,0.45,0.48,0,0-.15-0.1-0.06,0a1.39,1.39,0,0,1,.54.41,2,2,0,0,1-.37-0.53,1.92,1.92,0,0,1,.54.53,1.71,1.71,0,0,0-.3-0.57,1.78,1.78,0,0,1,.32.36,1,1,0,0,0-.26-0.76l0,0v0h0c-0.16-.67.57,0.09,0.6-0.25l0.1,0.19a1.36,1.36,0,0,0,.08-0.71,1.54,1.54,0,0,1,.32.57c0-.19-0.05-0.42.2-0.13,0,0.38.14,0.31,0,.29,0.18,0.14.3,0.46,0.23-.14,0.14,0.54.29,0.64,0.29,0.47l-0.19-.36c0-.1.1-0.07,0.16,0L377,297c0.21,0.41.19,0,.21-0.29s0.07-.57.28,0.16c0-.51-0.18-0.34-0.23-0.94a1.77,1.77,0,0,1,.25.58c0.08,0.27.15,0.52,0.16,0.52,0.16,0.39,0-1.09.17-.82a3.11,3.11,0,0,1,0-1.2,2.85,2.85,0,0,1,.15,1.3s0-.06,0-0.15a0.86,0.86,0,0,0,0,.49v-0.26a1.26,1.26,0,0,1,.18.66,0.83,0.83,0,0,0,0-.56c0.14,0.37.2,0,.32,0.26a1.87,1.87,0,0,1,0-.45c0.19,0.33.1-.49,0.25-0.6,0.06,0.4-.09.95,0.07,0.62a2.65,2.65,0,0,1-.08.9c0.15-.5.16,0.35,0.19,0.45l-0.07.2c0-.12.06-0.11,0.09-0.11l0-.52a0.57,0.57,0,0,1,0,.31c0.08-.33.1-0.86,0.24-1.31,0,0.27.21-.26,0.1,0.42-0.1-.25-0.11.69-0.24,0.78,0-.08.06-0.07,0.07,0a0.78,0.78,0,0,1,0,.18c0,0.63.2-.76,0.33-0.71a1.55,1.55,0,0,0-.1.65,3,3,0,0,1,.25-0.92c0,0.32.16-.2,0.2-0.15l0-.15a0.52,0.52,0,0,1,.27-0.41c-0.08.29-.12,0.18-0.14,0.32,0.28-.63,0,0.74.19,0.33,0,0.26-.24.69-0.27,0.87,0.28-.44-0.09.53,0.15,0.18a2.38,2.38,0,0,1,.39-0.82l-0.32.26,0.2-.33,0.21-.32a1.65,1.65,0,0,1-.25.16,1.86,1.86,0,0,0,.29-0.68c-0.2.76,0.35-.35,0.25,0.19l-0.53,1.18c-0.14.57,0.51-.51,0.52-0.12l0.06-.23c0.27-.44.14,0,0.3-0.15a7.05,7.05,0,0,0-.4.77,3.27,3.27,0,0,0,.57-0.63l-0.25.52c0,0.27.87-.91,0.92-0.68a8,8,0,0,1-.75.83s0,0.12.2-.11c-0.15.23,0.47-.36,0.24,0a1.57,1.57,0,0,1,.47-0.4,2,2,0,0,1-.14.16,2.81,2.81,0,0,0,.55-0.54c-0.38.56-.3,0.62-0.18,0.67s0.26,0.08-.14.52a0.86,0.86,0,0,1,.46.07c-0.11.07-.17,0.13-0.15,0.09-0.24.34,1.06-.66,0.8-0.24a1.91,1.91,0,0,1-.56.33c-1.18.81,0.27,0.06-.38,0.58l-0.09,0c-0.38.3,0.55-.11,0.53,0.06l-0.19.1a1.71,1.71,0,0,1,1.23-.1,3.39,3.39,0,0,0-.82.28,5.41,5.41,0,0,1,1-.29,5.14,5.14,0,0,1-1.06.53l-0.07-.08c-0.72.31,0.08,0.11,0,.21l-0.33.1c0.14,0.1,1-.13,1,0.07l0.25-.08c0.87-.08-0.45.19,0.19,0.16l-0.85.19a3.36,3.36,0,0,1,1,.21c-0.65,0-1-.09-1.39-0.1,0,0.05.09,0.17,0.53,0.15-0.09,0-.3,0-0.18-0.06,0.69,0,1,.08,1,0.23-1.68.07-.4,0.38-1.72,0.43,0.62,0.22-.29.32-0.22,0.5a8.08,8.08,0,0,1,1.34.34c0.07,0.08,0,.1,0,0.08H383l-0.41,0a3.82,3.82,0,0,1-.57-0.2,3.75,3.75,0,0,1-.91-0.18c0.46,0.13.65,0.24,0.46,0.22l0.61,0.12c0.64,0.38-1.11-.27-0.48.09l-0.38-.19a2,2,0,0,0,.85.72,2.88,2.88,0,0,1-.55-0.28c-0.18,0,.78.93,0.15,0.7l-0.26-.2c0.06,0.08.46,0.41,0.17,0.25a2.13,2.13,0,0,0-.28-0.21c0.08,0.08.4,0.42,0.22,0.34l-0.26-.26c-0.42-.15.51,0.79,0.53,1.1a4.25,4.25,0,0,0-1.14-.9l-0.09-.1c-0.2,0,.27.82,0.29,1.27-0.68-.81-0.6-0.14-1-0.6a3.28,3.28,0,0,1,.32.79c-0.12-.16.13,0.68-0.2-0.14h0c-0.37-.78-0.35-0.54-0.43-0.55l0.38,1.1c-0.39-.77-0.43-0.57-0.51-0.37s-0.16.42-.36-0.3c0,0.3,0,.3-0.05.59l-0.1-.61c-0.15-.15-0.21-0.2-0.35,0v-0.44c-0.07,0,0,1.79-.09,1.84l-0.06-.93c-0.19,0-.29-0.81-0.5,0a2.28,2.28,0,0,1,.07-0.44c-0.08,0-.19-0.65-0.33.62,0.11-.82-0.15-0.1-0.33.24l0.13-.6a2.74,2.74,0,0,1-.45,1.14c0-.09.09-0.48,0.09-0.32,0-.33-0.21.55-0.26,0.2l0.14-.37c-0.08-.07-0.13.14-0.31,0.56-0.14.21-.16-0.22,0-0.75-0.12.32-.32,0.72-0.33,0.55a1.86,1.86,0,0,1,.16-0.37c0-.44-0.5.57-0.38,0a3.06,3.06,0,0,0,.13-0.34,0.25,0.25,0,0,1,.17.18,8.91,8.91,0,0,1,.51-1.35c-0.2.37-.69,1.16-0.67,0.88l0.07-.18,0-.05c0-.06,0,0-0.09.06a0.36,0.36,0,0,0,0-.18c0.21-.42,0-0.27,0-0.31a6.46,6.46,0,0,0-.5.9,0.09,0.09,0,0,1,.09-0.07l0,0,0,0,0.13,0c-0.18.26-.34,0.47-0.23,0.14-0.21.34-.44,0.67-0.56,0.83a16.85,16.85,0,0,1,.75-1.71,2.77,2.77,0,0,0-1.18.87,0.9,0.9,0,0,1,.26-0.45,0.89,0.89,0,0,0,.22-0.16,1.46,1.46,0,0,0-.82.51c0.15-.35.55-0.52,0.33-0.52l0.18-.17c0.33-.57-0.08-0.27-0.53,0s-0.88.34-.34-0.3a1.17,1.17,0,0,1-.2.21c0.15-.38-0.07-0.46-0.3-0.58s-0.39-.32.1-0.72c0.18-.18-0.31,0-0.71.06l0.62-.24-0.38.07-0.38.06c-0.29,0,.07-0.21.39-0.37s0.56-.28,0-0.28l-0.43.11c0.07-.09-0.3-0.22.21-0.28-0.08,0-.47,0-0.24,0l0.34,0-0.31-.06-0.3-.07c0.24-.18,1.38-0.1,1.43-0.28a6.52,6.52,0,0,0-1.26-.16,1.09,1.09,0,0,1-.56.1l-0.19-.09a7,7,0,0,0-2.78.22l0.64,0.2-0.49.1,0-.19c-0.46.13,0,.19,0.24,0.24a1.65,1.65,0,0,0-.54.14l0.49,0.07,0.5,0.06a2.47,2.47,0,0,0-1,.17,7.08,7.08,0,0,1,1.2-.08c-0.45.16-.82,0.19-0.41,0.25a1.13,1.13,0,0,1-.55,0,1.12,1.12,0,0,0,.73.24c-0.55.23,0.22,0.33-.72,0.54a2.14,2.14,0,0,1,.85.09c-1.17.13,0,.39-1.16,0.72,1-.19.63,0.36,1.26,0.38-0.08,0-.25.06-0.2,0a1.87,1.87,0,0,1-.43.5,7.22,7.22,0,0,1,1.58-.39,8.86,8.86,0,0,1-1.63.79,10.83,10.83,0,0,0,1.24-.38,3.76,3.76,0,0,1-.75.64c0.94-.52.23,0,0.85-0.24-0.35.44-.83,0.58-0.43,0.58A1,1,0,0,1,369.77,305.65Zm4.89,1.87h0Zm0.34,0.14a0.3,0.3,0,0,0-.14-0.09,0.77,0.77,0,0,1,.2-0.37A1.1,1.1,0,0,0,375,307.67Zm1.3-4.12c0.06-.06,0,0,0,0.16l-0.08,0,0,0.06Z" transform="translate(-71.81 -54.04)"/><path class="cls-12" d="M375.87,304.24l0,0,0,0.13,0.1-.16h0Z" transform="translate(-71.81 -54.04)"/><path class="cls-12" d="M375.05,296.43h0l-0.06-.07Z" transform="translate(-71.81 -54.04)"/><polygon class="cls-12" points="308.43 255.25 308.39 255.1 308.39 255.24 308.43 255.25"/><path class="cls-12" d="M372.41,295.92l-0.14-.09Z" transform="translate(-71.81 -54.04)"/><path class="cls-12" d="M371.77,296.5l-0.25,0A0.85,0.85,0,0,0,371.77,296.5Z" transform="translate(-71.81 -54.04)"/><path class="cls-12" d="M371.14,296.9l0.22,0.14h0Z" transform="translate(-71.81 -54.04)"/><path class="cls-12" d="M380.71,292.53l0,0C380.85,292.41,380.79,292.44,380.71,292.53Z" transform="translate(-71.81 -54.04)"/><path class="cls-12" d="M377.43,293.68a1.8,1.8,0,0,1,.07-0.3C377.44,293.34,377.4,293.33,377.43,293.68Z" transform="translate(-71.81 -54.04)"/><path class="cls-12" d="M384.63,293.78h0l0,0v0Z" transform="translate(-71.81 -54.04)"/><path class="cls-12" d="M377.64,293.38c-0.06-.12-0.11-0.09-0.14,0S377.6,293.48,377.64,293.38Z" transform="translate(-71.81 -54.04)"/><path class="cls-12" d="M369.91,299.73l0,0,0.1,0Z" transform="translate(-71.81 -54.04)"/><path class="cls-12" d="M370,299.78l0.07,0S370,299.79,370,299.78Z" transform="translate(-71.81 -54.04)"/><path class="cls-12" d="M370.19,299.92l-0.15-.1S370,299.88,370.19,299.92Z" transform="translate(-71.81 -54.04)"/><path class="cls-12" d="M370.36,298.85l-0.21-.06Z" transform="translate(-71.81 -54.04)"/><path class="cls-12" d="M370.37,298.56c-0.07,0-.51,0-0.4.17l0.17,0.05C369.84,298.65,370.72,298.72,370.37,298.56Z" transform="translate(-71.81 -54.04)"/><path class="cls-12" d="M373.29,298.63l-0.23.07a1.34,1.34,0,0,1,.56.25C374.35,299.08,373.12,298.77,373.29,298.63Z" transform="translate(-71.81 -54.04)"/><path class="cls-12" d="M373.81,298.4a1.13,1.13,0,0,0,.41.25A0.8,0.8,0,0,0,373.81,298.4Z" transform="translate(-71.81 -54.04)"/><path class="cls-12" d="M376.22,296.37l0.2,0.52A1.82,1.82,0,0,0,376.22,296.37Z" transform="translate(-71.81 -54.04)"/><polygon class="cls-12" points="304.22 239.33 304.04 239.02 304.14 239.53 304.22 239.33"/><polygon class="cls-12" points="305.57 243.13 305.56 243.21 305.6 242.99 305.57 243.13"/><path class="cls-12" d="M381.48,298.26l0.5-.48A1.45,1.45,0,0,0,381.48,298.26Z" transform="translate(-71.81 -54.04)"/><path class="cls-12" d="M383,299.68c-0.33.1-.53,0.2-0.2,0.16C382.85,299.79,383.1,299.68,383,299.68Z" transform="translate(-71.81 -54.04)"/><polygon class="cls-12" points="307.75 249.69 307.71 249.46 307.71 249.66 307.75 249.69"/><ellipse class="cls-10" cx="345.5" cy="328.1" rx="6.47" ry="6.06"/><ellipse class="cls-10" cx="307.15" cy="212.35" rx="6.47" ry="6.06"/><path class="cls-11" d="M228.86,366.22a6.76,6.76,0,0,0,9,1.52,5.81,5.81,0,0,0,1.62-8.43,6.76,6.76,0,0,0-9-1.52A5.81,5.81,0,0,0,228.86,366.22Z" transform="translate(-71.81 -54.04)"/><path class="cls-12" d="M227.68,367.09a0.76,0.76,0,0,0,.4-0.36l-0.62.39Z" transform="translate(-71.81 -54.04)"/><path class="cls-12" d="M228.55,366a6.83,6.83,0,0,0-1.45.78c0.64-.3.4-0.13,1.14-0.52,0.1,0-.13.22-0.36,0.36,0.17-.09-0.07.18,0.32-0.06,0.41-.4.39-0.48-0.06-0.31A2.85,2.85,0,0,1,228.55,366Z" transform="translate(-71.81 -54.04)"/><path class="cls-12" d="M229.08,361h0Z" transform="translate(-71.81 -54.04)"/><path class="cls-12" d="M231.11,359.09a0.29,0.29,0,0,0,.07.14A0.34,0.34,0,0,0,231.11,359.09Z" transform="translate(-71.81 -54.04)"/><path class="cls-12" d="M231.9,359.53l0,0C231.9,359.56,231.93,359.58,231.9,359.53Z" transform="translate(-71.81 -54.04)"/><path class="cls-12" d="M229.08,361l0.24,0C229.11,360.88,229.15,360.94,229.08,361Z" transform="translate(-71.81 -54.04)"/><path class="cls-12" d="M226.58,366a0.57,0.57,0,0,0,.2,0l-0.1,0Z" transform="translate(-71.81 -54.04)"/><path class="cls-12" d="M229.35,362.24v0l0.29,0.05Z" transform="translate(-71.81 -54.04)"/><path class="cls-12" d="M229.44,363.07s-0.59,0-.86,0a2,2,0,0,1,.43,0Z" transform="translate(-71.81 -54.04)"/><path class="cls-12" d="M228.74,364.75h0Z" transform="translate(-71.81 -54.04)"/><path class="cls-12" d="M229.6,361.69l0.21,0.05Z" transform="translate(-71.81 -54.04)"/><path class="cls-12" d="M227.88,369.4l0.07-.08A0.15,0.15,0,0,0,227.88,369.4Z" transform="translate(-71.81 -54.04)"/><polygon class="cls-12" points="157.17 312.09 157.21 312.08 157.49 311.88 157.17 312.09"/><path class="cls-12" d="M232.83,360h0C232.83,360,232.84,360,232.83,360Z" transform="translate(-71.81 -54.04)"/><path class="cls-12" d="M237.82,361.5c0.48-.29.69-0.17,1.21-0.52A6.88,6.88,0,0,0,237.82,361.5Z" transform="translate(-71.81 -54.04)"/><path class="cls-12" d="M226.63,366a0.1,0.1,0,0,1,0-.05S226.6,366,226.63,366Z" transform="translate(-71.81 -54.04)"/><path class="cls-12" d="M239,361h0l0,0Z" transform="translate(-71.81 -54.04)"/><path class="cls-12" d="M234.2,359.36v-0.27C234.18,359.15,234.18,359.23,234.2,359.36Z" transform="translate(-71.81 -54.04)"/><path class="cls-12" d="M232.84,358.65l0.05,0.07A0.15,0.15,0,0,0,232.84,358.65Z" transform="translate(-71.81 -54.04)"/><path class="cls-12" d="M234.92,358.54s0,0.13,0,.05v-0.08C234.94,358.6,234.92,358.64,234.92,358.54Z" transform="translate(-71.81 -54.04)"/><path class="cls-12" d="M235.64,358.7l0-.12,0,0v0.1Z" transform="translate(-71.81 -54.04)"/><path class="cls-12" d="M231.81,371.13a5.35,5.35,0,0,1,.08-0.55C231.8,371,231.56,371.1,231.81,371.13Z" transform="translate(-71.81 -54.04)"/><path class="cls-12" d="M226.89,365.89a0.72,0.72,0,0,1-.26.08l0,0Z" transform="translate(-71.81 -54.04)"/><path class="cls-12" d="M235.68,353.72l0.21,0.13A0.3,0.3,0,0,0,235.68,353.72Z" transform="translate(-71.81 -54.04)"/><path class="cls-12" d="M240.89,368.45l0,0.09S240.94,368.51,240.89,368.45Z" transform="translate(-71.81 -54.04)"/><path class="cls-12" d="M236.58,353.9a1.6,1.6,0,0,0,0,.44,1.37,1.37,0,0,0,.07-0.15Z" transform="translate(-71.81 -54.04)"/><path class="cls-12" d="M231.89,370.57h0Z" transform="translate(-71.81 -54.04)"/><path class="cls-12" d="M230,371.46c0.21,0.11.41-.69,0.63-1.1,0.31-.12-0.12.6-0.19,1,0.24-.14.6-0.79,0.7-0.73a1.16,1.16,0,0,1-.11.33c0.36-.56.48,0.12,0.87-0.61a1.67,1.67,0,0,1,0,.2c0.08-.4.18-0.8,0.26-1.09,0.08,0,.26-0.47.16,0.06a0.71,0.71,0,0,0-.16.34l0.14-.21a2,2,0,0,1-.32.78c0.24-.2.56-0.78,0.64-0.54-0.11.74-.35,0.18-0.31,0.87l-0.15-.32c-0.1,1.18-.11-0.11-0.25,1.15,0.26,0.28.42-.3,0.67,0,0.13-.4.08-0.61,0.21-1,0.47-.69.08,1.9,0.51,1,0.13-.49.22-1.42,0.39-0.92l-0.12.84c0.29,0.1.21-1.21,0.48-.63a2.91,2.91,0,0,1-.18.37c0.18,0.67.15-.47,0.28-0.47l0,0.75a11.66,11.66,0,0,0,.91-0.84,1.67,1.67,0,0,0,.07.68c0.38-.43.89,0,1.43,0.28v-0.66a0.68,0.68,0,0,1,.14.4c0.23,0.19-.1-0.4-0.09-0.66a0.62,0.62,0,0,1,.22.53c0.14-.62.36-1.35,0.88-0.83l0,0.2c0.32,0.14-.3-1.31.12-0.85v0.12c0.57,0,.7-0.72,1.55-0.13-0.48-.8.66,0-0.11-1a2.63,2.63,0,0,0,1.3.61,5.85,5.85,0,0,0-.42-0.89l0.47,0.49-0.37-.63,0.65,0.5,0-.22a0.92,0.92,0,0,1-.43-0.27c-0.1-.35.67,0,0.94,0.18,0,0,0-.18-0.06-0.37l-0.08-.37a1.25,1.25,0,0,1,.33.46c-0.39-.63.6,0.4,0.24-0.19a2.6,2.6,0,0,1-.42-0.34c0.4,0.15.58-.08,0.53-0.34l0.37,0.29a3.22,3.22,0,0,0,.4-1.18,1.62,1.62,0,0,1-1-.47l0.67,0.26a3.13,3.13,0,0,1-.73-0.36,1.63,1.63,0,0,1,1,.42L242.5,366a5.9,5.9,0,0,1,.53.28c-0.37-.23.8-0.05,0.12-0.44l0.2,0.06a3.08,3.08,0,0,0,0-1,3.44,3.44,0,0,1-.9-0.45,1.28,1.28,0,0,0,.75-0.67,2.09,2.09,0,0,0-.87-0.24c0.57,0,.53-0.25.92-0.07a1.24,1.24,0,0,0-.55-0.89,1.36,1.36,0,0,1-.52.08c-0.1-.07.23-0.17,0.5-0.17l0.06,0c-0.44-.22,0-0.5.28-0.82s0.6-.69,0-0.75h0.06l-0.35-.13-0.35-.11a3.51,3.51,0,0,1,.73-0.24c-1-.15-0.11-0.73-0.82-0.85,0.72-.46.55-0.71,0.33-0.9s-0.51-.34-0.18-0.79l-0.32.23c-0.38.13,0.12-.22,0.15-0.34a1.57,1.57,0,0,1-.44.35,1.43,1.43,0,0,1-.67-1.11,5.51,5.51,0,0,0-.45-1.5c-0.21-.3-1.4,1.47-1.13.49l0.52-.51a1,1,0,0,1-1-.21,0.87,0.87,0,0,0-1-.17,0.71,0.71,0,0,1,.25-0.3c0.11-.54-0.44-0.22-0.6.18a2.22,2.22,0,0,1,.16-0.59c0-.34-0.55.5-0.43,0a0.34,0.34,0,0,1,.13-0.18c-0.17.21-.36-0.19-0.48,0.41-0.13-.35-0.48.13-0.56-0.26-0.28.63-.3-0.4-0.55,0.53,0.23-1-.23-0.88-0.44-0.43,0.09-.29-0.07-0.32,0-0.73-0.17,0-.35.16-0.38,0.67-0.19-1.23-.64.9-0.72-0.63a11.12,11.12,0,0,1-1.28,1.16c-0.08-1,.44-0.13.36-1.16-0.41.43-.51,1.3-0.92,1.12a1,1,0,0,1,0-.61c-0.32.45-.8,0.07-1,0.67a0.65,0.65,0,0,1,0-.28c-0.06,0-.2-0.1-0.06.33l0-.13a8.22,8.22,0,0,1,.25,1.72c-0.3-1.26-.39-0.21-0.75-1.81a1.27,1.27,0,0,0,.11.6,0.82,0.82,0,0,1-.22-0.57c-0.15.32,0.1,0.73-.1,0.8a5.21,5.21,0,0,1-.14-0.54c0,0.44.12,0.87-.11,0.78a0.45,0.45,0,0,1-.08-0.29c-0.28.2,0,1.23-.43,1-0.39-.87-0.25-0.22-0.69-0.91l0,0.31,0.27,0.3c-0.15.07,0.07,0.64-.19,0.5l-0.1-.35-0.15.3,0.31,0.16c0.12,0.43.61,0.84,0.33,0.76a1.35,1.35,0,0,1-.47-0.27h0c0.1,0.25.22,0.5,0,.41s-0.56-.71-0.69-0.84c0.38,0.58-.15.39,0.27,1a4.3,4.3,0,0,0-.45-0.52l0.34,0.45a1.31,1.31,0,0,1-.47-0.39c-0.23.07,0.77,0.7,0.29,0.55a1.31,1.31,0,0,1-.12-0.19c-0.34,0-.06.59-0.42,0.57-0.68-.47,0-0.29-0.6-0.68-0.13.4,0.33,1.17,0,1.33h0.11c1,0.66-.61-0.11-0.23.33a2.47,2.47,0,0,0-.43-0.29c-0.29.11,0,.57,0.22,1l-0.26-.16a0.79,0.79,0,0,0-.45.35,1.43,1.43,0,0,0,.62.3c-0.88-.08-0.74.22-0.52,0.48s0.45,0.48-.27.56a0.33,0.33,0,0,0-.25-0.12l0.22,0.38a3.32,3.32,0,0,0,.71,0,0.77,0.77,0,0,1,.5.26,2,2,0,0,0-1.1-.06c0.16,0,.32,0,0.48.06-0.92.08,1,.12,0.39,0.27l-0.27,0a0.71,0.71,0,0,1,.4.25,3.17,3.17,0,0,1-.75-0.12c0,0.14,1.1.26,0.52,0.36-0.16,0-.16-0.12-0.32-0.18-0.69.12-.52,0.14-0.63,0.24h0l-0.3.25,0.18-.07c1.54,0.08.3,0.33,1.32,0.42a2.8,2.8,0,0,0-1.21.1,1.45,1.45,0,0,1-.55.2c0.55,0-.38.27,0.42,0.29a1.09,1.09,0,0,1-.53.2,1,1,0,0,0,.63-0.15c0.74,0-.73.74,0.32,0.78a10.53,10.53,0,0,0,1.59,0,1.86,1.86,0,0,1-.74.24c-0.25.23-.16,0.31,0.12,0.31a1.91,1.91,0,0,0-.51.28c0.1,0.07.73-.28,0.51,0a7.45,7.45,0,0,1-.82.29c0.24,0,.65-0.05.87,0a2.14,2.14,0,0,1-.77.28,1.13,1.13,0,0,0,1-.11L228,366a1.54,1.54,0,0,1-.54.3c-0.46.13,0.1-.25,0.28-0.36h0.16c1.06-.68-0.32-0.17-0.34-0.37l0.85-.34-0.76.19a2.47,2.47,0,0,1,.81-0.35c0.37-.27-0.33,0,0.1-0.23a0.45,0.45,0,0,1,.15-0.06l-0.29,0a1.16,1.16,0,0,1,.49-0.16c0.44-.33-0.74,0-0.11-0.29h0.06a8,8,0,0,0-1.45.25l0.78-.3L229,364l-0.65.16a0.41,0.41,0,0,1,.31-0.15,5.47,5.47,0,0,0-.71.14c0.55-.25-0.35-0.28.69-0.5a2.09,2.09,0,0,1-.74.12c1.13-.23-0.22-0.12.28-0.31a1.72,1.72,0,0,0,.81-0.08c-1,.07.2-0.21,0-0.25-0.8.06-.35-0.15-0.62-0.28a3,3,0,0,0,.74-0.35h0.13c-0.81-.08-0.65-0.2-0.79-0.32a4.47,4.47,0,0,1,.87.17v-0.08a1.07,1.07,0,0,1-.47-0.16l0.59,0.11c0-.09-0.68-0.34-0.24-0.39a6.59,6.59,0,0,1-1.88-.49,4.85,4.85,0,0,1,.92.25s-0.23-.11-0.1-0.11l0.48,0.19c0.24,0-.41-0.14-0.35-0.19,0.42,0.11.31,0,.64,0.13,0,0-.18,0,0,0.06a1.39,1.39,0,0,1,.68,0,2.09,2.09,0,0,1-.61-0.22,2,2,0,0,1,.74.12,1.81,1.81,0,0,0-.57-0.29,1.8,1.8,0,0,1,.47.11A1,1,0,0,0,229,361h0l0,0h0c-0.5-.46.51-0.24,0.36-0.53l0.19,0.11a1.44,1.44,0,0,0-.34-0.63,1.55,1.55,0,0,1,.58.31c-0.08-.16-0.27-0.32.1-0.21,0.25,0.3.29,0.18,0.17,0.24,0.22,0,.5.23,0.1-0.24,0.41,0.38.58,0.38,0.49,0.24l-0.35-.2c0-.1.05-0.1,0.12-0.11l0.53,0.5c0.39,0.23.16-.08,0-0.36s-0.23-.5.32,0c-0.3-.42-0.32-0.19-0.69-0.67a1.74,1.74,0,0,1,.52.36c0.21,0.18.4,0.36,0.41,0.36,0.33,0.24-.58-0.9-0.29-0.77a3.15,3.15,0,0,1-.64-1,2.85,2.85,0,0,1,.81,1s-0.06,0-.11-0.1a0.88,0.88,0,0,0,.26.42l-0.14-.22a1.25,1.25,0,0,1,.49.46,0.85,0.85,0,0,0-.33-0.45c0.3,0.24.17-.09,0.4,0.06a1.9,1.9,0,0,1-.24-0.38c0.32,0.18-.17-0.47-0.1-0.65,0.26,0.31.41,0.85,0.38,0.5a2.7,2.7,0,0,1,.39.81c-0.13-.49.31,0.22,0.39,0.29l0,0.21c0-.13,0-0.13,0-0.14l-0.23-.47a0.56,0.56,0,0,1,.17.26c-0.1-.33-0.36-0.79-0.47-1.25,0.14,0.23,0-.32.3,0.33-0.22-.17.26,0.65,0.19,0.79,0-.08,0-0.09.07,0a0.78,0.78,0,0,1,.05.18c0.31,0.55-.22-0.75-0.08-0.78a1.53,1.53,0,0,0,.25.61,3,3,0,0,1-.26-0.92c0.17,0.26,0-.24.1-0.22l-0.1-.12a0.51,0.51,0,0,1,0-.48c0.08,0.29,0,.22,0,0.34-0.08-.69.34,0.65,0.33,0.17,0.1,0.25.15,0.72,0.22,0.89,0-.51.19,0.51,0.23,0.09a2.36,2.36,0,0,1-.08-0.91l-0.14.39v-0.77a1.16,1.16,0,0,1-.13.26,1.83,1.83,0,0,0-.1-0.73c0.22,0.76.12-.48,0.32,0l0.15,1.29c0.18,0.55.18-.68,0.39-0.37l-0.07-.22c0-.52.12-0.08,0.18-0.29a6.93,6.93,0,0,0,.06.86,3,3,0,0,0,.17-0.83l0.06,0.57c0.12,0.23.26-1.22,0.43-1.06a7.63,7.63,0,0,1-.2,1.1s0.08,0.09.11-.2c0,0.27.22-.56,0.21-0.15a1.55,1.55,0,0,1,.19-0.59,2,2,0,0,1,0,.21,2.72,2.72,0,0,0,.18-0.75c-0.09,1.37.54,0,.37,1.18a0.85,0.85,0,0,1,.44-0.19c-0.05.12-.08,0.2-0.08,0.15,0,0.43.53-1.13,0.54-.64a1.87,1.87,0,0,1-.28.58c-0.54,1.33.27-.11,0,0.7l-0.06.06c-0.15.47,0.4-.4,0.48-0.24,0,0-.07.11-0.11,0.19a1.75,1.75,0,0,1,1-.77,3.34,3.34,0,0,0-.51.7,5.48,5.48,0,0,1,.69-0.83,5.17,5.17,0,0,1-.57,1l-0.11,0c-0.41.66,0.12,0.05,0.09,0.2l-0.21.27c0.18,0,.73-0.66.84-0.49l0.16-.21c0.66-.57-0.26.42,0.25,0l-0.58.65a3.44,3.44,0,0,1,1-.44c-0.53.37-.87,0.51-1.18,0.73,0,0,.18.09,0.52-0.18-0.08,0-.26.16-0.18,0.05,0.55-.42.88-0.54,1-0.42-1.31,1.05-.09.55-1.12,1.38,0.63-.19,0,0.45.13,0.55a8,8,0,0,1,1.28-.54c0.1,0,.09.06,0,0.1l-0.34.24-0.34.23a3.77,3.77,0,0,1-.57.18,3.73,3.73,0,0,1-.83.41c0.45-.18.66-0.21,0.5-0.1l0.56-.27c0.74-.08-1,0.46-0.33.36l-0.42.08a2,2,0,0,0,1.11.06,3,3,0,0,1-.61.11c-0.13.13,1.18,0.26,0.53,0.45H238c0.1,0,.61.05,0.28,0.09a2.26,2.26,0,0,0-.35,0c0.11,0,.57.1,0.38,0.14l-0.37-.05c-0.42.11,0.88,0.32,1.07,0.55a4.85,4.85,0,0,0-1.45-.08l-0.13,0c-0.14.11,0.7,0.48,1,.83-1-.29-0.57.2-1.18,0a3.51,3.51,0,0,1,.7.48c-0.19-.07.49,0.49-0.24,0h0c-0.74-.46-0.59-0.28-0.65-0.24l0.92,0.71c-0.73-.42-0.67-0.26-0.62-0.05s0.11,0.44-.45-0.08c0.17,0.24.12,0.27,0.28,0.52l-0.41-.47c-0.19,0-.27-0.07-0.31.13l-0.24-.37c-0.07,0,1,1.52.89,1.62l-0.54-.76c-0.15.1-.66-0.54-0.4,0.28a2.31,2.31,0,0,1-.17-0.41c-0.08,0-.49-0.47,0,0.69-0.33-.76-0.17,0-0.15.37l-0.2-.58a2.8,2.8,0,0,1,.21,1.21c-0.05-.07-0.17-0.46-0.09-0.32-0.19-.28.1,0.59-0.12,0.3l-0.07-.39c-0.11,0,0,.18,0,0.63,0,0.25-.24-0.1-0.37-0.64,0.06,0.33.1,0.79,0,.65a1.85,1.85,0,0,1-.05-0.4c-0.23-.39-0.14.74-0.35,0.16a3,3,0,0,0-.06-0.36,0.23,0.23,0,0,1,.23.06,8.8,8.8,0,0,1-.26-1.42c0,0.43,0,1.37-.13,1.12l0-.19v-0.06c0-.06,0,0,0,0.09a0.35,0.35,0,0,0-.09-0.17c0-.47-0.11-0.25-0.16-0.27a6.3,6.3,0,0,0,0,1,0.1,0.1,0,0,1,0-.1,0.18,0.18,0,0,0,0-.07V367l0.13,0c0,0.32-.05.58-0.13,0.24,0,0.4,0,.81,0,1a17.4,17.4,0,0,1-.25-1.86,2.74,2.74,0,0,0-.56,1.36,0.88,0.88,0,0,1,0-.52,0.91,0.91,0,0,0,.1-0.25,1.47,1.47,0,0,0-.44.88c-0.06-.39.19-0.72,0-0.63l0.07-.24c0-.67-0.22-0.18-0.49.24s-0.56.76-.46-0.08a1.12,1.12,0,0,1-.05.28c-0.08-.43-0.33-0.33-0.58-0.33s-0.5-.05-0.35-0.66c0-.26-0.26.17-0.56,0.45l0.37-.55-0.55.54c-0.52.29,0.79-1.43,0-.78l-0.29.35c0-.12-0.38,0,0-0.35-0.06.05-.35,0.3-0.21,0.12l0.25-.24L230,366l-0.29.12c0.09-.29,1.05-0.89,1-1.08a6.1,6.1,0,0,0-1.11.62,1.07,1.07,0,0,1-.39.42l-0.2,0a7.12,7.12,0,0,0-2.11,1.83l0.63-.22-0.34.37-0.15-.13c-0.29.38,0.07,0.17,0.34,0a1.68,1.68,0,0,0-.35.43l0.44-.24,0.43-.25a2.54,2.54,0,0,0-.71.72,7.19,7.19,0,0,1,.92-0.77c-0.27.39-.56,0.64-0.19,0.44a1.16,1.16,0,0,1-.43.34,1.14,1.14,0,0,0,.72-0.24c-0.32.5,0.36,0.13-.28,0.85a2.16,2.16,0,0,1,.75-0.43c-0.87.79,0.25,0.29-.54,1.25,0.73-.74.71-0.08,1.23-0.43-0.05.06-.17,0.19-0.16,0.13a1.83,1.83,0,0,1-.08.66,7.24,7.24,0,0,1,1.08-1.22,9.18,9.18,0,0,1-.91,1.57,11.64,11.64,0,0,0,.81-1,3.79,3.79,0,0,1-.28.94c0.49-1,.19-0.1.57-0.66-0.05.55-.37,0.94,0,0.72A1.08,1.08,0,0,1,230,371.46Zm5-1h0l-0.09,0Zm0.36-.06a0.29,0.29,0,0,0-.16,0,0.79,0.79,0,0,1,0-.42A1.09,1.09,0,0,0,235.42,370.36Zm-1-4.2c0-.09,0,0,0.05.16a0.22,0.22,0,0,0,0,.08v-0.23Z" transform="translate(-71.81 -54.04)"/><path class="cls-12" d="M234.39,367a0.19,0.19,0,0,1,0,0l0,0.14V367h0Z" transform="translate(-71.81 -54.04)"/><path class="cls-12" d="M229,361h0l-0.09,0Z" transform="translate(-71.81 -54.04)"/><polygon class="cls-12" points="168.97 314.97 168.86 314.85 168.93 314.98 168.97 314.97"/><path class="cls-12" d="M226.54,362.07h0Z" transform="translate(-71.81 -54.04)"/><path class="cls-12" d="M226.36,362.93l-0.21.13A0.85,0.85,0,0,0,226.36,362.93Z" transform="translate(-71.81 -54.04)"/><path class="cls-12" d="M226.1,363.64l0.27,0h0Z" transform="translate(-71.81 -54.04)"/><path class="cls-12" d="M231.71,354.67a0.05,0.05,0,0,0,0,0C231.77,354.51,231.73,354.56,231.71,354.67Z" transform="translate(-71.81 -54.04)"/><path class="cls-12" d="M229.48,357.37a1.81,1.81,0,0,1-.1-0.29C229.31,357.07,229.27,357.09,229.48,357.37Z" transform="translate(-71.81 -54.04)"/><path class="cls-12" d="M235.66,353.71h0Z" transform="translate(-71.81 -54.04)"/><path class="cls-12" d="M229.5,357c-0.12-.07-0.14,0-0.12.07S229.52,357.11,229.5,357Z" transform="translate(-71.81 -54.04)"/><path class="cls-12" d="M226.82,366.64v0l0.09,0h-0.08Z" transform="translate(-71.81 -54.04)"/><path class="cls-12" d="M226.91,366.63H227S227,366.6,226.91,366.63Z" transform="translate(-71.81 -54.04)"/><path class="cls-12" d="M227.17,366.61H227S227,366.69,227.17,366.61Z" transform="translate(-71.81 -54.04)"/><path class="cls-12" d="M226.66,365.67l-0.21.08Z" transform="translate(-71.81 -54.04)"/><path class="cls-12" d="M226.49,365.43c0,0.08-.38.34-0.21,0.38l0.17-.06C226.12,365.83,226.87,365.35,226.49,365.43Z" transform="translate(-71.81 -54.04)"/><path class="cls-12" d="M228.86,363.72l-0.14.19a1.35,1.35,0,0,1,.6-0.14C230,363.44,228.81,363.93,228.86,363.72Z" transform="translate(-71.81 -54.04)"/><path class="cls-12" d="M229.13,363.23a1.16,1.16,0,0,0,.48,0A0.82,0.82,0,0,0,229.13,363.23Z" transform="translate(-71.81 -54.04)"/><path class="cls-12" d="M229.9,360.28l0.46,0.33A1.88,1.88,0,0,0,229.9,360.28Z" transform="translate(-71.81 -54.04)"/><polygon class="cls-12" points="156.31 303.82 155.98 303.66 156.34 304.03 156.31 303.82"/><polygon class="cls-12" points="159.47 306.31 159.51 306.38 159.43 306.18 159.47 306.31"/><path class="cls-12" d="M235.37,359.18l0.16-.67A1.41,1.41,0,0,0,235.37,359.18Z" transform="translate(-71.81 -54.04)"/><path class="cls-12" d="M237.53,359.55c-0.21.27-.32,0.48-0.06,0.25C237.47,359.74,237.61,359.5,237.53,359.55Z" transform="translate(-71.81 -54.04)"/><polygon class="cls-12" points="165.41 310.64 165.24 310.47 165.36 310.64 165.41 310.64"/><path class="cls-10" d="M184.91,392.53a6.76,6.76,0,0,0,9,1.52,5.81,5.81,0,0,0,1.62-8.43,6.76,6.76,0,0,0-9-1.52A5.81,5.81,0,0,0,184.91,392.53Z" transform="translate(-71.81 -54.04)"/><ellipse class="cls-11" cx="195.09" cy="231.97" rx="6.47" ry="6.06"/><path class="cls-12" d="M259,286a0.76,0.76,0,0,0,.54-0.06l-0.73-.06Z" transform="translate(-71.81 -54.04)"/><path class="cls-12" d="M260.34,285.62a6.83,6.83,0,0,0-1.63-.24c0.69,0.14.4,0.14,1.23,0.27,0.08,0.07-.24.1-0.51,0.08,0.19,0-.17.1,0.29,0.15s0.59-.15.14-0.29A2.84,2.84,0,0,1,260.34,285.62Z" transform="translate(-71.81 -54.04)"/><path class="cls-12" d="M263.79,281.88l-0.07-.05A0.17,0.17,0,0,0,263.79,281.88Z" transform="translate(-71.81 -54.04)"/><path class="cls-12" d="M266.57,281.39a0.28,0.28,0,0,0,0,.16A0.33,0.33,0,0,0,266.57,281.39Z" transform="translate(-71.81 -54.04)"/><path class="cls-12" d="M267,282.18l0-.05C267,282.2,267,282.24,267,282.18Z" transform="translate(-71.81 -54.04)"/><path class="cls-12" d="M263.79,281.88L264,282C263.85,281.83,263.85,281.9,263.79,281.88Z" transform="translate(-71.81 -54.04)"/><path class="cls-12" d="M258.72,284.49a0.57,0.57,0,0,0,.18.1l-0.07-.08Z" transform="translate(-71.81 -54.04)"/><path class="cls-12" d="M263.23,283.1v0l0.2,0.21Z" transform="translate(-71.81 -54.04)"/><path class="cls-12" d="M262.8,283.84s-0.48-.34-0.7-0.5a2,2,0,0,1,.33.27Z" transform="translate(-71.81 -54.04)"/><path class="cls-12" d="M261.23,284.76l0.07,0Z" transform="translate(-71.81 -54.04)"/><path class="cls-12" d="M263.78,282.78l0.14,0.17Z" transform="translate(-71.81 -54.04)"/><path class="cls-12" d="M257.78,288l0.11,0A0.15,0.15,0,0,0,257.78,288Z" transform="translate(-71.81 -54.04)"/><polygon class="cls-12" points="188.78 231.97 188.81 231.99 189.16 231.99 188.78 231.97"/><path class="cls-12" d="M267.61,283h0C267.58,283.09,267.59,283.08,267.61,283Z" transform="translate(-71.81 -54.04)"/><path class="cls-12" d="M270.73,286.74c0.56,0.05.65,0.29,1.28,0.32A6.92,6.92,0,0,0,270.73,286.74Z" transform="translate(-71.81 -54.04)"/><path class="cls-12" d="M258.8,284.46a0.1,0.1,0,0,1,0-.06S258.78,284.44,258.8,284.46Z" transform="translate(-71.81 -54.04)"/><path class="cls-12" d="M272,287.06h0Z" transform="translate(-71.81 -54.04)"/><path class="cls-12" d="M269.08,283.2l0.13-.24Z" transform="translate(-71.81 -54.04)"/><path class="cls-12" d="M268.29,281.91V282A0.14,0.14,0,0,0,268.29,281.91Z" transform="translate(-71.81 -54.04)"/><path class="cls-12" d="M270.1,282.87s-0.07.12,0,.07l0-.06C270.09,282.94,270.05,283,270.1,282.87Z" transform="translate(-71.81 -54.04)"/><path class="cls-12" d="M270.61,283.37l0.09-.09h0Z" transform="translate(-71.81 -54.04)"/><path class="cls-12" d="M260.14,291.77a5.2,5.2,0,0,1,.36-0.42C260.2,291.67,259.94,291.62,260.14,291.77Z" transform="translate(-71.81 -54.04)"/><path class="cls-12" d="M259.06,284.56a0.72,0.72,0,0,1-.25-0.09l0,0Z" transform="translate(-71.81 -54.04)"/><path class="cls-12" d="M273.29,279.19l0.12,0.22A0.34,0.34,0,0,0,273.29,279.19Z" transform="translate(-71.81 -54.04)"/><path class="cls-12" d="M269.27,294.27l0,0.08S269.28,294.34,269.27,294.27Z" transform="translate(-71.81 -54.04)"/><path class="cls-12" d="M274,279.84a1.6,1.6,0,0,0-.22.39l0.14-.09Z" transform="translate(-71.81 -54.04)"/><path class="cls-12" d="M260.51,291.35h0Z" transform="translate(-71.81 -54.04)"/><path class="cls-12" d="M258.42,291c0.12,0.21.72-.35,1.14-0.56,0.33,0.08-.43.44-0.72,0.75,0.27,0,1-.33,1-0.22a1.12,1.12,0,0,1-.27.22c0.61-.28.34,0.39,1.08,0l-0.13.15c0.28-.3.58-0.58,0.8-0.77,0.07,0,.47-0.25.11,0.14a0.69,0.69,0,0,0-.32.2l0.23-.1a2,2,0,0,1-.68.48c0.31,0,.89-0.35.83-0.1-0.49.57-.39,0-0.73,0.57l0-.36c-0.72.95,0-.16-0.83,0.84,0.08,0.39.51,0,.6,0.35,0.33-.27.39-0.47,0.71-0.74,0.77-.33-0.94,1.67-0.06,1.09,0.37-.35.94-1.1,0.82-0.58l-0.54.65c0.2,0.24.81-.91,0.74-0.28a2.74,2.74,0,0,1-.35.22c-0.2.67,0.37-.32,0.49-0.25l-0.36.65a8.84,8.84,0,0,0,1.22-.25,1.65,1.65,0,0,0-.29.62c0.54-.15.79,0.43,1.09,1l0.34-.57a0.67,0.67,0,0,1-.09.41c0.1,0.28.12-.39,0.26-0.62a0.61,0.61,0,0,1-.08.56c0.44-.45,1-1,1.18-0.26l-0.08.18c0.2,0.29.41-1.28,0.54-.65l0,0.11c0.46,0.31,1-.26,1.37.69,0-.93.53,0.39,0.43-0.92a2.8,2.8,0,0,0,.77,1.21,5.84,5.84,0,0,0,.11-1l0.14,0.66,0-.73,0.28,0.77,0.08-.2a1,1,0,0,1-.21-0.46c0.1-.34.57,0.35,0.68,0.67l0.14-.35,0.13-.35a1.27,1.27,0,0,1,0,.56c0-.74.28,0.66,0.3,0a2.68,2.68,0,0,1-.17-0.51c0.25,0.35.51,0.25,0.61,0l0.15,0.44a3.08,3.08,0,0,0,1-.73,1.66,1.66,0,0,1-.56-1l0.41,0.59a3.21,3.21,0,0,1-.39-0.71,1.68,1.68,0,0,1,.56.89l0-.3c0.12,0.17.15,0.29,0.28,0.53-0.18-.41.67,0.41,0.33-0.29l0.13,0.17a3.06,3.06,0,0,0,.58-0.8,3.47,3.47,0,0,1-.48-0.88,1.28,1.28,0,0,0,1-.09,2.15,2.15,0,0,0-.56-0.7c0.43,0.37.57,0.11,0.78,0.49a1.23,1.23,0,0,0,.08-1,1.38,1.38,0,0,1-.46-0.24c0-.11.28,0,0.5,0.16l0,0c-0.23-.43.27-0.41,0.72-0.48s0.88-.18.43-0.61l0,0-0.2-.31-0.21-.3a3.52,3.52,0,0,1,.73.25c-0.71-.73.36-0.65-0.14-1.17,0.85,0.06.87-.23,0.81-0.52s-0.2-.59.33-0.76h-0.39c-0.38-.13.23-0.11,0.32-0.19a1.54,1.54,0,0,1-.57,0,1.5,1.5,0,0,1,.13-1.32,5.39,5.39,0,0,0,.5-1.52c0-.38-2,0.39-1.22-0.27l0.73-.12a1.08,1.08,0,0,1-.75-0.8,0.89,0.89,0,0,0-.72-0.7,0.72,0.72,0,0,1,.38-0.11c0.38-.39-0.25-0.44-0.61-0.2a2.18,2.18,0,0,1,.46-0.41c0.18-.3-0.74.11-0.36-0.25a0.34,0.34,0,0,1,.21-0.08c-0.26.08-.21-0.37-0.63,0.08,0.08-.37-0.48-0.17-0.34-0.53-0.57.38,0-.51-0.75,0.14,0.72-.7.26-0.87-0.16-0.6,0.23-.2.11-0.32,0.42-0.6-0.14-.1-0.38-0.06-0.67.36,0.48-1.15-1,.43-0.3-0.92a14,14,0,0,1-1.72.32c0.44-.89.45,0.1,0.91-0.82-0.58.15-1.12,0.86-1.37,0.49a0.94,0.94,0,0,1,.31-0.52c-0.52.24-.72-0.36-1.21,0.07a0.68,0.68,0,0,1,.14-0.24c-0.08,0-.12-0.18-0.23.26l0.1-.1a8.13,8.13,0,0,1-.66,1.6c0.39-1.23-.22-0.39.28-1.94a1.26,1.26,0,0,0-.21.57,0.83,0.83,0,0,1,.1-0.6c-0.29.19-.29,0.69-0.5,0.64a5.36,5.36,0,0,1,.16-0.54c-0.18.4-.34,0.81-0.49,0.6a0.45,0.45,0,0,1,.08-0.29c-0.33,0-.6,1.09-0.89.66,0.12-.94-0.1-0.32-0.11-1.14l-0.19.25,0.08,0.4c-0.16,0-.27.6-0.41,0.33l0.1-.34-0.28.17,0.18,0.3c-0.12.43,0.08,1-.12,0.82a1.42,1.42,0,0,1-.25-0.48h0c0,0.27-.08.55-0.2,0.36s-0.1-.9-0.14-1.07c0,0.69-.33.24-0.29,1a4.34,4.34,0,0,0-.11-0.68l0,0.56a1.29,1.29,0,0,1-.19-0.58c-0.23-.05.28,1,0,0.62a1.31,1.31,0,0,1,0-.22c-0.3-.16-0.37.44-0.65,0.26-0.32-.77.13-0.26-0.15-0.9-0.31.26-.35,1.15-0.7,1.11l0.09,0.06c0.44,1.08-.45-0.43-0.37.14a2.51,2.51,0,0,0-.19-0.48c-0.29-.07-0.29.48-0.37,0.95l-0.12-.27a0.8,0.8,0,0,0-.57,0,1.46,1.46,0,0,0,.34.6c-0.67-.58-0.72-0.24-0.7.09s0.09,0.65-.53.29a0.33,0.33,0,0,0-.13-0.24l0,0.44a3.32,3.32,0,0,0,.58.41,0.77,0.77,0,0,1,.26.5,2,2,0,0,0-.85-0.7c0.12,0.1.24,0.23,0.36,0.33-0.79-.48.75,0.69,0.16,0.45l-0.2-.18a0.7,0.7,0,0,1,.18.44,3.21,3.21,0,0,1-.54-0.54c-0.06.13,0.74,0.86,0.2,0.6-0.1-.14-0.06-0.19-0.16-0.33-0.63-.32-0.5-0.2-0.65-0.18h0l-0.39,0,0.19,0.05c1.19,1,0,.44.8,1.13a2.82,2.82,0,0,0-1-.65,1.46,1.46,0,0,1-.56-0.17c0.42,0.36-.47,0,0.16.48a1.09,1.09,0,0,1-.55-0.16,1,1,0,0,0,.59.26c0.56,0.48-1,.15-0.22.82a10.35,10.35,0,0,0,1.28.93,1.86,1.86,0,0,1-.74-0.26c-0.34,0-.31.15-0.1,0.32a1.89,1.89,0,0,0-.58-0.09c0,0.11.75,0.22,0.42,0.28a7.37,7.37,0,0,1-.83-0.26c0.17,0.17.55,0.35,0.72,0.49a2.13,2.13,0,0,1-.78-0.24,1.13,1.13,0,0,0,.86.52l0.22-.06a1.53,1.53,0,0,1-.61-0.08c-0.44-.18.23-0.14,0.44-0.12l0.12,0.1c1.26,0.09-.15-0.33,0-0.51l0.89,0.24-0.36-.15-0.35-.16a2.46,2.46,0,0,1,.86.21c0.47,0-.29-0.16.22-0.12a0.45,0.45,0,0,1,.15,0L261,284.6a1.17,1.17,0,0,1,.49.17c0.55,0-.59-0.45.09-0.3l0,0a7.85,7.85,0,0,0-1.3-.68l0.8,0.23,0.79,0.25-0.61-.27a0.41,0.41,0,0,1,.34.07,5.46,5.46,0,0,0-.66-0.32c0.59,0.13-.11-0.44.86,0a2.09,2.09,0,0,1-.66-0.35c1,0.5-.11-0.22.41-0.07a1.71,1.71,0,0,0,.69.42c-0.85-.55.29,0,0.16-0.2-0.67-.43-0.18-0.33-0.32-0.6a2.88,2.88,0,0,0,.81.15l0.1,0.09c-0.61-.54-0.4-0.55-0.45-0.73a4.29,4.29,0,0,1,.6.65l0.05-.06a1.06,1.06,0,0,1-.28-0.41l0.42,0.44c0-.09-0.35-0.68,0-0.47a6.59,6.59,0,0,1-1.25-1.49,4.82,4.82,0,0,1,.6.74s-0.12-.23,0-0.15l0.28,0.43c0.2,0.12-.25-0.35-0.17-0.35,0.28,0.33.23,0.21,0.45,0.48,0,0-.15-0.1-0.06,0a1.39,1.39,0,0,1,.54.41,2,2,0,0,1-.37-0.53,1.92,1.92,0,0,1,.54.53,1.71,1.71,0,0,0-.3-0.57,1.78,1.78,0,0,1,.32.36,1,1,0,0,0-.26-0.76l0,0v0h0c-0.16-.67.57,0.09,0.6-0.25l0.1,0.19a1.36,1.36,0,0,0,.08-0.71,1.54,1.54,0,0,1,.32.57c0-.19-0.05-0.42.2-0.13,0,0.38.14,0.31,0,.29,0.18,0.14.3,0.46,0.23-.14,0.14,0.54.29,0.64,0.29,0.47l-0.19-.36c0-.1.1-0.07,0.16,0l0.17,0.71c0.21,0.41.19,0,.21-0.29s0.07-.57.28,0.16c0-.51-0.18-0.34-0.23-0.94a1.77,1.77,0,0,1,.25.58c0.08,0.27.15,0.52,0.16,0.52,0.16,0.39,0-1.09.17-.82a3.11,3.11,0,0,1,0-1.2,2.85,2.85,0,0,1,.15,1.3s0-.06,0-0.15a0.86,0.86,0,0,0,0,.49v-0.26a1.26,1.26,0,0,1,.18.66,0.83,0.83,0,0,0,0-.56c0.14,0.37.2,0,.32,0.26a1.87,1.87,0,0,1,0-.45c0.19,0.33.1-.49,0.25-0.6,0.06,0.4-.09.95,0.07,0.62a2.65,2.65,0,0,1-.08.9c0.15-.5.16,0.35,0.19,0.45l-0.07.2c0-.12.06-0.11,0.09-0.11l0-.52a0.57,0.57,0,0,1,0,.31c0.08-.33.1-0.86,0.24-1.31,0,0.27.21-.26,0.1,0.42-0.1-.25-0.11.69-0.24,0.78,0-.08.06-0.07,0.07,0a0.78,0.78,0,0,1,0,.18c0,0.63.2-.76,0.33-0.71a1.55,1.55,0,0,0-.1.65,3,3,0,0,1,.25-0.92c0,0.32.16-.2,0.2-0.15l0-.15a0.52,0.52,0,0,1,.27-0.41c-0.08.29-.12,0.18-0.14,0.32,0.28-.63,0,0.74.19,0.33,0,0.26-.24.69-0.27,0.87,0.28-.44-0.09.53,0.15,0.18a2.38,2.38,0,0,1,.39-0.82l-0.32.26,0.2-.33,0.21-.32a1.65,1.65,0,0,1-.25.16,1.86,1.86,0,0,0,.29-0.68c-0.2.76,0.35-.35,0.25,0.19l-0.53,1.18c-0.14.57,0.51-.51,0.52-0.12l0.06-.23c0.27-.44.14,0,0.3-0.15a7.06,7.06,0,0,0-.4.77,3.26,3.26,0,0,0,.57-0.63l-0.25.52c0,0.27.87-.91,0.92-0.68a8,8,0,0,1-.75.83s0,0.12.2-.11c-0.15.23,0.47-.36,0.24,0a1.57,1.57,0,0,1,.47-0.4,2,2,0,0,1-.14.16,2.81,2.81,0,0,0,.55-0.54c-0.38.56-.3,0.62-0.18,0.67s0.26,0.08-.14.52a0.86,0.86,0,0,1,.46.07c-0.11.07-.17,0.13-0.15,0.09-0.24.34,1.06-.66,0.8-0.24a1.91,1.91,0,0,1-.56.33c-1.18.81,0.27,0.06-.38,0.58l-0.09,0c-0.38.3,0.55-.11,0.53,0.06l-0.19.1a1.71,1.71,0,0,1,1.23-.1,3.39,3.39,0,0,0-.82.28,5.41,5.41,0,0,1,1-.29,5.14,5.14,0,0,1-1.06.53l-0.07-.08c-0.72.31,0.08,0.11,0,.21l-0.33.1c0.14,0.1,1-.13,1,0.07l0.25-.08c0.87-.08-0.45.19,0.19,0.16l-0.85.19a3.36,3.36,0,0,1,1,.21c-0.65,0-1-.09-1.39-0.1,0,0.05.09,0.17,0.53,0.15-0.09,0-.3,0-0.18-0.06,0.69,0,1,.08,1,0.23-1.68.07-.4,0.38-1.72,0.43,0.62,0.22-.29.32-0.22,0.5a8.08,8.08,0,0,1,1.34.34c0.07,0.08,0,.1,0,0.08h-0.41l-0.41,0a3.82,3.82,0,0,1-.57-0.2,3.75,3.75,0,0,1-.91-0.18c0.46,0.13.65,0.24,0.46,0.22l0.61,0.12c0.64,0.38-1.11-.27-0.48.09l-0.38-.19a2,2,0,0,0,.85.72,2.88,2.88,0,0,1-.55-0.28c-0.18,0,.78.93,0.15,0.7l-0.26-.2c0.06,0.08.46,0.41,0.17,0.25a2.13,2.13,0,0,0-.28-0.21c0.08,0.08.4,0.42,0.22,0.34l-0.26-.26c-0.42-.15.51,0.79,0.53,1.1a4.25,4.25,0,0,0-1.14-.9l-0.09-.1c-0.2,0,.27.82,0.29,1.27-0.68-.81-0.6-0.14-1-0.6a3.28,3.28,0,0,1,.32.79c-0.12-.16.13,0.68-0.2-0.14h0c-0.37-.78-0.35-0.54-0.43-0.55l0.38,1.1c-0.39-.77-0.43-0.57-0.51-0.37s-0.16.42-.36-0.3c0,0.3,0,.3-0.05.59l-0.1-.61c-0.15-.15-0.21-0.2-0.35,0v-0.44c-0.07,0,0,1.79-.09,1.84l-0.06-.93c-0.19,0-.29-0.81-0.5,0a2.28,2.28,0,0,1,.07-0.44c-0.08,0-.19-0.65-0.33.62,0.11-.82-0.15-0.1-0.33.24l0.13-.6a2.75,2.75,0,0,1-.45,1.14c0-.09.09-0.48,0.09-0.32,0-.33-0.21.55-0.26,0.2l0.14-.37c-0.08-.07-0.13.14-0.31,0.56-0.14.21-.16-0.22,0-0.75-0.12.32-.32,0.72-0.33,0.55a1.86,1.86,0,0,1,.16-0.37c0-.44-0.5.57-0.38,0a3.06,3.06,0,0,0,.13-0.34,0.25,0.25,0,0,1,.17.18,8.91,8.91,0,0,1,.51-1.35c-0.2.37-.69,1.16-0.67,0.88l0.07-.18,0-.05c0-.06,0,0-0.09.06a0.36,0.36,0,0,0,0-.18c0.2-.42,0-0.27,0-0.31a6.46,6.46,0,0,0-.5.9,0.09,0.09,0,0,1,.09-0.07l0,0,0,0,0.13,0c-0.18.26-.34,0.47-0.23,0.14-0.21.34-.44,0.67-0.56,0.83a16.86,16.86,0,0,1,.75-1.71,2.77,2.77,0,0,0-1.18.87,0.9,0.9,0,0,1,.26-0.45,0.89,0.89,0,0,0,.22-0.16,1.46,1.46,0,0,0-.82.51c0.15-.35.55-0.52,0.33-0.52l0.18-.17c0.33-.57-0.08-0.27-0.53,0s-0.88.34-.34-0.3a1.17,1.17,0,0,1-.2.21c0.15-.38-0.07-0.46-0.3-0.58s-0.39-.32.1-0.72c0.18-.18-0.31,0-0.71.06l0.62-.24-0.38.07-0.38.06c-0.29,0,.07-0.21.39-0.37s0.56-.28,0-0.28l-0.43.11c0.07-.09-0.3-0.22.21-0.28-0.08,0-.47,0-0.24,0l0.34,0-0.31-.06-0.3-.07c0.24-.18,1.38-0.1,1.43-0.28a6.52,6.52,0,0,0-1.26-.16,1.09,1.09,0,0,1-.56.1l-0.19-.09a7,7,0,0,0-2.78.22l0.64,0.2-0.49.1,0-.19c-0.46.13,0,.19,0.24,0.24a1.65,1.65,0,0,0-.54.14l0.49,0.07,0.5,0.06a2.47,2.47,0,0,0-1,.17,7.08,7.08,0,0,1,1.2-.08c-0.45.16-.82,0.19-0.41,0.25a1.13,1.13,0,0,1-.55,0,1.12,1.12,0,0,0,.73.24c-0.55.23,0.22,0.33-.72,0.54a2.14,2.14,0,0,1,.85.09c-1.17.13,0,.39-1.16,0.72,1-.19.63,0.36,1.26,0.38-0.08,0-.25.06-0.2,0a1.87,1.87,0,0,1-.43.5,7.22,7.22,0,0,1,1.58-.39,8.86,8.86,0,0,1-1.63.79,10.83,10.83,0,0,0,1.24-.38,3.76,3.76,0,0,1-.75.64c0.94-.52.23,0,0.85-0.24-0.35.44-.83,0.58-0.43,0.58A1,1,0,0,1,258.42,291Zm4.89,1.87h0Zm0.34,0.14a0.3,0.3,0,0,0-.14-0.09,0.77,0.77,0,0,1,.2-0.37A1.1,1.1,0,0,0,263.65,293.05Zm1.3-4.12c0.06-.06,0,0,0,0.16l-0.08,0,0,0.06Z" transform="translate(-71.81 -54.04)"/><path class="cls-12" d="M264.52,289.62l0,0,0,0.13,0.1-.16h0Z" transform="translate(-71.81 -54.04)"/><path class="cls-12" d="M263.7,281.82h0l-0.06-.07Z" transform="translate(-71.81 -54.04)"/><polygon class="cls-12" points="197.08 240.64 197.05 240.48 197.04 240.63 197.08 240.64"/><path class="cls-12" d="M261.06,281.3l-0.14-.09Z" transform="translate(-71.81 -54.04)"/><path class="cls-12" d="M260.42,281.88l-0.25,0A0.85,0.85,0,0,0,260.42,281.88Z" transform="translate(-71.81 -54.04)"/><path class="cls-12" d="M259.79,282.29l0.22,0.14h0Z" transform="translate(-71.81 -54.04)"/><path class="cls-12" d="M269.37,277.91l0,0C269.5,277.8,269.44,277.83,269.37,277.91Z" transform="translate(-71.81 -54.04)"/><path class="cls-12" d="M266.08,279.07a1.8,1.8,0,0,1,.07-0.3C266.09,278.72,266,278.72,266.08,279.07Z" transform="translate(-71.81 -54.04)"/><path class="cls-12" d="M273.28,279.16h0l0,0v0Z" transform="translate(-71.81 -54.04)"/><path class="cls-12" d="M266.29,278.77c-0.06-.12-0.11-0.09-0.14,0S266.26,278.87,266.29,278.77Z" transform="translate(-71.81 -54.04)"/><path class="cls-12" d="M258.56,285.12l0,0,0.1,0Z" transform="translate(-71.81 -54.04)"/><path class="cls-12" d="M258.62,285.16l0.07,0S258.69,285.18,258.62,285.16Z" transform="translate(-71.81 -54.04)"/><path class="cls-12" d="M258.84,285.31l-0.15-.1S258.67,285.27,258.84,285.31Z" transform="translate(-71.81 -54.04)"/><path class="cls-12" d="M259,284.24l-0.21-.06Z" transform="translate(-71.81 -54.04)"/><path class="cls-12" d="M259,283.95c-0.07,0-.51,0-0.4.17l0.17,0.05C258.49,284,259.37,284.11,259,283.95Z" transform="translate(-71.81 -54.04)"/><path class="cls-12" d="M261.94,284l-0.23.07a1.34,1.34,0,0,1,.56.25C263,284.47,261.77,284.15,261.94,284Z" transform="translate(-71.81 -54.04)"/><path class="cls-12" d="M262.46,283.79a1.13,1.13,0,0,0,.41.25A0.8,0.8,0,0,0,262.46,283.79Z" transform="translate(-71.81 -54.04)"/><path class="cls-12" d="M264.87,281.76l0.2,0.52A1.82,1.82,0,0,0,264.87,281.76Z" transform="translate(-71.81 -54.04)"/><polygon class="cls-12" points="192.87 224.72 192.69 224.41 192.79 224.91 192.87 224.72"/><polygon class="cls-12" points="194.22 228.51 194.21 228.6 194.25 228.38 194.22 228.51"/><path class="cls-12" d="M270.13,283.65l0.5-.48A1.45,1.45,0,0,0,270.13,283.65Z" transform="translate(-71.81 -54.04)"/><path class="cls-12" d="M271.66,285.07c-0.33.1-.53,0.2-0.2,0.16C271.51,285.18,271.75,285.07,271.66,285.07Z" transform="translate(-71.81 -54.04)"/><polygon class="cls-12" points="196.4 235.07 196.36 234.84 196.36 235.05 196.4 235.07"/><ellipse class="cls-10" cx="236.95" cy="264.89" rx="6.47" ry="6.06"/><ellipse class="cls-10" cx="195.09" cy="272.26" rx="6.47" ry="6.06"/><line class="cls-10" x1="125.89" y1="302.67" x2="125.89" y2="302.67"/><path class="cls-10" d="M226.91,328.44a6.76,6.76,0,0,0,9,1.52,5.81,5.81,0,0,0,1.62-8.43,6.76,6.76,0,0,0-9-1.52A5.81,5.81,0,0,0,226.91,328.44Z" transform="translate(-71.81 -54.04)"/><path class="cls-10" d="M416.75,200.27a6.21,6.21,0,0,0-6,6.43,6.34,6.34,0,0,0,6.88,5.65,6.21,6.21,0,0,0,6-6.43A6.34,6.34,0,0,0,416.75,200.27Z" transform="translate(-71.81 -54.04)"/><path class="cls-13" d="M109.26,188.89c0,21.89-4.4,21.89-4.4,43.78s4.4,21.89,4.4,43.78-4.4,21.89-4.4,43.78,4.4,21.89,4.4,43.78-4.4,21.89-4.4,43.79,4.4,21.89,4.4,43.79" transform="translate(-71.81 -54.04)"/><path class="cls-13" d="M78.55,419.17c35.82,0,35.82,4.4,71.65,4.4s35.82-4.4,71.65-4.4,35.82,4.4,71.65,4.4,35.83-4.4,71.65-4.4,35.83,4.4,71.66,4.4,35.83-4.4,71.66-4.4" transform="translate(-71.81 -54.04)"/><line class="cls-14" x1="117.43" y1="367.04" x2="117.43" y2="373.52"/><line class="cls-14" x1="162.36" y1="364.04" x2="162.36" y2="373.52"/><line class="cls-14" x1="201.56" y1="367.32" x2="201.56" y2="373.52"/><line class="cls-14" x1="236.95" y1="367.32" x2="236.95" y2="373.52"/><line class="cls-14" x1="268.24" y1="367.32" x2="268.24" y2="373.52"/><line class="cls-14" x1="306.44" y1="364.04" x2="306.44" y2="373.52"/><line class="cls-14" x1="345.36" y1="367.32" x2="345.36" y2="376.97"/><text class="cls-15" transform="translate(342.65 226.57) scale(0.73 1)">Wee<tspan class="cls-16" x="37.01" y="0">k</tspan><tspan x="46.32" y="0">end O</tspan><tspan x="97.92" y="0">u</tspan><tspan x="107.16" y="0">t</tspan><tspan x="114.8" y="0">l</tspan><tspan x="119.14" y="0">i</tspan><tspan x="122.92" y="0">er</tspan></text><path class="cls-11" d="M139.77,387.52c52.15-30.23,54.35-26.43,106.5-56.66s49.94-34,102.09-64.28,54.36-26.43,106.51-56.67" transform="translate(-71.81 -54.04)"/><path class="cls-17" d="M139.77,387.52c52.15-30.23,54.35-26.43,106.5-56.66s49.94-34,102.09-64.28,54.36-26.43,106.51-56.67" transform="translate(-71.81 -54.04)"/><text class="cls-18" transform="translate(148.12 106.13) scale(1.04 1)">D<tspan class="cls-19" x="17.96" y="0">a</tspan><tspan class="cls-19" x="30.78" y="0">t</tspan><tspan x="38.63" y="0">a An</tspan><tspan x="91.12" y="0">a</tspan><tspan x="105.43" y="0">l</tspan><tspan x="110.11" y="0">y</tspan><tspan x="122.55" y="0">st </tspan></text><text class="cls-20" transform="translate(117.51 67.37) scale(1.13 1)">Jon<tspan class="cls-21" x="57.82" y="0">a</tspan><tspan x="74.36" y="0">t</tspan><tspan x="86.06" y="0">h</tspan><tspan x="101.6" y="0">a</tspan><tspan x="119.85" y="0">n </tspan><tspan class="cls-22" x="144.55" y="0">T</tspan><tspan x="159.96" y="0">ow</tspan></text><text class="cls-23" transform="matrix(1.36, -0.36, 0.35, 0.94, 56.19, 36.36)">Im</text><text x="-71.81" y="-54.04"/></svg>