<svg id="Layer_4" data-name="Layer 4" xmlns="http://www.w3.org/2000/svg" viewBox="0 0 565.47 372.63"><defs><style>.cls-1,.cls-14,.cls-15,.cls-18,.cls-2,.cls-3,.cls-4,.cls-5{fill:none;}.cls-1,.cls-13{stroke:#28abe3;}.cls-1,.cls-10,.cls-13,.cls-14,.cls-15,.cls-18,.cls-2,.cls-3,.cls-4,.cls-5{stroke-miterlimit:10;}.cls-1,.cls-10,.cls-13,.cls-18,.cls-2,.cls-3,.cls-4{stroke-width:2.49px;}.cls-1{stroke-dasharray:29.89 4.98;opacity:0.3;}.cls-2,.cls-3,.cls-4,.cls-5{stroke:#c4c4c4;}.cls-3{stroke-dasharray:30.72 5.12;}.cls-4{stroke-dasharray:30.72 5.12;}.cls-5{stroke-width:1.87px;}.cls-6{fill:#c4c4c4;}.cls-7{font-size:27.6px;}.cls-16,.cls-7,.cls-9{font-family:Noteworthy;font-weight:700;}.cls-8{letter-spacing:-1.39px;}.cls-9{font-size:26.39px;}.cls-10,.cls-11,.cls-13{fill:#fff;}.cls-10{stroke:#1fda9a;}.cls-12{fill:#3bdfa7;}.cls-14{stroke:#565656;stroke-width:4.4px;}.cls-15{stroke:#606060;stroke-width:3.43px;}.cls-16{font-size:32.9px;}.cls-17{letter-spacing:-1.95px;}.cls-18{stroke:#5b5b5b;}</style></defs><title>fit-model</title><line class="cls-1" x1="76.78" y1="149.03" x2="458.3" y2="149.03"/><line class="cls-1" x1="253.7" y1="289.23" x2="253.7" y2="15.15"/><path class="cls-2" d="M111.45,276.41q7.84,0,14.95,0" transform="translate(-58.49 -65)"/><path class="cls-3" d="M131.52,276.46c87.7,0.51,94.36,4.34,194.51,4.34,101.11,0,106.93-3.91,197.07-4.35" transform="translate(-58.49 -65)"/><path class="cls-2" d="M525.65,276.44q7.12,0,14.95,0" transform="translate(-58.49 -65)"/><path class="cls-2" d="M111.45,333.05q7.84,0,14.95,0" transform="translate(-58.49 -65)"/><path class="cls-3" d="M131.52,333.11c87.7,0.51,94.36,4.34,194.51,4.34,101.11,0,106.93-3.91,197.07-4.35" transform="translate(-58.49 -65)"/><path class="cls-2" d="M525.65,333.08q7.12,0,14.95,0" transform="translate(-58.49 -65)"/><path class="cls-2" d="M111.48,147q7.84,0,14.95,0" transform="translate(-58.49 -65)"/><path class="cls-4" d="M131.55,147c87.68,0.51,94.35,4.34,194.48,4.34,101.1,0,106.92-3.91,197-4.35" transform="translate(-58.49 -65)"/><path class="cls-2" d="M525.63,147q7.12,0,14.95,0" transform="translate(-58.49 -65)"/><path class="cls-2" d="M111.48,86q7.84,0,14.95,0" transform="translate(-58.49 -65)"/><path class="cls-4" d="M131.55,86.08c87.68,0.51,94.35,4.34,194.48,4.34,101.1,0,106.92-3.91,197-4.35" transform="translate(-58.49 -65)"/><path class="cls-2" d="M525.63,86.05q7.12,0,14.95,0" transform="translate(-58.49 -65)"/><path class="cls-5" d="M432.82,307.38c-17.52-40.46,13-94.23,69.42-121.23" transform="translate(-58.49 -65)"/><path class="cls-6" d="M436,292.1a0.93,0.93,0,0,0-1.07.78L432.68,307l-11.84-8a0.93,0.93,0,0,0-1,1.55l13.05,8.79a0.93,0.93,0,0,0,1.44-.63l2.45-15.54A0.93,0.93,0,0,0,436,292.1Z" transform="translate(-58.49 -65)"/><text class="cls-7" transform="translate(195.8 360.62) scale(0.72 1)">C<tspan x="19.39" y="0">u</tspan><tspan x="32.88" y="0">p</tspan><tspan x="46.37" y="0">s </tspan><tspan x="65.72" y="0">o</tspan><tspan x="79.21" y="0">f C</tspan><tspan x="115.4" y="0">o</tspan><tspan class="cls-8" x="128.89" y="0">f</tspan><tspan class="cls-8" x="137.72" y="0">f</tspan><tspan x="147.34" y="0">ee</tspan></text><text class="cls-9" transform="matrix(-0.01, -0.97, 1, -0.02, 25.98, 206.59)">Work Do<tspan x="98.02" y="0">n</tspan><tspan x="112.24" y="0">e</tspan></text><path class="cls-10" d="M193.38,274.9c0,4.46,3.1,8.07,6.92,8.07s6.92-3.61,6.92-8.07,0.72-8.07-3.1-8.07S193.38,270.45,193.38,274.9Z" transform="translate(-58.49 -65)"/><ellipse class="cls-10" cx="302.14" cy="56.39" rx="6.92" ry="8.07"/><ellipse class="cls-10" cx="302.06" cy="129.91" rx="6.92" ry="8.07"/><ellipse class="cls-10" cx="267.54" cy="109.35" rx="6.92" ry="8.07"/><ellipse class="cls-11" cx="342.9" cy="148.89" rx="6.92" ry="8.07"/><path class="cls-12" d="M393,213.89a0.68,0.68,0,0,0,.54-0.06l-0.73-.06Z" transform="translate(-58.49 -65)"/><path class="cls-12" d="M394.37,213.43a5.73,5.73,0,0,0-1.63-.22c0.69,0.13.4,0.14,1.23,0.27,0.08,0.07-.24.12-0.51,0.1,0.19,0-.16.12,0.29,0.16s0.59-.19.14-0.34A2.42,2.42,0,0,1,394.37,213.43Z" transform="translate(-58.49 -65)"/><path class="cls-12" d="M397.85,208.26l-0.09,0A0.17,0.17,0,0,0,397.85,208.26Z" transform="translate(-58.49 -65)"/><path class="cls-12" d="M401,207.27a0.24,0.24,0,0,0,0,.16A0.29,0.29,0,0,0,401,207.27Z" transform="translate(-58.49 -65)"/><path class="cls-12" d="M401.52,208.06l0-.05C401.5,208.07,401.51,208.11,401.52,208.06Z" transform="translate(-58.49 -65)"/><path class="cls-12" d="M397.85,208.26l0.22,0.11C397.93,208.19,397.92,208.27,397.85,208.26Z" transform="translate(-58.49 -65)"/><path class="cls-12" d="M392.72,212.24a0.54,0.54,0,0,0,.18.1l-0.07-.08Z" transform="translate(-58.49 -65)"/><path class="cls-12" d="M397.3,209.78v0l0.23,0.18Z" transform="translate(-58.49 -65)"/><path class="cls-12" d="M396.85,210.81a8.09,8.09,0,0,0-.76-0.4,1.54,1.54,0,0,1,.36.23Z" transform="translate(-58.49 -65)"/><path class="cls-12" d="M395.24,212.32l0.08,0.05Z" transform="translate(-58.49 -65)"/><path class="cls-12" d="M397.89,209.25l0.17,0.14Z" transform="translate(-58.49 -65)"/><path class="cls-12" d="M391.75,216l0.11,0A0.14,0.14,0,0,0,391.75,216Z" transform="translate(-58.49 -65)"/><polygon class="cls-12" points="336.14 148.9 336.17 148.92 336.52 148.92 336.14 148.9"/><path class="cls-12" d="M402.13,208.94h0C402.1,209,402.11,209,402.13,208.94Z" transform="translate(-58.49 -65)"/><path class="cls-12" d="M405.65,215.05a10.52,10.52,0,0,0,1.3.24A4.88,4.88,0,0,0,405.65,215.05Z" transform="translate(-58.49 -65)"/><path class="cls-12" d="M392.81,212.21a0.12,0.12,0,0,1,0-.07S392.79,212.19,392.81,212.21Z" transform="translate(-58.49 -65)"/><path class="cls-12" d="M407,215.29h0Z" transform="translate(-58.49 -65)"/><path class="cls-12" d="M403.76,209.41l0.16-.22Z" transform="translate(-58.49 -65)"/><path class="cls-12" d="M403,207.89V208A0.15,0.15,0,0,0,403,207.89Z" transform="translate(-58.49 -65)"/><path class="cls-12" d="M405,209.36s-0.08.11,0,.08l0.05-.06C404.93,209.43,404.9,209.45,405,209.36Z" transform="translate(-58.49 -65)"/><path class="cls-12" d="M405.5,210.12l0.1-.08h0Z" transform="translate(-58.49 -65)"/><path class="cls-12" d="M393.79,220.33a4.82,4.82,0,0,1,.42-0.37C393.86,220.23,393.6,220.12,393.79,220.33Z" transform="translate(-58.49 -65)"/><path class="cls-12" d="M393.07,212.29a0.67,0.67,0,0,1-.26-0.08l0,0.05Z" transform="translate(-58.49 -65)"/><path class="cls-12" d="M408.71,206.26l0.09,0.27A0.42,0.42,0,0,0,408.71,206.26Z" transform="translate(-58.49 -65)"/><path class="cls-12" d="M404.31,224l0,0.09S404.31,224,404.31,224Z" transform="translate(-58.49 -65)"/><path class="cls-12" d="M409.35,207.1a1.5,1.5,0,0,0-.27.36l0.15-.06Z" transform="translate(-58.49 -65)"/><path class="cls-12" d="M394.22,220h0Z" transform="translate(-58.49 -65)"/><path class="cls-12" d="M392.12,219.22c0.1,0.24.77-.24,1.21-0.39,0.33,0.14-.48.38-0.8,0.66a7.57,7.57,0,0,1,1,0,1,1,0,0,1-.3.18c0.64-.16.32,0.47,1.11,0.2l-0.15.13a11,11,0,0,1,.91-0.64c0.06,0.07.51-.15,0.1,0.18a0.6,0.6,0,0,0-.35.13l0.24,0c-0.58.51-.29,0-0.76,0.35,0.31,0,1-.16.88,0.09-0.57.48-.42-0.13-0.83,0.43l0.08-.37c-0.85.84,0-.18-0.95,0.7,0,0.42.55,0.09,0.59,0.5,0.37-.2.46-0.41,0.83-0.61,0.84-.15-1.16,1.52-0.17,1.13,0.43-.27,1.12-0.92.93-0.39l-0.65.54c0.19,0.3,1-.75.84-0.11a2.79,2.79,0,0,1-.41.15c-0.27.65,0.44-.25,0.56-0.14l-0.46.59a9.79,9.79,0,0,0,1.38,0,1.4,1.4,0,0,0-.37.58c0.63,0,.88.63,1.22,1.25l0.43-.52a0.57,0.57,0,0,1-.12.4c0.1,0.31.16-.38,0.33-0.58,0.11,0,0,.4-0.13.56,0.55-.4,1.24-0.83,1.45-0.11l-0.11.18c0.25,0.31.53-1.25,0.68-.61l-0.06.11c0.57,0.35,1.18-.22,1.7.71,0-.92.67,0.36,0.52-0.94a2.53,2.53,0,0,0,1,1.14,5.28,5.28,0,0,0,.1-1l0.19,0.65v-0.74l0.36,0.74,0.09-.21a0.82,0.82,0,0,1-.28-0.44c0.11-.35.69,0.23,0.84,0.55l0.15-.38,0.14-.37a1.07,1.07,0,0,1,.07.56c0-.75.37,0.62,0.35-0.08a2.24,2.24,0,0,1-.23-0.49,0.41,0.41,0,0,0,.71-0.13l0.2,0.42a4,4,0,0,0,1-1,1.44,1.44,0,0,1-.7-0.86l0.5,0.52a2.74,2.74,0,0,1-.5-0.64,1.44,1.44,0,0,1,.69.79v-0.33a5.33,5.33,0,0,1,.36.48c-0.24-.39.78,0.27,0.34-0.38l0.16,0.14a4.56,4.56,0,0,0,.54-1,3.12,3.12,0,0,1-.6-0.82,1.42,1.42,0,0,0,1-.33,2,2,0,0,0-.66-0.62c0.48,0.29.61,0,.86,0.35a1.33,1.33,0,0,0,0-1.11,1.27,1.27,0,0,1-.5-0.17c0-.11.29-0.06,0.53,0.07l0,0c-0.25-.41.21-0.5,0.67-0.64s0.87-.32.37-0.71l0,0-0.23-.3-0.23-.29c0.15-.16.37,0.23,0.75,0.18-0.79-.69.31-0.71-0.22-1.22,0.84,0,.85-0.3.78-0.6s-0.23-.6.31-0.79h-0.39c-0.38-.12.23-0.12,0.32-0.2a1.5,1.5,0,0,1-.57,0c-0.43-.87.54-1.84,0.7-2.92,0-.39-2,0.23-1.2-0.39l0.73-.05c-1-.45-0.38-1.42-1.34-1.77a0.67,0.67,0,0,1,.39-0.05c0.43-.35-0.19-0.51-0.59-0.32a2,2,0,0,1,.5-0.35c0.21-.28-0.77,0-0.34-0.33a0.31,0.31,0,0,1,.22,0c-0.27,0-.16-0.43-0.64,0,0.11-.37-0.49-0.27-0.3-0.64-0.63.27,0-.56-0.79,0,0.82-.57.36-0.85-0.1-0.67,0.27-.15.15-0.31,0.51-0.53-0.14-.14-0.4-0.15-0.76.22,0.32-.53,0-0.5-0.23-0.47s-0.44.05,0-.57a16.45,16.45,0,0,1-1.93-.09c0.56-.82.49,0.23,1.09-0.62-0.66,0-1.32.61-1.6,0.19a0.8,0.8,0,0,1,.39-0.47c-0.6.11-.83-0.51-1.42-0.18a0.56,0.56,0,0,1,.18-0.22c-0.09,0-.14-0.21-0.28.22l0.12-.09a7.07,7.07,0,0,1-.86,1.52c0.52-1.19-.26-0.42.41-1.92a1.06,1.06,0,0,0-.27.54,0.68,0.68,0,0,1,.14-0.59c-0.36.15-.37,0.64-0.62,0.58a4.36,4.36,0,0,1,.2-0.53c-0.24.39-.44,0.78-0.62,0.56a0.38,0.38,0,0,1,.1-0.29c-0.41,0-.75,1-1.1.61,0.15-.94-0.12-0.32-0.14-1.14l-0.12.12-0.12.13,0.1,0.39c-0.2,0-.34.6-0.51,0.34l0.12-.35-0.35.18,0.23,0.3c-0.15.43,0.1,1-.14,0.82a1.38,1.38,0,0,1-.32-0.45h0c0,0.27-.08.56-0.24,0.38s-0.14-.9-0.2-1.06c0,0.69-.4.27-0.32,1a3.59,3.59,0,0,0-.15-0.68l0.07,0.56a1.09,1.09,0,0,1-.24-0.56c-0.28,0,.37,1,0,0.63a1.09,1.09,0,0,1,0-.22c-0.37-.14-0.41.52-0.76,0.37-0.41-.72.15-0.28-0.22-0.89-0.37.3-.34,1.26-0.75,1.27l0.11,0c0.57,1-.54-0.34-0.4.23a2.12,2.12,0,0,0-.25-0.45c-0.33,0-.3.55-0.34,1.08l-0.16-.26a1,1,0,0,0-.62.17,1.28,1.28,0,0,0,.42.55c-0.77-.42-0.8-0.07-0.75.27s0.17,0.69-.54.45a0.29,0.29,0,0,0-.16-0.22v0.48a2.76,2.76,0,0,0,.65.29,0.73,0.73,0,0,1,.32.49,1.76,1.76,0,0,0-1-.54c0.14,0.07.27,0.19,0.4,0.27-0.86-.33.85,0.57,0.2,0.45l-0.22-.15a0.71,0.71,0,0,1,.22.44,2.9,2.9,0,0,1-.61-0.47c0,0.15.85,0.78,0.27,0.62-0.12-.13-0.08-0.21-0.19-0.34-0.67-.2-0.53-0.1-0.68-0.05h0l-0.4.1,0.2,0c1.29,0.82.09,0.47,0.92,1.09a2.42,2.42,0,0,0-1.1-.52,1.34,1.34,0,0,1-.59-0.09c0.45,0.31-.48.05,0.19,0.49a1,1,0,0,1-.56-0.08,0.94,0.94,0,0,0,.61.19c0.63,0.45-1,.3-0.16.93a15.32,15.32,0,0,0,1.33.9A1.6,1.6,0,0,1,394,212c-0.34.08-.31,0.2-0.08,0.38a1.71,1.71,0,0,0-.59,0c0,0.12.76,0.19,0.43,0.28a7.21,7.21,0,0,1-.84-0.23c0.18,0.17.56,0.35,0.73,0.5a2,2,0,0,1-.79-0.22,1.13,1.13,0,0,0,.88.53l0.21-.08a1.35,1.35,0,0,1-.61-0.06c-0.45-.17.23-0.17,0.44-0.15L393.9,213c1.26,0-.15-0.38-0.06-0.57l0.9,0.21-0.73-.3a2.07,2.07,0,0,1,.87.16c0.46,0-.31-0.16.21-0.18a0.36,0.36,0,0,1,.16,0l-0.24-.16a0.92,0.92,0,0,1,.49.15c0.56-.08-0.6-0.46.09-0.39l0.05,0c-0.24-.35-0.65-0.18-1.36-0.61l0.82,0.14,0.82,0.16-0.64-.21a0.36,0.36,0,0,1,.35,0,4.21,4.21,0,0,0-.68-0.25c0.63,0-.15-0.49.87-0.16a1.72,1.72,0,0,1-.7-0.27c1.09,0.36-.11-0.24.43-0.17a1.37,1.37,0,0,0,.74.33c-0.9-.45.29-0.13,0.15-0.29-0.73-.34-0.2-0.34-0.36-0.62A2.67,2.67,0,0,0,397,210l0.11,0.07c-0.67-.44-0.45-0.51-0.52-0.7a3.34,3.34,0,0,1,.69.57l0.05-.09a0.93,0.93,0,0,1-.33-0.39l0.48,0.37c0-.12-0.4-0.65,0-0.54A5.55,5.55,0,0,1,396,208a4,4,0,0,1,.71.64s-0.15-.21,0-0.16l0.34,0.4c0.23,0.07-.3-0.31-0.22-0.34,0.33,0.28.27,0.16,0.52,0.39,0,0-.17-0.07-0.06.06a1.19,1.19,0,0,1,.63.29,1.64,1.64,0,0,1-.44-0.47,1.65,1.65,0,0,1,.63.41,1.42,1.42,0,0,0-.38-0.53,1.44,1.44,0,0,1,.38.29c-0.16-.26.18-0.28-0.34-0.74l0,0v0h0c-0.22-.67.64-0.07,0.66-0.42l0.12,0.18a1.53,1.53,0,0,0,0-.76,1.33,1.33,0,0,1,.4.52c0-.19-0.09-0.42.22-0.18,0.08,0.39.18,0.28,0,.3,0.21,0.1.37,0.4,0.25-.19,0.19,0.52.37,0.6,0.36,0.43l-0.24-.33c0-.1.11-0.08,0.18-0.06l0.24,0.69c0.26,0.36.21,0,.22-0.33s0.06-.57.32,0.12c-0.06-.52-0.21-0.31-0.3-0.91a1.44,1.44,0,0,1,.31.56c0.11,0.26.19,0.51,0.2,0.51,0.19,0.38,0-1.08.16-.84a2.64,2.64,0,0,1,0-1.2,2.45,2.45,0,0,1,.2,1.29s0-.06-0.05-0.15a0.75,0.75,0,0,0,0,.49v-0.26a1.15,1.15,0,0,1,.21.66,0.75,0.75,0,0,0-.06-0.56c0.15,0.37.22,0,.36,0.26a1.68,1.68,0,0,1,0-.45c0.21,0.34.12-.49,0.3-0.59,0.06,0.4-.11.94,0.07,0.62a2.41,2.41,0,0,1-.11.9c0.18-.49.16,0.37,0.18,0.46l-0.08.2c0-.12.07-0.11,0.1-0.11l0.07-.52a0.52,0.52,0,0,1,0,.31,13,13,0,0,1,.32-1.3c0,0.26.25-.23,0.09,0.44-0.1-.28-0.16.68-0.3,0.75,0-.08.07-0.06,0.07,0a0.71,0.71,0,0,1-.06.17c0,0.63.26-.74,0.41-0.68a1.4,1.4,0,0,0-.15.64,2.65,2.65,0,0,1,.33-0.89c0,0.31.19-.17,0.23-0.11v-0.16a0.46,0.46,0,0,1,.33-0.36c-0.11.28-.15,0.16-0.17,0.3,0.36-.59-0.09.73,0.21,0.36-0.07.26-.32,0.66-0.36,0.84,0.34-.39-0.15.53,0.15,0.22a2,2,0,0,1,.51-0.76l-0.38.21,0.25-.3,0.26-.29a1.21,1.21,0,0,1-.3.11,1.56,1.56,0,0,0,.37-0.63c-0.28.74,0.43-.28,0.28,0.24l-0.69,1.1c-0.2.56,0.6-.39,0.61,0l0.08-.22c0.34-.39.16,0,0.35-0.08a5.68,5.68,0,0,0-.5.71,2.57,2.57,0,0,0,.69-0.51l-0.31.49c0,0.29,1-.72,1.07-0.46a6.18,6.18,0,0,1-.89.69s0,0.14.24-.07c-0.18.2,0.56-.26,0.28,0.06a1.28,1.28,0,0,1,.54-0.3,1.63,1.63,0,0,1-.17.13,2.23,2.23,0,0,0,.64-0.44c-0.46.51-.36,0.6-0.23,0.69s0.26,0.18-.19.56a0.9,0.9,0,0,1,.5.23c-0.12.05-.19,0.1-0.16,0.06-0.28.34,1.16-.47,0.86-0.06a1.51,1.51,0,0,1-.6.24c-1.27.64,0.29,0.14-.43,0.61h-0.09c-0.41.27,0.6,0,.57,0.22l-0.2.07a1.7,1.7,0,0,1,1.27.15,2.71,2.71,0,0,0-.84.19,4.75,4.75,0,0,1,1.07-.16,4.65,4.65,0,0,1-1.1.47l-0.06-.13c-0.74.26,0.06,0.17-.05,0.27l-0.34.07c0.15,0.17,1,0,1,.26l0.25-.07c0.86,0-.46.19,0.19,0.23l-0.85.16a3.39,3.39,0,0,1,1,.36,13.37,13.37,0,0,1-1.39-.25c0,0.08.1,0.26,0.53,0.27-0.08,0-.3,0-0.17-0.09,0.7,0,1,.17,1,0.36-1.68,0-.4.48-1.72,0.57,0.62,0.3-.29.52-0.24,0.8,1.31,0.08,0,.09,1.36.28,0.07,0.1,0,.13,0,0.12l-0.42,0-0.42,0a2.36,2.36,0,0,1-.57-0.18,2.75,2.75,0,0,1-.94,0c0.47,0.09.66,0.2,0.47,0.24l0.63,0c0.64,0.39-1.12-.1-0.5.27l-0.39-.17a1.28,1.28,0,0,0,.87.8,1.92,1.92,0,0,1-.58-0.22c-0.24.14,0.84,1,.13,0.89l-0.28-.17c0.06,0.08.51,0.36,0.19,0.26a1.47,1.47,0,0,0-.31-0.16c0.09,0.07.45,0.4,0.24,0.36l-0.29-.23c-0.5,0,.57.79,0.6,1.13a3,3,0,0,0-1.32-.65l-0.1-.09c-0.24.1,0.33,0.85,0.37,1.33a0.73,0.73,0,0,0-.72-0.28,0.46,0.46,0,0,1-.51-0.06,2.75,2.75,0,0,1,.42.74c-0.15-.14.19,0.66-0.25-0.11h0c-0.48-.73-0.44-0.49-0.52-0.47l0.51,1c-0.49-.7-0.54-0.52-0.61-0.29s-0.16.44-.41-0.27c0,0.29,0,.32,0,0.61l-0.14-.61c-0.17-.14-0.23-0.2-0.37,0l0-.44c-0.07,0,.06,1.79-0.07,1.83l-0.08-.93c-0.21,0-.31-0.81-0.55,0a2.19,2.19,0,0,1,.08-0.44c-0.09,0-.17-0.67-0.38.6,0.15-.82-0.16-0.09-0.37.21l0.17-.59a2.4,2.4,0,0,1-.56,1.1c0-.09.12-0.48,0.12-0.31,0-.34-0.27.53-0.3,0.17l0.18-.35c-0.09-.09-0.15.11-0.39,0.51-0.17.19-.17-0.24,0.05-0.75-0.15.3-.42,0.69-0.41,0.5a1.54,1.54,0,0,1,.21-0.34c0-.46-0.61.47-0.43-0.12a2.55,2.55,0,0,0,.17-0.32,0.28,0.28,0,0,1,.18.21,7.55,7.55,0,0,1,.68-1.28c-0.25.34-.88,1.07-0.83,0.77l0.1-.17,0,0c0-.06,0,0-0.11,0a0.32,0.32,0,0,0,0-.19c0.26-.39.05-0.27,0-0.32a5.29,5.29,0,0,0-.63.81,0.09,0.09,0,0,1,.11,0l0.06,0,0,0,0.15,0.05c-0.22.23-.43,0.41-0.28,0.09-0.27.3-.55,0.6-0.69,0.73a15.42,15.42,0,0,1,1-1.62,2.49,2.49,0,0,0-1.38.59c-0.15.05,0.2-.28,0.32-0.41a0.81,0.81,0,0,0,.26-0.11,1.35,1.35,0,0,0-1,.32c0.19-.35.63-0.4,0.4-0.48l0.21-.13c0.4-.55-0.1-0.33-0.58-0.23s-1,.15-0.36-0.46a0.94,0.94,0,0,1-.22.19c0.2-.42-0.08-0.56-0.29-0.79s-0.38-.48.11-0.89c0.18-.2-0.32-0.07-0.72-0.07l0.64-.19-0.78,0c-0.6-.14,1.51-0.69.43-0.78l-0.44.1c0.07-.12-0.31-0.31.21-0.35-0.08,0-.47,0-0.24-0.05l0.35,0-0.31-.1-0.3-.11c0.24-.22,1.38-0.06,1.43-0.32a4.09,4.09,0,0,0-1.26-.23,0.87,0.87,0,0,1-.56.13l-0.19-.11a6.59,6.59,0,0,0-2.78.22l0.64,0.22-0.49.1,0-.2c-0.46.13,0,.2,0.24,0.26a1.61,1.61,0,0,0-.54.13l1,0.17a2.4,2.4,0,0,0-1,.14,6.36,6.36,0,0,1,1.2,0c-0.45.15-.83,0.16-0.42,0.25a1.09,1.09,0,0,1-.55,0,1.15,1.15,0,0,0,.72.3c-0.55.2,0.2,0.37-.76,0.52a2,2,0,0,1,.85.17c-1.18,0,0,.42-1.2.65,1-.09.59,0.45,1.23,0.54-0.08,0-.25,0-0.21,0a1.68,1.68,0,0,1-.48.47,6.13,6.13,0,0,1,1.62-.17,8.27,8.27,0,0,1-1.72.58c0.65-.25.78,0.07,1.29-0.21a3.29,3.29,0,0,1-.82.55c1-.39.22,0.06,0.87-0.1-0.4.41-.9,0.47-0.5,0.54A1,1,0,0,1,392.12,219.22Zm5,3.1h0l-0.11,0Zm0.39,0.22a0.42,0.42,0,0,0-.16-0.12,0.67,0.67,0,0,1,.26-0.34A0.93,0.93,0,0,0,397.5,222.53Zm1.76-4c0.08-.05,0,0.05-0.05.16l-0.1,0,0,0.06Z" transform="translate(-58.49 -65)"/><path class="cls-12" d="M398.72,219.19l0,0-0.06.12,0.13-.15h0Z" transform="translate(-58.49 -65)"/><path class="cls-12" d="M397.75,208.22h0l-0.07-.06Z" transform="translate(-58.49 -65)"/><polygon class="cls-12" points="345.37 159.42 345.32 159.27 345.32 159.42 345.37 159.42"/><path class="cls-12" d="M394.86,208.38l-0.15-.06Z" transform="translate(-58.49 -65)"/><path class="cls-12" d="M394.25,209.16l-0.26,0A0.86,0.86,0,0,0,394.25,209.16Z" transform="translate(-58.49 -65)"/><path class="cls-12" d="M393.65,209.72l0.24,0.12h0Z" transform="translate(-58.49 -65)"/><path class="cls-12" d="M404.41,204h0C404.57,203.93,404.5,204,404.41,204Z" transform="translate(-58.49 -65)"/><path class="cls-12" d="M400.39,205a1.67,1.67,0,0,1,.08-0.31C400.39,204.63,400.34,204.63,400.39,205Z" transform="translate(-58.49 -65)"/><path class="cls-12" d="M408.7,206.23h0l0,0v0Z" transform="translate(-58.49 -65)"/><path class="cls-12" d="M400.64,204.66c-0.08-.12-0.13-0.09-0.17,0S400.59,204.75,400.64,204.66Z" transform="translate(-58.49 -65)"/><path class="cls-12" d="M392.58,212.93l0,0h0.1Z" transform="translate(-58.49 -65)"/><path class="cls-12" d="M392.65,213l0.07,0S392.72,213,392.65,213Z" transform="translate(-58.49 -65)"/><path class="cls-12" d="M392.87,213.13l-0.15-.1S392.7,213.09,392.87,213.13Z" transform="translate(-58.49 -65)"/><path class="cls-12" d="M393,211.95l-0.22-.05Z" transform="translate(-58.49 -65)"/><path class="cls-12" d="M393,211.63c-0.07.06-.51,0.09-0.39,0.22l0.17,0C392.46,211.79,393.36,211.77,393,211.63Z" transform="translate(-58.49 -65)"/><path class="cls-12" d="M396,211.27l-0.23.13a1,1,0,0,1,.59.19C397.07,211.59,395.8,211.48,396,211.27Z" transform="translate(-58.49 -65)"/><path class="cls-12" d="M396.5,210.85a0.86,0.86,0,0,0,.44.19A0.61,0.61,0,0,0,396.5,210.85Z" transform="translate(-58.49 -65)"/><path class="cls-12" d="M399.07,207.87l0.27,0.49A1.53,1.53,0,0,0,399.07,207.87Z" transform="translate(-58.49 -65)"/><polygon class="cls-12" points="340.21 139.84 339.98 139.55 340.12 140.05 340.21 139.84"/><polygon class="cls-12" points="341.95 143.48 341.95 143.56 341.98 143.34 341.95 143.48"/><path class="cls-12" d="M405,210.28l0.57-.4A1.11,1.11,0,0,0,405,210.28Z" transform="translate(-58.49 -65)"/><path class="cls-12" d="M406.59,212.59c-0.34.09-.55,0.2-0.21,0.2C406.42,212.71,406.68,212.61,406.59,212.59Z" transform="translate(-58.49 -65)"/><polygon class="cls-12" points="344.31 153.91 344.25 153.68 344.26 153.88 344.31 153.91"/><ellipse class="cls-10" cx="384.65" cy="257.53" rx="6.92" ry="8.07"/><ellipse class="cls-10" cx="343.66" cy="103.28" rx="6.92" ry="8.07"/><path class="cls-11" d="M241.68,301.31c2.18,3.66,6.49,4.57,9.63,2A9,9,0,0,0,253,292.1c-2.18-3.66-6.49-4.57-9.63-2A9,9,0,0,0,241.68,301.31Z" transform="translate(-58.49 -65)"/><path class="cls-12" d="M240.42,302.06a0.67,0.67,0,0,0,.43-0.33l-0.66.32h0.23Z" transform="translate(-58.49 -65)"/><path class="cls-12" d="M241.36,301a5.73,5.73,0,0,0-1.52.63c0.67-.23.42-0.08,1.2-0.39,0.11,0-.14.22-0.39,0.34,0.18-.07-0.08.18,0.33,0,0.44-.37.41-0.47-0.06-0.36A2.41,2.41,0,0,1,241.36,301Z" transform="translate(-58.49 -65)"/><path class="cls-12" d="M241.72,294.66l-0.09,0Z" transform="translate(-58.49 -65)"/><path class="cls-12" d="M243.7,291.76a0.24,0.24,0,0,0,.09.13A0.28,0.28,0,0,0,243.7,291.76Z" transform="translate(-58.49 -65)"/><path class="cls-12" d="M244.64,292l-0.05,0C244.64,292,244.68,292,244.64,292Z" transform="translate(-58.49 -65)"/><path class="cls-12" d="M241.72,294.66l0.25,0C241.74,294.56,241.79,294.63,241.72,294.66Z" transform="translate(-58.49 -65)"/><path class="cls-12" d="M239.34,300.76a0.53,0.53,0,0,0,.21,0l-0.1,0Z" transform="translate(-58.49 -65)"/><path class="cls-12" d="M242.07,296.3v0l0.29,0Z" transform="translate(-58.49 -65)"/><path class="cls-12" d="M242.2,297.45a7.83,7.83,0,0,0-.86,0,1.5,1.5,0,0,1,.43,0Z" transform="translate(-58.49 -65)"/><path class="cls-12" d="M241.56,299.56h0Z" transform="translate(-58.49 -65)"/><path class="cls-12" d="M242.29,295.49l0.22,0Z" transform="translate(-58.49 -65)"/><path class="cls-12" d="M240.51,304.58l0.08-.07A0.13,0.13,0,0,0,240.51,304.58Z" transform="translate(-58.49 -65)"/><polygon class="cls-12" points="183.33 236.23 183.37 236.23 183.67 236.06 183.33 236.23"/><path class="cls-12" d="M245.76,292.12h0C245.77,292.18,245.77,292.16,245.76,292.12Z" transform="translate(-58.49 -65)"/><path class="cls-12" d="M251.33,294.43a10.56,10.56,0,0,0,1.25-.44A5,5,0,0,0,251.33,294.43Z" transform="translate(-58.49 -65)"/><path class="cls-12" d="M239.4,300.68a0.12,0.12,0,0,1,0-.06A0,0,0,0,0,239.4,300.68Z" transform="translate(-58.49 -65)"/><path class="cls-12" d="M252.58,294h0l0,0Z" transform="translate(-58.49 -65)"/><path class="cls-12" d="M247.17,291.29l0-.27C247.14,291.09,247.15,291.16,247.17,291.29Z" transform="translate(-58.49 -65)"/><path class="cls-12" d="M245.6,290.79l0.07,0.06A0.14,0.14,0,0,0,245.6,290.79Z" transform="translate(-58.49 -65)"/><path class="cls-12" d="M247.93,290.45c0,0.05,0,.14,0,0.06v-0.08C248,290.52,247.94,290.56,247.93,290.45Z" transform="translate(-58.49 -65)"/><path class="cls-12" d="M248.76,290.65l0-.12,0,0v0.1Z" transform="translate(-58.49 -65)"/><path class="cls-12" d="M245,307a4.34,4.34,0,0,1,.08-0.55C245,306.91,244.67,307,245,307Z" transform="translate(-58.49 -65)"/><path class="cls-12" d="M239.66,300.63a0.66,0.66,0,0,1-.26.06l0,0Z" transform="translate(-58.49 -65)"/><path class="cls-12" d="M248.67,285.64l0.27,0.13A0.47,0.47,0,0,0,248.67,285.64Z" transform="translate(-58.49 -65)"/><path class="cls-12" d="M255.18,302.64l0,0.09S255.23,302.69,255.18,302.64Z" transform="translate(-58.49 -65)"/><path class="cls-12" d="M249.79,285.87a1.41,1.41,0,0,0,0,.45,1.12,1.12,0,0,0,.08-0.14Z" transform="translate(-58.49 -65)"/><path class="cls-12" d="M245.06,306.47h0Z" transform="translate(-58.49 -65)"/><path class="cls-12" d="M242.84,307.13c0.24,0.14.48-.65,0.74-1,0.36-.07-0.14.6-0.22,1a9.87,9.87,0,0,1,.82-0.65,1,1,0,0,1-.13.33c0.42-.53.58,0.2,1-0.52a1.35,1.35,0,0,1,0,.2,10.25,10.25,0,0,1,.29-1.08c0.1,0,.3-0.45.2,0.07a0.6,0.6,0,0,0-.19.33l0.16-.2c-0.11.76-.21,0.22-0.36,0.76,0.29-.18.65-0.73,0.75-0.49-0.12.75-.42,0.15-0.35,0.86l-0.19-.34c-0.09,1.19-.14-0.12-0.27,1.15,0.33,0.31.5-.26,0.83,0,0.15-.4.07-0.61,0.22-1,0.55-.67.18,1.93,0.67,1,0.14-.49.2-1.43,0.44-0.93l-0.11.84c0.37,0.09.2-1.19,0.56-.65a2.73,2.73,0,0,1-.21.39c0.26,0.65.16-.49,0.32-0.5l0.08,0.74a7.52,7.52,0,0,0,1.06-.94,1.35,1.35,0,0,0,.14.67c0.43-.48,1.1-0.18,1.77,0l-0.07-.67a0.57,0.57,0,0,1,.2.37c0.29,0.14-.16-0.38-0.18-0.64,0.08-.08.29,0.28,0.31,0.48,0.11-.65.26-1.47,0.92-1.08l0.05,0.2c0.38,0.05-.51-1.26,0-0.91l0,0.12a1.44,1.44,0,0,0,.7-0.48,0.89,0.89,0,0,1,1-.12c-0.63-.69.7-0.16-0.26-1a2.63,2.63,0,0,0,1.45.25,5.65,5.65,0,0,0-.57-0.81l0.56,0.37-0.49-.56,0.74,0.34-0.07-.22a0.85,0.85,0,0,1-.48-0.17c-0.15-.34.68-0.21,1-0.06,0,0-.05-0.19-0.13-0.37l-0.14-.37a1.19,1.19,0,0,1,.41.4c-0.49-.57.66,0.27,0.21-0.25a2.38,2.38,0,0,1-.48-0.25,0.37,0.37,0,0,0,.48-0.49l0.42,0.22a3.8,3.8,0,0,0,.22-1.3,1.51,1.51,0,0,1-1.06-.31l0.7,0.15a2.86,2.86,0,0,1-.77-0.25,1.51,1.51,0,0,1,1,.27l-0.19-.26a5.72,5.72,0,0,1,.57.2c-0.41-.18.79-0.18,0.06-0.47l0.21,0a3.94,3.94,0,0,0-.09-1.06,3.15,3.15,0,0,1-.94-0.37,1.39,1.39,0,0,0,.69-0.78A2.06,2.06,0,0,0,256,297c0.56,0,.52-0.3.92-0.14a1.32,1.32,0,0,0-.59-0.92,1.3,1.3,0,0,1-.52.11c-0.1-.07.23-0.19,0.5-0.2l0.06,0c-0.43-.22-0.06-0.53.26-0.88s0.6-.7,0-0.79h0.06l-0.35-.15-0.34-.14c0.05-.22.44,0,0.74-0.22-1-.21-0.09-0.77-0.8-1,0.73-.42.59-0.69,0.38-0.92s-0.5-.42-0.14-0.86l-0.34.2c-0.39.08,0.14-.22,0.17-0.34a1.46,1.46,0,0,1-.47.31,1.72,1.72,0,0,1-.62-1.29,6.14,6.14,0,0,0-.39-1.67c-0.21-.36-1.57,1.29-1.24.3l0.59-.44a1.29,1.29,0,0,1-1.13-.43,1.13,1.13,0,0,0-1.09-.35,0.65,0.65,0,0,1,.29-0.28c0.12-.54-0.51-0.3-0.7.09a1.88,1.88,0,0,1,.18-0.59c0-.36-0.64.43-0.5-0.07a0.31,0.31,0,0,1,.15-0.17c-0.2.19-.44-0.24-0.57,0.36-0.16-.37-0.57.07-0.68-0.33-0.32.62-.38-0.44-0.65,0.48,0.26-1-.32-0.89-0.56-0.44,0.1-.29-0.11-0.33,0-0.73-0.21,0-.42.14-0.44,0.65-0.12-.61-0.35-0.38-0.52-0.19s-0.3.34-.42-0.42c-0.62.55-1.08,1-1.51,1.3-0.18-1,.53-0.2.35-1.22-0.48.5-.54,1.36-1,1.27a0.79,0.79,0,0,1-.06-0.61c-0.35.52-1,.23-1.13,0.9a0.57,0.57,0,0,1,0-.28c-0.06.06-.25-0.05,0,0.35l0-.14a7,7,0,0,1,.48,1.67c-0.49-1.21-.47-0.11-1.08-1.64a1.09,1.09,0,0,0,.2.58,0.69,0.69,0,0,1-.32-0.51c-0.14.36,0.2,0.72,0,.84a4.36,4.36,0,0,1-.23-0.51c0.1,0.43.25,0.86,0,.83a0.39,0.39,0,0,1-.13-0.28c-0.28.28,0.19,1.25-.34,1.19-0.54-.79-0.3-0.15-0.88-0.73V289l0.34,0.23c-0.16.12,0.16,0.65-.13,0.58l-0.15-.33-0.12.36,0.36,0.07c0.19,0.42.77,0.69,0.46,0.7a1.26,1.26,0,0,1-.54-0.14h0c0.14,0.23.31,0.47,0.08,0.44s-0.7-.58-0.85-0.67c0.49,0.49-.1.46,0.43,1a3.67,3.67,0,0,0-.55-0.42l0.42,0.38a1.14,1.14,0,0,1-.55-0.28c-0.22.15,0.9,0.51,0.38,0.5a1.18,1.18,0,0,1-.15-0.16c-0.35.13,0,.65-0.35,0.74-0.77-.32-0.07-0.3-0.72-0.56-0.06.45,0.51,1.17,0.21,1.42l0.11,0c1.06,0.48-.63,0-0.19.41a2.18,2.18,0,0,0-.47-0.22c-0.28.18,0.1,0.6,0.35,1.05l-0.28-.12a0.94,0.94,0,0,0-.42.47,1.32,1.32,0,0,0,.65.23c-0.88.06-.72,0.36-0.48,0.62s0.51,0.49-.22.65a0.29,0.29,0,0,0-.25-0.11L239,296l0.13,0.2a2.77,2.77,0,0,0,.71-0.08,0.73,0.73,0,0,1,.53.25,1.78,1.78,0,0,0-1.1,0c0.16,0,.33,0,0.49,0-0.91.16,1,.06,0.41,0.28h-0.27a0.7,0.7,0,0,1,.41.27,2.94,2.94,0,0,1-.76-0.09c0,0.15,1.13.24,0.55,0.39-0.17-.05-0.17-0.14-0.34-0.19-0.68.17-.51,0.18-0.61,0.3h0l-0.3.28,0.18-.08c1.53,0.06.31,0.36,1.34,0.47a2.43,2.43,0,0,0-1.21.1,1.34,1.34,0,0,1-.56.22c0.55,0-.39.28,0.41,0.33a1,1,0,0,1-.53.21,1,1,0,0,0,.63-0.14c0.77,0.08-.74.78,0.32,0.88a15,15,0,0,0,1.61.12,1.6,1.6,0,0,1-.76.19c-0.25.24-.17,0.33,0.12,0.37a1.69,1.69,0,0,0-.53.25c0.1,0.09.75-.22,0.52,0a7.09,7.09,0,0,1-.84.22c0.24,0.06.66,0,.89,0.07a2,2,0,0,1-.79.21,1.12,1.12,0,0,0,1,0l0.15-.18a1.34,1.34,0,0,1-.56.25c-0.47.07,0.11-.26,0.3-0.36l0.16,0c1.11-.61-0.32-0.25-0.34-0.47l0.88-.27-0.78.11a2.07,2.07,0,0,1,.84-0.29c0.38-.27-0.35,0,0.1-0.26a0.36,0.36,0,0,1,.15,0l-0.29,0a0.92,0.92,0,0,1,.5-0.12c0.44-.35-0.75-0.1-0.11-0.38h0.06c-0.38-.18-0.66.17-1.48,0.15l0.78-.28,0.79-.27-0.66.13a0.36,0.36,0,0,1,.32-0.15,4.2,4.2,0,0,0-.72.12c0.57-.27-0.38-0.35.68-0.57a1.71,1.71,0,0,1-.74.11c1.13-.23-0.22-0.15.28-0.36a1.36,1.36,0,0,0,.81-0.08c-1,.06.19-0.26,0-0.33-0.8.07-.34-0.2-0.62-0.36a2.53,2.53,0,0,0,.72-0.5H242c-0.81,0-.65-0.21-0.81-0.34a3.21,3.21,0,0,1,.89.13v-0.11a0.91,0.91,0,0,1-.48-0.16l0.6,0.07c0-.13-0.68-0.35-0.26-0.5a5.55,5.55,0,0,1-1.92-.3,4,4,0,0,1,.94.16s-0.24-.1-0.11-0.12l0.5,0.15c0.23-.06-0.42-0.1-0.36-0.17,0.43,0.06.31,0,.65,0,0,0-.18,0,0,0.09a1.17,1.17,0,0,1,.68-0.1,1.59,1.59,0,0,1-.62-0.16,1.63,1.63,0,0,1,.76,0,1.32,1.32,0,0,0-.6-0.25,1.41,1.41,0,0,1,.48,0c-0.27-.13,0-0.35-0.7-0.44h0l0,0h0c-0.54-.43.49-0.43,0.32-0.74l0.2,0.07a1.34,1.34,0,0,0-.41-0.65,1.29,1.29,0,0,1,.64.18c-0.1-.17-0.31-0.29.08-0.28,0.29,0.27.32,0.11,0.2,0.22,0.23-.05.55,0.09,0.09-0.32,0.48,0.3.66,0.23,0.55,0.1l-0.4-.11c0-.11,0-0.14.12-0.17l0.62,0.39c0.45,0.12.18-.16,0-0.43s-0.31-.49.35-0.13c-0.37-.36-0.38-0.1-0.83-0.49a5.11,5.11,0,0,1,1.1.45c0.4,0.13-.74-0.79-0.4-0.75a2.61,2.61,0,0,1-.83-0.87,2.36,2.36,0,0,1,1,.82s-0.07,0-.14-0.07a0.72,0.72,0,0,0,.33.36l-0.18-.19a1.06,1.06,0,0,1,.6.32,0.68,0.68,0,0,0-.42-0.37c0.36,0.15.18-.16,0.46-0.08a1.54,1.54,0,0,1-.32-0.32c0.39,0.08-.25-0.44-0.19-0.65,0.33,0.24.57,0.75,0.49,0.4a2.22,2.22,0,0,1,.55.72c-0.2-.47.38,0.13,0.48,0.18l0.08,0.21c0-.12,0-0.14,0-0.15l-0.32-.41a0.47,0.47,0,0,1,.23.22,12.72,12.72,0,0,1-.69-1.15c0.19,0.2,0-.33.39,0.25-0.27-.12.37,0.59,0.32,0.75,0-.08,0-0.09.08,0a0.67,0.67,0,0,1,.08.16c0.42,0.47-.34-0.71-0.19-0.78a1.3,1.3,0,0,0,.35.55,2.54,2.54,0,0,1-.4-0.86c0.23,0.23,0-.25.09-0.24l-0.12-.1a0.47,0.47,0,0,1,0-.49c0.13,0.28,0,.22.09,0.33-0.17-.67.46,0.57,0.4,0.1,0.14,0.23.25,0.69,0.35,0.85,0-.51.27,0.48,0.25,0a2.11,2.11,0,0,1-.18-0.89l-0.06.21-0.05.21,0-.39,0-.39a1.26,1.26,0,0,1-.12.29,1.6,1.6,0,0,0-.19-0.71c0.33,0.72.1-.51,0.37,0l0.3,1.26c0.25,0.55.13-.71,0.4-0.41l-0.09-.22c0-.51.13-0.08,0.18-0.29a6.44,6.44,0,0,0,.12.86,3.05,3.05,0,0,0,.14-0.85l0.1,0.58c0.14,0.24.24-1.23,0.44-1.07a7.24,7.24,0,0,1-.19,1.11c0.05,0,.09.08,0.12-0.21,0,0.28.23-.55,0.23-0.14a1.35,1.35,0,0,1,.2-0.59,1.72,1.72,0,0,1,0,.21,2.4,2.4,0,0,0,.19-0.75c0,0.68.11,0.69,0.26,0.68s0.31-.05.19,0.54a1,1,0,0,1,.51-0.14c-0.06.12-.09,0.2-0.09,0.15,0,0.43.62-1.08,0.63-.58a1.58,1.58,0,0,1-.33.55c-0.63,1.28.3-.07,0,0.72l-0.07.06c-0.18.46,0.46-.34,0.55-0.16a2,2,0,0,0-.12.18,1.59,1.59,0,0,1,1.11-.62,2.77,2.77,0,0,0-.59.63,4.64,4.64,0,0,1,.8-0.73,4.42,4.42,0,0,1-.65,1l-0.12-.06c-0.47.62,0.14,0.09,0.1,0.24l-0.24.24c0.2,0,.83-0.55,1-0.34l0.17-.19c0.73-.47-0.29.4,0.28,0.09l-0.64.59a3.27,3.27,0,0,1,1.08-.26c-0.57.29-1,.37-1.31,0.53,0,0.06.21,0.15,0.58-.07-0.09,0-.28.12-0.2,0,0.61-.34,1-0.4,1.05-0.24-1.42.9-.1,0.61-1.19,1.36,0.68-.06,0,0.57.19,0.79,1.17-.58.07,0.07,1.32-0.43,0.11,0,.1.08,0,0.12l-0.34.25-0.35.24a2.39,2.39,0,0,1-.59.13,2.76,2.76,0,0,1-.84.43c0.45-.16.67-0.16,0.52,0l0.56-.29c0.76,0-1,.47-0.3.49l-0.42,0a1.29,1.29,0,0,0,1.15.27,1.87,1.87,0,0,1-.61.1c-0.13.25,1.23,0.46,0.56,0.73H251.6c0.1,0,.62.06,0.29,0.14a1.41,1.41,0,0,0-.35,0c0.11,0,.59.12,0.39,0.19l-0.37-.05c-0.44.24,0.89,0.41,1.1,0.69a2.7,2.7,0,0,0-1.47.17l-0.14,0c-0.13.25,0.71,0.59,1,1-1.07-.09-0.58.47-1.24,0.51a2.46,2.46,0,0,1,.77.37c-0.2,0,.55.44-0.26,0.08h0c-0.82-.3-0.66-0.11-0.72,0l1,0.52c-0.82-.24-0.74,0-0.68.19s0.16,0.48-.51.11c0.2,0.21.15,0.27,0.35,0.5l-0.5-.37c-0.22,0-.32,0-0.34.28l-0.31-.32c-0.09,0,1.24,1.31,1.17,1.43l-0.69-.62c-0.16.17-.81-0.33-0.43,0.44a1.87,1.87,0,0,1-.24-0.37c-0.1,0-.62-0.33.12,0.71-0.47-.68-0.2,0-0.13.42l-0.3-.54a2.43,2.43,0,0,1,.38,1.18c-0.07-.05-0.25-0.42-0.14-0.3-0.24-.23.18,0.57-0.1,0.33l-0.12-.37c-0.13,0,0,.19.09,0.63,0,0.26-.29,0-0.49-0.56,0.11,0.32.2,0.77,0.07,0.64a1.59,1.59,0,0,1-.1-0.39c-0.3-.35-0.08.77-0.38,0.23a2.73,2.73,0,0,0-.11-0.35,0.28,0.28,0,0,1,.27,0,7.83,7.83,0,0,1-.43-1.38c0.07,0.43.15,1.37,0,1.12l-0.05-.19v-0.06c0-.05,0,0,0,0.1a0.32,0.32,0,0,0-.11-0.15c-0.09-.46-0.14-0.22-0.19-0.25a5.69,5.69,0,0,0,.12,1,0.08,0.08,0,0,1,0-.1,0.15,0.15,0,0,0,0-.07v0.05l0.14-.07c0,0.32,0,.59-0.13.26,0,0.4,0,.8,0,1a13.23,13.23,0,0,1-.41-1.83,2.82,2.82,0,0,0-.57,1.38c-0.07.15,0-.34,0-0.52a0.77,0.77,0,0,0,.11-0.26,1.38,1.38,0,0,0-.47.87c-0.08-.38.2-0.72,0-0.62l0.07-.24c0-.66-0.25-0.2-0.55.22s-0.64.72-.53-0.12a1,1,0,0,1-.06.28,0.56,0.56,0,0,0-.67-0.42c-0.28,0-.57-0.15-0.39-0.77,0-.27-0.3.12-0.63,0.36l0.42-.51-0.63.45c-0.28.12-.07-0.25,0.11-0.56s0.33-.56-0.16-0.32l-0.32.32c0-.13-0.42-0.1,0-0.4-0.07,0-.39.26-0.23,0.08l0.27-.21-0.32.08-0.31.06c0.1-.31,1.15-0.77,1.06-1a4.38,4.38,0,0,0-1.19.45,0.89,0.89,0,0,1-.42.39h-0.21a6.39,6.39,0,0,0-2.27,1.62l0.66-.13-0.37.34-0.14-.16c-0.32.36,0.07,0.2,0.35,0.11a1.55,1.55,0,0,0-.39.4l0.47-.18,0.46-.19a2.28,2.28,0,0,0-.78.65,6.22,6.22,0,0,1,1-.65c-0.3.37-.62,0.58-0.22,0.44a1,1,0,0,1-.47.29,1.12,1.12,0,0,0,.78-0.12c-0.36.47,0.38,0.22-.34,0.86a2,2,0,0,1,.82-0.31c-1,.66.26,0.35-0.64,1.22,0.82-.64.78,0.06,1.36-0.21-0.06.06-.19,0.17-0.18,0.11a1.73,1.73,0,0,1-.11.68,6.25,6.25,0,0,1,1.25-1.08,7.71,7.71,0,0,1-1.06,1.47c0.39-.58.69-0.38,0.94-0.91a3.27,3.27,0,0,1-.33.94c0.57-.91.22-0.08,0.66-0.59-0.06.57-.43,0.91-0.05,0.74A0.92,0.92,0,0,1,242.84,307.13Zm6.1-.88h0l-0.1.06Zm0.44-.12a0.43,0.43,0,0,0-.19,0,0.67,0.67,0,0,1-.06-0.42A0.91,0.91,0,0,0,249.38,306.14Zm-1.54-4c0-.09,0,0,0.07.15a0.25,0.25,0,0,0,0,.09v0.08Z" transform="translate(-58.49 -65)"/><path class="cls-12" d="M247.88,302.91a0.16,0.16,0,0,1,0,0l0,0.14V302.9h0Z" transform="translate(-58.49 -65)"/><path class="cls-12" d="M241.61,294.68h0Z" transform="translate(-58.49 -65)"/><polygon class="cls-12" points="196.67 238.25 196.54 238.16 196.63 238.28 196.67 238.25"/><path class="cls-12" d="M239.25,296.36l-0.16,0Z" transform="translate(-58.49 -65)"/><path class="cls-12" d="M239.13,297.32l-0.21.15A0.86,0.86,0,0,0,239.13,297.32Z" transform="translate(-58.49 -65)"/><path class="cls-12" d="M238.89,298.11l0.26,0h0Z" transform="translate(-58.49 -65)"/><path class="cls-12" d="M243.85,287a0.06,0.06,0,0,0,0,0C243.9,286.86,243.87,286.93,243.85,287Z" transform="translate(-58.49 -65)"/><path class="cls-12" d="M241.7,290.47a1.64,1.64,0,0,1-.15-0.27C241.48,290.21,241.44,290.24,241.7,290.47Z" transform="translate(-58.49 -65)"/><path class="cls-12" d="M248.64,285.62h0Z" transform="translate(-58.49 -65)"/><path class="cls-12" d="M241.68,290.08c-0.13,0-.15,0-0.12.12S241.71,290.18,241.68,290.08Z" transform="translate(-58.49 -65)"/><path class="cls-12" d="M239.56,301.43v0l0.09,0h-0.09Z" transform="translate(-58.49 -65)"/><path class="cls-12" d="M239.65,301.44h0.09S239.71,301.41,239.65,301.44Z" transform="translate(-58.49 -65)"/><path class="cls-12" d="M239.91,301.45h-0.18S239.75,301.51,239.91,301.45Z" transform="translate(-58.49 -65)"/><path class="cls-12" d="M239.43,300.36l-0.21.06Z" transform="translate(-58.49 -65)"/><path class="cls-12" d="M239.27,300.08c0,0.08-.4.33-0.23,0.39l0.17-.05C238.88,300.48,239.65,300,239.27,300.08Z" transform="translate(-58.49 -65)"/><path class="cls-12" d="M241.66,298.29l-0.13.23a1,1,0,0,1,.6-0.12C242.78,298,241.62,298.56,241.66,298.29Z" transform="translate(-58.49 -65)"/><path class="cls-12" d="M241.91,297.66a0.85,0.85,0,0,0,.48-0.05A0.6,0.6,0,0,0,241.91,297.66Z" transform="translate(-58.49 -65)"/><path class="cls-12" d="M242.51,293.57l0.51,0.24A1.39,1.39,0,0,0,242.51,293.57Z" transform="translate(-58.49 -65)"/><polygon class="cls-12" points="181.87 226.41 181.51 226.33 181.94 226.63 181.87 226.41"/><polygon class="cls-12" points="185.53 228.11 185.58 228.17 185.47 227.97 185.53 228.11"/><path class="cls-12" d="M248.46,291.12l0.18-.67A1.23,1.23,0,0,0,248.46,291.12Z" transform="translate(-58.49 -65)"/><path class="cls-12" d="M250.92,291.91c-0.23.25-.36,0.46-0.07,0.27C250.84,292.11,251,291.87,250.92,291.91Z" transform="translate(-58.49 -65)"/><polygon class="cls-12" points="192.37 234.61 192.19 234.46 192.32 234.63 192.37 234.61"/><path class="cls-10" d="M194.7,336.37c2.18,3.66,6.49,4.57,9.63,2a9,9,0,0,0,1.73-11.23c-2.18-3.66-6.49-4.57-9.63-2A9,9,0,0,0,194.7,336.37Z" transform="translate(-58.49 -65)"/><ellipse class="cls-11" cx="223.87" cy="129.42" rx="6.92" ry="8.07"/><path class="cls-12" d="M274,194.42a0.68,0.68,0,0,0,.54-0.06l-0.73-.06Z" transform="translate(-58.49 -65)"/><path class="cls-12" d="M275.34,194a5.73,5.73,0,0,0-1.63-.22c0.69,0.13.4,0.14,1.23,0.27,0.08,0.07-.24.12-0.51,0.1,0.19,0-.16.12,0.29,0.16s0.59-.19.14-0.34A2.42,2.42,0,0,1,275.34,194Z" transform="translate(-58.49 -65)"/><path class="cls-12" d="M278.82,188.79l-0.09,0A0.17,0.17,0,0,0,278.82,188.79Z" transform="translate(-58.49 -65)"/><path class="cls-12" d="M282,187.8a0.24,0.24,0,0,0,0,.16A0.29,0.29,0,0,0,282,187.8Z" transform="translate(-58.49 -65)"/><path class="cls-12" d="M282.49,188.58l0-.05C282.47,188.6,282.48,188.64,282.49,188.58Z" transform="translate(-58.49 -65)"/><path class="cls-12" d="M278.82,188.79L279,188.9C278.89,188.72,278.89,188.8,278.82,188.79Z" transform="translate(-58.49 -65)"/><path class="cls-12" d="M273.69,192.77a0.54,0.54,0,0,0,.18.1l-0.07-.08Z" transform="translate(-58.49 -65)"/><path class="cls-12" d="M278.27,190.31v0l0.23,0.18Z" transform="translate(-58.49 -65)"/><path class="cls-12" d="M277.81,191.34a8.09,8.09,0,0,0-.76-0.4,1.54,1.54,0,0,1,.36.23Z" transform="translate(-58.49 -65)"/><path class="cls-12" d="M276.21,192.85l0.08,0.05Z" transform="translate(-58.49 -65)"/><path class="cls-12" d="M278.86,189.77l0.17,0.14Z" transform="translate(-58.49 -65)"/><path class="cls-12" d="M272.71,196.54l0.11,0A0.14,0.14,0,0,0,272.71,196.54Z" transform="translate(-58.49 -65)"/><polygon class="cls-12" points="217.1 129.42 217.14 129.44 217.49 129.45 217.1 129.42"/><path class="cls-12" d="M283.1,189.46h0C283.06,189.51,283.07,189.5,283.1,189.46Z" transform="translate(-58.49 -65)"/><path class="cls-12" d="M286.62,195.58a10.52,10.52,0,0,0,1.3.24A4.88,4.88,0,0,0,286.62,195.58Z" transform="translate(-58.49 -65)"/><path class="cls-12" d="M273.78,192.74a0.12,0.12,0,0,1,0-.07S273.75,192.72,273.78,192.74Z" transform="translate(-58.49 -65)"/><path class="cls-12" d="M287.92,195.82h0Z" transform="translate(-58.49 -65)"/><path class="cls-12" d="M284.73,189.93l0.16-.22Z" transform="translate(-58.49 -65)"/><path class="cls-12" d="M283.92,188.42v0.09A0.15,0.15,0,0,0,283.92,188.42Z" transform="translate(-58.49 -65)"/><path class="cls-12" d="M285.92,189.89s-0.08.11,0,.08l0.05-.06C285.9,190,285.86,190,285.92,189.89Z" transform="translate(-58.49 -65)"/><path class="cls-12" d="M286.47,190.64l0.1-.08h0Z" transform="translate(-58.49 -65)"/><path class="cls-12" d="M274.76,200.86a4.82,4.82,0,0,1,.42-0.37C274.83,200.76,274.57,200.65,274.76,200.86Z" transform="translate(-58.49 -65)"/><path class="cls-12" d="M274,192.82a0.67,0.67,0,0,1-.26-0.08l0,0.05Z" transform="translate(-58.49 -65)"/><path class="cls-12" d="M289.68,186.78l0.09,0.27A0.42,0.42,0,0,0,289.68,186.78Z" transform="translate(-58.49 -65)"/><path class="cls-12" d="M285.27,204.49l0,0.09S285.28,204.56,285.27,204.49Z" transform="translate(-58.49 -65)"/><path class="cls-12" d="M290.32,187.62a1.5,1.5,0,0,0-.27.36l0.15-.06Z" transform="translate(-58.49 -65)"/><path class="cls-12" d="M275.19,200.49h0Z" transform="translate(-58.49 -65)"/><path class="cls-12" d="M273.08,199.74c0.1,0.24.77-.24,1.21-0.39,0.33,0.14-.48.38-0.8,0.66a7.57,7.57,0,0,1,1,0,1,1,0,0,1-.3.18c0.64-.16.32,0.47,1.11,0.2l-0.15.13a11,11,0,0,1,.91-0.64c0.06,0.07.51-.15,0.1,0.18a0.6,0.6,0,0,0-.35.13l0.24,0c-0.58.51-.29,0-0.76,0.35,0.31,0,1-.16.88,0.09-0.57.48-.42-0.13-0.83,0.43l0.08-.37c-0.85.84,0-.18-0.95,0.7,0,0.42.55,0.09,0.59,0.5,0.37-.2.46-0.41,0.83-0.61,0.84-.15-1.16,1.52-0.17,1.13,0.43-.27,1.12-0.92.93-0.39l-0.65.54c0.19,0.3,1-.75.84-0.11a2.79,2.79,0,0,1-.41.15c-0.27.65,0.44-.25,0.56-0.14l-0.46.59a9.79,9.79,0,0,0,1.38,0,1.4,1.4,0,0,0-.37.58c0.63,0,.88.63,1.22,1.25l0.43-.52a0.57,0.57,0,0,1-.12.4c0.1,0.31.16-.38,0.33-0.58,0.11,0,0,.4-0.13.56,0.55-.4,1.24-0.83,1.45-0.11l-0.11.18c0.25,0.31.53-1.25,0.68-.61l-0.06.11c0.57,0.35,1.18-.22,1.7.71,0-.92.67,0.36,0.52-0.94a2.53,2.53,0,0,0,1,1.14,5.28,5.28,0,0,0,.1-1l0.19,0.65v-0.74l0.36,0.74,0.09-.21a0.82,0.82,0,0,1-.28-0.44c0.11-.35.69,0.23,0.84,0.55l0.15-.38,0.14-.37a1.07,1.07,0,0,1,.07.56c0-.75.37,0.62,0.35-0.08a2.24,2.24,0,0,1-.23-0.49,0.41,0.41,0,0,0,.71-0.13l0.2,0.42a4,4,0,0,0,1-1,1.44,1.44,0,0,1-.7-0.86l0.5,0.52a2.75,2.75,0,0,1-.5-0.64,1.44,1.44,0,0,1,.69.79v-0.33a5.33,5.33,0,0,1,.36.48c-0.24-.39.78,0.27,0.34-0.38l0.16,0.14a4.56,4.56,0,0,0,.54-1,3.12,3.12,0,0,1-.6-0.82,1.42,1.42,0,0,0,1-.33,2,2,0,0,0-.66-0.62c0.48,0.29.61,0,.86,0.35a1.33,1.33,0,0,0,0-1.11,1.27,1.27,0,0,1-.5-0.17c0-.11.29-0.06,0.53,0.07l0,0c-0.25-.41.21-0.5,0.67-0.64s0.87-.32.37-0.71l0,0-0.23-.3-0.23-.29c0.15-.16.37,0.23,0.75,0.18-0.79-.69.31-0.71-0.22-1.22,0.84,0,.85-0.3.78-0.6s-0.23-.6.31-0.79h-0.39c-0.38-.12.23-0.12,0.32-0.2a1.5,1.5,0,0,1-.57,0c-0.43-.87.54-1.84,0.7-2.92,0-.39-2,0.23-1.2-0.39l0.73-.05c-1-.45-0.38-1.42-1.34-1.77a0.67,0.67,0,0,1,.39-0.05c0.43-.35-0.19-0.51-0.59-0.32a2,2,0,0,1,.5-0.35c0.21-.28-0.77,0-0.34-0.33a0.31,0.31,0,0,1,.22,0c-0.27,0-.16-0.43-0.64,0,0.11-.37-0.49-0.27-0.3-0.64-0.63.27,0-.56-0.79,0,0.82-.57.36-0.85-0.1-0.67,0.27-.15.15-0.31,0.51-0.53-0.14-.14-0.4-0.15-0.76.22,0.32-.53,0-0.5-0.23-0.47s-0.44.05,0-.57a16.45,16.45,0,0,1-1.93-.09c0.56-.82.49,0.23,1.09-0.62-0.66,0-1.32.61-1.6,0.19a0.8,0.8,0,0,1,.39-0.47c-0.6.11-.83-0.51-1.42-0.18a0.56,0.56,0,0,1,.18-0.22c-0.09,0-.14-0.21-0.28.22l0.12-.09a7.07,7.07,0,0,1-.86,1.52c0.52-1.19-.26-0.42.41-1.92a1.06,1.06,0,0,0-.27.54,0.68,0.68,0,0,1,.14-0.59c-0.36.15-.37,0.64-0.62,0.58a4.36,4.36,0,0,1,.2-0.53c-0.24.39-.44,0.78-0.62,0.56a0.38,0.38,0,0,1,.1-0.29c-0.41,0-.75,1-1.1.61,0.15-.94-0.12-0.32-0.14-1.14l-0.12.12-0.12.13,0.1,0.39c-0.2,0-.34.6-0.51,0.34l0.12-.35-0.35.18,0.23,0.3c-0.15.43,0.1,1-.14,0.82a1.38,1.38,0,0,1-.32-0.45h0c0,0.27-.08.56-0.24,0.38s-0.14-.9-0.2-1.06c0,0.69-.4.27-0.32,1a3.59,3.59,0,0,0-.15-0.68l0.07,0.56a1.09,1.09,0,0,1-.24-0.56c-0.28,0,.37,1,0,0.63a1.09,1.09,0,0,1,0-.22c-0.37-.14-0.41.52-0.76,0.37-0.41-.72.15-0.28-0.22-0.89-0.37.3-.34,1.26-0.75,1.27l0.11,0c0.57,1-.54-0.34-0.4.23a2.13,2.13,0,0,0-.25-0.45c-0.33,0-.3.55-0.34,1.08l-0.16-.26a1,1,0,0,0-.62.17,1.28,1.28,0,0,0,.42.55c-0.77-.42-0.8-0.07-0.75.27s0.17,0.69-.54.45a0.29,0.29,0,0,0-.16-0.22v0.48a2.76,2.76,0,0,0,.65.29,0.73,0.73,0,0,1,.32.49,1.76,1.76,0,0,0-1-.54c0.14,0.07.27,0.19,0.4,0.27-0.86-.33.85,0.57,0.2,0.45l-0.22-.15a0.71,0.71,0,0,1,.22.44,2.9,2.9,0,0,1-.61-0.47c0,0.15.85,0.78,0.27,0.62-0.12-.13-0.08-0.21-0.19-0.34-0.67-.2-0.53-0.1-0.68-0.05h0l-0.4.1,0.2,0c1.29,0.82.09,0.47,0.92,1.09a2.42,2.42,0,0,0-1.1-.52,1.34,1.34,0,0,1-.59-0.09c0.45,0.31-.48.05,0.19,0.49a1,1,0,0,1-.56-0.08,0.94,0.94,0,0,0,.61.19c0.63,0.45-1,.3-0.16.93a15.32,15.32,0,0,0,1.33.9,1.6,1.6,0,0,1-.75-0.22c-0.34.08-.31,0.2-0.08,0.38a1.71,1.71,0,0,0-.59,0c0,0.12.76,0.19,0.43,0.28a7.21,7.21,0,0,1-.84-0.23c0.18,0.17.56,0.35,0.73,0.5a2,2,0,0,1-.79-0.22,1.13,1.13,0,0,0,.88.53l0.21-.08a1.35,1.35,0,0,1-.61-0.06c-0.45-.17.23-0.17,0.44-0.15l0.12,0.11c1.26,0-.15-0.38-0.06-0.57l0.9,0.21-0.73-.3a2.07,2.07,0,0,1,.87.16c0.46,0-.31-0.16.21-0.18a0.36,0.36,0,0,1,.16,0l-0.24-.16a0.92,0.92,0,0,1,.49.15c0.56-.08-0.6-0.46.09-0.39l0.05,0c-0.24-.35-0.65-0.18-1.36-0.61l0.82,0.14,0.82,0.16-0.64-.21a0.36,0.36,0,0,1,.35,0,4.21,4.21,0,0,0-.68-0.25c0.63,0-.15-0.49.87-0.16a1.72,1.72,0,0,1-.7-0.27c1.09,0.36-.11-0.24.43-0.17a1.37,1.37,0,0,0,.74.33c-0.9-.45.29-0.13,0.15-0.29-0.73-.34-0.2-0.34-0.36-0.62a2.67,2.67,0,0,0,.87-0.06l0.11,0.07c-0.67-.44-0.45-0.51-0.52-0.7a3.34,3.34,0,0,1,.69.57l0.05-.09a0.93,0.93,0,0,1-.33-0.39l0.48,0.37c0-.12-0.4-0.65,0-0.54A5.55,5.55,0,0,1,277,188.5a4,4,0,0,1,.71.64s-0.15-.21,0-0.16l0.34,0.4c0.23,0.07-.3-0.31-0.22-0.34,0.33,0.28.27,0.16,0.52,0.39,0,0-.17-0.07-0.06.06a1.19,1.19,0,0,1,.63.29,1.64,1.64,0,0,1-.44-0.47,1.65,1.65,0,0,1,.63.41,1.43,1.43,0,0,0-.38-0.53,1.44,1.44,0,0,1,.38.29c-0.16-.26.18-0.28-0.34-0.74l0,0v0h0c-0.22-.67.64-0.07,0.66-0.42l0.12,0.18a1.53,1.53,0,0,0,0-.76,1.33,1.33,0,0,1,.4.52c0-.19-0.09-0.42.22-0.18,0.08,0.39.18,0.28,0,.3,0.21,0.1.37,0.4,0.25-.19,0.19,0.52.37,0.6,0.36,0.43l-0.24-.33c0-.1.11-0.08,0.18-0.06l0.24,0.69c0.26,0.36.21,0,.22-0.33s0.06-.57.32,0.12c-0.06-.52-0.21-0.31-0.3-0.91a1.44,1.44,0,0,1,.31.56c0.11,0.26.19,0.51,0.2,0.51,0.19,0.38,0-1.08.16-.84a2.64,2.64,0,0,1,0-1.2,2.45,2.45,0,0,1,.2,1.29S282,188,282,188a0.75,0.75,0,0,0,0,.49v-0.26a1.15,1.15,0,0,1,.21.66,0.75,0.75,0,0,0-.06-0.56c0.15,0.37.22,0,.36,0.26a1.68,1.68,0,0,1,0-.45c0.21,0.34.12-.49,0.3-0.59,0.06,0.4-.11.94,0.07,0.62a2.41,2.41,0,0,1-.11.9c0.18-.49.16,0.37,0.18,0.46l-0.08.2c0-.12.07-0.11,0.1-0.11L283,189a0.52,0.52,0,0,1,0,.31,13,13,0,0,1,.32-1.3c0,0.26.25-.23,0.09,0.44-0.1-.28-0.16.68-0.3,0.75,0-.08.07-0.06,0.07,0a0.71,0.71,0,0,1-.06.17c0,0.63.26-.74,0.41-0.68a1.4,1.4,0,0,0-.15.64,2.65,2.65,0,0,1,.33-0.89c0,0.31.19-.17,0.23-0.11v-0.16a0.46,0.46,0,0,1,.33-0.36c-0.11.28-.15,0.16-0.17,0.3,0.36-.59-0.09.73,0.21,0.36-0.07.26-.32,0.66-0.36,0.84,0.34-.39-0.15.53,0.15,0.22a2,2,0,0,1,.51-0.76l-0.38.21,0.25-.3,0.26-.29a1.21,1.21,0,0,1-.3.11,1.56,1.56,0,0,0,.37-0.63c-0.28.74,0.43-.28,0.28,0.24l-0.69,1.1c-0.2.56,0.6-.39,0.61,0l0.08-.22c0.34-.39.16,0,0.35-0.08a5.68,5.68,0,0,0-.5.71,2.57,2.57,0,0,0,.69-0.51l-0.31.49c0,0.29,1-.72,1.07-0.46a6.18,6.18,0,0,1-.89.69s0,0.14.24-.07c-0.18.2,0.56-.26,0.28,0.06a1.28,1.28,0,0,1,.54-0.3,1.63,1.63,0,0,1-.17.13,2.23,2.23,0,0,0,.64-0.44c-0.46.51-.36,0.6-0.23,0.69s0.26,0.18-.19.56a0.9,0.9,0,0,1,.5.23c-0.12.05-.19,0.1-0.16,0.06-0.28.34,1.16-.47,0.86-0.06a1.51,1.51,0,0,1-.6.24c-1.27.64,0.29,0.14-.43,0.61h-0.09c-0.41.27,0.6,0,.57,0.22l-0.2.07a1.7,1.7,0,0,1,1.27.15,2.71,2.71,0,0,0-.85.19,4.75,4.75,0,0,1,1.07-.16,4.65,4.65,0,0,1-1.1.47l-0.06-.13c-0.74.26,0.06,0.17-.05,0.27l-0.34.07c0.15,0.17,1,0,1,.26l0.25-.07c0.86,0-.46.19,0.19,0.23l-0.85.16a3.39,3.39,0,0,1,1,.36,13.36,13.36,0,0,1-1.39-.25c0,0.08.1,0.26,0.53,0.27-0.08,0-.3,0-0.17-0.09,0.7,0,1,.17,1,0.36-1.68,0-.4.48-1.72,0.57,0.62,0.3-.29.52-0.24,0.8,1.31,0.08,0,.09,1.36.28,0.07,0.1,0,.13,0,0.12l-0.42,0-0.42,0a2.36,2.36,0,0,1-.57-0.18,2.76,2.76,0,0,1-.94,0c0.47,0.09.66,0.2,0.47,0.24l0.63,0c0.64,0.39-1.12-.1-0.5.27l-0.39-.17a1.28,1.28,0,0,0,.87.8,1.92,1.92,0,0,1-.58-0.22c-0.24.14,0.84,1,.13,0.89l-0.28-.17c0.06,0.08.51,0.36,0.19,0.26a1.47,1.47,0,0,0-.31-0.16c0.09,0.07.45,0.4,0.24,0.36l-0.29-.23c-0.5,0,.57.79,0.6,1.13a3,3,0,0,0-1.32-.65l-0.1-.09c-0.24.1,0.33,0.85,0.37,1.33a0.73,0.73,0,0,0-.72-0.28,0.46,0.46,0,0,1-.51-0.06,2.75,2.75,0,0,1,.42.74c-0.15-.14.19,0.66-0.25-0.11h0c-0.48-.73-0.44-0.49-0.52-0.47l0.51,1c-0.49-.7-0.54-0.52-0.61-0.29s-0.16.44-.41-0.27c0,0.29,0,.32,0,0.61l-0.14-.61c-0.17-.14-0.23-0.2-0.37,0l0-.44c-0.07,0,.06,1.79-0.07,1.83l-0.08-.93c-0.21,0-.31-0.81-0.55,0a2.19,2.19,0,0,1,.08-0.44c-0.09,0-.17-0.67-0.38.6,0.15-.82-0.16-0.09-0.37.21l0.17-.59a2.4,2.4,0,0,1-.56,1.1c0-.09.12-0.47,0.12-0.31,0-.34-0.27.53-0.3,0.17l0.18-.35c-0.09-.09-0.15.11-0.39,0.51-0.17.19-.17-0.24,0.05-0.75-0.15.3-.42,0.69-0.41,0.5a1.55,1.55,0,0,1,.21-0.34c0-.46-0.61.47-0.43-0.12a2.55,2.55,0,0,0,.17-0.32,0.28,0.28,0,0,1,.18.21,7.55,7.55,0,0,1,.68-1.28c-0.25.34-.88,1.07-0.83,0.77l0.1-.17,0,0c0-.06,0,0-0.11,0a0.32,0.32,0,0,0,0-.19c0.26-.39.05-0.27,0-0.32a5.28,5.28,0,0,0-.63.81,0.09,0.09,0,0,1,.11,0l0.06,0,0,0,0.15,0.05c-0.22.23-.43,0.41-0.28,0.09-0.27.3-.55,0.6-0.69,0.73a15.42,15.42,0,0,1,1-1.62,2.49,2.49,0,0,0-1.38.59c-0.15.05,0.2-.28,0.32-0.41A0.81,0.81,0,0,0,279,199a1.35,1.35,0,0,0-1,.32c0.19-.35.63-0.4,0.4-0.48l0.21-.13c0.4-.55-0.1-0.33-0.58-0.23s-1,.15-0.36-0.46a0.94,0.94,0,0,1-.22.19c0.2-.42-0.08-0.56-0.29-0.79s-0.38-.48.11-0.89c0.18-.2-0.32-0.07-0.72-0.07l0.64-.19-0.78,0c-0.6-.14,1.51-0.69.43-0.78l-0.44.1c0.07-.12-0.31-0.31.21-0.35-0.08,0-.47,0-0.24-0.05l0.35,0-0.31-.1-0.3-.11c0.24-.22,1.38-0.06,1.43-0.32a4.09,4.09,0,0,0-1.26-.23,0.87,0.87,0,0,1-.56.13l-0.19-.11a6.59,6.59,0,0,0-2.78.22l0.64,0.22L273,195l0-.2c-0.46.13,0,.2,0.24,0.26a1.61,1.61,0,0,0-.54.13l1,0.17a2.4,2.4,0,0,0-1,.14,6.36,6.36,0,0,1,1.2,0c-0.45.15-.83,0.16-0.42,0.25a1.09,1.09,0,0,1-.55,0,1.15,1.15,0,0,0,.72.3c-0.55.2,0.2,0.37-.76,0.52a2,2,0,0,1,.85.17c-1.18,0,0,.42-1.2.65,1-.09.59,0.45,1.23,0.54-0.08,0-.25,0-0.21,0a1.68,1.68,0,0,1-.48.47,6.13,6.13,0,0,1,1.62-.17,8.27,8.27,0,0,1-1.72.58c0.65-.25.78,0.07,1.29-0.21a3.29,3.29,0,0,1-.82.55c1-.39.22,0.06,0.87-0.1-0.4.41-.9,0.47-0.5,0.54A1,1,0,0,1,273.08,199.74Zm5,3.1h0l-0.11,0Zm0.39,0.22a0.42,0.42,0,0,0-.16-0.12,0.67,0.67,0,0,1,.26-0.34A0.93,0.93,0,0,0,278.46,203.06Zm1.76-4c0.08-.05,0,0.05-0.05.16l-0.1,0,0,0.06Z" transform="translate(-58.49 -65)"/><path class="cls-12" d="M279.68,199.71l0,0-0.06.12,0.13-.15h0Z" transform="translate(-58.49 -65)"/><path class="cls-12" d="M278.72,188.74h0l-0.07-.06Z" transform="translate(-58.49 -65)"/><polygon class="cls-12" points="226.33 139.95 226.29 139.8 226.28 139.94 226.33 139.95"/><path class="cls-12" d="M275.83,188.91l-0.15-.06Z" transform="translate(-58.49 -65)"/><path class="cls-12" d="M275.22,189.68l-0.26,0A0.86,0.86,0,0,0,275.22,189.68Z" transform="translate(-58.49 -65)"/><path class="cls-12" d="M274.62,190.25l0.24,0.12h0Z" transform="translate(-58.49 -65)"/><path class="cls-12" d="M285.37,184.55h0C285.54,184.45,285.47,184.48,285.37,184.55Z" transform="translate(-58.49 -65)"/><path class="cls-12" d="M281.35,185.5a1.66,1.66,0,0,1,.08-0.31C281.36,185.16,281.31,185.15,281.35,185.5Z" transform="translate(-58.49 -65)"/><path class="cls-12" d="M289.67,186.75h0l0,0v0Z" transform="translate(-58.49 -65)"/><path class="cls-12" d="M281.6,185.19c-0.08-.12-0.13-0.09-0.17,0S281.56,185.28,281.6,185.19Z" transform="translate(-58.49 -65)"/><path class="cls-12" d="M273.55,193.46l0,0h0.1Z" transform="translate(-58.49 -65)"/><path class="cls-12" d="M273.62,193.51l0.07,0S273.69,193.52,273.62,193.51Z" transform="translate(-58.49 -65)"/><path class="cls-12" d="M273.84,193.65l-0.15-.1S273.67,193.62,273.84,193.65Z" transform="translate(-58.49 -65)"/><path class="cls-12" d="M274,192.48l-0.22-.05Z" transform="translate(-58.49 -65)"/><path class="cls-12" d="M274,192.16c-0.07.06-.51,0.09-0.39,0.22l0.17,0C273.43,192.31,274.32,192.3,274,192.16Z" transform="translate(-58.49 -65)"/><path class="cls-12" d="M276.93,191.79l-0.23.13a1,1,0,0,1,.59.19C278,192.12,276.76,192,276.93,191.79Z" transform="translate(-58.49 -65)"/><path class="cls-12" d="M277.46,191.37a0.86,0.86,0,0,0,.44.19A0.61,0.61,0,0,0,277.46,191.37Z" transform="translate(-58.49 -65)"/><path class="cls-12" d="M280,188.39l0.27,0.49A1.53,1.53,0,0,0,280,188.39Z" transform="translate(-58.49 -65)"/><polygon class="cls-12" points="221.17 120.36 220.94 120.08 221.09 120.58 221.17 120.36"/><polygon class="cls-12" points="222.92 124 222.92 124.09 222.95 123.86 222.92 124"/><path class="cls-12" d="M285.92,190.8l0.57-.4A1.11,1.11,0,0,0,285.92,190.8Z" transform="translate(-58.49 -65)"/><path class="cls-12" d="M287.56,193.11c-0.34.09-.55,0.2-0.21,0.2C287.39,193.24,287.65,193.13,287.56,193.11Z" transform="translate(-58.49 -65)"/><polygon class="cls-12" points="225.28 134.43 225.22 134.21 225.23 134.41 225.28 134.43"/><ellipse class="cls-10" cx="268.62" cy="173.29" rx="6.92" ry="8.07"/><ellipse class="cls-10" cx="223.87" cy="183.11" rx="6.92" ry="8.07"/><line class="cls-13" x1="149.89" y1="223.64" x2="149.89" y2="223.64"/><path class="cls-10" d="M239.6,251c2.18,3.66,6.49,4.57,9.63,2A9,9,0,0,0,251,241.75c-2.18-3.66-6.49-4.57-9.63-2A9,9,0,0,0,239.6,251Z" transform="translate(-58.49 -65)"/><path class="cls-10" d="M442.54,80.17c-3.81.29-6.71,4.13-6.46,8.57s3.54,7.82,7.35,7.53,6.71-4.13,6.46-8.57S446.36,79.88,442.54,80.17Z" transform="translate(-58.49 -65)"/><path class="cls-14" d="M113.68,65c0,29.17-4.4,29.17-4.4,58.35s4.4,29.17,4.4,58.34-4.4,29.17-4.4,58.35,4.4,29.17,4.4,58.35-4.4,29.18-4.4,58.35,4.4,29.18,4.4,58.35" transform="translate(-58.49 -65)"/><path class="cls-14" d="M81,372.59c38.3,0,38.3,4.4,76.59,4.4s38.3-4.4,76.59-4.4,38.3,4.4,76.59,4.4,38.3-4.4,76.6-4.4,38.3,4.4,76.6,4.4,38.3-4.4,76.6-4.4" transform="translate(-58.49 -65)"/><line class="cls-15" x1="140.84" y1="309.42" x2="140.84" y2="318.05"/><line class="cls-15" x1="188.88" y1="305.42" x2="188.88" y2="318.05"/><line class="cls-15" x1="230.79" y1="309.79" x2="230.79" y2="318.05"/><line class="cls-15" x1="268.62" y1="309.79" x2="268.62" y2="318.05"/><line class="cls-15" x1="302.06" y1="309.79" x2="302.06" y2="318.05"/><line class="cls-15" x1="342.9" y1="305.42" x2="342.9" y2="318.05"/><line class="cls-15" x1="384.5" y1="309.79" x2="384.5" y2="322.65"/><text class="cls-16" transform="translate(449.75 127.34) scale(0.51 1)">Wee<tspan class="cls-17" x="59.17" y="0">k</tspan><tspan x="74.05" y="0">end O</tspan><tspan x="156.54" y="0">u</tspan><tspan x="171.3" y="0">t</tspan><tspan x="183.51" y="0">l</tspan><tspan x="190.46" y="0">i</tspan><tspan x="196.5" y="0">er</tspan></text><path class="cls-11" d="M146.34,330.44c55.75-40.29,58.32-36.73,114.07-77s53.17-43.85,108.92-84.15,58.32-36.73,114.07-77" transform="translate(-58.49 -65)"/><path class="cls-18" d="M146.34,330.44c55.75-40.29,58.32-36.73,114.07-77s53.17-43.85,108.92-84.15,58.32-36.73,114.07-77" transform="translate(-58.49 -65)"/></svg>