<svg id="Layer_3" data-name="Layer 3" xmlns="http://www.w3.org/2000/svg" viewBox="0 0 505.81 449.52"><defs><style>.cls-1,.cls-14,.cls-15,.cls-17,.cls-2,.cls-3,.cls-4,.cls-5{fill:none;}.cls-1,.cls-13{stroke:#28abe3;}.cls-1,.cls-10,.cls-13,.cls-14,.cls-15,.cls-17,.cls-2,.cls-3,.cls-4,.cls-5{stroke-miterlimit:10;}.cls-1,.cls-10,.cls-13,.cls-17,.cls-2,.cls-3,.cls-4{stroke-width:2.49px;}.cls-1{stroke-dasharray:29.89 4.98;opacity:0.3;}.cls-2,.cls-3,.cls-4,.cls-5{stroke:#c4c4c4;}.cls-3{stroke-dasharray:30.72 5.12;}.cls-4{stroke-dasharray:30.72 5.12;}.cls-5{stroke-width:1.87px;}.cls-6{fill:#c4c4c4;}.cls-7{font-size:22.1px;}.cls-16,.cls-18,.cls-20,.cls-22,.cls-7,.cls-9{fill:#616161;font-family:Noteworthy;font-weight:700;}.cls-8{letter-spacing:-1.1px;}.cls-9{font-size:24.19px;}.cls-10,.cls-11,.cls-13{fill:#fff;}.cls-10{stroke:#1fda9a;}.cls-12{fill:#3bdfa7;}.cls-14{stroke:#565656;stroke-width:4.4px;}.cls-15{stroke:#606060;stroke-width:3.43px;}.cls-16{font-size:21.95px;}.cls-17{stroke:#5b5b5b;}.cls-18{font-size:30px;}.cls-19{letter-spacing:-1.14px;}.cls-20{font-size:38.69px;}.cls-21{letter-spacing:-6.84px;}.cls-22{font-size:32px;}</style></defs><title>fit-model</title><line class="cls-1" x1="56.33" y1="276.71" x2="406.01" y2="276.71"/><line class="cls-1" x1="218.49" y1="388.95" x2="218.49" y2="169.53"/><path class="cls-2" d="M105.7,360.4c5.25,0,10.22,0,14.95,0" transform="translate(-71.19 -34.19)"/><path class="cls-3" d="M125.77,360.47c78.79,0.55,85.45,4.33,176.6,4.33,92.12,0,97.94-3.86,179.16-4.35" transform="translate(-71.19 -34.19)"/><path class="cls-2" d="M484.08,360.43c4.72,0,9.69,0,14.95,0" transform="translate(-71.19 -34.19)"/><path class="cls-2" d="M105.7,405.75c5.25,0,10.22,0,14.95,0" transform="translate(-71.19 -34.19)"/><path class="cls-3" d="M125.77,405.81c78.79,0.55,85.45,4.33,176.6,4.33,92.12,0,97.94-3.86,179.16-4.35" transform="translate(-71.19 -34.19)"/><path class="cls-2" d="M484.08,405.78c4.72,0,9.69,0,14.95,0" transform="translate(-71.19 -34.19)"/><path class="cls-2" d="M105.73,256.78c5.25,0,10.22,0,14.95,0" transform="translate(-71.19 -34.19)"/><path class="cls-4" d="M125.79,256.85c78.78,0.55,85.44,4.33,176.57,4.33,92.11,0,97.93-3.86,179.13-4.35" transform="translate(-71.19 -34.19)"/><path class="cls-2" d="M484.05,256.82c4.72,0,9.69,0,14.95,0" transform="translate(-71.19 -34.19)"/><path class="cls-2" d="M105.73,208c5.25,0,10.22,0,14.95,0" transform="translate(-71.19 -34.19)"/><path class="cls-4" d="M125.79,208c78.78,0.55,85.44,4.33,176.57,4.33,92.11,0,97.93-3.86,179.13-4.35" transform="translate(-71.19 -34.19)"/><path class="cls-2" d="M484.05,208c4.72,0,9.69,0,14.95,0" transform="translate(-71.19 -34.19)"/><path class="cls-5" d="M400.06,385.28C382,349,395,309,429.79,295.21" transform="translate(-71.19 -34.19)"/><path class="cls-6" d="M402.35,369.86a0.93,0.93,0,0,0-1,.83l-1.44,14.2-12.26-7.31a0.93,0.93,0,0,0-1,1.6l13.52,8.06a0.93,0.93,0,0,0,1.41-.71l1.58-15.65A0.93,0.93,0,0,0,402.35,369.86Z" transform="translate(-71.19 -34.19)"/><text class="cls-7" transform="translate(169.39 439.91) scale(0.91 1)">C<tspan x="15.52" y="0">u</tspan><tspan x="26.32" y="0">p</tspan><tspan x="37.12" y="0">s </tspan><tspan x="52.61" y="0">o</tspan><tspan x="63.41" y="0">f C</tspan><tspan x="92.38" y="0">o</tspan><tspan class="cls-8" x="103.18" y="0">f</tspan><tspan class="cls-8" x="110.25" y="0">f</tspan><tspan x="117.96" y="0">ee</tspan></text><text class="cls-9" transform="matrix(-0.01, -0.85, 1, -0.02, 23.81, 324.35)">Work Do<tspan x="89.83" y="0">n</tspan><tspan x="102.86" y="0">e</tspan></text><path class="cls-10" d="M180.79,359.63a6.34,6.34,0,1,0,12.69,0c0-3.57.66-6.46-2.84-6.46S180.79,356.07,180.79,359.63Z" transform="translate(-71.19 -34.19)"/><ellipse class="cls-10" cx="262.89" cy="202.54" rx="6.34" ry="6.46"/><ellipse class="cls-10" cx="262.82" cy="261.4" rx="6.34" ry="6.46"/><ellipse class="cls-10" cx="231.17" cy="244.94" rx="6.34" ry="6.46"/><ellipse class="cls-11" cx="300.24" cy="276.6" rx="6.34" ry="6.46"/><path class="cls-12" d="M363.63,310.79a0.75,0.75,0,0,0,.54-0.06l-0.73-.06Z" transform="translate(-71.19 -34.19)"/><path class="cls-12" d="M365,310.39a6.69,6.69,0,0,0-1.63-.23c0.69,0.13.4,0.14,1.23,0.26,0.08,0.07-.24.1-0.51,0.08,0.19,0-.16.1,0.29,0.15s0.59-.16.14-0.29A2.8,2.8,0,0,1,365,310.39Z" transform="translate(-71.19 -34.19)"/><path class="cls-12" d="M368.34,306.37l-0.08-.05Z" transform="translate(-71.19 -34.19)"/><path class="cls-12" d="M371.1,305.77a0.28,0.28,0,0,0,0,.16A0.33,0.33,0,0,0,371.1,305.77Z" transform="translate(-71.19 -34.19)"/><path class="cls-12" d="M371.55,306.56l0-.05C371.53,306.58,371.54,306.61,371.55,306.56Z" transform="translate(-71.19 -34.19)"/><path class="cls-12" d="M368.34,306.37l0.2,0.14C368.4,306.31,368.4,306.39,368.34,306.37Z" transform="translate(-71.19 -34.19)"/><path class="cls-12" d="M363.36,309.29a0.57,0.57,0,0,0,.18.1l-0.07-.07Z" transform="translate(-71.19 -34.19)"/><path class="cls-12" d="M367.84,307.64v0l0.22,0.2Z" transform="translate(-71.19 -34.19)"/><path class="cls-12" d="M367.43,308.43s-0.5-.31-0.73-0.46a1.86,1.86,0,0,1,.34.25Z" transform="translate(-71.19 -34.19)"/><path class="cls-12" d="M365.87,309.49l0.08,0Z" transform="translate(-71.19 -34.19)"/><path class="cls-12" d="M368.37,307.28l0.15,0.16Z" transform="translate(-71.19 -34.19)"/><path class="cls-12" d="M362.4,312.77l0.11,0A0.15,0.15,0,0,0,362.4,312.77Z" transform="translate(-71.19 -34.19)"/><polygon class="cls-12" points="294.06 276.6 294.09 276.62 294.44 276.62 294.06 276.6"/><path class="cls-12" d="M372.09,307.41h0C372.06,307.47,372.08,307.45,372.09,307.41Z" transform="translate(-71.19 -34.19)"/><path class="cls-12" d="M375.13,311.62c0.56,0,.66.28,1.29,0.28A6.38,6.38,0,0,0,375.13,311.62Z" transform="translate(-71.19 -34.19)"/><path class="cls-12" d="M363.44,309.26a0.1,0.1,0,0,1,0-.06S363.42,309.24,363.44,309.26Z" transform="translate(-71.19 -34.19)"/><path class="cls-12" d="M376.42,311.9h0Z" transform="translate(-71.19 -34.19)"/><path class="cls-12" d="M373.51,307.63l0.14-.23Z" transform="translate(-71.19 -34.19)"/><path class="cls-12" d="M372.8,306.3v0.09A0.16,0.16,0,0,0,372.8,306.3Z" transform="translate(-71.19 -34.19)"/><path class="cls-12" d="M374.55,307.37s-0.07.11,0,.07l0-.06C374.54,307.43,374.5,307.46,374.55,307.37Z" transform="translate(-71.19 -34.19)"/><path class="cls-12" d="M375.05,307.92l0.09-.09h0Z" transform="translate(-71.19 -34.19)"/><path class="cls-12" d="M364.57,316.6a5.12,5.12,0,0,1,.39-0.4C364.63,316.49,364.37,316.43,364.57,316.6Z" transform="translate(-71.19 -34.19)"/><path class="cls-12" d="M363.7,309.35a0.72,0.72,0,0,1-.26-0.09l0,0Z" transform="translate(-71.19 -34.19)"/><path class="cls-12" d="M378,303.9l0.11,0.23A0.34,0.34,0,0,0,378,303.9Z" transform="translate(-71.19 -34.19)"/><path class="cls-12" d="M373.91,319.4l0,0.08S373.92,319.47,373.91,319.4Z" transform="translate(-71.19 -34.19)"/><path class="cls-12" d="M378.63,304.6a1.56,1.56,0,0,0-.24.37l0.14-.08Z" transform="translate(-71.19 -34.19)"/><path class="cls-12" d="M365,316.19h0Z" transform="translate(-71.19 -34.19)"/><path class="cls-12" d="M362.89,315.75c0.11,0.21.74-.31,1.17-0.5,0.33,0.09-.45.41-0.76,0.71,0.27,0,1-.27,1-0.16a1.12,1.12,0,0,1-.29.2c0.63-.24.33,0.4,1.08,0l-0.14.15c0.3-.28.62-0.54,0.85-0.72,0.06,0.05.49-.22,0.1,0.15a0.69,0.69,0,0,0-.33.18l0.23-.08a2,2,0,0,1-.72.44c0.32,0,.92-0.29.84-0.05-0.52.53-.4-0.07-0.77,0.52l0.07-.35c-0.78.9,0-.16-0.88,0.79,0.06,0.39.52,0,.58,0.39,0.34-.25.42-0.45,0.76-0.7,0.8-.28-1,1.61-0.12,1.09,0.39-.32,1-1,0.86-0.52l-0.59.61c0.19,0.25.87-.86,0.77-0.23a2.79,2.79,0,0,1-.37.2c-0.23.66,0.4-.3,0.51-0.22l-0.4.63a10.29,10.29,0,0,0,1.26-.16,1.59,1.59,0,0,0-.32.61c0.56-.12.8,0.49,1.1,1.06l0.36-.55a0.66,0.66,0,0,1-.1.41c0.09,0.28.13-.39,0.28-0.61a0.59,0.59,0,0,1-.1.56c0.47-.44,1.06-0.93,1.24-0.22l-0.09.18c0.21,0.3.44-1.27,0.57-.64l-0.05.11c0.48,0.32,1-.25,1.43.69,0-.93.56,0.38,0.45-0.92a2.71,2.71,0,0,0,.82,1.19,5.59,5.59,0,0,0,.1-1l0.16,0.66v-0.74l0.3,0.76,0.08-.2a0.92,0.92,0,0,1-.23-0.45c0.1-.34.6,0.32,0.72,0.64l0.14-.36,0.12-.35a1.21,1.21,0,0,1,0,.56c0-.74.31,0.65,0.31,0a2.57,2.57,0,0,1-.19-0.51c0.27,0.34.53,0.21,0.63,0l0.17,0.44a3.34,3.34,0,0,0,1-.8,1.61,1.61,0,0,1-.61-0.92l0.44,0.57a3.13,3.13,0,0,1-.43-0.69,1.63,1.63,0,0,1,.61.85v-0.31a6,6,0,0,1,.31.51c-0.2-.4.71,0.37,0.33-0.32l0.14,0.16a3.36,3.36,0,0,0,.55-0.85,3.44,3.44,0,0,1-.53-0.85,1.37,1.37,0,0,0,1-.16,2.18,2.18,0,0,0-.61-0.67c0.45,0.34.58,0.08,0.81,0.44a1.19,1.19,0,0,0,0-1,1.39,1.39,0,0,1-.48-0.22c0-.11.29,0,0.51,0.13l0,0c-0.24-.42.24-0.43,0.69-0.52s0.88-.22.4-0.62l0,0-0.22-.3-0.22-.29a3.55,3.55,0,0,1,.74.22c-0.74-.69.32-0.65-0.19-1.15,0.85,0,.86-0.24.8-0.53s-0.21-.57.32-0.74h-0.39c-0.38-.12.23-0.11,0.32-0.18a1.58,1.58,0,0,1-.57,0,1.41,1.41,0,0,1,.13-1.29,5.55,5.55,0,0,0,.54-1.48c0-.37-2,0.33-1.2-0.3l0.73-.1a1,1,0,0,1-.71-0.81,0.9,0.9,0,0,0-.68-0.73,0.69,0.69,0,0,1,.38-0.09c0.41-.37-0.23-0.45-0.59-0.23a2.16,2.16,0,0,1,.48-0.38c0.19-.29-0.74.07-0.34-0.27a0.33,0.33,0,0,1,.21-0.06c-0.26.06-.19-0.38-0.64,0,0.09-.36-0.47-0.19-0.31-0.56-0.6.35,0-.52-0.76,0.1,0.75-.65.32-0.86-0.12-0.62,0.25-.18.12-0.31,0.46-0.57-0.14-.11-0.38-0.08-0.7.32,0.55-1.12-1.06.35-.26-0.95a14.58,14.58,0,0,1-1.77.2c0.49-.87.45,0.15,1-0.76-0.59.1-1.19,0.79-1.43,0.4a0.9,0.9,0,0,1,.33-0.5c-0.54.2-.74-0.4-1.25,0a0.66,0.66,0,0,1,.15-0.24c-0.08,0-.12-0.19-0.24.25l0.1-.1a8.07,8.07,0,0,1-.72,1.58c0.43-1.22-.22-0.39.33-1.94a1.21,1.21,0,0,0-.23.56,0.79,0.79,0,0,1,.11-0.6c-0.31.17-.31,0.67-0.53,0.62a5.09,5.09,0,0,1,.17-0.54c-0.2.4-.37,0.8-0.52,0.59a0.43,0.43,0,0,1,.09-0.29c-0.35,0-.64,1.08-0.93.65,0.13-.94-0.11-0.32-0.12-1.14l-0.2.25,0.08,0.4c-0.17,0-.28.6-0.43,0.34l0.1-.34-0.29.17,0.19,0.3c-0.12.43,0.08,1-.12,0.82a1.43,1.43,0,0,1-.27-0.47h0c0,0.27-.07.55-0.2,0.37s-0.12-.9-0.16-1.07c0,0.69-.34.24-0.28,1a4.23,4.23,0,0,0-.12-0.68l0.06,0.56a1.25,1.25,0,0,1-.2-0.58c-0.24,0,.31,1,0,0.62a1.26,1.26,0,0,1,0-.22c-0.31-.16-0.37.46-0.66,0.29-0.35-.75.13-0.26-0.18-0.89-0.32.27-.32,1.18-0.68,1.15L368.2,304c0.49,1.06-.48-0.41-0.37.16a2.47,2.47,0,0,0-.22-0.47c-0.29,0-.28.5-0.33,1l-0.14-.27a0.89,0.89,0,0,0-.57.07,1.42,1.42,0,0,0,.37.58c-0.71-.53-0.74-0.18-0.7.14s0.14,0.66-.52.33a0.32,0.32,0,0,0-.15-0.23l0,0.44a3.28,3.28,0,0,0,.61.37,0.75,0.75,0,0,1,.28.49,2,2,0,0,0-.89-0.64c0.13,0.09.25,0.21,0.38,0.31-0.81-.42.79,0.65,0.19,0.45l-0.21-.17a0.68,0.68,0,0,1,.2.43,3.16,3.16,0,0,1-.57-0.51c-0.05.13,0.78,0.82,0.24,0.59-0.11-.13-0.08-0.2-0.18-0.33-0.65-.28-0.51-0.16-0.65-0.14h0l-0.39,0,0.19,0c1.24,0.91.06,0.43,0.86,1.09a2.77,2.77,0,0,0-1.06-.59A1.46,1.46,0,0,1,364,307c0.44,0.33-.47,0,0.18.47a1.1,1.1,0,0,1-.55-0.13,1,1,0,0,0,.6.23c0.6,0.46-1,.19-0.18.82a12.13,12.13,0,0,0,1.32.89,1.83,1.83,0,0,1-.75-0.24c-0.33,0-.31.16-0.09,0.33a1.9,1.9,0,0,0-.58-0.07c0,0.11.76,0.2,0.43,0.27a7.57,7.57,0,0,1-.83-0.24c0.17,0.16.55,0.34,0.73,0.48a2.15,2.15,0,0,1-.79-0.22,1.14,1.14,0,0,0,.87.51l0.21-.06A1.53,1.53,0,0,1,364,310c-0.44-.17.23-0.15,0.44-0.12l0.12,0.1c1.26,0.07-.15-0.33-0.05-0.51l0.89,0.22-0.72-.29a2.43,2.43,0,0,1,.87.19c0.46,0-.3-0.16.21-0.13a0.44,0.44,0,0,1,.15,0l-0.24-.16a1.12,1.12,0,0,1,.49.16c0.55,0-.6-0.44.09-0.31l0.05,0a7.48,7.48,0,0,0-1.33-.63l0.81,0.2,0.8,0.22-0.63-.24a0.4,0.4,0,0,1,.34.06,5.2,5.2,0,0,0-.67-0.29c0.6,0.11-.14-0.44.86,0a2,2,0,0,1-.68-0.32c1.06,0.44-.11-0.22.41-0.1a1.65,1.65,0,0,0,.71.38c-0.87-.51.27-0.08,0.15-0.22-0.69-.39-0.2-0.32-0.35-0.59a3,3,0,0,0,.82.09l0.11,0.08c-0.63-.5-0.43-0.53-0.49-0.71a4.21,4.21,0,0,1,.65.62l0-.07a1,1,0,0,1-.3-0.39l0.44,0.41c0-.09-0.38-0.65,0-0.48a6.45,6.45,0,0,1-1.34-1.41,4.7,4.7,0,0,1,.64.7s-0.14-.22,0-0.15l0.31,0.41c0.21,0.11-.27-0.33-0.19-0.34,0.3,0.31.25,0.19,0.48,0.45,0,0-.16-0.1-0.06,0a1.39,1.39,0,0,1,.57.38,2,2,0,0,1-.4-0.5,1.89,1.89,0,0,1,.57.49,1.76,1.76,0,0,0-.34-0.55,1.76,1.76,0,0,1,.35.34,1,1,0,0,0-.3-0.74l0,0v0h0c-0.2-.67.58,0.06,0.59-0.29l0.11,0.19a1.47,1.47,0,0,0,0-.71,1.53,1.53,0,0,1,.35.56c0-.18-0.07-0.43.19-0.14,0.06,0.38.16,0.3,0,.29,0.18,0.13.32,0.45,0.22-.15,0.16,0.53.31,0.63,0.3,0.46l-0.2-.35c0-.1.09-0.07,0.16,0l0.2,0.71c0.22,0.39.18,0,.19-0.3s0.06-.57.27,0.15c0-.51-0.18-0.34-0.25-0.93a1.75,1.75,0,0,1,.26.58c0.09,0.26.16,0.52,0.17,0.52,0.16,0.39,0-1.08.15-.82a3.07,3.07,0,0,1,0-1.2,2.83,2.83,0,0,1,.16,1.3s0-.06,0-0.15a0.86,0.86,0,0,0,0,.49v-0.26a1.28,1.28,0,0,1,.18.66,0.85,0.85,0,0,0,0-.56c0.13,0.37.19,0,.31,0.26a1.92,1.92,0,0,1,0-.45c0.18,0.33.1-.49,0.26-0.6,0.05,0.4-.09.95,0.06,0.62a2.74,2.74,0,0,1-.09.9c0.15-.5.14,0.36,0.17,0.45l-0.07.2c0-.12.06-0.11,0.08-0.11L372,307a0.59,0.59,0,0,1,0,.31c0.09-.33.11-0.86,0.27-1.31,0,0.27.21-.26,0.08,0.43-0.09-.26-0.13.68-0.26,0.77,0-.08.06-0.07,0.07,0a0.82,0.82,0,0,1,0,.18c0,0.63.21-.75,0.34-0.7a1.62,1.62,0,0,0-.12.65,3.06,3.06,0,0,1,.28-0.91c0,0.31.16-.19,0.2-0.14v-0.15a0.5,0.5,0,0,1,.28-0.39c-0.09.29-.13,0.17-0.15,0.31,0.31-.62-0.07.73,0.18,0.33-0.05.26-.27,0.68-0.3,0.86,0.29-.44-0.12.53,0.13,0.19a2.4,2.4,0,0,1,.43-0.8l-0.33.25,0.21-.32,0.22-.32a1.24,1.24,0,0,1-.25.14,1.85,1.85,0,0,0,.32-0.66c-0.24.76,0.37-.33,0.25,0.2l-0.59,1.16c-0.16.55,0.52-.47,0.52-0.09l0.07-.22c0.3-.42.14,0,0.31-0.14a7.16,7.16,0,0,0-.44.74,3.09,3.09,0,0,0,.61-0.59l-0.28.51c0,0.26.92-.86,1-0.62a7.83,7.83,0,0,1-.8.78s0,0.12.21-.1c-0.17.22,0.5-.33,0.25,0a1.56,1.56,0,0,1,.5-0.37l-0.15.15a2.72,2.72,0,0,0,.58-0.51c-0.42.54-.33,0.61-0.22,0.66s0.25,0.11-.17.52a0.85,0.85,0,0,1,.47.11c-0.11.06-.18,0.12-0.15,0.08-0.27.34,1.1-.59,0.81-0.18a1.84,1.84,0,0,1-.57.3c-1.23.74,0.28,0.07-.41,0.57l-0.08,0c-0.4.28,0.56-.07,0.53,0.1l-0.2.09a1.72,1.72,0,0,1,1.24,0,3.27,3.27,0,0,0-.83.25,5.37,5.37,0,0,1,1.05-.24,5.08,5.08,0,0,1-1.08.49l-0.07-.09c-0.73.28,0.07,0.12-.05,0.22l-0.33.09c0.14,0.11,1-.08,1,0.12l0.25-.07c0.86-.05-0.46.18,0.19,0.18L376,310a3.43,3.43,0,0,1,1,.25c-0.64,0-1-.12-1.39-0.14,0,0.06.1,0.19,0.53,0.18-0.09,0-.3,0-0.17-0.07,0.7,0,1,.1,1,0.26-1.68.05-.4,0.39-1.72,0.45,0.62,0.24-.29.37-0.22,0.57a7.65,7.65,0,0,1,1.35.31c0.08,0.08,0,.1,0,0.09H375.6a3.34,3.34,0,0,1-.57-0.19,3.49,3.49,0,0,1-.92-0.13c0.47,0.11.66,0.22,0.47,0.22l0.61,0.09c0.65,0.37-1.11-.21-0.49.14l-0.38-.18a1.67,1.67,0,0,0,.87.72,2.63,2.63,0,0,1-.56-0.26c-0.2.06,0.82,0.92,0.16,0.72l-0.27-.19c0.06,0.08.49,0.39,0.19,0.25a2,2,0,0,0-.29-0.19c0.08,0.07.42,0.4,0.23,0.33l-0.28-.25c-0.44-.12.56,0.77,0.58,1.08a4,4,0,0,0-1.2-.82l-0.1-.1c-0.21,0,.32.81,0.35,1.25-0.72-.76-0.62-0.11-1.06-0.54a3.31,3.31,0,0,1,.36.77c-0.13-.16.16,0.67-0.21-0.14h0c-0.41-.77-0.37-0.52-0.44-0.52l0.43,1.08c-0.42-.75-0.45-0.56-0.52-0.36s-0.14.42-.36-0.3c0,0.3,0,.3,0,0.59l-0.11-.61c-0.15-.14-0.2-0.2-0.33,0V313.9c-0.06,0,0,1.79-.07,1.83l-0.07-.93c-0.18,0-.28-0.81-0.49,0a2.43,2.43,0,0,1,.07-0.44c-0.08,0-.16-0.66-0.33.61,0.12-.82-0.14-0.1-0.32.24l0.14-.6a2.72,2.72,0,0,1-.47,1.13c0-.09.1-0.48,0.1-0.32,0-.33-0.23.54-0.26,0.2l0.15-.36c-0.08-.07-0.13.14-0.33,0.55-0.14.21-.15-0.22,0-0.74-0.13.31-.35,0.71-0.35,0.54a1.88,1.88,0,0,1,.18-0.36c0-.43-0.52.54-0.38-0.05a3.06,3.06,0,0,0,.15-0.34,0.23,0.23,0,0,1,.16.18,9.06,9.06,0,0,1,.57-1.33c-0.21.37-.75,1.14-0.71,0.86l0.08-.18,0-.05c0-.06,0,0-0.09.05a0.37,0.37,0,0,0,0-.19c0.23-.41,0-0.27,0-0.31a6.45,6.45,0,0,0-.55.87,0.1,0.1,0,0,1,.09-0.06l0.05,0,0,0,0.13,0c-0.19.25-.37,0.45-0.24,0.13-0.23.32-.48,0.65-0.6,0.8a15.82,15.82,0,0,1,.85-1.67,2.86,2.86,0,0,0-1.23.79,0.88,0.88,0,0,1,.29-0.43,0.89,0.89,0,0,0,.23-0.15,1.48,1.48,0,0,0-.86.46c0.17-.35.58-0.47,0.37-0.5l0.19-.16c0.37-.56-0.07-0.28-0.54-0.09s-0.9.28-.33-0.34a1.12,1.12,0,0,1-.21.19c0.19-.39-0.07-0.47-0.28-0.62s-0.37-.35.12-0.75c0.18-.18-0.31,0-0.71,0l0.63-.22-0.77.09c-0.59-.08,1.49-0.67.43-0.67l-0.44.11c0.07-.1-0.3-0.24.21-0.29-0.08,0-.47,0-0.24,0l0.34,0-0.31-.07-0.3-.08c0.24-.18,1.38-0.08,1.43-0.28a5.67,5.67,0,0,0-1.25-.17,1,1,0,0,1-.56.11l-0.19-.09a7.11,7.11,0,0,0-2.78.21l0.64,0.2-0.49.1,0-.19c-0.46.13,0,.18,0.24,0.24a1.69,1.69,0,0,0-.54.13l0.49,0.07,0.49,0.06a2.53,2.53,0,0,0-1,.15,7.1,7.1,0,0,1,1.2-.06c-0.45.15-.83,0.18-0.42,0.24a1.15,1.15,0,0,1-.55,0,1.14,1.14,0,0,0,.72.25c-0.55.21,0.21,0.33-.74,0.52a2.14,2.14,0,0,1,.85.11c-1.17.1,0,.38-1.18,0.68,1-.15.61,0.38,1.24,0.41-0.08,0-.25.05-0.21,0a1.81,1.81,0,0,1-.46.48,7.14,7.14,0,0,1,1.6-.32,9,9,0,0,1-1.67.7,11.33,11.33,0,0,0,1.26-.32,3.71,3.71,0,0,1-.78.59c1-.47.21,0,0.85-0.18-0.37.42-.86,0.53-0.46,0.56A1.05,1.05,0,0,1,362.89,315.75Zm4.83,2.21h0Zm0.35,0.16a0.32,0.32,0,0,0-.14-0.09,0.76,0.76,0,0,1,.22-0.36A1.06,1.06,0,0,0,368.08,318.13Zm1.5-4c0.07-.06,0,0,0,0.16l-0.08,0,0,0.06Z" transform="translate(-71.19 -34.19)"/><path class="cls-12" d="M369.1,314.74l0,0-0.06.13,0.11-.16h0Z" transform="translate(-71.19 -34.19)"/><path class="cls-12" d="M368.25,306.31h0l-0.06-.06Z" transform="translate(-71.19 -34.19)"/><polygon class="cls-12" points="302.33 285.63 302.3 285.48 302.29 285.62 302.33 285.63"/><path class="cls-12" d="M365.56,306l-0.14-.08Z" transform="translate(-71.19 -34.19)"/><path class="cls-12" d="M364.95,306.61H364.7A0.87,0.87,0,0,0,364.95,306.61Z" transform="translate(-71.19 -34.19)"/><path class="cls-12" d="M364.34,307.06l0.23,0.13h0Z" transform="translate(-71.19 -34.19)"/><path class="cls-12" d="M374,302.35l0,0C374.14,302.24,374.09,302.27,374,302.35Z" transform="translate(-71.19 -34.19)"/><path class="cls-12" d="M370.58,303.45a1.85,1.85,0,0,1,.07-0.3C370.59,303.11,370.54,303.1,370.58,303.45Z" transform="translate(-71.19 -34.19)"/><path class="cls-12" d="M378,303.87h0l0,0v0Z" transform="translate(-71.19 -34.19)"/><path class="cls-12" d="M370.8,303.15c-0.07-.12-0.11-0.09-0.15,0S370.76,303.25,370.8,303.15Z" transform="translate(-71.19 -34.19)"/><path class="cls-12" d="M363.21,309.91l0,0h0.1Z" transform="translate(-71.19 -34.19)"/><path class="cls-12" d="M363.28,310l0.07,0S363.34,310,363.28,310Z" transform="translate(-71.19 -34.19)"/><path class="cls-12" d="M363.5,310.09l-0.15-.09S363.32,310.06,363.5,310.09Z" transform="translate(-71.19 -34.19)"/><path class="cls-12" d="M363.64,309l-0.22-.06Z" transform="translate(-71.19 -34.19)"/><path class="cls-12" d="M363.65,308.74c-0.07.05-.51,0.05-0.39,0.18l0.17,0C363.11,308.85,364,308.89,363.65,308.74Z" transform="translate(-71.19 -34.19)"/><path class="cls-12" d="M366.57,308.68l-0.22.08a1.27,1.27,0,0,1,.57.23C367.65,309.08,366.41,308.84,366.57,308.68Z" transform="translate(-71.19 -34.19)"/><path class="cls-12" d="M367.08,308.41a1.09,1.09,0,0,0,.43.23A0.77,0.77,0,0,0,367.08,308.41Z" transform="translate(-71.19 -34.19)"/><path class="cls-12" d="M369.42,306.19l0.23,0.51A1.82,1.82,0,0,0,369.42,306.19Z" transform="translate(-71.19 -34.19)"/><polygon class="cls-12" points="297.94 269 297.75 268.69 297.86 269.2 297.94 269"/><polygon class="cls-12" points="299.41 272.75 299.41 272.83 299.44 272.62 299.41 272.75"/><path class="cls-12" d="M374.55,308.16l0.53-.45A1.41,1.41,0,0,0,374.55,308.16Z" transform="translate(-71.19 -34.19)"/><path class="cls-12" d="M376.06,309.77c-0.33.1-.54,0.19-0.2,0.17C375.9,309.89,376.16,309.78,376.06,309.77Z" transform="translate(-71.19 -34.19)"/><polygon class="cls-12" points="301.49 280.09 301.43 279.87 301.44 280.07 301.49 280.09"/><ellipse class="cls-10" cx="338.51" cy="363.57" rx="6.34" ry="6.46"/><ellipse class="cls-10" cx="300.94" cy="240.09" rx="6.34" ry="6.46"/><path class="cls-11" d="M225.06,380.77a6.27,6.27,0,0,0,8.83,1.62,6.54,6.54,0,0,0,1.59-9,6.27,6.27,0,0,0-8.83-1.62A6.54,6.54,0,0,0,225.06,380.77Z" transform="translate(-71.19 -34.19)"/><path class="cls-12" d="M223.85,381.6a0.75,0.75,0,0,0,.41-0.35l-0.63.36h0.22Z" transform="translate(-71.19 -34.19)"/><path class="cls-12" d="M224.75,380.5a6.69,6.69,0,0,0-1.48.73c0.65-.28.41-0.11,1.16-0.47,0.1,0-.14.22-0.37,0.35,0.17-.08-0.08.18,0.32,0,0.43-.38.4-0.47-0.05-0.32A2.79,2.79,0,0,1,224.75,380.5Z" transform="translate(-71.19 -34.19)"/><path class="cls-12" d="M225.25,375.28h0Z" transform="translate(-71.19 -34.19)"/><path class="cls-12" d="M227.17,373.17a0.27,0.27,0,0,0,.08.14A0.32,0.32,0,0,0,227.17,373.17Z" transform="translate(-71.19 -34.19)"/><path class="cls-12" d="M228,373.55l0,0C228,373.58,228,373.6,228,373.55Z" transform="translate(-71.19 -34.19)"/><path class="cls-12" d="M225.25,375.28h0.24C225.27,375.2,225.31,375.26,225.25,375.28Z" transform="translate(-71.19 -34.19)"/><path class="cls-12" d="M222.78,380.5a0.57,0.57,0,0,0,.2,0l-0.1,0Z" transform="translate(-71.19 -34.19)"/><path class="cls-12" d="M225.56,376.62v0l0.29,0Z" transform="translate(-71.19 -34.19)"/><path class="cls-12" d="M225.66,377.51s-0.59,0-.86,0a1.85,1.85,0,0,1,.42,0Z" transform="translate(-71.19 -34.19)"/><path class="cls-12" d="M225,379.26h0Z" transform="translate(-71.19 -34.19)"/><path class="cls-12" d="M225.79,376l0.22,0Z" transform="translate(-71.19 -34.19)"/><path class="cls-12" d="M224,383.93l0.08-.08A0.15,0.15,0,0,0,224,383.93Z" transform="translate(-71.19 -34.19)"/><polygon class="cls-12" points="154 346.5 154.04 346.49 154.32 346.3 154 346.5"/><path class="cls-12" d="M228.95,373.92h0C229,374,229,374,228.95,373.92Z" transform="translate(-71.19 -34.19)"/><path class="cls-12" d="M233.75,375.57c0.48-.29.7-0.14,1.23-0.49A6.4,6.4,0,0,0,233.75,375.57Z" transform="translate(-71.19 -34.19)"/><path class="cls-12" d="M222.83,380.43a0.1,0.1,0,0,1,0-.05S222.81,380.43,222.83,380.43Z" transform="translate(-71.19 -34.19)"/><path class="cls-12" d="M235,375.08h0l0,0Z" transform="translate(-71.19 -34.19)"/><path class="cls-12" d="M230.21,373.27l0-.27Z" transform="translate(-71.19 -34.19)"/><path class="cls-12" d="M228.87,372.61l0.06,0.07A0.14,0.14,0,0,0,228.87,372.61Z" transform="translate(-71.19 -34.19)"/><path class="cls-12" d="M230.9,372.45s0,0.13,0,.06v-0.08C230.93,372.51,230.91,372.55,230.9,372.45Z" transform="translate(-71.19 -34.19)"/><path class="cls-12" d="M231.62,372.61l0-.12,0,0v0.1Z" transform="translate(-71.19 -34.19)"/><path class="cls-12" d="M228,385.84a5.08,5.08,0,0,1,.08-0.55C228,385.72,227.71,385.82,228,385.84Z" transform="translate(-71.19 -34.19)"/><path class="cls-12" d="M223.09,380.36a0.72,0.72,0,0,1-.26.07l0,0Z" transform="translate(-71.19 -34.19)"/><path class="cls-12" d="M231.67,367.63l0.22,0.12A0.35,0.35,0,0,0,231.67,367.63Z" transform="translate(-71.19 -34.19)"/><path class="cls-12" d="M237.19,382.68l0,0.09S237.24,382.73,237.19,382.68Z" transform="translate(-71.19 -34.19)"/><path class="cls-12" d="M232.61,367.83a1.56,1.56,0,0,0,0,.44,1.31,1.31,0,0,0,.07-0.15Z" transform="translate(-71.19 -34.19)"/><path class="cls-12" d="M228.05,385.29h0Z" transform="translate(-71.19 -34.19)"/><path class="cls-12" d="M226.1,386.11c0.21,0.12.43-.68,0.67-1.08,0.32-.11-0.13.6-0.21,1,0.25-.12.63-0.77,0.73-0.71a1.11,1.11,0,0,1-.12.33c0.38-.55.5,0.14,0.91-0.59a1.57,1.57,0,0,1,0,.2c0.08-.4.19-0.8,0.27-1.08,0.08,0,.27-0.46.17,0.06a0.69,0.69,0,0,0-.17.33l0.14-.2a2,2,0,0,1-.33.77c0.25-.19.58-0.77,0.66-0.53-0.12.74-.36,0.17-0.32,0.86l-0.15-.33c-0.11,1.18-.12-0.11-0.26,1.15,0.28,0.28.43-.28,0.71,0,0.14-.4.08-0.61,0.21-1,0.49-.69.1,1.91,0.54,1,0.13-.49.22-1.43,0.4-0.93l-0.12.84c0.31,0.1.21-1.21,0.49-.63a2.76,2.76,0,0,1-.19.37c0.2,0.67.15-.47,0.29-0.47l0,0.75a9.29,9.29,0,0,0,.93-0.87,1.59,1.59,0,0,0,.1.68c0.39-.43.93-0.08,1.52,0.21l0-.66a0.65,0.65,0,0,1,.16.39c0.24,0.17-.12-0.39-0.13-0.66a0.59,0.59,0,0,1,.25.51c0.13-.62.3-1.38,0.87-0.9l0,0.2c0.34,0.12-.38-1.28.08-0.85l0,0.12c0.58,0,.66-0.79,1.56-0.28-0.54-.75.67,0-0.18-1a2.74,2.74,0,0,0,1.36.5,5.92,5.92,0,0,0-.5-0.87l0.51,0.44-0.42-.6,0.69,0.44,0-.21a0.93,0.93,0,0,1-.45-0.24c-0.11-.33.67-0.09,1,0.1l-0.09-.37-0.1-.36a1.22,1.22,0,0,1,.36.43c-0.43-.6.63,0.35,0.23-0.2a2.59,2.59,0,0,1-.45-0.31c0.41,0.12.55-.13,0.49-0.39l0.39,0.26a3.35,3.35,0,0,0,.32-1.19,1.63,1.63,0,0,1-1-.4l0.69,0.21a3.16,3.16,0,0,1-.75-0.32,1.64,1.64,0,0,1,1,.35l-0.18-.26c0.21,0.06.3,0.14,0.55,0.24-0.4-.21.79-0.1,0.09-0.44l0.21,0.05a3.41,3.41,0,0,0,0-1,3.46,3.46,0,0,1-.92-0.4,1.37,1.37,0,0,0,.72-0.69,2.19,2.19,0,0,0-.88-0.21c0.56,0,.52-0.26.92-0.09a1.18,1.18,0,0,0-.57-0.86,1.39,1.39,0,0,1-.52.09c-0.1-.07.23-0.17,0.5-0.18l0.06,0c-0.43-.21,0-0.49.28-0.81s0.61-.67,0-0.74H239l-0.35-.13-0.34-.11a3.55,3.55,0,0,1,.74-0.23c-1-.16-0.1-0.72-0.8-0.85,0.73-.44.57-0.68,0.36-0.88s-0.5-.35-0.15-0.79l-0.32.22c-0.38.11,0.13-.22,0.16-0.33a1.58,1.58,0,0,1-.46.34,1.43,1.43,0,0,1-.62-1.14,5.49,5.49,0,0,0-.4-1.53c-0.2-.32-1.46,1.41-1.16.44l0.54-.49a1.05,1.05,0,0,1-1.05-.27,0.91,0.91,0,0,0-1-.21,0.69,0.69,0,0,1,.26-0.3c0.12-.54-0.45-0.24-0.62.16a2.15,2.15,0,0,1,.17-0.59c0-.34-0.57.48-0.44,0a0.34,0.34,0,0,1,.14-0.18c-0.18.21-.38-0.2-0.5,0.4-0.13-.35-0.5.11-0.58-0.28-0.29.63-.32-0.41-0.57,0.52,0.24-1-.25-0.88-0.46-0.43,0.1-.29-0.08-0.33,0-0.73-0.18,0-.36.15-0.39,0.66-0.21-1.24-.66.91-0.77-0.62a15.87,15.87,0,0,1-1.32,1.2c-0.12-1,.45-0.15.34-1.18-0.42.43-.5,1.34-0.93,1.16a0.9,0.9,0,0,1,0-.6c-0.32.49-.83,0.1-1,0.74a0.66,0.66,0,0,1,0-.28c-0.06.06-.21-0.08,0,0.34l0-.14a8,8,0,0,1,.34,1.7c-0.37-1.24-.41-0.19-0.87-1.76a1.21,1.21,0,0,0,.14.59,0.8,0.8,0,0,1-.26-0.55c-0.14.33,0.14,0.73-.06,0.82a5.1,5.1,0,0,1-.18-0.54c0.07,0.44.17,0.86-.07,0.78a0.43,0.43,0,0,1-.1-0.28c-0.28.21,0.12,1.25-.37,1.07-0.45-.84-0.27-0.2-0.76-0.86v0.32l0.3,0.27c-0.14.09,0.12,0.65-.15,0.52l-0.12-.34-0.14.31,0.33,0.14c0.15,0.42.67,0.79,0.38,0.73a1.39,1.39,0,0,1-.49-0.22h0c0.12,0.24.26,0.49,0,.42s-0.62-.66-0.75-0.78c0.43,0.54-.14.39,0.35,1a4.24,4.24,0,0,0-.5-0.48l0.37,0.42a1.26,1.26,0,0,1-.5-0.35c-0.22.1,0.83,0.63,0.33,0.53a1.26,1.26,0,0,1-.13-0.18c-0.35,0,0,.59-0.37.61-0.72-.41,0-0.29-0.66-0.63-0.11.4,0.42,1.15,0.11,1.33h0.11c1,0.59-.63-0.06-0.21.34a2.48,2.48,0,0,0-.45-0.26c-0.26.14,0.06,0.56,0.29,1l-0.27-.14a0.89,0.89,0,0,0-.43.38,1.42,1.42,0,0,0,.64.26c-0.88,0-.71.27-0.49,0.51s0.49,0.46-.24.57a0.32,0.32,0,0,0-.25-0.11l0.23,0.37a3.28,3.28,0,0,0,.71,0,0.75,0.75,0,0,1,.51.24,2,2,0,0,0-1.1,0c0.16,0,.33,0,0.48,0-0.91.11,1,.09,0.4,0.26l-0.27,0a0.68,0.68,0,0,1,.4.24A3.17,3.17,0,0,1,223,377c0,0.14,1.1.23,0.53,0.35-0.17,0-.18-0.12-0.34-0.17-0.69.13-.51,0.15-0.61,0.25h0l-0.3.25,0.18-.07c1.54,0.06.29,0.32,1.33,0.41a2.77,2.77,0,0,0-1.21.11,1.46,1.46,0,0,1-.56.2c0.55,0-.39.27,0.41,0.29a1.1,1.1,0,0,1-.53.2,1,1,0,0,0,.63-0.15c0.75,0-.74.73,0.31,0.78a12.05,12.05,0,0,0,1.59,0,1.83,1.83,0,0,1-.75.22c-0.25.23-.17,0.31,0.11,0.32a1.9,1.9,0,0,0-.52.27c0.1,0.07.74-.26,0.51,0a7.55,7.55,0,0,1-.83.27c0.23,0,.65,0,0.87,0a2.15,2.15,0,0,1-.78.26,1.14,1.14,0,0,0,1-.07l0.14-.17a1.52,1.52,0,0,1-.55.28c-0.46.11,0.11-.25,0.3-0.35h0.16c1.08-.65-0.32-0.19-0.33-0.39l0.86-.32-0.76.16a2.43,2.43,0,0,1,.82-0.33c0.38-.27-0.33,0,0.1-0.23a0.44,0.44,0,0,1,.15-0.06h-0.29a1.12,1.12,0,0,1,.49-0.14c0.44-.33-0.74,0-0.1-0.31h0.06a7.46,7.46,0,0,0-1.46.22l0.78-.29,0.78-.27-0.65.15a0.4,0.4,0,0,1,.32-0.15,5.2,5.2,0,0,0-.71.14c0.56-.25-0.36-0.29.69-0.51a2,2,0,0,1-.74.12c1.13-.23-0.22-0.12.29-0.31a1.65,1.65,0,0,0,.81-0.08c-1,.07.18-0.22,0-0.27-0.8.07-.34-0.16-0.62-0.29a3,3,0,0,0,.73-0.39h0.13c-0.8-.06-0.65-0.19-0.81-0.31a4.18,4.18,0,0,1,.88.14v-0.08a1,1,0,0,1-.47-0.15l0.6,0.09c0-.1-0.68-0.32-0.26-0.41a6.46,6.46,0,0,1-1.9-.4,4.69,4.69,0,0,1,.93.21s-0.24-.1-0.1-0.11l0.49,0.17c0.24,0-.41-0.12-0.35-0.17,0.43,0.09.31,0,.65,0.1,0,0-.19,0,0,0.07a1.39,1.39,0,0,1,.68,0,2,2,0,0,1-.61-0.19,1.89,1.89,0,0,1,.75.08,1.75,1.75,0,0,0-.59-0.26,1.75,1.75,0,0,1,.48.08,0.94,0.94,0,0,0-.67-0.44h0l0,0h0c-0.55-.44.51-0.29,0.33-0.58l0.2,0.09a1.48,1.48,0,0,0-.37-0.61,1.53,1.53,0,0,1,.61.26c-0.1-.16-0.3-0.31.08-0.23,0.27,0.28.3,0.15,0.19,0.22,0.22,0,.52.18,0.1-0.25,0.44,0.34.62,0.33,0.51,0.2l-0.37-.17c0-.1,0-0.11.11-0.13l0.57,0.46c0.41,0.19.16-.09,0-0.36s-0.28-.5.31,0c-0.33-.39-0.34-0.16-0.75-0.61a1.69,1.69,0,0,1,.55.32c0.23,0.16.43,0.33,0.44,0.32,0.36,0.22-.65-0.86-0.36-0.76a3.06,3.06,0,0,1-.72-1,2.82,2.82,0,0,1,.89,1s-0.07,0-.12-0.09a0.86,0.86,0,0,0,.29.4l-0.16-.21a1.28,1.28,0,0,1,.53.43,0.85,0.85,0,0,0-.37-0.43c0.33,0.23.15-.12,0.41,0a1.91,1.91,0,0,1-.27-0.36c0.34,0.17-.2-0.46-0.14-0.63,0.28,0.29.48,0.82,0.42,0.47a2.71,2.71,0,0,1,.45.78c-0.17-.5.32,0.2,0.4,0.26l0.06,0.2c0-.12,0-0.13,0-0.14l-0.26-.45a0.59,0.59,0,0,1,.19.25c-0.12-.32-0.41-0.76-0.55-1.22,0.16,0.22,0-.33.32,0.29-0.22-.15.29,0.63,0.25,0.78,0-.08,0-0.09.07,0a0.83,0.83,0,0,1,.06.17c0.34,0.52-.27-0.74-0.13-0.77a1.63,1.63,0,0,0,.28.6,3,3,0,0,1-.31-0.9c0.19,0.25,0-.25.08-0.24l-0.1-.11a0.51,0.51,0,0,1,0-.49c0.1,0.29,0,.22.06,0.34-0.12-.68.37,0.64,0.34,0.17,0.11,0.24.18,0.71,0.26,0.87,0-.52.21,0.5,0.22,0.07a2.41,2.41,0,0,1-.12-0.9l-0.12.39,0-.38v-0.38a1.62,1.62,0,0,1-.12.27,1.87,1.87,0,0,0-.13-0.72c0.25,0.75.11-.48,0.32,0l0.2,1.28c0.19,0.55.14-.7,0.37-0.38l-0.07-.22c0-.52.12-0.08,0.17-0.29a7.16,7.16,0,0,0,.08.86,3.21,3.21,0,0,0,.15-0.83l0.07,0.57c0.12,0.24.25-1.24,0.42-1.06a7.93,7.93,0,0,1-.19,1.1s0.08,0.1.11-.2c0,0.27.21-.56,0.2-0.15a1.56,1.56,0,0,1,.19-0.59,2,2,0,0,1,0,.21,2.77,2.77,0,0,0,.18-0.75c0,0.69.08,0.69,0.21,0.67s0.27-.06.16,0.52a0.88,0.88,0,0,1,.44-0.18c-0.05.12-.08,0.2-0.08,0.15,0,0.43.56-1.11,0.56-.62a1.86,1.86,0,0,1-.3.57c-0.58,1.31.27-.1,0,0.7l-0.06.06c-0.17.46,0.41-.38,0.49-0.22,0,0-.07.1-0.11,0.18a1.71,1.71,0,0,1,1-.73,3.28,3.28,0,0,0-.54.68,5.35,5.35,0,0,1,.73-0.8,5.06,5.06,0,0,1-.61,1l-0.11,0c-0.43.65,0.12,0.06,0.08,0.21l-0.22.26c0.18,0,.76-0.63.87-0.45l0.16-.2c0.68-.53-0.27.41,0.25,0l-0.6.63a3.41,3.41,0,0,1,1-.39c-0.54.35-.89,0.47-1.22,0.67,0,0,.18.1,0.54-0.15-0.08,0-.27.15-0.18,0,0.57-.4.91-0.5,1-0.37-1.36,1-.11.55-1.17,1.34,0.65-.15,0,0.47.13,0.6A7.66,7.66,0,0,1,235,375c0.11,0,.09.06,0,0.1l-0.34.24-0.35.23a3.34,3.34,0,0,1-.58.16,3.49,3.49,0,0,1-.84.41c0.45-.17.66-0.19,0.51-0.08l0.56-.27c0.75-.06-1,0.45-0.32.39l-0.42.07a1.67,1.67,0,0,0,1.12.11,2.61,2.61,0,0,1-.61.1c-0.13.16,1.2,0.3,0.54,0.51h-0.33c0.1,0,.63,0,0.29.1a2,2,0,0,0-.35,0c0.11,0,.57.1,0.38,0.15l-0.37,0c-0.43.15,0.9,0.33,1.09,0.56a3.88,3.88,0,0,0-1.45,0l-0.13,0c-0.16.14,0.72,0.49,1,.84-1-.21-0.57.27-1.19,0.18a3.25,3.25,0,0,1,.73.43c-0.2-.05.52,0.45-0.25,0h0c-0.78-.4-0.6-0.21-0.67-0.17l1,0.63c-0.78-.37-0.7-0.2-0.63,0s0.13,0.43-.47,0c0.19,0.23.15,0.27,0.32,0.51l-0.45-.43c-0.2,0-.29,0-0.3.16l-0.27-.35c-0.08,0,1.08,1.43,1,1.53l-0.6-.71c-0.13.13-.7-0.49-0.38,0.31a2.39,2.39,0,0,1-.2-0.4c-0.08,0-.52-0.43.09,0.69-0.39-.74-0.17,0-0.12.38l-0.24-.57a2.7,2.7,0,0,1,.28,1.19c-0.06-.06-0.2-0.45-0.11-0.32-0.2-.27.13,0.57-0.1,0.31l-0.09-.39c-0.11,0,0,.19.06,0.64,0,0.25-.25-0.09-0.4-0.63,0.08,0.33.13,0.78,0,.64a1.87,1.87,0,0,1-.07-0.4c-0.24-.36-0.11.75-0.34,0.18a3.09,3.09,0,0,0-.08-0.36,0.23,0.23,0,0,1,.23.06,9.11,9.11,0,0,1-.31-1.41c0,0.42.06,1.35-.07,1.11l0-.19V381.1c0-.05,0,0,0,0.1a0.39,0.39,0,0,0-.09-0.16c-0.06-.46-0.12-0.25-0.16-0.27a6.5,6.5,0,0,0,.06,1,0.09,0.09,0,0,1,0-.1,0.17,0.17,0,0,0,0-.07v0.05l0.12,0c0,0.31,0,.58-0.12.24,0,0.4,0,.81,0,1a15.63,15.63,0,0,1-.29-1.85,2.87,2.87,0,0,0-.54,1.36,0.88,0.88,0,0,1,0-.52,0.89,0.89,0,0,0,.1-0.25,1.48,1.48,0,0,0-.43.88c-0.06-.38.19-0.72,0-0.62l0.07-.24c0-.67-0.21-0.19-0.48.24s-0.57.75-.46-0.08a1.13,1.13,0,0,1-.06.28c-0.07-.42-0.32-0.34-0.58-0.35s-0.51-.08-0.33-0.68c0-.25-0.27.16-0.58,0.42l0.39-.54-0.58.51c-0.53.27,0.85-1.4,0-.79l-0.3.33c0-.12-0.38,0,0-0.36-0.07,0-.37.29-0.22,0.11l0.26-.23-0.3.12-0.3.1a13.68,13.68,0,0,0,1-1,5.75,5.75,0,0,0-1.13.56,1,1,0,0,1-.4.4l-0.2,0a7.07,7.07,0,0,0-2.18,1.74l0.64-.19-0.35.36-0.14-.13c-0.31.37,0.07,0.18,0.34,0.06a1.68,1.68,0,0,0-.37.42l0.45-.22,0.44-.23a2.51,2.51,0,0,0-.74.69,7.07,7.07,0,0,1,1-.73c-0.28.38-.58,0.61-0.2,0.44a1.15,1.15,0,0,1-.45.32,1.14,1.14,0,0,0,.74-0.2c-0.34.49,0.36,0.16-.31,0.85a2.14,2.14,0,0,1,.77-0.39c-0.91.75,0.24,0.3-.58,1.23,0.76-.71.72,0,1.26-0.36-0.06.06-.17,0.18-0.16,0.13a1.81,1.81,0,0,1-.1.66,7.12,7.12,0,0,1,1.14-1.18,8.86,8.86,0,0,1-1,1.53,11.12,11.12,0,0,0,.85-1,3.7,3.7,0,0,1-.3.94c0.52-.94.2-0.1,0.6-0.64-0.06.56-.39,0.93-0.06,0.72A1,1,0,0,1,226.1,386.11Zm5.25-1h0l-0.09,0Zm0.38-.07a0.32,0.32,0,0,0-.17,0,0.75,0.75,0,0,1,0-.42A1.07,1.07,0,0,0,231.73,385Zm-1.16-4.16c0-.09,0,0,0.06.16a0.21,0.21,0,0,0,0,.08v-0.23Z" transform="translate(-71.19 -34.19)"/><path class="cls-12" d="M230.57,381.7a0.18,0.18,0,0,1,0,0l0,0.14v-0.19h0Z" transform="translate(-71.19 -34.19)"/><path class="cls-12" d="M225.14,375.28h0l-0.09,0Z" transform="translate(-71.19 -34.19)"/><polygon class="cls-12" points="165.93 349.05 165.81 348.95 165.89 349.07 165.93 349.05"/><path class="cls-12" d="M222.74,376.54l-0.16,0Z" transform="translate(-71.19 -34.19)"/><path class="cls-12" d="M222.59,377.4l-0.21.14A0.87,0.87,0,0,0,222.59,377.4Z" transform="translate(-71.19 -34.19)"/><path class="cls-12" d="M222.34,378.11l0.27,0h0Z" transform="translate(-71.19 -34.19)"/><path class="cls-12" d="M227.52,368.71a0.06,0.06,0,0,0,0,0C227.57,368.53,227.54,368.59,227.52,368.71Z" transform="translate(-71.19 -34.19)"/><path class="cls-12" d="M225.4,371.6a1.85,1.85,0,0,1-.12-0.29C225.21,371.32,225.17,371.34,225.4,371.6Z" transform="translate(-71.19 -34.19)"/><path class="cls-12" d="M231.64,367.62h0Z" transform="translate(-71.19 -34.19)"/><path class="cls-12" d="M225.4,371.23c-0.12-.06-0.14,0-0.12.09S225.42,371.33,225.4,371.23Z" transform="translate(-71.19 -34.19)"/><path class="cls-12" d="M223,381.11v0l0.09,0H223Z" transform="translate(-71.19 -34.19)"/><path class="cls-12" d="M223.09,381.1h0.08S223.15,381.08,223.09,381.1Z" transform="translate(-71.19 -34.19)"/><path class="cls-12" d="M223.35,381.09h-0.18S223.18,381.17,223.35,381.09Z" transform="translate(-71.19 -34.19)"/><path class="cls-12" d="M222.87,380.13l-0.21.07Z" transform="translate(-71.19 -34.19)"/><path class="cls-12" d="M222.71,379.89c0,0.08-.39.33-0.22,0.37l0.17-.06C222.33,380.28,223.09,379.82,222.71,379.89Z" transform="translate(-71.19 -34.19)"/><path class="cls-12" d="M225.1,378.2l-0.13.19a1.27,1.27,0,0,1,.6-0.13C226.21,377.93,225.05,378.42,225.1,378.2Z" transform="translate(-71.19 -34.19)"/><path class="cls-12" d="M225.37,377.68a1.08,1.08,0,0,0,.48-0.05A0.76,0.76,0,0,0,225.37,377.68Z" transform="translate(-71.19 -34.19)"/><path class="cls-12" d="M226,374.51l0.48,0.29A1.8,1.8,0,0,0,226,374.51Z" transform="translate(-71.19 -34.19)"/><polygon class="cls-12" points="152.88 338.03 152.54 337.9 152.93 338.24 152.88 338.03"/><polygon class="cls-12" points="156.25 340.24 156.3 340.31 156.19 340.11 156.25 340.24"/><path class="cls-12" d="M231.35,373.09l0.17-.67A1.41,1.41,0,0,0,231.35,373.09Z" transform="translate(-71.19 -34.19)"/><path class="cls-12" d="M233.49,373.53c-0.22.27-.34,0.47-0.07,0.25C233.42,373.72,233.57,373.49,233.49,373.53Z" transform="translate(-71.19 -34.19)"/><polygon class="cls-12" points="162.03 345.02 161.86 344.87 161.98 345.03 162.03 345.02"/><path class="cls-10" d="M182,408.84a6.27,6.27,0,0,0,8.83,1.62,6.54,6.54,0,0,0,1.59-9,6.27,6.27,0,0,0-8.83-1.62A6.54,6.54,0,0,0,182,408.84Z" transform="translate(-71.19 -34.19)"/><ellipse class="cls-11" cx="191.15" cy="261.01" rx="6.34" ry="6.46"/><path class="cls-12" d="M254.53,295.2a0.75,0.75,0,0,0,.54-0.06l-0.73-.06Z" transform="translate(-71.19 -34.19)"/><path class="cls-12" d="M255.9,294.8a6.69,6.69,0,0,0-1.63-.23c0.69,0.13.4,0.14,1.23,0.26,0.08,0.07-.24.1-0.51,0.08,0.19,0-.16.1,0.29,0.15s0.59-.16.14-0.29A2.8,2.8,0,0,1,255.9,294.8Z" transform="translate(-71.19 -34.19)"/><path class="cls-12" d="M259.24,290.78l-0.08-.05Z" transform="translate(-71.19 -34.19)"/><path class="cls-12" d="M262,290.18a0.28,0.28,0,0,0,0,.16A0.33,0.33,0,0,0,262,290.18Z" transform="translate(-71.19 -34.19)"/><path class="cls-12" d="M262.45,291l0-.05C262.44,291,262.44,291,262.45,291Z" transform="translate(-71.19 -34.19)"/><path class="cls-12" d="M259.24,290.78l0.2,0.14C259.3,290.72,259.3,290.8,259.24,290.78Z" transform="translate(-71.19 -34.19)"/><path class="cls-12" d="M254.26,293.7a0.57,0.57,0,0,0,.18.1l-0.07-.07Z" transform="translate(-71.19 -34.19)"/><path class="cls-12" d="M258.74,292.05v0l0.22,0.2Z" transform="translate(-71.19 -34.19)"/><path class="cls-12" d="M258.33,292.84s-0.5-.31-0.73-0.46a1.85,1.85,0,0,1,.34.25Z" transform="translate(-71.19 -34.19)"/><path class="cls-12" d="M256.77,293.9l0.08,0Z" transform="translate(-71.19 -34.19)"/><path class="cls-12" d="M259.27,291.69l0.15,0.16Z" transform="translate(-71.19 -34.19)"/><path class="cls-12" d="M253.3,297.18l0.11,0A0.15,0.15,0,0,0,253.3,297.18Z" transform="translate(-71.19 -34.19)"/><polygon class="cls-12" points="184.96 261.01 185 261.03 185.34 261.03 184.96 261.01"/><path class="cls-12" d="M263,291.82h0C263,291.88,263,291.86,263,291.82Z" transform="translate(-71.19 -34.19)"/><path class="cls-12" d="M266,296c0.56,0,.66.28,1.29,0.28A6.39,6.39,0,0,0,266,296Z" transform="translate(-71.19 -34.19)"/><path class="cls-12" d="M254.35,293.67a0.1,0.1,0,0,1,0-.06S254.32,293.65,254.35,293.67Z" transform="translate(-71.19 -34.19)"/><path class="cls-12" d="M267.33,296.31h0Z" transform="translate(-71.19 -34.19)"/><path class="cls-12" d="M264.41,292l0.14-.23Z" transform="translate(-71.19 -34.19)"/><path class="cls-12" d="M263.7,290.71v0.09A0.16,0.16,0,0,0,263.7,290.71Z" transform="translate(-71.19 -34.19)"/><path class="cls-12" d="M265.46,291.78s-0.07.11,0,.07l0-.06C265.44,291.84,265.4,291.87,265.46,291.78Z" transform="translate(-71.19 -34.19)"/><path class="cls-12" d="M266,292.33l0.09-.09h0Z" transform="translate(-71.19 -34.19)"/><path class="cls-12" d="M255.47,301a5.13,5.13,0,0,1,.39-0.4C255.53,300.9,255.28,300.84,255.47,301Z" transform="translate(-71.19 -34.19)"/><path class="cls-12" d="M254.6,293.76a0.72,0.72,0,0,1-.26-0.09l0,0Z" transform="translate(-71.19 -34.19)"/><path class="cls-12" d="M268.88,288.31l0.11,0.23A0.34,0.34,0,0,0,268.88,288.31Z" transform="translate(-71.19 -34.19)"/><path class="cls-12" d="M264.81,303.81l0,0.08S264.82,303.88,264.81,303.81Z" transform="translate(-71.19 -34.19)"/><path class="cls-12" d="M269.53,289a1.56,1.56,0,0,0-.24.37l0.14-.08Z" transform="translate(-71.19 -34.19)"/><path class="cls-12" d="M255.86,300.6h0Z" transform="translate(-71.19 -34.19)"/><path class="cls-12" d="M253.8,300.16c0.11,0.21.74-.31,1.17-0.5,0.33,0.09-.45.41-0.76,0.71,0.27,0,1-.27,1-0.16a1.12,1.12,0,0,1-.29.2c0.63-.24.33,0.4,1.08,0l-0.14.15c0.3-.28.62-0.54,0.85-0.72,0.06,0.05.49-.22,0.1,0.15a0.69,0.69,0,0,0-.33.18l0.23-.08a2,2,0,0,1-.72.44c0.32,0,.92-0.29.84-0.05-0.52.53-.4-0.07-0.77,0.52l0.07-.35c-0.78.9,0-.16-0.88,0.79,0.06,0.39.52,0,.58,0.39,0.34-.25.42-0.45,0.76-0.7,0.8-.28-1,1.61-0.12,1.09,0.39-.32,1-1,0.86-0.52l-0.59.61c0.19,0.25.87-.86,0.77-0.23a2.79,2.79,0,0,1-.37.2c-0.23.66,0.4-.3,0.51-0.22l-0.4.63a10.29,10.29,0,0,0,1.26-.16,1.59,1.59,0,0,0-.32.61c0.56-.12.8,0.49,1.1,1.06l0.36-.55a0.66,0.66,0,0,1-.1.41c0.09,0.28.13-.39,0.28-0.61a0.59,0.59,0,0,1-.1.56c0.47-.44,1.06-0.93,1.24-0.22l-0.09.18c0.21,0.3.44-1.27,0.57-.64l-0.05.11c0.48,0.32,1-.25,1.43.69,0-.93.56,0.38,0.45-0.92a2.71,2.71,0,0,0,.82,1.19,5.58,5.58,0,0,0,.1-1l0.16,0.66v-0.74l0.3,0.76,0.08-.2a0.92,0.92,0,0,1-.23-0.45c0.1-.34.6,0.32,0.72,0.64l0.14-.36,0.12-.35a1.21,1.21,0,0,1,0,.56c0-.74.31,0.65,0.31,0a2.57,2.57,0,0,1-.19-0.51c0.27,0.34.53,0.21,0.63,0l0.17,0.44a3.34,3.34,0,0,0,1-.8,1.61,1.61,0,0,1-.61-0.92l0.44,0.57a3.13,3.13,0,0,1-.43-0.69,1.63,1.63,0,0,1,.61.85v-0.31a6,6,0,0,1,.31.51c-0.2-.4.71,0.37,0.33-0.32l0.14,0.16a3.36,3.36,0,0,0,.55-0.85,3.44,3.44,0,0,1-.53-0.85,1.37,1.37,0,0,0,1-.16,2.18,2.18,0,0,0-.61-0.67c0.45,0.34.58,0.08,0.81,0.44a1.19,1.19,0,0,0,0-1,1.39,1.39,0,0,1-.48-0.22c0-.11.29,0,0.51,0.13l0,0c-0.24-.42.24-0.43,0.69-0.52s0.88-.22.4-0.62l0,0-0.22-.3-0.22-.29a3.55,3.55,0,0,1,.74.22c-0.74-.69.32-0.65-0.19-1.15,0.85,0,.86-0.24.8-0.53s-0.21-.57.32-0.74h-0.39c-0.38-.12.23-0.11,0.32-0.18a1.58,1.58,0,0,1-.57,0,1.41,1.41,0,0,1,.13-1.29,5.55,5.55,0,0,0,.54-1.48c0-.37-2,0.33-1.2-0.3l0.73-.1a1,1,0,0,1-.71-0.81,0.9,0.9,0,0,0-.68-0.73,0.69,0.69,0,0,1,.38-0.09c0.41-.37-0.23-0.45-0.59-0.23a2.16,2.16,0,0,1,.48-0.38c0.19-.29-0.74.07-0.34-0.27a0.33,0.33,0,0,1,.21-0.06c-0.26.06-.19-0.38-0.64,0,0.09-.36-0.47-0.19-0.31-0.56-0.6.35,0-.52-0.76,0.1,0.75-.65.32-0.86-0.12-0.62,0.25-.18.12-0.31,0.46-0.57-0.14-.11-0.38-0.08-0.7.32,0.55-1.12-1.06.35-.26-0.95a14.58,14.58,0,0,1-1.77.2c0.49-.87.45,0.15,1-0.76-0.59.1-1.19,0.79-1.43,0.4A0.9,0.9,0,0,1,266,287c-0.54.2-.74-0.4-1.25,0a0.66,0.66,0,0,1,.15-0.24c-0.08,0-.12-0.19-0.24.25l0.1-.1a8.07,8.07,0,0,1-.72,1.58c0.43-1.22-.22-0.39.33-1.94a1.21,1.21,0,0,0-.23.56,0.79,0.79,0,0,1,.11-0.6c-0.31.17-.31,0.67-0.53,0.62a5.09,5.09,0,0,1,.17-0.54c-0.2.4-.37,0.8-0.52,0.59a0.43,0.43,0,0,1,.09-0.29c-0.35,0-.64,1.08-0.93.65,0.13-.94-0.11-0.32-0.12-1.14l-0.2.25,0.08,0.4c-0.17,0-.28.6-0.43,0.34L262,287l-0.29.17,0.19,0.3c-0.12.43,0.08,1-.12,0.82a1.43,1.43,0,0,1-.27-0.47h0c0,0.27-.07.55-0.2,0.37s-0.12-.9-0.16-1.07c0,0.69-.34.24-0.28,1a4.22,4.22,0,0,0-.12-0.68l0.06,0.56a1.25,1.25,0,0,1-.2-0.58c-0.24,0,.31,1,0,0.62a1.26,1.26,0,0,1,0-.22c-0.31-.16-0.37.46-0.66,0.29-0.35-.75.13-0.26-0.18-0.89-0.32.27-.32,1.18-0.68,1.15l0.09,0.06c0.49,1.06-.48-0.41-0.37.16a2.47,2.47,0,0,0-.22-0.47c-0.29,0-.28.5-0.33,1l-0.14-.27a0.89,0.89,0,0,0-.57.07,1.42,1.42,0,0,0,.37.58c-0.71-.53-0.74-0.18-0.7.14s0.14,0.66-.52.33a0.32,0.32,0,0,0-.15-0.23l0,0.44a3.28,3.28,0,0,0,.61.37,0.75,0.75,0,0,1,.28.49,2,2,0,0,0-.89-0.64c0.13,0.09.25,0.21,0.38,0.31-0.81-.42.79,0.65,0.19,0.45l-0.21-.17a0.68,0.68,0,0,1,.2.43,3.16,3.16,0,0,1-.57-0.51c-0.05.13,0.78,0.82,0.24,0.59-0.11-.13-0.08-0.2-0.18-0.33-0.65-.28-0.51-0.16-0.65-0.14h0l-0.39,0,0.19,0c1.24,0.91.06,0.43,0.86,1.09a2.77,2.77,0,0,0-1.06-.59,1.46,1.46,0,0,1-.57-0.14c0.44,0.33-.47,0,0.18.47a1.1,1.1,0,0,1-.55-0.13,1,1,0,0,0,.6.23c0.6,0.46-1,.19-0.18.82a12.13,12.13,0,0,0,1.32.89,1.83,1.83,0,0,1-.75-0.24c-0.33,0-.31.16-0.09,0.33a1.9,1.9,0,0,0-.58-0.07c0,0.11.76,0.2,0.43,0.27a7.57,7.57,0,0,1-.83-0.24c0.17,0.16.55,0.34,0.73,0.48a2.15,2.15,0,0,1-.79-0.22,1.14,1.14,0,0,0,.87.51l0.21-.06a1.53,1.53,0,0,1-.61-0.07c-0.44-.17.23-0.15,0.44-0.12l0.12,0.1c1.26,0.07-.15-0.33-0.05-0.51l0.89,0.22-0.72-.29a2.43,2.43,0,0,1,.87.19c0.46,0-.3-0.16.21-0.13a0.44,0.44,0,0,1,.15,0l-0.24-.16a1.12,1.12,0,0,1,.49.16c0.55,0-.6-0.44.09-0.31l0.05,0a7.48,7.48,0,0,0-1.33-.63l0.81,0.2,0.8,0.22-0.63-.24a0.4,0.4,0,0,1,.34.06,5.2,5.2,0,0,0-.67-0.29c0.6,0.11-.14-0.44.86,0a2,2,0,0,1-.68-0.32c1.06,0.44-.11-0.22.41-0.1a1.65,1.65,0,0,0,.71.38c-0.87-.51.27-0.08,0.15-0.22-0.69-.39-0.2-0.32-0.35-0.59a3,3,0,0,0,.82.09l0.11,0.08c-0.63-.5-0.43-0.53-0.49-0.71a4.21,4.21,0,0,1,.65.62l0-.07a1,1,0,0,1-.3-0.39l0.44,0.41c0-.09-0.38-0.65,0-0.48a6.45,6.45,0,0,1-1.34-1.41,4.7,4.7,0,0,1,.64.7s-0.14-.22,0-0.15l0.31,0.41c0.21,0.11-.27-0.33-0.19-0.34,0.3,0.31.25,0.19,0.48,0.45,0,0-.16-0.1-0.06,0a1.39,1.39,0,0,1,.57.38,2,2,0,0,1-.4-0.5,1.89,1.89,0,0,1,.57.49,1.76,1.76,0,0,0-.34-0.55,1.76,1.76,0,0,1,.35.34,1,1,0,0,0-.3-0.74l0,0v0h0c-0.2-.67.58,0.06,0.59-0.29l0.11,0.19a1.47,1.47,0,0,0,0-.71,1.53,1.53,0,0,1,.35.56c0-.18-0.07-0.43.19-0.14,0.06,0.38.16,0.3,0,.29,0.18,0.13.32,0.45,0.22-.15,0.16,0.53.31,0.63,0.3,0.46l-0.2-.35c0-.1.09-0.07,0.16,0l0.2,0.71c0.22,0.39.18,0,.19-0.3s0.06-.57.27,0.15c0-.51-0.18-0.34-0.25-0.93a1.75,1.75,0,0,1,.26.58c0.09,0.26.16,0.52,0.17,0.52,0.16,0.39,0-1.08.15-.82a3.07,3.07,0,0,1,0-1.2,2.83,2.83,0,0,1,.16,1.3s0-.06,0-0.15a0.87,0.87,0,0,0,0,.49v-0.26a1.28,1.28,0,0,1,.18.66,0.85,0.85,0,0,0,0-.56c0.13,0.37.19,0,.31,0.26a1.92,1.92,0,0,1,0-.45c0.18,0.33.1-.49,0.26-0.6,0.05,0.4-.09.95,0.06,0.62a2.74,2.74,0,0,1-.09.9c0.15-.5.14,0.36,0.17,0.45l-0.07.2c0-.12.06-0.11,0.08-0.11l0.05-.52a0.59,0.59,0,0,1,0,.31c0.09-.33.11-0.86,0.27-1.31,0,0.27.21-.26,0.08,0.43-0.09-.26-0.13.68-0.26,0.77,0-.08.06-0.07,0.07,0a0.82,0.82,0,0,1,0,.18c0,0.63.21-.75,0.35-0.7a1.62,1.62,0,0,0-.12.65,3.06,3.06,0,0,1,.28-0.91c0,0.31.16-.19,0.2-0.14v-0.15a0.5,0.5,0,0,1,.28-0.39c-0.09.29-.13,0.17-0.15,0.31,0.31-.62-0.07.73,0.18,0.33-0.05.26-.27,0.68-0.3,0.86,0.29-.44-0.12.53,0.13,0.19a2.4,2.4,0,0,1,.43-0.8l-0.33.25,0.21-.32,0.22-.32a1.24,1.24,0,0,1-.25.14,1.85,1.85,0,0,0,.32-0.66c-0.24.76,0.37-.33,0.25,0.2l-0.59,1.16c-0.16.55,0.52-.47,0.52-0.09l0.07-.22c0.3-.42.14,0,0.31-0.14a7.16,7.16,0,0,0-.44.74,3.09,3.09,0,0,0,.61-0.59l-0.28.51c0,0.26.92-.86,1-0.62a7.82,7.82,0,0,1-.8.78s0,0.12.21-.1c-0.17.22,0.5-.33,0.25,0a1.56,1.56,0,0,1,.5-0.37l-0.15.15a2.72,2.72,0,0,0,.58-0.51c-0.42.54-.33,0.61-0.22,0.66s0.25,0.11-.17.52a0.85,0.85,0,0,1,.47.11c-0.11.06-.18,0.12-0.15,0.08-0.27.34,1.1-.59,0.81-0.18a1.84,1.84,0,0,1-.57.3c-1.23.74,0.28,0.07-.41,0.57l-0.08,0c-0.4.28,0.56-.07,0.53,0.1l-0.2.09a1.72,1.72,0,0,1,1.24,0,3.27,3.27,0,0,0-.83.25,5.37,5.37,0,0,1,1.05-.24,5.08,5.08,0,0,1-1.08.49l-0.07-.09c-0.73.28,0.07,0.12-.05,0.22l-0.33.09c0.14,0.11,1-.08,1,0.12l0.25-.07c0.86-.05-0.46.18,0.19,0.18l-0.85.17a3.43,3.43,0,0,1,1,.25c-0.64,0-1-.12-1.39-0.14,0,0.06.1,0.19,0.53,0.18-0.09,0-.3,0-0.17-0.07,0.7,0,1,.1,1,0.26-1.68.05-.4,0.39-1.72,0.45,0.62,0.24-.29.37-0.22,0.57a7.65,7.65,0,0,1,1.35.31c0.08,0.08,0,.1,0,0.09H266.5a3.34,3.34,0,0,1-.57-0.19A3.49,3.49,0,0,1,265,296c0.47,0.11.66,0.22,0.47,0.22l0.61,0.09c0.65,0.37-1.11-.21-0.49.14l-0.38-.18a1.67,1.67,0,0,0,.87.72,2.62,2.62,0,0,1-.56-0.26c-0.2.06,0.82,0.92,0.16,0.72l-0.27-.19c0.06,0.08.49,0.39,0.19,0.25a2,2,0,0,0-.29-0.19c0.08,0.07.42,0.4,0.23,0.33l-0.28-.25c-0.44-.12.56,0.77,0.58,1.08a4,4,0,0,0-1.2-.82l-0.1-.1c-0.21,0,.32.81,0.35,1.25-0.72-.76-0.62-0.11-1.06-0.54a3.3,3.3,0,0,1,.36.77c-0.13-.16.16,0.67-0.21-0.14h0c-0.41-.77-0.37-0.52-0.44-0.52l0.43,1.08c-0.42-.75-0.45-0.56-0.52-0.36s-0.14.42-.36-0.3c0,0.3,0,.3,0,0.59L263,298.8c-0.15-.14-0.2-0.2-0.33,0v-0.44c-0.06,0,0,1.79-.07,1.83l-0.07-.93c-0.18,0-.28-0.81-0.49,0a2.43,2.43,0,0,1,.07-0.44c-0.08,0-.16-0.66-0.33.61,0.12-.82-0.14-0.1-0.32.24l0.14-.6a2.72,2.72,0,0,1-.47,1.13c0-.09.1-0.48,0.1-0.32,0-.33-0.23.54-0.26,0.2l0.15-.36c-0.08-.07-0.13.14-0.33,0.55-0.14.21-.15-0.22,0-0.74-0.13.31-.35,0.71-0.35,0.54a1.88,1.88,0,0,1,.18-0.36c0-.43-0.52.54-0.38-0.05a3.06,3.06,0,0,0,.15-0.34,0.23,0.23,0,0,1,.16.18,9.06,9.06,0,0,1,.57-1.33c-0.21.37-.75,1.14-0.71,0.86l0.08-.18,0-.05c0-.06,0,0-0.09.05a0.37,0.37,0,0,0,0-.19c0.23-.41,0-0.27,0-0.31a6.45,6.45,0,0,0-.55.87,0.1,0.1,0,0,1,.09-0.06l0.05,0,0,0,0.13,0c-0.19.25-.37,0.45-0.24,0.13-0.23.32-.48,0.65-0.6,0.8a15.82,15.82,0,0,1,.85-1.67,2.86,2.86,0,0,0-1.23.79,0.88,0.88,0,0,1,.29-0.43,0.9,0.9,0,0,0,.23-0.15,1.48,1.48,0,0,0-.86.46c0.17-.35.58-0.47,0.37-0.5l0.19-.16c0.37-.56-0.07-0.28-0.54-0.09s-0.9.28-.33-0.34a1.12,1.12,0,0,1-.21.2c0.19-.39-0.07-0.47-0.28-0.62s-0.37-.35.12-0.75c0.18-.18-0.31,0-0.71,0l0.63-.22-0.77.09c-0.59-.08,1.49-0.67.43-0.67l-0.44.11c0.07-.1-0.3-0.24.21-0.29-0.08,0-.47,0-0.24,0l0.34,0-0.31-.07-0.3-.08c0.24-.18,1.38-0.08,1.43-0.28a5.67,5.67,0,0,0-1.25-.17,1,1,0,0,1-.56.11l-0.19-.09a7.11,7.11,0,0,0-2.78.21l0.64,0.2-0.49.1,0-.19c-0.46.13,0,.18,0.24,0.24a1.69,1.69,0,0,0-.54.13L253.7,296,254.2,296a2.53,2.53,0,0,0-1,.15,7.1,7.1,0,0,1,1.2-.06c-0.45.15-.83,0.18-0.42,0.24a1.15,1.15,0,0,1-.55,0,1.14,1.14,0,0,0,.72.25c-0.55.21,0.21,0.33-.74,0.52a2.14,2.14,0,0,1,.85.11c-1.17.1,0,.38-1.18,0.68,1-.15.61,0.38,1.24,0.41-0.08,0-.25.05-0.21,0a1.81,1.81,0,0,1-.46.48,7.14,7.14,0,0,1,1.6-.32,9,9,0,0,1-1.67.7,11.33,11.33,0,0,0,1.26-.32,3.71,3.71,0,0,1-.78.59c1-.47.21,0,0.85-0.18-0.37.42-.86,0.53-0.46,0.56A1.05,1.05,0,0,1,253.8,300.16Zm4.83,2.21h0Zm0.35,0.16a0.32,0.32,0,0,0-.14-0.09,0.76,0.76,0,0,1,.22-0.36A1.06,1.06,0,0,0,259,302.54Zm1.5-4c0.07-.06,0,0,0,0.16l-0.08,0,0,0.06Z" transform="translate(-71.19 -34.19)"/><path class="cls-12" d="M260,299.15l0,0-0.06.13,0.11-.16h0Z" transform="translate(-71.19 -34.19)"/><path class="cls-12" d="M259.15,290.72h0l-0.06-.06Z" transform="translate(-71.19 -34.19)"/><polygon class="cls-12" points="193.23 270.04 193.2 269.89 193.19 270.03 193.23 270.04"/><path class="cls-12" d="M256.46,290.4l-0.14-.08Z" transform="translate(-71.19 -34.19)"/><path class="cls-12" d="M255.85,291H255.6A0.87,0.87,0,0,0,255.85,291Z" transform="translate(-71.19 -34.19)"/><path class="cls-12" d="M255.24,291.47l0.23,0.13h0Z" transform="translate(-71.19 -34.19)"/><path class="cls-12" d="M264.91,286.76l0,0C265,286.65,265,286.68,264.91,286.76Z" transform="translate(-71.19 -34.19)"/><path class="cls-12" d="M261.49,287.86a1.86,1.86,0,0,1,.07-0.3C261.49,287.52,261.45,287.52,261.49,287.86Z" transform="translate(-71.19 -34.19)"/><path class="cls-12" d="M268.87,288.28h0l0,0v0Z" transform="translate(-71.19 -34.19)"/><path class="cls-12" d="M261.7,287.56c-0.07-.12-0.11-0.09-0.15,0S261.66,287.66,261.7,287.56Z" transform="translate(-71.19 -34.19)"/><path class="cls-12" d="M254.11,294.32l0,0h0.1Z" transform="translate(-71.19 -34.19)"/><path class="cls-12" d="M254.18,294.37l0.07,0S254.25,294.38,254.18,294.37Z" transform="translate(-71.19 -34.19)"/><path class="cls-12" d="M254.4,294.5l-0.15-.09S254.23,294.47,254.4,294.5Z" transform="translate(-71.19 -34.19)"/><path class="cls-12" d="M254.54,293.44l-0.22-.06Z" transform="translate(-71.19 -34.19)"/><path class="cls-12" d="M254.55,293.15c-0.07.05-.51,0.05-0.39,0.18l0.17,0C254,293.26,254.9,293.3,254.55,293.15Z" transform="translate(-71.19 -34.19)"/><path class="cls-12" d="M257.47,293.09l-0.22.08a1.27,1.27,0,0,1,.57.23C258.55,293.49,257.32,293.25,257.47,293.09Z" transform="translate(-71.19 -34.19)"/><path class="cls-12" d="M258,292.82a1.09,1.09,0,0,0,.43.23A0.77,0.77,0,0,0,258,292.82Z" transform="translate(-71.19 -34.19)"/><path class="cls-12" d="M260.32,290.6l0.23,0.51A1.82,1.82,0,0,0,260.32,290.6Z" transform="translate(-71.19 -34.19)"/><polygon class="cls-12" points="188.84 253.41 188.65 253.1 188.76 253.61 188.84 253.41"/><polygon class="cls-12" points="190.31 257.16 190.31 257.25 190.34 257.02 190.31 257.16"/><path class="cls-12" d="M265.45,292.57l0.53-.45A1.41,1.41,0,0,0,265.45,292.57Z" transform="translate(-71.19 -34.19)"/><path class="cls-12" d="M267,294.18c-0.33.1-.54,0.19-0.2,0.17C266.8,294.3,267.06,294.19,267,294.18Z" transform="translate(-71.19 -34.19)"/><polygon class="cls-12" points="192.39 264.5 192.34 264.27 192.34 264.48 192.39 264.5"/><ellipse class="cls-10" cx="232.16" cy="296.13" rx="6.34" ry="6.46"/><ellipse class="cls-10" cx="191.15" cy="303.99" rx="6.34" ry="6.46"/><line class="cls-13" x1="123.34" y1="336.44" x2="123.34" y2="336.44"/><path class="cls-10" d="M223.15,340.46a6.27,6.27,0,0,0,8.83,1.62,6.54,6.54,0,0,0,1.59-9,6.27,6.27,0,0,0-8.83-1.62A6.54,6.54,0,0,0,223.15,340.46Z" transform="translate(-71.19 -34.19)"/><path class="cls-10" d="M409.15,203.73a6.46,6.46,0,1,0,6.74,6A6.42,6.42,0,0,0,409.15,203.73Z" transform="translate(-71.19 -34.19)"/><path class="cls-14" d="M107.92,191.59c0,23.35-4.4,23.35-4.4,46.71s4.4,23.35,4.4,46.71-4.4,23.36-4.4,46.71,4.4,23.35,4.4,46.71-4.4,23.36-4.4,46.72,4.4,23.36,4.4,46.72" transform="translate(-71.19 -34.19)"/><path class="cls-14" d="M77.79,437.4c35.1,0,35.1,4.4,70.2,4.4s35.1-4.4,70.2-4.4,35.1,4.4,70.2,4.4,35.1-4.4,70.2-4.4,35.1,4.4,70.21,4.4,35.1-4.4,70.21-4.4" transform="translate(-71.19 -34.19)"/><line class="cls-15" x1="115.05" y1="405.11" x2="115.05" y2="412.02"/><line class="cls-15" x1="159.07" y1="401.91" x2="159.07" y2="412.02"/><line class="cls-15" x1="197.49" y1="405.41" x2="197.49" y2="412.02"/><line class="cls-15" x1="232.16" y1="405.41" x2="232.16" y2="412.02"/><line class="cls-15" x1="262.82" y1="405.41" x2="262.82" y2="412.02"/><line class="cls-15" x1="300.24" y1="401.91" x2="300.24" y2="412.02"/><line class="cls-15" x1="338.37" y1="405.41" x2="338.37" y2="415.71"/><text class="cls-16" transform="translate(335.72 255.25) scale(0.61 1)">Wee<tspan x="39.49" y="0">k</tspan><tspan x="49.42" y="0">end O</tspan><tspan x="104.47" y="0">u</tspan><tspan x="114.32" y="0">t</tspan><tspan x="122.47" y="0">l</tspan><tspan x="127.11" y="0">i</tspan><tspan x="131.14" y="0">er</tspan></text><path class="cls-11" d="M137.68,403.66c51.09-32.25,53.44-28.54,104.53-60.79s48.75-36,99.84-68.23,53.44-28.54,104.54-60.79" transform="translate(-71.19 -34.19)"/><path class="cls-17" d="M137.68,403.66c51.09-32.25,53.44-28.54,104.53-60.79s48.75-36,99.84-68.23,53.44-28.54,104.54-60.79" transform="translate(-71.19 -34.19)"/><text class="cls-18" transform="translate(149.81 130.21) scale(0.88 1)">D<tspan class="cls-19" x="20.85" y="0">a</tspan><tspan class="cls-19" x="35.74" y="0">t</tspan><tspan x="44.85" y="0">a An</tspan><tspan x="105.79" y="0">a</tspan><tspan x="122.4" y="0">l</tspan><tspan x="127.84" y="0">y</tspan><tspan x="142.27" y="0">st </tspan></text><text class="cls-20" transform="translate(124.84 78.21) scale(0.88 1)">Jon<tspan class="cls-19" x="67.12" y="0">a</tspan><tspan x="86.33" y="0">t</tspan><tspan x="99.91" y="0">h</tspan><tspan x="117.95" y="0">a</tspan><tspan x="139.14" y="0">n </tspan><tspan class="cls-21" x="167.81" y="0">T</tspan><tspan x="185.71" y="0">ow</tspan></text><text class="cls-22" transform="translate(73.81 42.21) rotate(-17.5) scale(1.22 1)">Im</text><text x="-71.19" y="-34.19"/></svg>