<svg id="Layer_3" data-name="Layer 3" xmlns="http://www.w3.org/2000/svg" viewBox="0 0 432.53 422.27"><defs><style>.cls-1,.cls-14,.cls-15,.cls-17,.cls-2,.cls-3,.cls-4,.cls-5{fill:none;}.cls-1,.cls-13{stroke:#28abe3;}.cls-1,.cls-10,.cls-13,.cls-14,.cls-15,.cls-17,.cls-2,.cls-3,.cls-4,.cls-5{stroke-miterlimit:10;}.cls-1,.cls-10,.cls-13,.cls-17,.cls-2,.cls-3,.cls-4{stroke-width:2.49px;}.cls-1{stroke-dasharray:29.89 4.98;opacity:0.3;}.cls-2,.cls-3,.cls-4,.cls-5{stroke:#c4c4c4;}.cls-3{stroke-dasharray:30.03 5;}.cls-4{stroke-dasharray:30.02 5;}.cls-5{stroke-width:1.87px;}.cls-6{fill:#c4c4c4;}.cls-7{font-size:21.41px;}.cls-16,.cls-18,.cls-20,.cls-22,.cls-7,.cls-9{fill:#616161;font-family:Noteworthy;font-weight:700;}.cls-8{letter-spacing:-1.09px;}.cls-9{font-size:23.68px;}.cls-10,.cls-11,.cls-13{fill:#fff;}.cls-10{stroke:#1fda9a;}.cls-12{fill:#3bdfa7;}.cls-14{stroke:#565656;stroke-width:4.4px;}.cls-15{stroke:#606060;stroke-width:3.43px;}.cls-16{font-size:21.28px;}.cls-17{stroke:#5b5b5b;}.cls-18{font-size:30px;}.cls-19{letter-spacing:-1.14px;}.cls-20{font-size:38.69px;}.cls-21{letter-spacing:-6.84px;}.cls-22{font-size:32px;}</style></defs><title>fit-model</title><line class="cls-1" x1="68.82" y1="248.78" x2="411.17" y2="248.78"/><line class="cls-1" x1="227.57" y1="357.57" x2="227.57" y2="144.9"/><path class="cls-2" d="M119.94,346.13c5.26,0,10.23,0,14.95,0" transform="translate(-72.49 -49.44)"/><path class="cls-3" d="M139.9,346.2c76.85,0.56,83.47,4.33,172.59,4.33,90.07,0,95.87-3.85,175.09-4.34" transform="translate(-72.49 -49.44)"/><path class="cls-2" d="M490.08,346.17c4.72,0,9.69,0,14.95,0" transform="translate(-72.49 -49.44)"/><path class="cls-2" d="M119.94,390.08c5.26,0,10.23,0,14.95,0" transform="translate(-72.49 -49.44)"/><path class="cls-3" d="M139.9,390.15c76.85,0.56,83.47,4.33,172.59,4.33,90.07,0,95.87-3.85,175.09-4.34" transform="translate(-72.49 -49.44)"/><path class="cls-2" d="M490.08,390.12c4.72,0,9.69,0,14.95,0" transform="translate(-72.49 -49.44)"/><path class="cls-2" d="M120,245.71c5.26,0,10.23,0,14.95,0" transform="translate(-72.49 -49.44)"/><path class="cls-4" d="M139.92,245.78c76.84,0.56,83.46,4.33,172.56,4.33,90.06,0,95.86-3.85,175.07-4.34" transform="translate(-72.49 -49.44)"/><path class="cls-2" d="M490.05,245.75c4.72,0,9.69,0,14.95,0" transform="translate(-72.49 -49.44)"/><path class="cls-2" d="M120,198.4c5.26,0,10.23,0,14.95,0" transform="translate(-72.49 -49.44)"/><path class="cls-4" d="M139.92,198.47c76.84,0.56,83.46,4.33,172.56,4.33,90.06,0,95.86-3.85,175.07-4.34" transform="translate(-72.49 -49.44)"/><path class="cls-2" d="M490.05,198.44c4.72,0,9.69,0,14.95,0" transform="translate(-72.49 -49.44)"/><path class="cls-5" d="M408.1,370.25c-17.67-35.15-4.93-73.84,29.14-87.24" transform="translate(-72.49 -49.44)"/><path class="cls-6" d="M410.33,354.82a0.93,0.93,0,0,0-1,.84l-1.38,14.2-12.29-7.26a0.93,0.93,0,0,0-.95,1.61l13.55,8a0.93,0.93,0,0,0,1.4-.71l1.52-15.66A0.93,0.93,0,0,0,410.33,354.82Z" transform="translate(-72.49 -49.44)"/><text class="cls-7" transform="translate(175.62 412.96) scale(0.92 1)">C<tspan x="15.04" y="0">u</tspan><tspan x="25.51" y="0">p</tspan><tspan x="35.98" y="0">s </tspan><tspan x="50.99" y="0">o</tspan><tspan x="61.46" y="0">f C</tspan><tspan x="89.54" y="0">o</tspan><tspan class="cls-8" x="100.01" y="0">f</tspan><tspan class="cls-8" x="106.86" y="0">f</tspan><tspan x="114.33" y="0">ee</tspan></text><text class="cls-9" transform="matrix(-0.01, -0.84, 1, -0.02, 23.31, 293.41)">Work Do<tspan x="87.95" y="0">n</tspan><tspan x="100.7" y="0">e</tspan></text><path class="cls-10" d="M193.46,345.46a6.21,6.21,0,1,0,12.42,0c0-3.46.65-6.26-2.78-6.26S193.46,342,193.46,345.46Z" transform="translate(-72.49 -49.44)"/><ellipse class="cls-10" cx="271.04" cy="176.9" rx="6.21" ry="6.26"/><ellipse class="cls-10" cx="270.97" cy="233.94" rx="6.21" ry="6.26"/><ellipse class="cls-10" cx="239.99" cy="217.99" rx="6.21" ry="6.26"/><ellipse class="cls-11" cx="307.61" cy="248.68" rx="6.21" ry="6.26"/><path class="cls-12" d="M372.43,298.12a0.77,0.77,0,0,0,.54-0.05l-0.73-.06Z" transform="translate(-72.49 -49.44)"/><path class="cls-12" d="M373.8,297.73a6.86,6.86,0,0,0-1.63-.23c0.69,0.13.4,0.13,1.23,0.26,0.08,0.06-.24.1-0.51,0.08,0.19,0-.16.1,0.29,0.14s0.59-.15.13-0.29A2.87,2.87,0,0,1,373.8,297.73Z" transform="translate(-72.49 -49.44)"/><path class="cls-12" d="M377.1,293.85L377,293.8Z" transform="translate(-72.49 -49.44)"/><path class="cls-12" d="M379.79,293.29a0.28,0.28,0,0,0,0,.16A0.34,0.34,0,0,0,379.79,293.29Z" transform="translate(-72.49 -49.44)"/><path class="cls-12" d="M380.22,294.09l0-.05C380.2,294.1,380.21,294.14,380.22,294.09Z" transform="translate(-72.49 -49.44)"/><path class="cls-12" d="M377.1,293.85l0.19,0.14C377.16,293.8,377.16,293.87,377.1,293.85Z" transform="translate(-72.49 -49.44)"/><path class="cls-12" d="M372.17,296.64a0.57,0.57,0,0,0,.18.1l-0.07-.07Z" transform="translate(-72.49 -49.44)"/><path class="cls-12" d="M376.62,295.09v0l0.22,0.2Z" transform="translate(-72.49 -49.44)"/><path class="cls-12" d="M376.22,295.86s-0.5-.32-0.73-0.46a1.92,1.92,0,0,1,.34.25Z" transform="translate(-72.49 -49.44)"/><path class="cls-12" d="M374.68,296.86l0.08,0Z" transform="translate(-72.49 -49.44)"/><path class="cls-12" d="M377.14,294.75l0.15,0.16Z" transform="translate(-72.49 -49.44)"/><path class="cls-12" d="M371.21,300.07l0.11,0A0.15,0.15,0,0,0,371.21,300.07Z" transform="translate(-72.49 -49.44)"/><polygon class="cls-12" points="301.56 248.68 301.6 248.69 301.94 248.7 301.56 248.68"/><path class="cls-12" d="M380.74,294.93h0C380.72,295,380.73,295,380.74,294.93Z" transform="translate(-72.49 -49.44)"/><path class="cls-12" d="M383.68,298.9c0.56,0,.66.27,1.29,0.29A6.66,6.66,0,0,0,383.68,298.9Z" transform="translate(-72.49 -49.44)"/><path class="cls-12" d="M372.25,296.62a0.1,0.1,0,0,1,0-.06S372.23,296.6,372.25,296.62Z" transform="translate(-72.49 -49.44)"/><path class="cls-12" d="M385,299.19h0Z" transform="translate(-72.49 -49.44)"/><path class="cls-12" d="M382.11,295.12l0.14-.23Z" transform="translate(-72.49 -49.44)"/><path class="cls-12" d="M381.43,293.82v0.09A0.16,0.16,0,0,0,381.43,293.82Z" transform="translate(-72.49 -49.44)"/><path class="cls-12" d="M383.14,294.84s-0.07.11,0,.07l0-.06C383.12,294.9,383.08,294.93,383.14,294.84Z" transform="translate(-72.49 -49.44)"/><path class="cls-12" d="M383.62,295.37l0.09-.09h0Z" transform="translate(-72.49 -49.44)"/><path class="cls-12" d="M373.37,303.82a5.21,5.21,0,0,1,.39-0.4C373.43,303.72,373.17,303.66,373.37,303.82Z" transform="translate(-72.49 -49.44)"/><path class="cls-12" d="M372.51,296.7a0.73,0.73,0,0,1-.26-0.09l0,0Z" transform="translate(-72.49 -49.44)"/><path class="cls-12" d="M386.53,291.34l0.11,0.23A0.34,0.34,0,0,0,386.53,291.34Z" transform="translate(-72.49 -49.44)"/><path class="cls-12" d="M382.53,306.54l0,0.08S382.54,306.62,382.53,306.54Z" transform="translate(-72.49 -49.44)"/><path class="cls-12" d="M387.18,292a1.59,1.59,0,0,0-.24.37l0.14-.08Z" transform="translate(-72.49 -49.44)"/><path class="cls-12" d="M373.76,303.42h0Z" transform="translate(-72.49 -49.44)"/><path class="cls-12" d="M371.7,303c0.11,0.21.74-.31,1.16-0.51,0.32,0.09-.45.41-0.75,0.71,0.27,0,1-.28,1-0.17a1.14,1.14,0,0,1-.28.2c0.62-.24.33,0.39,1.07,0l-0.14.15c0.29-.28.61-0.55,0.84-0.73,0.06,0.05.49-.23,0.1,0.14a0.7,0.7,0,0,0-.33.18l0.23-.09a2,2,0,0,1-.71.45c0.31,0,.91-0.3.83-0.06-0.52.54-.39-0.06-0.76,0.53l0.07-.35c-0.77.9,0-.16-0.87,0.79,0.06,0.39.51,0,.58,0.38,0.34-.25.41-0.45,0.75-0.7,0.79-.29-1,1.61-0.12,1.08,0.39-.32,1-1,0.85-0.53l-0.58.62c0.19,0.25.86-.87,0.76-0.24a2.79,2.79,0,0,1-.37.2c-0.23.66,0.39-.3,0.5-0.22l-0.4.64a10.12,10.12,0,0,0,1.24-.18,1.63,1.63,0,0,0-.32.61c0.55-.13.78,0.47,1.08,1l0.36-.56a0.67,0.67,0,0,1-.1.41c0.09,0.28.13-.39,0.28-0.61a0.6,0.6,0,0,1-.1.56c0.46-.44,1-0.94,1.21-0.23l-0.09.18c0.21,0.3.44-1.27,0.56-.65l-0.05.11c0.47,0.32,1-.25,1.4.69,0-.93.55,0.38,0.43-0.92a2.73,2.73,0,0,0,.81,1.2,5.65,5.65,0,0,0,.1-1l0.16,0.66v-0.74l0.3,0.76,0.08-.2a0.93,0.93,0,0,1-.23-0.46c0.1-.34.59,0.32,0.71,0.64l0.14-.35,0.12-.35a1.23,1.23,0,0,1,0,.56c0-.74.31,0.65,0.3,0a2.62,2.62,0,0,1-.19-0.51c0.26,0.34.52,0.22,0.62,0l0.17,0.44a3.22,3.22,0,0,0,.94-0.78,1.65,1.65,0,0,1-.61-0.92l0.44,0.57a3.19,3.19,0,0,1-.43-0.69,1.66,1.66,0,0,1,.6.86v-0.31c0.13,0.17.16,0.28,0.31,0.51-0.2-.4.7,0.38,0.32-0.31l0.14,0.16a3.22,3.22,0,0,0,.54-0.83,3.47,3.47,0,0,1-.52-0.85,1.34,1.34,0,0,0,1-.14,2.2,2.2,0,0,0-.6-0.67c0.45,0.34.57,0.08,0.81,0.45a1.17,1.17,0,0,0,0-1,1.41,1.41,0,0,1-.48-0.22c0-.11.28,0,0.51,0.14l0,0c-0.24-.41.24-0.42,0.68-0.5s0.88-.2.39-0.61l0,0-0.22-.3-0.22-.29a3.61,3.61,0,0,1,.74.23c-0.74-.69.32-0.64-0.19-1.14,0.85,0,.86-0.24.8-0.52s-0.21-.56.32-0.73h-0.39c-0.38-.12.23-0.11,0.32-0.18a1.6,1.6,0,0,1-.57,0,1.38,1.38,0,0,1,.13-1.27,5.42,5.42,0,0,0,.54-1.46c0-.37-2,0.34-1.2-0.28l0.72-.1a1,1,0,0,1-.71-0.8,0.88,0.88,0,0,0-.68-0.71,0.7,0.7,0,0,1,.38-0.09c0.41-.37-0.23-0.44-0.59-0.22a2.2,2.2,0,0,1,.48-0.39c0.19-.29-0.74.08-0.34-0.27a0.34,0.34,0,0,1,.21-0.07c-0.26.07-.19-0.37-0.63,0,0.09-.36-0.47-0.18-0.3-0.55-0.59.35,0-.51-0.76,0.11,0.75-.65.31-0.86-0.12-0.61,0.25-.18.12-0.31,0.45-0.57-0.14-.11-0.38-0.08-0.7.32,0.54-1.12-1.05.37-.25-0.94a14.54,14.54,0,0,1-1.74.23c0.48-.88.44,0.14,1-0.77-0.59.11-1.17,0.8-1.41,0.42a0.92,0.92,0,0,1,.33-0.51c-0.53.21-.72-0.39-1.23,0a0.67,0.67,0,0,1,.15-0.24c-0.08,0-.12-0.18-0.24.25l0.1-.1a8.27,8.27,0,0,1-.71,1.58c0.43-1.22-.22-0.39.33-1.94a1.24,1.24,0,0,0-.23.56,0.81,0.81,0,0,1,.11-0.6c-0.3.18-.31,0.68-0.52,0.63a5.19,5.19,0,0,1,.17-0.54c-0.19.4-.36,0.8-0.51,0.6a0.44,0.44,0,0,1,.08-0.29c-0.34,0-.62,1.08-0.91.65,0.12-.94-0.1-0.32-0.11-1.14l-0.19.25,0.08,0.4c-0.17,0-.28.6-0.42,0.33l0.1-.34-0.29.17,0.19,0.3c-0.12.43,0.08,1-.12,0.82a1.44,1.44,0,0,1-.26-0.47h0c0,0.27-.07.55-0.2,0.37s-0.11-.9-0.16-1.07c0,0.69-.34.24-0.27,1a4.33,4.33,0,0,0-.12-0.68l0.06,0.56a1.28,1.28,0,0,1-.2-0.58c-0.23,0,.3,1,0,0.62a1.29,1.29,0,0,1,0-.22c-0.31-.16-0.36.45-0.65,0.28-0.34-.75.13-0.26-0.17-0.89-0.31.27-.31,1.17-0.67,1.14l0.09,0.06c0.49,1.06-.47-0.42-0.36.15a2.53,2.53,0,0,0-.21-0.47c-0.29,0-.27.49-0.32,1l-0.14-.27a0.87,0.87,0,0,0-.56.06,1.45,1.45,0,0,0,.37.58c-0.7-.54-0.73-0.19-0.69.13s0.14,0.65-.51.32a0.33,0.33,0,0,0-.14-0.23l0,0.43a3.36,3.36,0,0,0,.61.38,0.76,0.76,0,0,1,.28.49,2,2,0,0,0-.89-0.65c0.13,0.09.25,0.21,0.37,0.31-0.81-.43.79,0.65,0.19,0.44L374.7,294a0.69,0.69,0,0,1,.2.43,3.23,3.23,0,0,1-.57-0.51c-0.05.13,0.78,0.82,0.24,0.58-0.11-.13-0.08-0.2-0.18-0.33-0.64-.29-0.5-0.17-0.65-0.15h0l-0.39,0,0.19,0c1.24,0.92.06,0.43,0.86,1.08a2.84,2.84,0,0,0-1.06-.6,1.49,1.49,0,0,1-.57-0.15c0.44,0.33-.47,0,0.18.47a1.12,1.12,0,0,1-.55-0.14,1.06,1.06,0,0,0,.6.23c0.59,0.46-1,.18-0.18.81a11.82,11.82,0,0,0,1.31.89,1.88,1.88,0,0,1-.75-0.24c-0.33,0-.31.16-0.09,0.32a1.94,1.94,0,0,0-.58-0.07c0,0.11.76,0.2,0.43,0.27a7.66,7.66,0,0,1-.83-0.24c0.17,0.16.55,0.33,0.73,0.47a2.18,2.18,0,0,1-.79-0.22,1.15,1.15,0,0,0,.87.5l0.21-.06a1.56,1.56,0,0,1-.61-0.07c-0.44-.17.23-0.14,0.44-0.12l0.12,0.1c1.26,0.08-.16-0.33-0.06-0.5l0.89,0.22-0.72-.29a2.49,2.49,0,0,1,.87.19c0.46,0-.3-0.15.21-0.13a0.45,0.45,0,0,1,.15,0l-0.24-.15a1.15,1.15,0,0,1,.49.16c0.55,0-.6-0.43.08-0.3l0.05,0a7.78,7.78,0,0,0-1.33-.63l0.81,0.2,0.8,0.22-0.62-.25a0.41,0.41,0,0,1,.34.06,5.38,5.38,0,0,0-.67-0.29c0.6,0.11-.14-0.43.86,0a2.09,2.09,0,0,1-.68-0.32c1.06,0.45-.11-0.22.41-0.09a1.7,1.7,0,0,0,.71.39c-0.87-.51.27-0.07,0.14-0.21-0.69-.4-0.2-0.32-0.35-0.58a3.05,3.05,0,0,0,.82.11l0.1,0.08c-0.63-.5-0.43-0.53-0.49-0.71a4.34,4.34,0,0,1,.64.62l0-.06a1,1,0,0,1-.3-0.39l0.44,0.41c0-.09-0.38-0.65,0-0.47a6.62,6.62,0,0,1-1.33-1.42,4.84,4.84,0,0,1,.64.7s-0.14-.22,0-0.15l0.3,0.42c0.21,0.11-.27-0.33-0.19-0.34,0.3,0.32.25,0.2,0.47,0.45,0,0-.16-0.1-0.06,0a1.42,1.42,0,0,1,.56.38,2,2,0,0,1-.4-0.51,1.94,1.94,0,0,1,.56.49,1.82,1.82,0,0,0-.33-0.55,1.81,1.81,0,0,1,.34.34,1,1,0,0,0-.3-0.74l0,0v0h0c-0.2-.67.57,0.07,0.58-0.27l0.11,0.19a1.46,1.46,0,0,0,0-.71,1.57,1.57,0,0,1,.34.56c0-.18-0.07-0.43.19-0.14,0.06,0.38.15,0.3,0,.29,0.18,0.13.31,0.46,0.22-.14,0.16,0.53.31,0.63,0.3,0.46l-0.2-.35c0-.1.09-0.07,0.15,0l0.2,0.71c0.22,0.4.18,0,.19-0.29s0.05-.57.27,0.15c0-.51-0.18-0.34-0.25-0.93a1.8,1.8,0,0,1,.26.58c0.09,0.27.15,0.52,0.17,0.52,0.16,0.39,0-1.08.14-.82a3.15,3.15,0,0,1,0-1.2,2.9,2.9,0,0,1,.16,1.3s0-.06,0-0.15a0.89,0.89,0,0,0,0,.49v-0.26a1.31,1.31,0,0,1,.18.66,0.88,0.88,0,0,0,0-.56c0.13,0.38.19,0,.3,0.26a2,2,0,0,1,0-.45c0.18,0.33.1-.49,0.25-0.6,0.05,0.4-.09.95,0.06,0.62a2.83,2.83,0,0,1-.09.9c0.15-.5.14,0.36,0.16,0.45l-0.07.2c0-.12.06-0.11,0.08-0.11l0.05-.52a0.6,0.6,0,0,1,0,.31c0.09-.33.11-0.86,0.26-1.31,0,0.27.21-.26,0.08,0.43-0.09-.26-0.13.68-0.25,0.78,0-.08.06-0.07,0.07,0a0.86,0.86,0,0,1,0,.18c0,0.63.21-.75,0.34-0.7a1.68,1.68,0,0,0-.12.65,3.16,3.16,0,0,1,.27-0.91c0,0.31.16-.19,0.2-0.15v-0.15a0.5,0.5,0,0,1,.28-0.4c-0.09.29-.13,0.18-0.14,0.31,0.3-.62-0.07.73,0.18,0.33-0.05.26-.27,0.68-0.3,0.86,0.29-.44-0.12.53,0.13,0.19a2.48,2.48,0,0,1,.43-0.8l-0.32.25,0.21-.32,0.22-.32a1.32,1.32,0,0,1-.25.15,1.92,1.92,0,0,0,.31-0.66c-0.24.76,0.36-.33,0.24,0.2l-0.58,1.16c-0.16.55,0.52-.48,0.51-0.1l0.07-.22c0.29-.43.14,0,0.3-0.14a7.43,7.43,0,0,0-.44.74,3.22,3.22,0,0,0,.6-0.59l-0.28.51c0,0.26.91-.87,0.95-0.63a8.17,8.17,0,0,1-.79.79s0,0.12.21-.1c-0.17.22,0.49-.34,0.25,0a1.6,1.6,0,0,1,.49-0.38l-0.15.15a2.82,2.82,0,0,0,.58-0.51c-0.42.54-.34,0.6-0.22,0.66s0.25,0.1-.18.51a0.84,0.84,0,0,1,.46.1c-0.11.07-.18,0.12-0.15,0.08-0.27.34,1.09-.6,0.81-0.2a1.91,1.91,0,0,1-.57.3c-1.22.75,0.28,0.06-.41,0.56l-0.08,0c-0.4.28,0.56-.08,0.53,0.09l-0.2.09a1.74,1.74,0,0,1,1.24,0,3.37,3.37,0,0,0-.83.25,5.49,5.49,0,0,1,1-.25,5.19,5.19,0,0,1-1.08.49l-0.07-.09c-0.73.29,0.07,0.11-.05,0.21L384,297c0.14,0.11,1-.09,1,0.11l0.25-.07c0.86-.06-0.46.18,0.19,0.17l-0.85.18a3.45,3.45,0,0,1,1,.23c-0.64,0-1-.11-1.39-0.13,0,0.06.09,0.18,0.53,0.17-0.09,0-.3,0-0.17-0.06,0.7,0,1,.09,1,0.24-1.68.06-.4,0.38-1.72,0.44,0.62,0.23-.29.35-0.22,0.54a7.92,7.92,0,0,1,1.35.31c0.08,0.08,0,.1,0,0.09h-0.83a3.53,3.53,0,0,1-.57-0.19,3.63,3.63,0,0,1-.92-0.14c0.47,0.12.66,0.22,0.47,0.22l0.61,0.1c0.65,0.36-1.11-.22-0.48.12l-0.38-.18a1.76,1.76,0,0,0,.87.71,2.76,2.76,0,0,1-.56-0.26c-0.19.05,0.82,0.91,0.17,0.7l-0.27-.19c0.06,0.08.49,0.39,0.19,0.24a2.1,2.1,0,0,0-.29-0.19c0.08,0.07.42,0.4,0.23,0.33l-0.28-.25c-0.43-.13.56,0.77,0.58,1.06a4.23,4.23,0,0,0-1.19-.83l-0.09-.1c-0.2,0,.32.8,0.36,1.24-0.71-.77-0.6-0.13-1-0.56a3.43,3.43,0,0,1,.35.77c-0.13-.16.16,0.67-0.2-0.14h0c-0.4-.78-0.36-0.52-0.43-0.53l0.42,1.08c-0.41-.75-0.44-0.56-0.51-0.36s-0.13.42-.35-0.3c0,0.3,0,.3,0,0.59l-0.11-.61c-0.14-.14-0.19-0.2-0.32,0V301c-0.06,0,0,1.79-.07,1.83l-0.07-.93c-0.18,0-.27-0.81-0.47,0a2.52,2.52,0,0,1,.07-0.44c-0.08,0-.16-0.65-0.32.61,0.12-.82-0.13-0.1-0.31.24l0.14-.6a2.78,2.78,0,0,1-.46,1.13c0-.08.1-0.48,0.1-0.32,0-.33-0.22.54-0.25,0.2l0.15-.37c-0.08-.07-0.13.14-0.32,0.55-0.14.21-.14-0.22,0-0.74-0.13.31-.34,0.71-0.35,0.54a1.94,1.94,0,0,1,.17-0.37c0-.43-0.51.55-0.37,0a3.18,3.18,0,0,0,.15-0.34,0.22,0.22,0,0,1,.15.18,9.39,9.39,0,0,1,.57-1.33c-0.21.37-.73,1.14-0.7,0.87l0.08-.18,0-.05c0-.06,0,0-0.09.06a0.38,0.38,0,0,0,0-.19c0.22-.41.05-0.27,0-0.31a6.68,6.68,0,0,0-.55.87,0.1,0.1,0,0,1,.09-0.06l0.05,0,0,0,0.12,0c-0.19.25-.36,0.45-0.24,0.13-0.23.33-.48,0.65-0.6,0.8a16,16,0,0,1,.84-1.67,3,3,0,0,0-1.21.81,0.9,0.9,0,0,1,.29-0.44,0.92,0.92,0,0,0,.23-0.15,1.52,1.52,0,0,0-.85.48c0.17-.34.57-0.48,0.37-0.5l0.19-.16c0.37-.56-0.07-0.27-0.53-0.07s-0.9.29-.32-0.32a1.16,1.16,0,0,1-.21.2c0.19-.38-0.06-0.46-0.27-0.6s-0.37-.34.12-0.73c0.18-.18-0.31,0-0.71,0l0.62-.22-0.76.1c-0.59-.07,1.49-0.66.44-0.65l-0.44.11c0.07-.09-0.3-0.23.21-0.28-0.08,0-.47,0-0.24,0l0.34,0-0.31-.07-0.3-.08a14.43,14.43,0,0,0,1.43-.28,6,6,0,0,0-1.25-.17,1.07,1.07,0,0,1-.56.1l-0.19-.09a7.21,7.21,0,0,0-2.78.21l0.64,0.19-0.49.1,0-.19c-0.46.13,0,.18,0.24,0.24a1.71,1.71,0,0,0-.54.13l0.49,0.07,0.49,0.06a2.57,2.57,0,0,0-1,.15,7.24,7.24,0,0,1,1.2-.06c-0.45.15-.83,0.18-0.42,0.24a1.17,1.17,0,0,1-.55,0,1.14,1.14,0,0,0,.72.24c-0.55.21,0.21,0.32-.74,0.51a2.17,2.17,0,0,1,.85.11c-1.17.11,0,.38-1.18,0.68,1-.16.61,0.37,1.24,0.4-0.08,0-.25.05-0.21,0a1.83,1.83,0,0,1-.46.48,7.29,7.29,0,0,1,1.6-.33,9.09,9.09,0,0,1-1.66.71,11.36,11.36,0,0,0,1.26-.33,3.78,3.78,0,0,1-.78.6c1-.48.21,0,0.85-0.19-0.37.42-.85,0.54-0.46,0.56A1.06,1.06,0,0,1,371.7,303Zm4.78,2.12h0Zm0.34,0.16a0.31,0.31,0,0,0-.14-0.09,0.77,0.77,0,0,1,.22-0.36A1.08,1.08,0,0,0,376.83,305.29Zm1.49-4.05c0.07-.06,0,0,0,0.16l-0.08,0,0,0.06Z" transform="translate(-72.49 -49.44)"/><path class="cls-12" d="M377.85,301.9l0,0-0.06.13,0.11-.16h0Z" transform="translate(-72.49 -49.44)"/><path class="cls-12" d="M377,293.79h0l-0.06-.06Z" transform="translate(-72.49 -49.44)"/><polygon class="cls-12" points="309.66 257.52 309.62 257.37 309.61 257.51 309.66 257.52"/><path class="cls-12" d="M374.35,293.42l-0.14-.08Z" transform="translate(-72.49 -49.44)"/><path class="cls-12" d="M373.75,294H373.5A0.87,0.87,0,0,0,373.75,294Z" transform="translate(-72.49 -49.44)"/><path class="cls-12" d="M373.15,294.46l0.23,0.13h0Z" transform="translate(-72.49 -49.44)"/><path class="cls-12" d="M382.62,289.86l0,0C382.76,289.75,382.7,289.78,382.62,289.86Z" transform="translate(-72.49 -49.44)"/><path class="cls-12" d="M379.28,291a1.88,1.88,0,0,1,.06-0.3C379.28,290.64,379.24,290.63,379.28,291Z" transform="translate(-72.49 -49.44)"/><path class="cls-12" d="M386.52,291.32h0l0,0v0Z" transform="translate(-72.49 -49.44)"/><path class="cls-12" d="M379.49,290.68c-0.06-.12-0.11-0.09-0.14,0S379.45,290.77,379.49,290.68Z" transform="translate(-72.49 -49.44)"/><path class="cls-12" d="M372,297.25l0,0h0.1Z" transform="translate(-72.49 -49.44)"/><path class="cls-12" d="M372.08,297.3l0.07,0S372.15,297.31,372.08,297.3Z" transform="translate(-72.49 -49.44)"/><path class="cls-12" d="M372.31,297.43l-0.15-.09S372.13,297.4,372.31,297.43Z" transform="translate(-72.49 -49.44)"/><path class="cls-12" d="M372.45,296.39l-0.22-.06Z" transform="translate(-72.49 -49.44)"/><path class="cls-12" d="M372.45,296.11c-0.07,0-.51.05-0.39,0.18l0.17,0C371.92,296.21,372.8,296.26,372.45,296.11Z" transform="translate(-72.49 -49.44)"/><path class="cls-12" d="M375.37,296.08l-0.22.08a1.32,1.32,0,0,1,.57.23C376.44,296.49,375.21,296.23,375.37,296.08Z" transform="translate(-72.49 -49.44)"/><path class="cls-12" d="M375.88,295.82a1.13,1.13,0,0,0,.42.23A0.79,0.79,0,0,0,375.88,295.82Z" transform="translate(-72.49 -49.44)"/><path class="cls-12" d="M378.15,293.69l0.23,0.52A1.88,1.88,0,0,0,378.15,293.69Z" transform="translate(-72.49 -49.44)"/><polygon class="cls-12" points="305.37 241.26 305.17 240.95 305.29 241.46 305.37 241.26"/><polygon class="cls-12" points="306.8 245.02 306.8 245.1 306.83 244.88 306.8 245.02"/><path class="cls-12" d="M383.12,295.61l0.53-.45A1.46,1.46,0,0,0,383.12,295.61Z" transform="translate(-72.49 -49.44)"/><path class="cls-12" d="M384.61,297.14c-0.33.1-.54,0.19-0.2,0.16C384.45,297.25,384.7,297.15,384.61,297.14Z" transform="translate(-72.49 -49.44)"/><polygon class="cls-12" points="308.81 251.98 308.76 251.75 308.77 251.95 308.81 251.98"/><ellipse class="cls-10" cx="345.08" cy="332.97" rx="6.21" ry="6.26"/><ellipse class="cls-10" cx="308.3" cy="213.29" rx="6.21" ry="6.26"/><path class="cls-11" d="M236.8,365.95a6.18,6.18,0,0,0,8.64,1.57A6.29,6.29,0,0,0,247,358.8a6.18,6.18,0,0,0-8.64-1.57A6.29,6.29,0,0,0,236.8,365.95Z" transform="translate(-72.49 -49.44)"/><path class="cls-12" d="M235.59,366.78a0.77,0.77,0,0,0,.41-0.35l-0.63.37Z" transform="translate(-72.49 -49.44)"/><path class="cls-12" d="M236.5,365.68a6.86,6.86,0,0,0-1.47.74c0.65-.28.41-0.12,1.16-0.48,0.1,0-.14.22-0.37,0.35,0.17-.08-0.08.18,0.32,0,0.43-.38.4-0.46-0.05-0.31A2.87,2.87,0,0,1,236.5,365.68Z" transform="translate(-72.49 -49.44)"/><path class="cls-12" d="M237,360.61h0Z" transform="translate(-72.49 -49.44)"/><path class="cls-12" d="M238.9,358.6a0.28,0.28,0,0,0,.08.14A0.34,0.34,0,0,0,238.9,358.6Z" transform="translate(-72.49 -49.44)"/><path class="cls-12" d="M239.71,359l0,0C239.71,359,239.74,359,239.71,359Z" transform="translate(-72.49 -49.44)"/><path class="cls-12" d="M237,360.61h0.24C237,360.53,237.08,360.6,237,360.61Z" transform="translate(-72.49 -49.44)"/><path class="cls-12" d="M234.53,365.71a0.57,0.57,0,0,0,.2,0l-0.1,0Z" transform="translate(-72.49 -49.44)"/><path class="cls-12" d="M237.32,361.91v0l0.29,0Z" transform="translate(-72.49 -49.44)"/><path class="cls-12" d="M237.43,362.77s-0.59,0-.86,0a1.92,1.92,0,0,1,.42,0Z" transform="translate(-72.49 -49.44)"/><path class="cls-12" d="M236.73,364.47h0Z" transform="translate(-72.49 -49.44)"/><path class="cls-12" d="M237.56,361.33l0.22,0Z" transform="translate(-72.49 -49.44)"/><path class="cls-12" d="M235.7,369.08l0.08-.08A0.15,0.15,0,0,0,235.7,369.08Z" transform="translate(-72.49 -49.44)"/><polygon class="cls-12" points="164.44 316.41 164.47 316.41 164.76 316.21 164.44 316.41"/><path class="cls-12" d="M240.63,359.39h0C240.64,359.45,240.65,359.44,240.63,359.39Z" transform="translate(-72.49 -49.44)"/><path class="cls-12" d="M245.27,360.95c0.48-.29.7-0.15,1.23-0.5A6.67,6.67,0,0,0,245.27,360.95Z" transform="translate(-72.49 -49.44)"/><path class="cls-12" d="M234.59,365.64a0.1,0.1,0,0,1,0-.05S234.56,365.64,234.59,365.64Z" transform="translate(-72.49 -49.44)"/><path class="cls-12" d="M246.49,360.45h0l0,0Z" transform="translate(-72.49 -49.44)"/><path class="cls-12" d="M241.86,358.75l0-.27Z" transform="translate(-72.49 -49.44)"/><path class="cls-12" d="M240.55,358.08l0.06,0.07A0.14,0.14,0,0,0,240.55,358.08Z" transform="translate(-72.49 -49.44)"/><path class="cls-12" d="M242.53,357.93s0,0.13,0,.05v-0.08C242.55,358,242.53,358,242.53,357.93Z" transform="translate(-72.49 -49.44)"/><path class="cls-12" d="M243.22,358.09l0-.12,0,0v0.1Z" transform="translate(-72.49 -49.44)"/><path class="cls-12" d="M239.63,370.93a5.19,5.19,0,0,1,.08-0.55C239.62,370.81,239.38,370.91,239.63,370.93Z" transform="translate(-72.49 -49.44)"/><path class="cls-12" d="M234.85,365.57a0.73,0.73,0,0,1-.26.07l0,0Z" transform="translate(-72.49 -49.44)"/><path class="cls-12" d="M243.29,353.12l0.22,0.12A0.34,0.34,0,0,0,243.29,353.12Z" transform="translate(-72.49 -49.44)"/><path class="cls-12" d="M248.69,367.88l0,0.09S248.73,367.93,248.69,367.88Z" transform="translate(-72.49 -49.44)"/><path class="cls-12" d="M244.21,353.31a1.59,1.59,0,0,0,0,.44,1.33,1.33,0,0,0,.07-0.15Z" transform="translate(-72.49 -49.44)"/><path class="cls-12" d="M239.72,370.38h0Z" transform="translate(-72.49 -49.44)"/><path class="cls-12" d="M237.79,371.22c0.21,0.11.43-.68,0.66-1.08,0.32-.11-0.13.59-0.21,1,0.24-.13.63-0.78,0.72-0.71a1.13,1.13,0,0,1-.12.33c0.37-.56.49,0.13,0.9-0.59a1.6,1.6,0,0,1,0,.2c0.08-.4.19-0.8,0.27-1.08,0.08,0,.27-0.46.16,0.06a0.7,0.7,0,0,0-.17.34l0.14-.2a2,2,0,0,1-.33.77c0.25-.2.57-0.77,0.65-0.53-0.12.74-.36,0.18-0.32,0.87l-0.15-.33c-0.11,1.18-.12-0.11-0.26,1.15,0.27,0.28.43-.28,0.69,0,0.14-.4.08-0.61,0.21-1,0.48-.69.09,1.91,0.53,1,0.13-.49.21-1.43,0.39-0.93l-0.12.84c0.3,0.1.2-1.21,0.48-.63a2.78,2.78,0,0,1-.18.37c0.19,0.67.14-.47,0.28-0.47l0,0.75a9.55,9.55,0,0,0,.91-0.87,1.63,1.63,0,0,0,.09.68c0.38-.42.91-0.07,1.48,0.23l0-.66a0.66,0.66,0,0,1,.16.39c0.24,0.17-.12-0.39-0.12-0.66a0.6,0.6,0,0,1,.24.51c0.12-.62.3-1.37,0.86-0.89l0,0.2c0.34,0.12-.38-1.29.08-0.85l0,0.12c0.57,0,.65-0.77,1.54-0.24-0.53-.76.67,0-0.18-1a2.74,2.74,0,0,0,1.35.52,5.77,5.77,0,0,0-.49-0.86l0.51,0.45-0.42-.61,0.68,0.45,0-.21a0.94,0.94,0,0,1-.45-0.24c-0.11-.33.66-0.07,0.95,0.12l-0.09-.37-0.1-.36a1.24,1.24,0,0,1,.36.43c-0.43-.6.62,0.35,0.23-0.2a2.64,2.64,0,0,1-.44-0.31c0.41,0.13.55-.12,0.49-0.38l0.39,0.26a3.23,3.23,0,0,0,.32-1.17,1.65,1.65,0,0,1-1-.41l0.68,0.22a3.2,3.2,0,0,1-.75-0.32,1.66,1.66,0,0,1,1,.36l-0.17-.26c0.2,0.06.3,0.14,0.55,0.24-0.4-.21.79-0.09,0.09-0.44l0.21,0.05a3.23,3.23,0,0,0,0-1,3.48,3.48,0,0,1-.92-0.4,1.34,1.34,0,0,0,.72-0.67,2.2,2.2,0,0,0-.88-0.21c0.56,0,.52-0.26.92-0.09a1.17,1.17,0,0,0-.57-0.85,1.41,1.41,0,0,1-.52.09c-0.1-.06.23-0.17,0.5-0.18l0.06,0c-0.44-.2,0-0.48.28-0.8s0.61-.66,0-0.72h0.06l-0.35-.12-0.34-.11a3.61,3.61,0,0,1,.74-0.23c-1-.15-0.09-0.71-0.8-0.83,0.73-.44.57-0.68,0.36-0.88s-0.5-.34-0.15-0.78l-0.32.22c-0.38.11,0.13-.22,0.16-0.33a1.6,1.6,0,0,1-.45.34,1.39,1.39,0,0,1-.62-1.12,5.39,5.39,0,0,0-.39-1.51c-0.2-.31-1.45,1.42-1.15.45l0.54-.5a1,1,0,0,1-1-.25,0.88,0.88,0,0,0-1-.2,0.7,0.7,0,0,1,.26-0.3c0.12-.53-0.44-0.23-0.61.16a2.19,2.19,0,0,1,.17-0.59c0-.34-0.56.49-0.43,0a0.34,0.34,0,0,1,.14-0.18c-0.17.21-.37-0.2-0.49,0.4-0.13-.35-0.49.12-0.57-0.27-0.28.63-.31-0.41-0.56,0.52,0.24-1-.24-0.88-0.45-0.43,0.1-.29-0.08-0.33,0-0.73-0.18,0-.36.15-0.38,0.66-0.21-1.23-.65.91-0.75-0.62a15.08,15.08,0,0,1-1.29,1.19c-0.11-1,.44-0.15.34-1.18-0.41.43-.49,1.33-0.91,1.15a0.92,0.92,0,0,1,0-.6c-0.31.48-.82,0.1-1,0.73a0.67,0.67,0,0,1,0-.28c-0.06.05-.2-0.08,0,0.34l0-.14a8.26,8.26,0,0,1,.33,1.7c-0.36-1.25-.4-0.19-0.85-1.77a1.23,1.23,0,0,0,.14.59,0.81,0.81,0,0,1-.25-0.55c-0.14.32,0.14,0.73-.06,0.81a5.2,5.2,0,0,1-.18-0.54c0.07,0.44.17,0.86-.07,0.78a0.44,0.44,0,0,1-.1-0.29c-0.28.2,0.12,1.24-.37,1.05-0.44-.84-0.27-0.2-0.75-0.87l0,0.31,0.29,0.28c-0.14.09,0.12,0.65-.15,0.51l-0.12-.34-0.14.3,0.33,0.14c0.15,0.42.66,0.8,0.38,0.73a1.43,1.43,0,0,1-.48-0.23h0c0.12,0.24.26,0.49,0,.41s-0.61-.67-0.75-0.78c0.43,0.55-.14.39,0.34,1a4.34,4.34,0,0,0-.49-0.49l0.37,0.42a1.28,1.28,0,0,1-.5-0.36c-0.22.09,0.82,0.64,0.33,0.53a1.29,1.29,0,0,1-.13-0.18c-0.35,0,0,.58-0.37.6-0.71-.42,0-0.29-0.65-0.63-0.1.4,0.42,1.14,0.11,1.31h0.11c1,0.59-.63-0.07-0.21.33a2.53,2.53,0,0,0-.45-0.27c-0.26.13,0.06,0.56,0.29,1l-0.27-.14a0.87,0.87,0,0,0-.43.37,1.45,1.45,0,0,0,.63.27c-0.89,0-.71.26-0.49,0.5s0.49,0.46-.24.55a0.33,0.33,0,0,0-.25-0.11l0.23,0.37a3.36,3.36,0,0,0,.71,0,0.76,0.76,0,0,1,.51.24,2,2,0,0,0-1.1,0c0.16,0,.33,0,0.48,0-0.91.1,1,.09,0.4,0.26l-0.27,0a0.69,0.69,0,0,1,.4.24,3.23,3.23,0,0,1-.75-0.1c0,0.14,1.1.23,0.53,0.35-0.17,0-.18-0.12-0.33-0.17-0.69.13-.51,0.15-0.62,0.25h0l-0.3.25,0.18-.07c1.54,0.05.29,0.32,1.32,0.4a2.84,2.84,0,0,0-1.21.11,1.49,1.49,0,0,1-.56.2c0.55,0-.39.26,0.41,0.28a1.12,1.12,0,0,1-.53.2,1.06,1.06,0,0,0,.63-0.15c0.75,0-.74.72,0.31,0.77a11.79,11.79,0,0,0,1.58,0,1.88,1.88,0,0,1-.75.23c-0.25.23-.17,0.31,0.11,0.31a1.94,1.94,0,0,0-.52.27c0.1,0.07.74-.26,0.51,0a7.65,7.65,0,0,1-.82.27c0.23,0,.64,0,0.87,0a2.18,2.18,0,0,1-.77.26,1.15,1.15,0,0,0,1-.08l0.14-.17a1.56,1.56,0,0,1-.54.29c-0.46.11,0.11-.25,0.3-0.35h0.16c1.08-.65-0.31-0.18-0.33-0.38l0.86-.32-0.76.17a2.49,2.49,0,0,1,.82-0.33c0.38-.26-0.33,0,0.1-0.23a0.45,0.45,0,0,1,.15-0.06h-0.29a1.15,1.15,0,0,1,.49-0.15c0.44-.32-0.74,0-0.1-0.3h0.06a7.77,7.77,0,0,0-1.45.23l0.78-.29,0.78-.27-0.65.15a0.41,0.41,0,0,1,.32-0.14,5.38,5.38,0,0,0-.71.14c0.56-.25-0.36-0.28.69-0.5a2.09,2.09,0,0,1-.74.12c1.13-.23-0.22-0.12.29-0.31a1.7,1.7,0,0,0,.81-0.08c-1,.07.19-0.21,0-0.26-0.8.06-.34-0.15-0.62-0.28a3,3,0,0,0,.73-0.38h0.13c-0.8-.06-0.65-0.19-0.81-0.3a4.32,4.32,0,0,1,.88.15v-0.08a1,1,0,0,1-.47-0.15l0.6,0.09c0-.1-0.68-0.32-0.26-0.4a6.62,6.62,0,0,1-1.9-.41,4.83,4.83,0,0,1,.92.21s-0.24-.1-0.1-0.11l0.49,0.17c0.24,0-.41-0.12-0.35-0.17,0.42,0.09.31,0,.65,0.1,0,0-.19,0,0,0.07a1.42,1.42,0,0,1,.68,0,2,2,0,0,1-.61-0.19,1.94,1.94,0,0,1,.74.09,1.81,1.81,0,0,0-.59-0.26,1.81,1.81,0,0,1,.48.09,1,1,0,0,0-.67-0.43h0l0,0h0c-0.55-.44.5-0.27,0.32-0.56l0.2,0.09a1.47,1.47,0,0,0-.37-0.61,1.57,1.57,0,0,1,.6.27c-0.1-.16-0.3-0.31.08-0.22,0.27,0.28.3,0.16,0.18,0.22,0.22,0,.52.19,0.1-0.24,0.44,0.35.62,0.34,0.51,0.21l-0.36-.17c0-.09,0-0.11.1-0.12l0.57,0.46c0.41,0.2.16-.08,0-0.35s-0.28-.5.31,0c-0.33-.39-0.34-0.17-0.74-0.62a1.77,1.77,0,0,1,.54.33c0.22,0.17.43,0.34,0.44,0.33,0.35,0.22-.65-0.86-0.35-0.76a3.15,3.15,0,0,1-.71-1,2.9,2.9,0,0,1,.88,1s-0.07,0-.12-0.1a0.89,0.89,0,0,0,.29.4l-0.16-.21a1.31,1.31,0,0,1,.52.44,0.88,0.88,0,0,0-.36-0.43c0.32,0.23.15-.12,0.4,0a2,2,0,0,1-.27-0.36c0.34,0.17-.2-0.46-0.14-0.63,0.27,0.3.47,0.83,0.41,0.47a2.82,2.82,0,0,1,.45.79c-0.17-.5.32,0.21,0.39,0.27l0.06,0.2c0-.12,0-0.13,0-0.14l-0.26-.46a0.6,0.6,0,0,1,.18.26c-0.12-.32-0.41-0.77-0.54-1.22,0.15,0.22,0-.33.31,0.3-0.22-.15.29,0.63,0.24,0.78,0-.08,0-0.09.07,0a0.87,0.87,0,0,1,.06.17c0.33,0.53-.26-0.74-0.13-0.77a1.68,1.68,0,0,0,.28.6,3.16,3.16,0,0,1-.3-0.9c0.18,0.25,0-.25.08-0.23l-0.1-.11a0.51,0.51,0,0,1,0-.48c0.09,0.29,0,.22.06,0.34-0.11-.68.36,0.64,0.33,0.17,0.11,0.24.18,0.71,0.25,0.88,0-.52.2,0.5,0.21,0.08a2.49,2.49,0,0,1-.11-0.9l-0.11.39,0-.38v-0.38a1.5,1.5,0,0,1-.12.27,1.93,1.93,0,0,0-.13-0.72c0.24,0.75.1-.48,0.31,0l0.2,1.28c0.19,0.55.14-.7,0.36-0.38l-0.07-.22c0-.52.11-0.08,0.16-0.29a7.42,7.42,0,0,0,.07.86,3.27,3.27,0,0,0,.15-0.83l0.06,0.57c0.12,0.24.25-1.24,0.41-1.06a8.22,8.22,0,0,1-.19,1.1s0.07,0.1.11-.2c0,0.27.21-.56,0.2-0.15a1.6,1.6,0,0,1,.18-0.59,2.06,2.06,0,0,1,0,.21,2.85,2.85,0,0,0,.18-0.75c0,0.69.07,0.69,0.2,0.67s0.26-.06.15,0.52a0.85,0.85,0,0,1,.43-0.19c-0.05.12-.08,0.2-0.08,0.15,0,0.43.55-1.12,0.55-.62a1.91,1.91,0,0,1-.3.57c-0.57,1.31.26-.1,0,0.7l-0.06.06c-0.17.46,0.41-.39,0.48-0.23,0,0-.07.1-0.11,0.18a1.74,1.74,0,0,1,1-.75,3.38,3.38,0,0,0-.54.68,5.48,5.48,0,0,1,.72-0.8,5.18,5.18,0,0,1-.6,1l-0.1,0c-0.43.65,0.12,0.05,0.08,0.2l-0.22.26c0.17,0,.75-0.64.86-0.47l0.16-.2c0.68-.54-0.27.41,0.25,0l-0.6.63a3.44,3.44,0,0,1,1-.4c-0.54.35-.88,0.48-1.21,0.69,0,0,.18.09,0.53-0.16-0.08,0-.26.15-0.18,0,0.57-.4.9-0.51,1-0.38-1.35,1-.11.54-1.17,1.34,0.64-.16,0,0.45.12,0.57a7.92,7.92,0,0,1,1.29-.51c0.11,0,.09.06,0,0.1l-0.34.24-0.35.22a3.54,3.54,0,0,1-.58.17,3.63,3.63,0,0,1-.84.41c0.45-.17.66-0.19,0.51-0.09l0.56-.27c0.74-.07-1,0.45-0.33.37l-0.42.07a1.76,1.76,0,0,0,1.12.09,2.75,2.75,0,0,1-.61.1c-0.13.15,1.19,0.28,0.54,0.48h-0.33c0.1,0,.63,0,0.29.1a2.09,2.09,0,0,0-.35,0c0.11,0,.57.09,0.38,0.14l-0.37,0c-0.43.14,0.89,0.31,1.09,0.55a4.18,4.18,0,0,0-1.45,0l-0.13,0c-0.16.13,0.72,0.48,1,.82-1-.23-0.57.24-1.18,0.14a3.4,3.4,0,0,1,.73.43c-0.19-.06.52,0.45-0.25,0h0c-0.77-.41-0.6-0.22-0.66-0.18l1,0.64c-0.77-.38-0.69-0.21-0.63,0s0.13,0.42-.46,0c0.19,0.23.15,0.27,0.32,0.5l-0.44-.44c-0.2,0-.28-0.05-0.29.15l-0.27-.35c-0.07,0,1.07,1.44,1,1.54l-0.59-.72c-0.13.13-.68-0.5-0.37,0.3a2.5,2.5,0,0,1-.2-0.4c-0.07,0-.51-0.44.09,0.69-0.38-.74-0.17,0-0.12.38l-0.23-.57a2.77,2.77,0,0,1,.28,1.19c-0.06-.06-0.2-0.45-0.11-0.32-0.2-.27.13,0.57-0.09,0.31l-0.09-.39c-0.1,0,0,.19.06,0.64,0,0.25-.24-0.1-0.39-0.63,0.08,0.33.13,0.78,0,.64a1.93,1.93,0,0,1-.07-0.4c-0.23-.36-0.1.75-0.33,0.18a3.18,3.18,0,0,0-.08-0.36,0.22,0.22,0,0,1,.23.06,9.42,9.42,0,0,1-.31-1.41c0,0.42.06,1.36-.07,1.11l0-.19v-0.06c0-.05,0,0,0,0.1a0.38,0.38,0,0,0-.09-0.17c-0.05-.46-0.11-0.25-0.15-0.27a6.71,6.71,0,0,0,.06,1,0.1,0.1,0,0,1,0-.1,0.18,0.18,0,0,0,0-.07v0.05l0.12,0c0,0.31,0,.58-0.12.24,0,0.4,0,.81,0,1a15.89,15.89,0,0,1-.28-1.85,3,3,0,0,0-.52,1.36,0.9,0.9,0,0,1,0-.52,0.91,0.91,0,0,0,.1-0.25,1.52,1.52,0,0,0-.42.88c-0.06-.38.19-0.72,0-0.62l0.07-.24c0-.67-0.21-0.18-0.47.24s-0.56.76-.45-0.08a1.16,1.16,0,0,1-.06.28c-0.07-.42-0.31-0.34-0.56-0.34s-0.5-.07-0.31-0.66c0-.25-0.26.16-0.57,0.43l0.39-.54-0.57.52c-0.53.27,0.85-1.4,0-.78l-0.3.34c0-.12-0.38,0,0-0.35-0.07,0-.37.29-0.21,0.11l0.26-.23-0.29.12-0.29.11a14.61,14.61,0,0,0,1-1,6,6,0,0,0-1.13.58,1.07,1.07,0,0,1-.4.4l-0.2,0a7.2,7.2,0,0,0-2.17,1.75l0.63-.2-0.35.36-0.14-.13c-0.31.37,0.07,0.18,0.33,0.06a1.7,1.7,0,0,0-.37.42l0.45-.22,0.44-.23a2.56,2.56,0,0,0-.74.7,7.22,7.22,0,0,1,1-.73c-0.28.38-.58,0.62-0.2,0.44a1.17,1.17,0,0,1-.44.33,1.14,1.14,0,0,0,.73-0.21c-0.33.49,0.35,0.15-.31,0.84a2.17,2.17,0,0,1,.76-0.4c-0.9.75,0.24,0.3-.58,1.23,0.76-.72.71,0,1.25-0.38-0.06.06-.17,0.18-0.16,0.13a1.83,1.83,0,0,1-.1.66,7.28,7.28,0,0,1,1.12-1.19,9.05,9.05,0,0,1-1,1.54,11.26,11.26,0,0,0,.84-1,3.78,3.78,0,0,1-.3.94c0.52-.94.19-0.1,0.59-0.65-0.06.55-.39,0.93-0.06,0.72A1.06,1.06,0,0,1,237.79,371.22Zm5.14-1h0l-0.09,0Zm0.37-.07a0.31,0.31,0,0,0-.16,0,0.77,0.77,0,0,1,0-.42A1.08,1.08,0,0,0,243.31,370.14ZM242.18,366c0-.09,0,0,0.05.16a0.21,0.21,0,0,0,0,.08V366Z" transform="translate(-72.49 -49.44)"/><path class="cls-12" d="M242.19,366.78a0.19,0.19,0,0,1,0,0l0,0.14v-0.19h0Z" transform="translate(-72.49 -49.44)"/><path class="cls-12" d="M236.91,360.61h0l-0.09,0Z" transform="translate(-72.49 -49.44)"/><polygon class="cls-12" points="176.12 319 176 318.89 176.08 319.01 176.12 319"/><path class="cls-12" d="M234.51,361.82h0Z" transform="translate(-72.49 -49.44)"/><path class="cls-12" d="M234.36,362.66l-0.21.13A0.87,0.87,0,0,0,234.36,362.66Z" transform="translate(-72.49 -49.44)"/><path class="cls-12" d="M234.1,363.36l0.27,0h0Z" transform="translate(-72.49 -49.44)"/><path class="cls-12" d="M239.24,354.17a0.06,0.06,0,0,0,0,0C239.28,354,239.25,354.05,239.24,354.17Z" transform="translate(-72.49 -49.44)"/><path class="cls-12" d="M237.15,357a1.88,1.88,0,0,1-.12-0.29C237,356.72,236.92,356.74,237.15,357Z" transform="translate(-72.49 -49.44)"/><path class="cls-12" d="M243.27,353.1h0Z" transform="translate(-72.49 -49.44)"/><path class="cls-12" d="M237.15,356.64c-0.12-.06-0.14,0-0.12.08S237.17,356.74,237.15,356.64Z" transform="translate(-72.49 -49.44)"/><path class="cls-12" d="M234.76,366.3v0l0.09,0h-0.08Z" transform="translate(-72.49 -49.44)"/><path class="cls-12" d="M234.84,366.3h0.08S234.9,366.27,234.84,366.3Z" transform="translate(-72.49 -49.44)"/><path class="cls-12" d="M235.1,366.28h-0.18S234.94,366.36,235.1,366.28Z" transform="translate(-72.49 -49.44)"/><path class="cls-12" d="M234.63,365.34l-0.21.07Z" transform="translate(-72.49 -49.44)"/><path class="cls-12" d="M234.47,365.11c0,0.08-.39.33-0.22,0.37l0.17-.06C234.09,365.49,234.84,365,234.47,365.11Z" transform="translate(-72.49 -49.44)"/><path class="cls-12" d="M236.86,363.44l-0.14.19a1.32,1.32,0,0,1,.6-0.14C238,363.16,236.81,363.65,236.86,363.44Z" transform="translate(-72.49 -49.44)"/><path class="cls-12" d="M237.13,362.93a1.13,1.13,0,0,0,.48-0.05A0.79,0.79,0,0,0,237.13,362.93Z" transform="translate(-72.49 -49.44)"/><path class="cls-12" d="M237.79,359.88l0.48,0.29A1.87,1.87,0,0,0,237.79,359.88Z" transform="translate(-72.49 -49.44)"/><polygon class="cls-12" points="163.34 308.15 163.01 308.01 163.39 308.36 163.34 308.15"/><polygon class="cls-12" points="166.68 310.4 166.73 310.47 166.62 310.27 166.68 310.4"/><path class="cls-12" d="M243,358.57l0.17-.67A1.46,1.46,0,0,0,243,358.57Z" transform="translate(-72.49 -49.44)"/><path class="cls-12" d="M245,359c-0.22.27-.34,0.46-0.07,0.25C245,359.15,245.12,358.92,245,359Z" transform="translate(-72.49 -49.44)"/><polygon class="cls-12" points="172.25 314.95 172.08 314.79 172.2 314.95 172.25 314.95"/><path class="cls-10" d="M194.64,393.15a6.18,6.18,0,0,0,8.64,1.57,6.29,6.29,0,0,0,1.56-8.71,6.18,6.18,0,0,0-8.64-1.57A6.29,6.29,0,0,0,194.64,393.15Z" transform="translate(-72.49 -49.44)"/><ellipse class="cls-11" cx="200.8" cy="233.57" rx="6.21" ry="6.26"/><path class="cls-12" d="M265.62,283a0.77,0.77,0,0,0,.54-0.05l-0.73-.06Z" transform="translate(-72.49 -49.44)"/><path class="cls-12" d="M267,282.62a6.86,6.86,0,0,0-1.63-.23c0.69,0.13.4,0.13,1.23,0.26,0.08,0.06-.24.1-0.51,0.08,0.19,0-.16.1,0.29,0.14s0.59-.15.13-0.29A2.87,2.87,0,0,1,267,282.62Z" transform="translate(-72.49 -49.44)"/><path class="cls-12" d="M270.29,278.74l-0.07-.05Z" transform="translate(-72.49 -49.44)"/><path class="cls-12" d="M273,278.18a0.28,0.28,0,0,0,0,.16A0.34,0.34,0,0,0,273,278.18Z" transform="translate(-72.49 -49.44)"/><path class="cls-12" d="M273.41,279l0-.05C273.39,279,273.4,279,273.41,279Z" transform="translate(-72.49 -49.44)"/><path class="cls-12" d="M270.29,278.74l0.19,0.14C270.35,278.69,270.35,278.76,270.29,278.74Z" transform="translate(-72.49 -49.44)"/><path class="cls-12" d="M265.35,281.53a0.57,0.57,0,0,0,.18.1l-0.07-.07Z" transform="translate(-72.49 -49.44)"/><path class="cls-12" d="M269.8,280v0l0.22,0.2Z" transform="translate(-72.49 -49.44)"/><path class="cls-12" d="M269.41,280.75s-0.5-.32-0.73-0.46a1.92,1.92,0,0,1,.34.25Z" transform="translate(-72.49 -49.44)"/><path class="cls-12" d="M267.87,281.75l0.08,0Z" transform="translate(-72.49 -49.44)"/><path class="cls-12" d="M270.33,279.64l0.15,0.16Z" transform="translate(-72.49 -49.44)"/><path class="cls-12" d="M264.4,285l0.11,0A0.15,0.15,0,0,0,264.4,285Z" transform="translate(-72.49 -49.44)"/><polygon class="cls-12" points="194.75 233.57 194.79 233.59 195.13 233.59 194.75 233.57"/><path class="cls-12" d="M273.93,279.82h0C273.91,279.88,273.92,279.87,273.93,279.82Z" transform="translate(-72.49 -49.44)"/><path class="cls-12" d="M276.86,283.79c0.56,0,.66.27,1.29,0.29A6.66,6.66,0,0,0,276.86,283.79Z" transform="translate(-72.49 -49.44)"/><path class="cls-12" d="M265.44,281.51a0.1,0.1,0,0,1,0-.06S265.42,281.49,265.44,281.51Z" transform="translate(-72.49 -49.44)"/><path class="cls-12" d="M278.16,284.08h0Z" transform="translate(-72.49 -49.44)"/><path class="cls-12" d="M275.3,280l0.14-.23Z" transform="translate(-72.49 -49.44)"/><path class="cls-12" d="M274.62,278.71v0.09A0.16,0.16,0,0,0,274.62,278.71Z" transform="translate(-72.49 -49.44)"/><path class="cls-12" d="M276.33,279.73s-0.07.11,0,.07l0-.06C276.31,279.79,276.27,279.82,276.33,279.73Z" transform="translate(-72.49 -49.44)"/><path class="cls-12" d="M276.81,280.26l0.09-.09h0Z" transform="translate(-72.49 -49.44)"/><path class="cls-12" d="M266.56,288.71a5.21,5.21,0,0,1,.39-0.4C266.62,288.61,266.36,288.55,266.56,288.71Z" transform="translate(-72.49 -49.44)"/><path class="cls-12" d="M265.7,281.59a0.74,0.74,0,0,1-.26-0.09l0,0Z" transform="translate(-72.49 -49.44)"/><path class="cls-12" d="M279.72,276.23l0.11,0.23A0.34,0.34,0,0,0,279.72,276.23Z" transform="translate(-72.49 -49.44)"/><path class="cls-12" d="M275.72,291.43l0,0.08S275.73,291.51,275.72,291.43Z" transform="translate(-72.49 -49.44)"/><path class="cls-12" d="M280.37,276.91a1.59,1.59,0,0,0-.24.37l0.14-.08Z" transform="translate(-72.49 -49.44)"/><path class="cls-12" d="M266.95,288.31h0Z" transform="translate(-72.49 -49.44)"/><path class="cls-12" d="M264.89,287.9c0.11,0.21.74-.31,1.16-0.51,0.32,0.09-.45.41-0.75,0.71,0.27,0,1-.28,1-0.17a1.14,1.14,0,0,1-.28.2c0.62-.24.33,0.39,1.07,0l-0.14.15c0.29-.28.61-0.55,0.84-0.73,0.06,0.05.49-.23,0.1,0.14a0.7,0.7,0,0,0-.33.18l0.23-.09a2,2,0,0,1-.71.45c0.31,0,.91-0.3.83-0.06-0.52.54-.39-0.06-0.76,0.53l0.07-.35c-0.77.9,0-.16-0.87,0.79,0.06,0.39.51,0,.58,0.38,0.34-.25.41-0.45,0.75-0.7,0.79-.29-1,1.61-0.12,1.08,0.39-.32,1-1,0.85-0.53l-0.58.62c0.19,0.25.86-.87,0.76-0.24a2.8,2.8,0,0,1-.37.2c-0.23.66,0.39-.3,0.5-0.22l-0.4.64a10.13,10.13,0,0,0,1.24-.18,1.63,1.63,0,0,0-.32.61c0.55-.13.78,0.47,1.08,1l0.36-.56a0.67,0.67,0,0,1-.1.41c0.09,0.28.13-.39,0.28-0.61a0.6,0.6,0,0,1-.1.56c0.46-.44,1-0.94,1.21-0.23l-0.09.18c0.21,0.3.44-1.27,0.56-.65l-0.05.11c0.47,0.32,1-.25,1.4.69,0-.93.55,0.38,0.43-0.92a2.73,2.73,0,0,0,.81,1.2,5.65,5.65,0,0,0,.1-1l0.16,0.66V291l0.3,0.76,0.08-.2a0.93,0.93,0,0,1-.23-0.46c0.1-.34.59,0.32,0.71,0.64l0.14-.35,0.12-.35a1.23,1.23,0,0,1,0,.56c0-.74.31,0.65,0.3,0a2.62,2.62,0,0,1-.19-0.51c0.26,0.34.52,0.22,0.62,0l0.17,0.44a3.22,3.22,0,0,0,.94-0.78,1.65,1.65,0,0,1-.61-0.92l0.44,0.57a3.19,3.19,0,0,1-.43-0.69,1.66,1.66,0,0,1,.6.86v-0.31c0.13,0.17.16,0.28,0.31,0.51-0.2-.4.7,0.38,0.32-0.31l0.14,0.16a3.22,3.22,0,0,0,.54-0.83,3.47,3.47,0,0,1-.52-0.85,1.34,1.34,0,0,0,1-.14,2.2,2.2,0,0,0-.6-0.67c0.45,0.34.57,0.08,0.81,0.45a1.17,1.17,0,0,0,0-1,1.41,1.41,0,0,1-.48-0.22c0-.11.28,0,0.51,0.14l0,0c-0.24-.41.24-0.42,0.68-0.5s0.88-.2.39-0.61l0,0-0.22-.3-0.22-.29a3.61,3.61,0,0,1,.74.23c-0.74-.69.32-0.64-0.19-1.14,0.85,0,.86-0.24.8-0.52s-0.21-.56.32-0.73h-0.39c-0.38-.12.23-0.11,0.32-0.18a1.6,1.6,0,0,1-.57,0,1.38,1.38,0,0,1,.13-1.27,5.42,5.42,0,0,0,.54-1.46c0-.37-2,0.34-1.2-0.28l0.72-.1a1,1,0,0,1-.71-0.8,0.88,0.88,0,0,0-.68-0.71,0.7,0.7,0,0,1,.38-0.09c0.41-.37-0.23-0.44-0.59-0.22a2.2,2.2,0,0,1,.48-0.39c0.19-.29-0.74.08-0.34-0.27a0.34,0.34,0,0,1,.21-0.07c-0.26.07-.19-0.37-0.63,0,0.09-.36-0.47-0.18-0.3-0.55-0.59.35,0-.51-0.76,0.11,0.75-.65.31-0.86-0.12-0.61,0.25-.18.12-0.31,0.45-0.57-0.14-.11-0.38-0.08-0.7.32,0.54-1.12-1.05.37-.25-0.94a14.53,14.53,0,0,1-1.74.23c0.48-.88.44,0.14,1-0.77-0.59.11-1.17,0.8-1.41,0.42a0.92,0.92,0,0,1,.33-0.51c-0.53.21-.72-0.39-1.23,0a0.67,0.67,0,0,1,.15-0.24c-0.08,0-.12-0.18-0.24.25l0.1-.1a8.27,8.27,0,0,1-.71,1.58c0.43-1.22-.22-0.39.33-1.94a1.24,1.24,0,0,0-.23.56,0.81,0.81,0,0,1,.11-0.6c-0.3.18-.31,0.68-0.52,0.63a5.2,5.2,0,0,1,.17-0.54c-0.19.4-.36,0.8-0.51,0.6a0.44,0.44,0,0,1,.08-0.29c-0.34,0-.62,1.08-0.91.65,0.12-.94-0.1-0.32-0.11-1.14l-0.19.25,0.08,0.4c-0.17,0-.28.6-0.42,0.33l0.1-.34-0.29.17,0.19,0.3c-0.12.43,0.08,1-.12,0.82a1.44,1.44,0,0,1-.26-0.47h0c0,0.27-.07.55-0.2,0.37s-0.11-.9-0.16-1.07c0,0.69-.34.24-0.27,1a4.33,4.33,0,0,0-.12-0.68l0.06,0.56a1.28,1.28,0,0,1-.2-0.58c-0.23,0,.3,1,0,0.62a1.29,1.29,0,0,1,0-.22c-0.31-.16-0.36.45-0.65,0.28-0.34-.75.13-0.26-0.17-0.89-0.31.27-.31,1.17-0.67,1.14l0.09,0.06c0.49,1.06-.47-0.42-0.36.15a2.53,2.53,0,0,0-.21-0.47c-0.29,0-.27.49-0.32,1l-0.14-.27a0.87,0.87,0,0,0-.56.06,1.45,1.45,0,0,0,.37.58c-0.7-.54-0.73-0.19-0.69.13s0.14,0.65-.51.32a0.33,0.33,0,0,0-.14-0.23l0,0.43a3.36,3.36,0,0,0,.61.38,0.76,0.76,0,0,1,.28.49,2,2,0,0,0-.89-0.65c0.13,0.09.25,0.21,0.37,0.31-0.81-.43.79,0.65,0.19,0.44l-0.21-.17a0.69,0.69,0,0,1,.2.43,3.23,3.23,0,0,1-.57-0.51c-0.05.13,0.78,0.82,0.24,0.58-0.11-.13-0.08-0.2-0.18-0.33-0.64-.29-0.5-0.17-0.65-0.15h0l-0.39,0,0.19,0c1.24,0.92.06,0.43,0.86,1.08a2.84,2.84,0,0,0-1.06-.6,1.49,1.49,0,0,1-.57-0.15c0.44,0.33-.47,0,0.18.47a1.12,1.12,0,0,1-.55-0.14,1.06,1.06,0,0,0,.6.23c0.59,0.46-1,.18-0.18.81a11.82,11.82,0,0,0,1.31.89,1.88,1.88,0,0,1-.75-0.24c-0.33,0-.31.16-0.09,0.32a1.94,1.94,0,0,0-.58-0.07c0,0.11.76,0.2,0.43,0.27a7.66,7.66,0,0,1-.83-0.24c0.17,0.16.55,0.33,0.73,0.47a2.18,2.18,0,0,1-.79-0.22,1.15,1.15,0,0,0,.87.5l0.21-.06a1.56,1.56,0,0,1-.61-0.07c-0.44-.17.23-0.14,0.44-0.12l0.12,0.1c1.26,0.08-.16-0.33-0.06-0.5l0.89,0.22-0.72-.29a2.49,2.49,0,0,1,.87.19c0.46,0-.3-0.15.21-0.13a0.45,0.45,0,0,1,.15,0l-0.24-.15a1.15,1.15,0,0,1,.49.16c0.55,0-.6-0.43.08-0.3l0.05,0a7.78,7.78,0,0,0-1.33-.63l0.81,0.2,0.8,0.22L267.9,281a0.41,0.41,0,0,1,.34.06,5.38,5.38,0,0,0-.67-0.29c0.6,0.11-.14-0.43.86,0a2.09,2.09,0,0,1-.68-0.32c1.06,0.45-.11-0.22.41-0.09a1.7,1.7,0,0,0,.71.39c-0.87-.51.27-0.07,0.14-0.21-0.69-.4-0.2-0.32-0.35-0.58a3.05,3.05,0,0,0,.82.11l0.1,0.08c-0.63-.5-0.43-0.53-0.49-0.71a4.34,4.34,0,0,1,.64.62l0-.06a1,1,0,0,1-.3-0.39l0.44,0.41c0-.09-0.38-0.65,0-0.47a6.62,6.62,0,0,1-1.33-1.42,4.84,4.84,0,0,1,.64.7s-0.14-.22,0-0.15l0.3,0.42c0.21,0.11-.27-0.33-0.19-0.34,0.3,0.32.25,0.2,0.47,0.45,0,0-.16-0.1-0.06,0a1.42,1.42,0,0,1,.56.38,2,2,0,0,1-.4-0.51,1.94,1.94,0,0,1,.56.49,1.82,1.82,0,0,0-.33-0.55,1.81,1.81,0,0,1,.34.34,1,1,0,0,0-.3-0.74l0,0v0h0c-0.2-.67.57,0.07,0.58-0.27l0.11,0.19a1.46,1.46,0,0,0,0-.71,1.57,1.57,0,0,1,.34.56c0-.18-0.07-0.43.19-0.14,0.06,0.38.15,0.3,0,.29,0.18,0.13.31,0.46,0.22-.14,0.16,0.53.31,0.63,0.3,0.46l-0.2-.35c0-.1.09-0.07,0.15,0l0.2,0.71c0.22,0.4.18,0,.19-0.29s0.05-.57.27,0.15c0-.51-0.18-0.34-0.25-0.93a1.8,1.8,0,0,1,.26.58c0.09,0.27.15,0.52,0.17,0.52,0.16,0.39,0-1.08.14-.82a3.15,3.15,0,0,1,0-1.2,2.9,2.9,0,0,1,.16,1.3s0-.06,0-0.15a0.89,0.89,0,0,0,0,.49v-0.26a1.31,1.31,0,0,1,.18.66,0.88,0.88,0,0,0,0-.56c0.13,0.38.19,0,.3,0.26a2,2,0,0,1,0-.45c0.18,0.33.1-.49,0.25-0.6,0.05,0.4-.09.95,0.06,0.62a2.83,2.83,0,0,1-.09.9c0.15-.5.14,0.36,0.16,0.45l-0.07.2c0-.12.06-0.11,0.08-0.11l0.05-.52a0.6,0.6,0,0,1,0,.31c0.09-.33.11-0.86,0.26-1.31,0,0.27.21-.26,0.08,0.43-0.09-.26-0.13.68-0.25,0.78,0-.08.06-0.07,0.07,0a0.86,0.86,0,0,1,0,.18c0,0.63.21-.75,0.34-0.7a1.68,1.68,0,0,0-.12.65,3.16,3.16,0,0,1,.27-0.91c0,0.31.16-.19,0.2-0.15v-0.15a0.5,0.5,0,0,1,.28-0.4c-0.09.29-.13,0.18-0.14,0.31,0.3-.62-0.07.73,0.18,0.33-0.05.26-.27,0.68-0.3,0.86,0.29-.44-0.12.53,0.13,0.19a2.48,2.48,0,0,1,.43-0.8l-0.32.25,0.21-.32,0.22-.32a1.32,1.32,0,0,1-.25.15,1.92,1.92,0,0,0,.31-0.66c-0.24.76,0.36-.33,0.24,0.2L275,279.51c-0.16.55,0.52-.48,0.51-0.1l0.07-.22c0.29-.43.14,0,0.3-0.14a7.43,7.43,0,0,0-.44.74,3.22,3.22,0,0,0,.6-0.59l-0.28.51c0,0.26.91-.87,0.95-0.63a8.17,8.17,0,0,1-.79.79s0,0.12.21-.1c-0.17.22,0.49-.34,0.25,0a1.6,1.6,0,0,1,.49-0.38l-0.15.15a2.82,2.82,0,0,0,.58-0.51c-0.42.54-.34,0.6-0.22,0.66s0.25,0.1-.18.51a0.84,0.84,0,0,1,.46.1c-0.11.07-.18,0.12-0.15,0.08-0.27.34,1.09-.6,0.81-0.2a1.91,1.91,0,0,1-.57.3c-1.22.75,0.28,0.06-.41,0.56l-0.08,0c-0.4.28,0.56-.08,0.53,0.09l-0.2.09a1.74,1.74,0,0,1,1.24,0,3.37,3.37,0,0,0-.83.25,5.49,5.49,0,0,1,1-.25,5.19,5.19,0,0,1-1.08.49l-0.07-.09c-0.73.29,0.07,0.11-.05,0.21l-0.33.09c0.14,0.11,1-.09,1,0.11l0.25-.07c0.86-.06-0.46.18,0.19,0.17l-0.85.18a3.45,3.45,0,0,1,1,.23c-0.64,0-1-.11-1.39-0.13,0,0.06.09,0.18,0.53,0.17-0.09,0-.3,0-0.17-0.06,0.7,0,1,.09,1,0.24-1.68.06-.4,0.38-1.72,0.44,0.62,0.23-.29.35-0.22,0.54a7.92,7.92,0,0,1,1.35.31c0.08,0.08,0,.1,0,0.09h-0.83a3.53,3.53,0,0,1-.57-0.19,3.63,3.63,0,0,1-.92-0.14c0.47,0.12.66,0.22,0.47,0.22l0.61,0.1c0.65,0.36-1.11-.22-0.48.12l-0.38-.18a1.76,1.76,0,0,0,.87.71,2.76,2.76,0,0,1-.56-0.26c-0.19.05,0.82,0.91,0.17,0.7l-0.27-.19c0.06,0.08.49,0.39,0.19,0.24a2.11,2.11,0,0,0-.29-0.19c0.08,0.07.42,0.4,0.23,0.33l-0.28-.25c-0.43-.13.56,0.77,0.58,1.06a4.23,4.23,0,0,0-1.19-.83l-0.09-.1c-0.2,0,.32.8,0.36,1.24-0.71-.77-0.6-0.13-1-0.56a3.43,3.43,0,0,1,.35.77c-0.13-.16.16,0.67-0.2-0.14h0c-0.4-.78-0.36-0.52-0.43-0.53l0.42,1.08c-0.41-.75-0.44-0.56-0.51-0.36s-0.13.42-.35-0.3c0,0.3,0,.3,0,0.59l-0.11-.61c-0.14-.14-0.19-0.2-0.32,0v-0.44c-0.06,0,0,1.79-.07,1.83l-0.07-.93c-0.18,0-.27-0.81-0.47,0a2.52,2.52,0,0,1,.07-0.44c-0.08,0-.16-0.65-0.32.61,0.12-.82-0.13-0.1-0.31.24l0.14-.6a2.78,2.78,0,0,1-.46,1.13c0-.08.1-0.48,0.1-0.32,0-.33-0.22.54-0.25,0.2l0.15-.37c-0.08-.07-0.13.14-0.32,0.55-0.14.21-.14-0.22,0-0.74-0.13.31-.34,0.71-0.35,0.54a1.94,1.94,0,0,1,.17-0.37c0-.43-0.51.55-0.37,0a3.18,3.18,0,0,0,.15-0.34,0.22,0.22,0,0,1,.15.18,9.39,9.39,0,0,1,.57-1.33c-0.21.37-.73,1.14-0.7,0.87l0.08-.18,0-.05c0-.06,0,0-0.09.06a0.38,0.38,0,0,0,0-.19c0.22-.41.05-0.27,0-0.31a6.69,6.69,0,0,0-.55.87,0.1,0.1,0,0,1,.09-0.06l0.05,0,0,0,0.12,0c-0.19.25-.36,0.45-0.24,0.13-0.23.33-.48,0.65-0.6,0.8a16,16,0,0,1,.84-1.67,3,3,0,0,0-1.21.81,0.9,0.9,0,0,1,.29-0.44,0.92,0.92,0,0,0,.23-0.15,1.52,1.52,0,0,0-.85.48c0.17-.34.57-0.48,0.37-0.5l0.19-.16c0.37-.56-0.07-0.27-0.53-0.07s-0.9.29-.32-0.32a1.16,1.16,0,0,1-.21.2c0.19-.38-0.06-0.46-0.27-0.6s-0.37-.34.12-0.73c0.18-.18-0.31,0-0.71,0l0.62-.22-0.76.1c-0.59-.07,1.49-0.66.44-0.65l-0.44.11c0.07-.09-0.3-0.23.21-0.28-0.08,0-.47,0-0.24,0l0.34,0-0.31-.07-0.3-.08a14.43,14.43,0,0,0,1.43-.28A6,6,0,0,0,268,283a1.07,1.07,0,0,1-.56.1l-0.19-.09a7.21,7.21,0,0,0-2.78.21l0.64,0.19-0.49.1,0-.19c-0.46.13,0,.18,0.24,0.24a1.71,1.71,0,0,0-.54.13l0.49,0.07,0.49,0.06a2.57,2.57,0,0,0-1,.15,7.24,7.24,0,0,1,1.2-.06c-0.45.15-.83,0.18-0.42,0.24a1.17,1.17,0,0,1-.55,0,1.14,1.14,0,0,0,.72.24c-0.55.21,0.21,0.32-.74,0.51a2.17,2.17,0,0,1,.85.11c-1.17.11,0,.38-1.18,0.68,1-.16.61,0.37,1.24,0.4-0.08,0-.25.05-0.21,0a1.83,1.83,0,0,1-.46.48,7.29,7.29,0,0,1,1.6-.33,9.09,9.09,0,0,1-1.66.71,11.35,11.35,0,0,0,1.26-.33,3.78,3.78,0,0,1-.78.6c1-.48.21,0,0.85-0.19-0.37.42-.85,0.54-0.46,0.56A1.06,1.06,0,0,1,264.89,287.9Zm4.78,2.12h0Zm0.34,0.16a0.31,0.31,0,0,0-.14-0.09,0.77,0.77,0,0,1,.22-0.36A1.08,1.08,0,0,0,270,290.18Zm1.49-4.05c0.07-.06,0,0,0,0.16l-0.08,0,0,0.06Z" transform="translate(-72.49 -49.44)"/><path class="cls-12" d="M271,286.79l0,0-0.06.13,0.11-.16h0Z" transform="translate(-72.49 -49.44)"/><path class="cls-12" d="M270.2,278.68h0l-0.06-.06Z" transform="translate(-72.49 -49.44)"/><polygon class="cls-12" points="202.84 242.41 202.81 242.25 202.8 242.4 202.84 242.41"/><path class="cls-12" d="M267.54,278.31l-0.14-.08Z" transform="translate(-72.49 -49.44)"/><path class="cls-12" d="M266.94,278.92h-0.25A0.87,0.87,0,0,0,266.94,278.92Z" transform="translate(-72.49 -49.44)"/><path class="cls-12" d="M266.33,279.35l0.23,0.13h0Z" transform="translate(-72.49 -49.44)"/><path class="cls-12" d="M275.81,274.75l0,0C275.95,274.64,275.89,274.67,275.81,274.75Z" transform="translate(-72.49 -49.44)"/><path class="cls-12" d="M272.47,275.87a1.88,1.88,0,0,1,.06-0.3C272.47,275.53,272.43,275.52,272.47,275.87Z" transform="translate(-72.49 -49.44)"/><path class="cls-12" d="M279.71,276.21h0l0,0v0Z" transform="translate(-72.49 -49.44)"/><path class="cls-12" d="M272.68,275.57c-0.06-.12-0.11-0.09-0.14,0S272.64,275.66,272.68,275.57Z" transform="translate(-72.49 -49.44)"/><path class="cls-12" d="M265.2,282.14l0,0h0.1Z" transform="translate(-72.49 -49.44)"/><path class="cls-12" d="M265.27,282.19l0.07,0S265.34,282.2,265.27,282.19Z" transform="translate(-72.49 -49.44)"/><path class="cls-12" d="M265.49,282.32l-0.15-.09S265.32,282.29,265.49,282.32Z" transform="translate(-72.49 -49.44)"/><path class="cls-12" d="M265.64,281.28l-0.22-.06Z" transform="translate(-72.49 -49.44)"/><path class="cls-12" d="M265.64,281c-0.07,0-.51.05-0.39,0.18l0.17,0C265.11,281.1,266,281.15,265.64,281Z" transform="translate(-72.49 -49.44)"/><path class="cls-12" d="M268.56,281l-0.22.08a1.32,1.32,0,0,1,.57.23C269.63,281.38,268.4,281.12,268.56,281Z" transform="translate(-72.49 -49.44)"/><path class="cls-12" d="M269.07,280.71a1.13,1.13,0,0,0,.42.23A0.79,0.79,0,0,0,269.07,280.71Z" transform="translate(-72.49 -49.44)"/><path class="cls-12" d="M271.34,278.58l0.23,0.52A1.88,1.88,0,0,0,271.34,278.58Z" transform="translate(-72.49 -49.44)"/><polygon class="cls-12" points="198.56 226.15 198.36 225.84 198.48 226.35 198.56 226.15"/><polygon class="cls-12" points="199.99 229.91 199.99 230 200.02 229.78 199.99 229.91"/><path class="cls-12" d="M276.31,280.5l0.53-.45A1.46,1.46,0,0,0,276.31,280.5Z" transform="translate(-72.49 -49.44)"/><path class="cls-12" d="M277.8,282c-0.33.1-.54,0.19-0.2,0.16C277.63,282.14,277.89,282,277.8,282Z" transform="translate(-72.49 -49.44)"/><polygon class="cls-12" points="202 236.87 201.95 236.64 201.96 236.84 202 236.87"/><ellipse class="cls-10" cx="240.96" cy="267.6" rx="6.21" ry="6.26"/><ellipse class="cls-10" cx="200.8" cy="275.22" rx="6.21" ry="6.26"/><line class="cls-13" x1="134.42" y1="306.67" x2="134.42" y2="306.67"/><path class="cls-10" d="M234.93,326.88a6.18,6.18,0,0,0,8.64,1.57,6.29,6.29,0,0,0,1.56-8.71,6.18,6.18,0,0,0-8.64-1.57A6.29,6.29,0,0,0,234.93,326.88Z" transform="translate(-72.49 -49.44)"/><path class="cls-10" d="M417,194.36a6.26,6.26,0,1,0,6.6,5.84A6.24,6.24,0,0,0,417,194.36Z" transform="translate(-72.49 -49.44)"/><path class="cls-14" d="M122.17,182.59c0,22.63-4.4,22.63-4.4,45.27s4.4,22.63,4.4,45.27-4.4,22.64-4.4,45.27,4.4,22.64,4.4,45.27-4.4,22.64-4.4,45.28,4.4,22.64,4.4,45.28" transform="translate(-72.49 -49.44)"/><path class="cls-14" d="M92.62,420.76c34.36,0,34.36,4.4,68.73,4.4s34.36-4.4,68.73-4.4,34.36,4.4,68.73,4.4,34.37-4.4,68.73-4.4,34.37,4.4,68.73,4.4,34.37-4.4,68.73-4.4" transform="translate(-72.49 -49.44)"/><line class="cls-15" x1="126.3" y1="373.23" x2="126.3" y2="379.93"/><line class="cls-15" x1="169.4" y1="370.13" x2="169.4" y2="379.93"/><line class="cls-15" x1="207.01" y1="373.52" x2="207.01" y2="379.93"/><line class="cls-15" x1="240.96" y1="373.52" x2="240.96" y2="379.93"/><line class="cls-15" x1="270.97" y1="373.52" x2="270.97" y2="379.93"/><line class="cls-15" x1="307.61" y1="370.13" x2="307.61" y2="379.93"/><line class="cls-15" x1="344.95" y1="373.52" x2="344.95" y2="383.49"/><text class="cls-16" transform="translate(342.35 227.99) scale(0.61 1)">Wee<tspan x="38.27" y="0">k</tspan><tspan x="47.9" y="0">end O</tspan><tspan x="101.25" y="0">u</tspan><tspan x="110.8" y="0">t</tspan><tspan x="118.69" y="0">l</tspan><tspan x="123.19" y="0">i</tspan><tspan x="127.1" y="0">er</tspan></text><path class="cls-11" d="M151.24,388.07c50-31.26,52.35-27.53,102.37-58.79s47.69-35,97.72-66.25,52.35-27.53,102.38-58.8" transform="translate(-72.49 -49.44)"/><path class="cls-17" d="M151.24,388.07c50-31.26,52.35-27.53,102.37-58.79s47.69-35,97.72-66.25,52.35-27.53,102.38-58.8" transform="translate(-72.49 -49.44)"/><text class="cls-18" transform="translate(151.31 107.87) scale(0.88 1)">D<tspan class="cls-19" x="20.85" y="0">a</tspan><tspan class="cls-19" x="35.74" y="0">t</tspan><tspan x="44.85" y="0">a An</tspan><tspan x="105.79" y="0">a</tspan><tspan x="122.4" y="0">l</tspan><tspan x="127.84" y="0">y</tspan><tspan x="142.27" y="0">st </tspan></text><text class="cls-20" transform="translate(125.83 53.87) scale(0.88 1)">Jon<tspan class="cls-19" x="67.12" y="0">a</tspan><tspan x="86.33" y="0">t</tspan><tspan x="99.91" y="0">h</tspan><tspan x="117.95" y="0">a</tspan><tspan x="139.14" y="0">n </tspan><tspan class="cls-21" x="167.81" y="0">T</tspan><tspan x="185.71" y="0">ow</tspan></text><text class="cls-22" transform="matrix(1.21, -0.19, 0.15, 0.99, 59.14, 36.51)">Im</text></svg>