<svg id="Layer_3" data-name="Layer 3" xmlns="http://www.w3.org/2000/svg" viewBox="0 0 436.13 370.52"><defs><style>.cls-1,.cls-13,.cls-14,.cls-17,.cls-2,.cls-3,.cls-4,.cls-5{fill:none;}.cls-1{stroke:#1fda9a;stroke-dasharray:29.89 4.98;opacity:0.3;}.cls-1,.cls-10,.cls-13,.cls-14,.cls-17,.cls-2,.cls-3,.cls-4,.cls-5{stroke-miterlimit:10;}.cls-1,.cls-10,.cls-17,.cls-2,.cls-3,.cls-4{stroke-width:2.49px;}.cls-2,.cls-3,.cls-4,.cls-5{stroke:#c4c4c4;}.cls-3{stroke-dasharray:30.72 5.12;}.cls-4{stroke-dasharray:30.72 5.12;}.cls-5{stroke-width:1.87px;}.cls-6{fill:#c4c4c4;}.cls-7{font-size:17.65px;}.cls-15,.cls-18,.cls-20,.cls-23,.cls-7,.cls-9{fill:#616161;font-family:Noteworthy;font-weight:700;}.cls-8{letter-spacing:-0.88px;}.cls-9{font-size:24.19px;}.cls-10,.cls-11{fill:#fff;}.cls-10{stroke:#28abe3;}.cls-12{fill:#43b6e7;}.cls-13{stroke:#565656;stroke-width:4.4px;}.cls-14{stroke:#606060;stroke-width:3.43px;}.cls-15{font-size:17.53px;}.cls-16{letter-spacing:-1.2px;}.cls-17{stroke:#5b5b5b;}.cls-18{font-size:27.16px;}.cls-19{letter-spacing:-1.01px;}.cls-20{font-size:35.03px;}.cls-21{letter-spacing:-0.93px;}.cls-22{letter-spacing:-6.5px;}.cls-23{font-size:29.33px;}</style></defs><title>fit-model</title><line class="cls-1" x1="56.33" y1="232.52" x2="406.01" y2="232.52"/><line class="cls-1" x1="218.49" y1="322.15" x2="218.49" y2="146.92"/><path class="cls-2" d="M111.33,314.79c5.25,0,10.22,0,14.95,0" transform="translate(-76.81 -43.19)"/><path class="cls-3" d="M131.39,314.86c78.79,0.55,85.45,4.33,176.6,4.33,92.12,0,97.94-3.86,179.16-4.35" transform="translate(-76.81 -43.19)"/><path class="cls-2" d="M489.7,314.83c4.72,0,9.69,0,14.95,0" transform="translate(-76.81 -43.19)"/><path class="cls-2" d="M111.33,351c5.25,0,10.22,0,14.95,0" transform="translate(-76.81 -43.19)"/><path class="cls-3" d="M131.39,351.07c78.79,0.55,85.45,4.33,176.6,4.33,92.12,0,97.94-3.86,179.16-4.35" transform="translate(-76.81 -43.19)"/><path class="cls-2" d="M489.7,351c4.72,0,9.69,0,14.95,0" transform="translate(-76.81 -43.19)"/><path class="cls-2" d="M111.35,232c5.25,0,10.22,0,14.95,0" transform="translate(-76.81 -43.19)"/><path class="cls-4" d="M131.42,232.11c78.78,0.55,85.44,4.33,176.57,4.33,92.11,0,97.93-3.86,179.13-4.35" transform="translate(-76.81 -43.19)"/><path class="cls-2" d="M489.68,232.08c4.72,0,9.69,0,14.95,0" transform="translate(-76.81 -43.19)"/><path class="cls-2" d="M111.35,193.07c5.25,0,10.22,0,14.95,0" transform="translate(-76.81 -43.19)"/><path class="cls-4" d="M131.42,193.14c78.78,0.55,85.44,4.33,176.57,4.33,92.11,0,97.93-3.86,179.13-4.35" transform="translate(-76.81 -43.19)"/><path class="cls-2" d="M489.68,193.11c4.72,0,9.69,0,14.95,0" transform="translate(-76.81 -43.19)"/><path class="cls-5" d="M405.5,334.81c-17.82-28.9-4.78-60.63,29.92-71.63" transform="translate(-76.81 -43.19)"/><path class="cls-6" d="M406.3,319.24a0.93,0.93,0,0,0-.94.93l-0.07,14.27-12.9-6.1a0.93,0.93,0,0,0-.8,1.69l14.23,6.72a0.93,0.93,0,0,0,1.33-.84l0.08-15.73A0.93,0.93,0,0,0,406.3,319.24Z" transform="translate(-76.81 -43.19)"/><text class="cls-7" transform="translate(169.39 362.85) scale(1.14 1)">C<tspan x="12.4" y="0">u</tspan><tspan x="21.02" y="0">p</tspan><tspan x="29.64" y="0">s </tspan><tspan x="42.02" y="0">o</tspan><tspan x="50.64" y="0">f C</tspan><tspan x="73.78" y="0">o</tspan><tspan class="cls-8" x="82.4" y="0">f</tspan><tspan class="cls-8" x="88.05" y="0">f</tspan><tspan x="94.2" y="0">ee</tspan></text><text class="cls-9" transform="matrix(-0.01, -0.68, 1, -0.01, 23.81, 270.56)">Work Do<tspan x="89.83" y="0">n</tspan><tspan x="102.86" y="0">e</tspan></text><path class="cls-10" d="M186.42,314.62c0,2.85,2.84,5.16,6.34,5.16s6.34-2.31,6.34-5.16,0.66-5.16-2.84-5.16S186.42,311.78,186.42,314.62Z" transform="translate(-76.81 -43.19)"/><ellipse class="cls-10" cx="262.89" cy="173.29" rx="6.34" ry="5.16"/><ellipse class="cls-10" cx="262.82" cy="220.29" rx="6.34" ry="5.16"/><ellipse class="cls-10" cx="231.17" cy="207.15" rx="6.34" ry="5.16"/><ellipse class="cls-11" cx="300.24" cy="232.43" rx="6.34" ry="5.16"/><path class="cls-12" d="M369.25,275.62a0.79,0.79,0,0,0,.54-0.05l-0.73-.06Z" transform="translate(-76.81 -43.19)"/><path class="cls-12" d="M370.62,275.26A7.41,7.41,0,0,0,369,275a12.35,12.35,0,0,0,1.22.29c0.08,0.06-.24.09-0.51,0.07,0.19,0-.17.1,0.29,0.14s0.6-.13.14-0.28A3,3,0,0,1,370.62,275.26Z" transform="translate(-76.81 -43.19)"/><path class="cls-12" d="M374.1,272.19l-0.07-.06A0.19,0.19,0,0,0,374.1,272.19Z" transform="translate(-76.81 -43.19)"/><path class="cls-12" d="M376.74,271.89a0.29,0.29,0,0,0,0,.16A0.34,0.34,0,0,0,376.74,271.89Z" transform="translate(-76.81 -43.19)"/><path class="cls-12" d="M377.17,272.69l0-.05C377.16,272.7,377.17,272.74,377.17,272.69Z" transform="translate(-76.81 -43.19)"/><path class="cls-12" d="M374.1,272.19l0.17,0.17C374.16,272.15,374.15,272.22,374.1,272.19Z" transform="translate(-76.81 -43.19)"/><path class="cls-12" d="M369,274.11a0.55,0.55,0,0,0,.17.11l-0.06-.08Z" transform="translate(-76.81 -43.19)"/><path class="cls-12" d="M373.51,273.29h0l0.18,0.23Z" transform="translate(-76.81 -43.19)"/><path class="cls-12" d="M373.07,273.91s-0.45-.39-0.66-0.56a2.29,2.29,0,0,1,.31.3Z" transform="translate(-76.81 -43.19)"/><path class="cls-12" d="M371.53,274.53l0.07,0Z" transform="translate(-76.81 -43.19)"/><path class="cls-12" d="M374,273.06l0.13,0.18Z" transform="translate(-76.81 -43.19)"/><path class="cls-12" d="M368.13,277.68l0.11,0A0.15,0.15,0,0,0,368.13,277.68Z" transform="translate(-76.81 -43.19)"/><polygon class="cls-12" points="294.06 232.43 294.1 232.45 294.44 232.45 294.06 232.43"/><path class="cls-12" d="M377.76,273.53h0C377.74,273.58,377.75,273.57,377.76,273.53Z" transform="translate(-76.81 -43.19)"/><path class="cls-12" d="M380.77,276.1c0.55,0.1.65,0.3,1.27,0.38A8.86,8.86,0,0,0,380.77,276.1Z" transform="translate(-76.81 -43.19)"/><path class="cls-12" d="M369.12,274.09a0.1,0.1,0,0,1,0-.06S369.11,274.07,369.12,274.09Z" transform="translate(-76.81 -43.19)"/><path class="cls-12" d="M382,276.49h0Z" transform="translate(-76.81 -43.19)"/><path class="cls-12" d="M379.2,273.59l0.11-.25Z" transform="translate(-76.81 -43.19)"/><path class="cls-12" d="M378.39,272.38v0.09A0.15,0.15,0,0,0,378.39,272.38Z" transform="translate(-76.81 -43.19)"/><path class="cls-12" d="M380.15,273.14s-0.06.12,0,.07l0-.07C380.14,273.2,380.11,273.23,380.15,273.14Z" transform="translate(-76.81 -43.19)"/><path class="cls-12" d="M380.65,273.54l0.08-.1h0Z" transform="translate(-76.81 -43.19)"/><path class="cls-12" d="M370.73,281.11a5.51,5.51,0,0,1,.32-0.46C370.78,281,370.53,281,370.73,281.11Z" transform="translate(-76.81 -43.19)"/><path class="cls-12" d="M369.37,274.19a0.7,0.7,0,0,1-.25-0.1l0,0Z" transform="translate(-76.81 -43.19)"/><path class="cls-12" d="M383,269.15l0.12,0.2A0.31,0.31,0,0,0,383,269.15Z" transform="translate(-76.81 -43.19)"/><path class="cls-12" d="M379.18,283.07l0,0.08S379.19,283.14,379.18,283.07Z" transform="translate(-76.81 -43.19)"/><path class="cls-12" d="M383.65,269.69a1.71,1.71,0,0,0-.19.41l0.12-.1Z" transform="translate(-76.81 -43.19)"/><path class="cls-12" d="M371.06,280.65h0Z" transform="translate(-76.81 -43.19)"/><path class="cls-12" d="M369,280.61c0.13,0.2.68-.42,1.07-0.68,0.33,0-.38.47-0.64,0.81a9.93,9.93,0,0,1,1-.33,1.18,1.18,0,0,1-.25.25c0.56-.33.37,0.32,1-0.17l-0.12.17c0.25-.32.52-0.64,0.72-0.85,0.07,0,.43-0.3.11,0.12a0.72,0.72,0,0,0-.29.23l0.21-.12a2.07,2.07,0,0,1-.62.55c0.29-.07.83-0.45,0.79-0.22-0.43.61-.39,0-0.66,0.65l0-.35c-0.63,1,0-.15-0.74.92,0.1,0.36.5-.1,0.6,0.25,0.29-.3.34-0.51,0.63-0.81,0.7-.41-0.78,1.73,0,1.06,0.33-.38.83-1.19,0.74-0.66l-0.48.7c0.2,0.22.71-1,.68-0.37a3.08,3.08,0,0,1-.32.26c-0.15.67,0.34-.37,0.45-0.31l-0.31.68a8.09,8.09,0,0,0,1.12-.38,1.82,1.82,0,0,0-.24.64c0.49-.2.74,0.34,1,0.88l0.29-.6a0.75,0.75,0,0,1-.07.41c0.09,0.27.1-.4,0.22-0.63a0.67,0.67,0,0,1-.07.56c0.38-.47.88-1,1.05-0.32l-0.07.18c0.18,0.28.36-1.29,0.48-.67l0,0.11c0.42,0.3.86-.27,1.23,0.68,0-.93.47,0.4,0.39-0.9a3,3,0,0,0,.68,1.23,6.76,6.76,0,0,0,.11-1l0.12,0.67,0-.73,0.24,0.78,0.08-.19a1,1,0,0,1-.18-0.47c0.1-.33.51,0.38,0.6,0.71l0.14-.33,0.12-.33a1.39,1.39,0,0,1,0,.56c0-.73.24,0.67,0.27,0a3,3,0,0,1-.14-0.52c0.22,0.36.46,0.3,0.56,0.07l0.13,0.45a2.86,2.86,0,0,0,.91-0.62,1.81,1.81,0,0,1-.48-1l0.35,0.63a3.51,3.51,0,0,1-.33-0.74,1.82,1.82,0,0,1,.48.93l0-.29c0.11,0.19.12,0.3,0.24,0.55-0.15-.42.61,0.5,0.33-0.24l0.11,0.18a3.16,3.16,0,0,0,.6-0.7,3.76,3.76,0,0,1-.4-0.92,1.18,1.18,0,0,0,1,0,2.29,2.29,0,0,0-.49-0.75,2.49,2.49,0,0,1,.72.58,1.14,1.14,0,0,0,.16-1,1.48,1.48,0,0,1-.44-0.3c0-.11.28,0,0.48,0.22l0,0.05c-0.18-.44.28-0.38,0.74-0.38s0.88-.1.47-0.56l0,0-0.17-.32-0.19-.31a3.58,3.58,0,0,1,.71.31c-0.33-.41-0.24-0.54-0.1-0.66a0.3,0.3,0,0,0,0-.52c0.84,0.11.9-.19,0.84-0.49s-0.18-.6.36-0.77h-0.39c-0.37-.14.23-0.11,0.33-0.19a1.49,1.49,0,0,1-.57,0,1.63,1.63,0,0,1,.12-1.35,5,5,0,0,0,.42-1.58c0-.39-2,0.51-1.24-0.19l0.72-.17a1.14,1.14,0,0,1-.81-0.73,0.82,0.82,0,0,0-.77-0.61,0.72,0.72,0,0,1,.36-0.15c0.34-.42-0.28-0.41-0.61-0.13a2.25,2.25,0,0,1,.41-0.45c0.14-.31-0.72.21-0.38-0.2a0.34,0.34,0,0,1,.2-0.1c-0.24.11-.23-0.34-0.6,0.15,0-.37-0.49-0.08-0.37-0.47-0.52.44-.07-0.5-0.71,0.23,0.64-.77.18-0.86-0.19-0.56,0.21-.22.08-0.32,0.36-0.63-0.14-.09-0.37,0-0.62.44,0.38-1.16-.94.54-0.33-0.86a11,11,0,0,1-1.58.52c0.37-.92.42,0.06,0.81-0.9-0.53.23-1,.95-1.24,0.62a1,1,0,0,1,.26-0.55c-0.47.29-.66-0.3-1.1,0.17a0.73,0.73,0,0,1,.12-0.25c-0.07,0-.11-0.17-0.2.27l0.08-.11a8.68,8.68,0,0,1-.57,1.63c0.33-1.25-.21-0.37.22-2a1.39,1.39,0,0,0-.18.58,0.9,0.9,0,0,1,.08-0.6,2.69,2.69,0,0,1-.44.66c0-.22.08-0.3,0.13-0.55-0.16.41-.3,0.82-0.44,0.62a0.49,0.49,0,0,1,.07-0.29c-0.3,0-.54,1.1-0.8.68a3.42,3.42,0,0,0-.1-1.14l-0.17.25,0.07,0.4c-0.15,0-.25.59-0.37,0.33l0.09-.34-0.26.17,0.16,0.3c-0.11.43,0.06,1-.11,0.82a1.42,1.42,0,0,1-.23-0.48h0c0,0.27-.08.55-0.19,0.36S376,269,376,268.84c0,0.69-.3.23-0.27,1a4.77,4.77,0,0,0-.09-0.69l0,0.56a1.44,1.44,0,0,1-.16-0.59c-0.21-.06.23,1-0.06,0.62a1.44,1.44,0,0,1,0-.22c-0.27-.18-0.34.43-0.6,0.21-0.27-.79.13-0.24-0.11-0.9-0.29.23-.35,1.12-0.67,1l0.08,0.07c0.36,1.11-.4-0.46-0.34.1a2.75,2.75,0,0,0-.16-0.49c-0.27-.1-0.29.43-0.38,0.89l-0.1-.28a0.73,0.73,0,0,0-.53,0,1.59,1.59,0,0,0,.29.63c-0.6-.63-0.67-0.33-0.66,0s0.06,0.66-.53.21a0.34,0.34,0,0,0-.11-0.25l0,0.21,0,0.21a3.54,3.54,0,0,0,.53.47,0.84,0.84,0,0,1,.22.52,2.18,2.18,0,0,0-.77-0.78c0.11,0.11.21,0.25,0.32,0.36-0.72-.57.67,0.77,0.12,0.45l-0.18-.2a0.76,0.76,0,0,1,.14.44,3.43,3.43,0,0,1-.49-0.59c-0.06.12,0.66,0.93,0.16,0.6-0.09-.14,0-0.2-0.13-0.34-0.58-.39-0.47-0.25-0.61-0.26h0l-0.38,0,0.18,0.08c1.09,1.09,0,.43.72,1.18a3,3,0,0,0-1-.74,1.58,1.58,0,0,1-.55-0.24c0.38,0.38-.46-0.07.12,0.48a1.12,1.12,0,0,1-.53-0.21,1.07,1.07,0,0,0,.56.31c0.26,0.28,0,.26-0.23.3s-0.44.13,0,.47a8.37,8.37,0,0,0,1.23,1,2,2,0,0,1-.72-0.3c-0.34,0-.31.13-0.11,0.3a2,2,0,0,0-.58-0.12c0,0.11.74,0.25,0.41,0.3a7.13,7.13,0,0,1-.82-0.29c0.17,0.17.54,0.37,0.71,0.51a2.13,2.13,0,0,1-.78-0.26,1.12,1.12,0,0,0,.85.54l0.22,0a1.59,1.59,0,0,1-.61-0.1c-0.44-.19.23-0.13,0.44-0.1l0.12,0.1c1.25,0.14-.15-0.32,0-0.48l0.87,0.28-0.35-.16-0.34-.17a2.67,2.67,0,0,1,.85.25c0.46,0-.29-0.17.22-0.1a0.51,0.51,0,0,1,.15.05l-0.23-.16a1.35,1.35,0,0,1,.48.2c0.53,0.06-.57-0.46.1-0.25l0,0a10,10,0,0,0-1.26-.76l0.77,0.3,0.76,0.32-0.59-.32a0.43,0.43,0,0,1,.33.11,6.17,6.17,0,0,0-.63-0.37c0.59,0.2-.08-0.42.84,0.12a2.3,2.3,0,0,1-.63-0.41c1,0.59-.1-0.23.41,0a1.89,1.89,0,0,0,.65.48c-0.79-.62.28,0,0.16-0.16-0.63-.5-0.17-0.34-0.28-0.6a3.26,3.26,0,0,0,.76.26l0.09,0.1c-0.54-.6-0.34-0.57-0.39-0.75a4.88,4.88,0,0,1,.54.71l0.05-.05a1.18,1.18,0,0,1-.25-0.43l0.37,0.48c0-.08-0.28-0.68.07-0.44a7.18,7.18,0,0,1-1.1-1.61,5.27,5.27,0,0,1,.52.79s-0.1-.24,0-0.15l0.24,0.46a0.93,0.93,0,0,0-.14-0.37c0.25,0.36.21,0.23,0.4,0.52,0,0-.14-0.12-0.06,0a1.48,1.48,0,0,1,.49.47,2.17,2.17,0,0,1-.32-0.56,2.12,2.12,0,0,1,.48.58,1.89,1.89,0,0,0-.25-0.59,1.9,1.9,0,0,1,.28.39,1,1,0,0,0-.21-0.77l0,0v0h0c-0.11-.66.52,0.14,0.58-0.17l0.08,0.2a1.42,1.42,0,0,0,.1-0.7,1.68,1.68,0,0,1,.28.6c0-.18,0-0.42.19-0.11,0,0.39.12,0.31,0,.29,0.16,0.15.27,0.48,0.22-.13,0.11,0.55.25,0.65,0.25,0.49l-0.17-.37c0-.09.1-0.05,0.16,0l0.14,0.72c0.34,0.84.08-1.57,0.47-.11,0-.51-0.16-0.34-0.2-0.94a1.86,1.86,0,0,1,.22.59c0.07,0.27.13,0.53,0.15,0.53,0.15,0.39,0-1.09.18-.81a3.35,3.35,0,0,1,0-1.2,3,3,0,0,1,.13,1.3s0-.06,0-0.15a0.9,0.9,0,0,0,0,.49v-0.26a1.32,1.32,0,0,1,.17.66,0.86,0.86,0,0,0,0-.56c0.13,0.38.19,0,.31,0.26a1.94,1.94,0,0,1,0-.45c0.18,0.33.09-.49,0.24-0.6,0.06,0.4-.07.95,0.07,0.62a2.73,2.73,0,0,1-.07.9c0.14-.5.16,0.34,0.19,0.44l-0.07.2c0-.12.06-0.11,0.08-0.11l0-.52a0.58,0.58,0,0,1,0,.32c0.07-.34.08-0.87,0.2-1.32,0,0.27.19-.26,0.1,0.42-0.11-.25-0.09.69-0.21,0.79,0-.08.06-0.07,0.07,0a0.78,0.78,0,0,1,0,.18c0,0.62.17-.77,0.31-0.73a1.58,1.58,0,0,0-.08.66,3.06,3.06,0,0,1,.21-0.93c0,0.32.14-.2,0.19-0.16l0-.15a0.55,0.55,0,0,1,.24-0.42c-0.07.3-.11,0.19-0.12,0.33,0.25-.65,0,0.73.2,0.31,0,0.27-.2.71-0.22,0.89,0.24-.46-0.06.54,0.16,0.17a2.5,2.5,0,0,1,.33-0.84l-0.29.3,0.35-.69a1.24,1.24,0,0,1-.23.18,2,2,0,0,0,.24-0.69c-0.16.77,0.32-.39,0.25,0.16l-0.45,1.22c-0.1.59,0.45-.54,0.49-0.17l0-.23c0.23-.46.13,0,0.27-0.18a7.58,7.58,0,0,0-.33.8,3.38,3.38,0,0,0,.51-0.68l-0.21.54c0,0.27.76-1,.82-0.77a8.76,8.76,0,0,1-.66.91s0,0.11.19-.14c-0.13.24,0.43-.42,0.23-0.05a1.68,1.68,0,0,1,.42-0.45c0,0.07-.13.17-0.13,0.17a3.06,3.06,0,0,0,.49-0.6c-0.69,1.16.43,0.22-.24,1.18a0.7,0.7,0,0,1,.44,0c-0.1.08-.16,0.15-0.14,0.1-0.22.36,1-.77,0.76-0.35a2.17,2.17,0,0,1-.52.39c-1.09.92,0.25,0-.36,0.59l-0.08,0c-0.36.32,0.54-.2,0.51,0l-0.18.11a1.79,1.79,0,0,1,1.2-.26,3.83,3.83,0,0,0-.79.35,5.69,5.69,0,0,1,1-.38,5.45,5.45,0,0,1-1,.59l-0.06-.06c-0.7.35,0.07,0.08,0,.18l-0.32.12a2.64,2.64,0,0,1,.94,0l0.24-.09c0.85-.13-0.44.2,0.2,0.13l-0.84.22a3.21,3.21,0,0,1,1,.12c-0.65,0-1,0-1.38,0,0,0,.09.12,0.52,0.09-0.09,0-.3,0-0.17,0,0.69-.06,1,0,1,0.15-1.68.09-.4,0.33-1.72,0.35,0.62,0.18-.29.21-0.21,0.33a9.39,9.39,0,0,1,1.32.39c0.07,0.07,0,.09,0,0.07l-0.41,0-0.4-.07a5.89,5.89,0,0,1-.56-0.23,4.75,4.75,0,0,1-.88-0.27c0.45,0.16.63,0.27,0.45,0.22l0.6,0.19c0.61,0.38-1.07-.38-0.46,0l-0.37-.21a3.34,3.34,0,0,0,.82.72,3.79,3.79,0,0,1-.52-0.33c-0.18,0,.75.95,0.13,0.62l-0.24-.23c0.05,0.08.42,0.45,0.15,0.25a2.56,2.56,0,0,0-.25-0.24c0.08,0.08.36,0.46,0.2,0.35l-0.24-.29c-0.39-.22.45,0.81,0.45,1.11a4.75,4.75,0,0,0-1-1l-0.08-.11a5.21,5.21,0,0,0,.2,1.27c-0.6-.88-0.56-0.21-1-0.7a3.48,3.48,0,0,1,.26.81c-0.11-.17.09,0.68-0.19-0.16h0c-0.31-.81-0.31-0.58-0.39-0.58l0.32,1.12c-0.34-.78-0.39-0.6-0.48-0.41s-0.16.42-.34-0.32c0,0.29-.06.29-0.07,0.59l-0.08-.62c-0.14-.15-0.2-0.2-0.34-0.05v-0.44c-0.07,0,0,1.8-.11,1.84l-0.06-.93c-0.18,0-.29-0.81-0.49,0a2.28,2.28,0,0,1,.06-0.44c-0.08,0-.2-0.65-0.31.62,0.09-.83-0.15-0.1-0.31.25l0.11-.6a3,3,0,0,1-.4,1.16c0-.08.07-0.49,0.07-0.33,0-.33-0.18.55-0.23,0.21l0.12-.37c-0.08-.07-0.12.14-0.28,0.57-0.12.23-.16-0.2,0-0.74-0.1.32-.27,0.74-0.29,0.57a2,2,0,0,1,.14-0.38c0-.44-0.45.62-0.36,0a3.25,3.25,0,0,0,.11-0.35c0.1,0.06.19,0.11,0.17,0.15a9.27,9.27,0,0,1,.42-1.38c-0.18.4-.61,1.22-0.6,0.94l0.06-.19,0-.06c0-.06,0,0-0.08.07a0.34,0.34,0,0,0,0-.18c0.17-.43,0-0.26,0-0.3a6.93,6.93,0,0,0-.43.94,0.09,0.09,0,0,1,.08-0.07,0.18,0.18,0,0,0,0,0l0,0h0.13c-0.15.28-.3,0.5-0.22,0.17-0.18.35-.38,0.71-0.48,0.87,0.29-.82.39-1.29,0.62-1.77a3,3,0,0,0-1.06,1,0.93,0.93,0,0,1,.22-0.47,1,1,0,0,0,.2-0.19,1.61,1.61,0,0,0-.75.61c0.12-.36.49-0.57,0.29-0.55l0.16-.19c0.28-.59-0.1-0.23-0.5,0s-0.83.46-.33-0.23a1.35,1.35,0,0,1-.18.22c0.13-.39-0.1-0.4-0.31-0.49s-0.37-.25.07-0.65c0.18-.18-0.29,0-0.68.13l0.6-.28-0.37.1-0.38.09c-0.3,0,.07-0.2.38-0.36s0.56-.28,0-0.24l-0.43.13c0.07-.08-0.3-0.17.21-0.25-0.08,0-.46.06-0.24,0l0.34-.06-0.31,0-0.31-.05c0.24-.16,1.37-0.13,1.43-0.27a10.45,10.45,0,0,0-1.25-.11,1.26,1.26,0,0,1-.56.09l-0.19-.08a6.88,6.88,0,0,0-2.78.22l0.32,0.1,0.32,0.09-0.49.11,0-.2c-0.46.14,0,.19,0.25,0.24a1.6,1.6,0,0,0-.54.15l0.5,0.06,0.5,0a2.43,2.43,0,0,0-1,.19,7.24,7.24,0,0,1,1.19-.11c-0.44.17-.82,0.22-0.4,0.27a1.11,1.11,0,0,1-.55,0,1.08,1.08,0,0,0,.73.22c-0.54.25,0.25,0.31-.69,0.58a2.17,2.17,0,0,1,.86,0c-1.16.21,0.06,0.39-1.1,0.8,1-.26.64,0.33,1.28,0.28-0.08,0-.24.08-0.2,0a1.79,1.79,0,0,1-.38.53,7.69,7.69,0,0,1,1.53-.54,9,9,0,0,1-1.55.93,10,10,0,0,0,1.2-.5,3.85,3.85,0,0,1-.69.69c0.89-.61.22,0,0.81-0.32-0.31.47-.77,0.66-0.38,0.62A1.05,1.05,0,0,1,369,280.61Zm4.78,1.21h0Zm0.32,0.11a0.29,0.29,0,0,0-.13-0.07,0.84,0.84,0,0,1,.17-0.39A1.18,1.18,0,0,0,374.1,281.93Zm1-4.19c0.06-.07,0,0,0,0.16L375,278l0,0.07Z" transform="translate(-76.81 -43.19)"/><path class="cls-12" d="M374.76,278.47l0,0,0,0.14,0.09-.17h0Z" transform="translate(-76.81 -43.19)"/><path class="cls-12" d="M374,272.11h0l-0.05-.07Z" transform="translate(-76.81 -43.19)"/><polygon class="cls-12" points="302.02 240.26 301.99 240.11 301.98 240.25 302.02 240.26"/><path class="cls-12" d="M371.55,271.27l-0.12-.1Z" transform="translate(-76.81 -43.19)"/><path class="cls-12" d="M370.89,271.74l-0.25-.06A0.94,0.94,0,0,0,370.89,271.74Z" transform="translate(-76.81 -43.19)"/><path class="cls-12" d="M370.25,272.06l0.21,0.16h0Z" transform="translate(-76.81 -43.19)"/><path class="cls-12" d="M379.27,268.34l0,0C379.39,268.21,379.34,268.25,379.27,268.34Z" transform="translate(-76.81 -43.19)"/><path class="cls-12" d="M376.31,269.56a1.93,1.93,0,0,1,.06-0.3C376.32,269.22,376.28,269.21,376.31,269.56Z" transform="translate(-76.81 -43.19)"/><polygon class="cls-12" points="306.13 225.94 306.12 225.95 306.14 225.97 306.13 225.94"/><path class="cls-12" d="M376.5,269.27c-0.06-.12-0.1-0.09-0.13,0S376.47,269.37,376.5,269.27Z" transform="translate(-76.81 -43.19)"/><path class="cls-12" d="M368.86,274.73l0,0,0.1,0Z" transform="translate(-76.81 -43.19)"/><path class="cls-12" d="M368.92,274.78l0.07,0S369,274.79,368.92,274.78Z" transform="translate(-76.81 -43.19)"/><path class="cls-12" d="M369.13,274.92l-0.14-.1S369,274.88,369.13,274.92Z" transform="translate(-76.81 -43.19)"/><path class="cls-12" d="M369.34,273.88l-0.21-.08Z" transform="translate(-76.81 -43.19)"/><path class="cls-12" d="M369.37,273.59c-0.07,0-.51,0-0.4.15l0.17,0.06C368.83,273.65,369.71,273.77,369.37,273.59Z" transform="translate(-76.81 -43.19)"/><path class="cls-12" d="M372.25,273.95L372,274a1.53,1.53,0,0,1,.54.3C373.27,274.49,372.08,274,372.25,273.95Z" transform="translate(-76.81 -43.19)"/><path class="cls-12" d="M372.76,273.81a1.31,1.31,0,0,0,.39.29A0.93,0.93,0,0,0,372.76,273.81Z" transform="translate(-76.81 -43.19)"/><path class="cls-12" d="M375.12,272.18l0.17,0.54A1.89,1.89,0,0,0,375.12,272.18Z" transform="translate(-76.81 -43.19)"/><polygon class="cls-12" points="298.24 226 298.08 225.68 298.15 226.19 298.24 226"/><polygon class="cls-12" points="299.39 229.85 299.38 229.94 299.43 229.72 299.39 229.85"/><path class="cls-12" d="M380.2,273.87l0.45-.53A1.65,1.65,0,0,0,380.2,273.87Z" transform="translate(-76.81 -43.19)"/><path class="cls-12" d="M381.68,274.87c-0.33.12-.53,0.21-0.19,0.15A0.42,0.42,0,0,0,381.68,274.87Z" transform="translate(-76.81 -43.19)"/><polygon class="cls-12" points="301.54 234.68 301.51 234.45 301.5 234.65 301.54 234.68"/><ellipse class="cls-10" cx="338.51" cy="301.88" rx="6.34" ry="5.16"/><ellipse class="cls-10" cx="300.94" cy="203.27" rx="6.34" ry="5.16"/><path class="cls-11" d="M230.68,331.51a7.31,7.31,0,0,0,8.83,1.29c2.88-1.63,3.59-4.84,1.59-7.18a7.31,7.31,0,0,0-8.83-1.29C229.39,326,228.68,329.17,230.68,331.51Z" transform="translate(-76.81 -43.19)"/><path class="cls-12" d="M229.57,332.46a0.81,0.81,0,0,0,.37-0.39l-0.59.43Z" transform="translate(-76.81 -43.19)"/><path class="cls-12" d="M230.37,331.29a7.41,7.41,0,0,0-1.39.88c0.61-.35.39-0.16,1.1-0.6,0.1,0-.12.22-0.34,0.38,0.16-.1-0.06.18,0.31-0.08,0.39-.42.36-0.49-0.07-0.29A3.07,3.07,0,0,1,230.37,331.29Z" transform="translate(-76.81 -43.19)"/><path class="cls-12" d="M231,326.9l-0.09,0Z" transform="translate(-76.81 -43.19)"/><path class="cls-12" d="M233.09,325.5a0.3,0.3,0,0,0,0,.15A0.35,0.35,0,0,0,233.09,325.5Z" transform="translate(-76.81 -43.19)"/><path class="cls-12" d="M233.8,326l0,0C233.79,326.07,233.81,326.1,233.8,326Z" transform="translate(-76.81 -43.19)"/><path class="cls-12" d="M231,326.9l0.23,0.06C231.05,326.83,231.09,326.9,231,326.9Z" transform="translate(-76.81 -43.19)"/><path class="cls-12" d="M228.44,331.52a0.58,0.58,0,0,0,.2,0h-0.1Z" transform="translate(-76.81 -43.19)"/><path class="cls-12" d="M231.21,328v0l0.29,0.07Z" transform="translate(-76.81 -43.19)"/><path class="cls-12" d="M231.28,328.69s-0.59,0-.86,0a2.51,2.51,0,0,1,.43,0Z" transform="translate(-76.81 -43.19)"/><path class="cls-12" d="M230.55,330.14h0Z" transform="translate(-76.81 -43.19)"/><path class="cls-12" d="M231.48,327.61l0.21,0.08Z" transform="translate(-76.81 -43.19)"/><path class="cls-12" d="M229.85,334.67l0.07-.09A0.16,0.16,0,0,0,229.85,334.67Z" transform="translate(-76.81 -43.19)"/><polygon class="cls-12" points="153.99 288.21 154.03 288.21 154.29 287.98 153.99 288.21"/><path class="cls-12" d="M234.65,326.59h0C234.65,326.65,234.66,326.63,234.65,326.59Z" transform="translate(-76.81 -43.19)"/><path class="cls-12" d="M239.48,327.78c0.47-.3.68-0.22,1.19-0.58A8.57,8.57,0,0,0,239.48,327.78Z" transform="translate(-76.81 -43.19)"/><path class="cls-12" d="M228.49,331.45a0.08,0.08,0,0,1,0-.05S228.46,331.45,228.49,331.45Z" transform="translate(-76.81 -43.19)"/><path class="cls-12" d="M240.67,327.2h0l0,0Z" transform="translate(-76.81 -43.19)"/><path class="cls-12" d="M236,326.05v0Z" transform="translate(-76.81 -43.19)"/><path class="cls-12" d="M234.75,325.28l0,0.07A0.15,0.15,0,0,0,234.75,325.28Z" transform="translate(-76.81 -43.19)"/><path class="cls-12" d="M236.75,325.24s0,0.13,0,.06v-0.08C236.77,325.3,236.75,325.33,236.75,325.24Z" transform="translate(-76.81 -43.19)"/><path class="cls-12" d="M237.44,325.38l0-.12,0,0v0.1Z" transform="translate(-76.81 -43.19)"/><path class="cls-12" d="M233.53,336.05c0-.18,0-0.37.07-0.55C233.52,335.93,233.3,336,233.53,336.05Z" transform="translate(-76.81 -43.19)"/><path class="cls-12" d="M228.74,331.36a0.75,0.75,0,0,1-.25.09l0.05,0Z" transform="translate(-76.81 -43.19)"/><path class="cls-12" d="M237.49,320.42l0.19,0.13A0.29,0.29,0,0,0,237.49,320.42Z" transform="translate(-76.81 -43.19)"/><path class="cls-12" d="M242,334.15v0.09S242,334.21,242,334.15Z" transform="translate(-76.81 -43.19)"/><path class="cls-12" d="M238.3,320.57a1.8,1.8,0,0,0,0,.44,1.46,1.46,0,0,0,.06-0.15Z" transform="translate(-76.81 -43.19)"/><path class="cls-12" d="M233.6,335.49h0Z" transform="translate(-76.81 -43.19)"/><path class="cls-12" d="M231.89,336.49c0.19,0.09.37-.71,0.57-1.13,0.28-.14-0.11.6-0.17,1a9.53,9.53,0,0,1,.63-0.76,1.29,1.29,0,0,1-.1.34c0.33-.58.44,0.09,0.8-0.66a1.82,1.82,0,0,1,0,.2c0.07-.4.17-0.8,0.24-1.09,0.07,0,.24-0.47.15,0.06a0.76,0.76,0,0,0-.15.34l0.13-.21a2.2,2.2,0,0,1-.29.78c0.22-.2.51-0.79,0.58-0.56-0.11.74-.32,0.2-0.29,0.88l-0.13-.32c-0.1,1.18-.1-0.1-0.23,1.15,0.23,0.27.38-.31,0.61-0.05,0.12-.4.08-0.61,0.2-1,0.44-.69,0,1.9.44,0.94,0.12-.49.23-1.43,0.37-0.91l-0.13.84c0.26,0.11.22-1.2,0.44-.62a3.21,3.21,0,0,1-.17.37c0.14,0.67.14-.47,0.27-0.47v0.75a9.71,9.71,0,0,0,.84-0.81,1.86,1.86,0,0,0,0,.68c0.35-.38.8,0,1.27,0.39l0-.66a0.75,0.75,0,0,1,.1.4c0.19,0.21-.07-0.4-0.05-0.67a0.67,0.67,0,0,1,.17.54c0.16-.58.39-1.3,0.84-0.72v0.2c0.29,0.18-.2-1.32.16-0.81V335c0.52,0.1.69-.61,1.43,0.09-0.38-.84.61,0.14,0-1a2.88,2.88,0,0,0,1.17.8,6.29,6.29,0,0,0-.32-0.93l0.4,0.54-0.29-.67,0.57,0.59v-0.21a1,1,0,0,1-.38-0.33c-0.06-.34.64,0.09,0.88,0.33l0-.37,0-.36a1.28,1.28,0,0,1,.27.49c-0.3-.67.53,0.48,0.26-0.14a2.76,2.76,0,0,1-.37-0.39c0.37,0.22.56,0,.55-0.25l0.33,0.33a3.11,3.11,0,0,0,.54-1.08,1.67,1.67,0,0,1-.93-0.59l0.63,0.34a3.27,3.27,0,0,1-.68-0.45,1.66,1.66,0,0,1,.9.53L243.8,332a5.92,5.92,0,0,1,.5.34c-0.35-.28.8,0,0.17-0.42l0.2,0.09a3.47,3.47,0,0,0,.14-1,3.64,3.64,0,0,1-.86-0.53,1.25,1.25,0,0,0,.8-0.61,2.07,2.07,0,0,0-.85-0.3c0.56,0.08.55-.22,0.93,0a1.18,1.18,0,0,0-.5-0.93,1.37,1.37,0,0,1-.53.06c-0.09-.07.24-0.16,0.51-0.16l0.06,0c-0.42-.23,0-0.49.3-0.83s0.58-.7,0-0.76h0.06s-0.17-.07-0.35-0.13l-0.35-.1a3.55,3.55,0,0,1,.73-0.25c-1-.13-0.12-0.74-0.85-0.82,0.69-.49.53-0.73,0.3-0.91s-0.52-.3-0.22-0.77l-0.3.25c-0.37.15,0.11-.23,0.13-0.34a1.61,1.61,0,0,1-.42.38,1.32,1.32,0,0,1-.7-1,5.39,5.39,0,0,0-.5-1.41c-0.21-.27-1.29,1.57-1.06.59l0.48-.55a0.89,0.89,0,0,1-1-.11,0.76,0.76,0,0,0-.9-0.08,0.76,0.76,0,0,1,.23-0.32c0.09-.54-0.41-0.18-0.55.22a2.43,2.43,0,0,1,.14-0.6c0-.34-0.5.54-0.39,0a0.36,0.36,0,0,1,.12-0.18c-0.15.21-.33-0.17-0.43,0.43-0.12-.33-0.44.16-0.51-0.23-0.25.63-.27-0.39-0.5,0.54,0.22-1-.2-0.85-0.39-0.41,0.09-.29-0.06-0.33,0-0.73-0.15,0-.31.16-0.35,0.67-0.15-1.21-.59.89-0.63-0.63a9.16,9.16,0,0,1-1.18,1.13c0-1,.4-0.12.35-1.16-0.38.43-.5,1.27-0.85,1.08a1.06,1.06,0,0,1,0-.61c-0.3.45-.72,0-0.92,0.6a0.73,0.73,0,0,1,0-.28c-0.05,0-.17-0.11-0.07.33l0-.13a8.68,8.68,0,0,1,.14,1.72c-0.2-1.28-.35-0.26-0.59-1.87a1.39,1.39,0,0,0,.07.6,0.89,0.89,0,0,1-.17-0.58,2.7,2.7,0,0,1-.13.79c-0.06-.21,0-0.3-0.1-0.55,0,0.44.06,0.87-.15,0.74a0.49,0.49,0,0,1-.06-0.3c-0.26.15,0,1.23-.46,0.95a3.32,3.32,0,0,0-.57-1l-0.05.3,0.23,0.33c-0.14.05,0,.64-0.21,0.46l-0.06-.35-0.17.26,0.28,0.21c0.08,0.44.5,0.91,0.24,0.79a1.47,1.47,0,0,1-.41-0.33h0c0.08,0.26.17,0.53,0,.4s-0.47-.78-0.57-0.92c0.31,0.62-.19.34,0.17,1a4.66,4.66,0,0,0-.38-0.58l0.28,0.49a1.38,1.38,0,0,1-.41-0.45c-0.22,0,.67.8,0.22,0.58a1.37,1.37,0,0,1-.09-0.2c-0.33,0-.12.54-0.45,0.48-0.61-.56,0-0.28-0.51-0.75-0.17.36,0.2,1.17-.13,1.27l0.11,0c0.87,0.78-.59-0.21-0.26.27a2.64,2.64,0,0,0-.39-0.35c-0.28.07,0,.55,0.11,1l-0.24-.19a0.83,0.83,0,0,0-.48.28,1.47,1.47,0,0,0,.58.37c-0.86-.19-0.74.14-0.56,0.4s0.43,0.51-.31.51a0.33,0.33,0,0,0-.24-0.14s0.18,0.39.19,0.39a3.57,3.57,0,0,0,.71,0,0.86,0.86,0,0,1,.49.28,2.08,2.08,0,0,0-1.09-.14c0.16,0,.32.07,0.48,0.09-0.92,0,1,.18.37,0.28L229,328a0.78,0.78,0,0,1,.39.26,3.26,3.26,0,0,1-.75-0.15c0,0.14,1.1.3,0.51,0.37-0.16-.05-0.16-0.12-0.32-0.18-0.69.08-.52,0.12-0.63,0.21h0l-0.32.23,0.19-.06c1.54,0.12.3,0.33,1.31,0.43a2.93,2.93,0,0,0-1.21.08,1.55,1.55,0,0,1-.56.19c0.54,0-.39.27,0.42,0.29a1.1,1.1,0,0,1-.53.2,1,1,0,0,0,.62-0.15c0.38,0,.18.2,0,0.38s-0.23.4,0.29,0.38a8.41,8.41,0,0,0,1.57-.11,2,2,0,0,1-.73.27c-0.24.24-.14,0.31,0.12,0.29a2,2,0,0,0-.5.31c0.1,0.06.72-.32,0.5-0.06a7.48,7.48,0,0,1-.8.34c0.24,0,.64-0.09.86-0.1a2.2,2.2,0,0,1-.75.33,1.14,1.14,0,0,0,1-.18l0.13-.18a1.62,1.62,0,0,1-.52.33c-0.45.16,0.09-.25,0.27-0.37h0.16c1-.74-0.32-0.14-0.35-0.33l0.83-.39-0.37.12-0.37.11a2.67,2.67,0,0,1,.79-0.39c0.37-.28-0.33.07,0.1-0.22a0.5,0.5,0,0,1,.14-0.07l-0.28,0a1.33,1.33,0,0,1,.48-0.18c0.43-.32-0.74.06-0.1-0.25h0.06a10.28,10.28,0,0,0-1.43.3l0.77-.31,0.78-.29-0.65.17a0.44,0.44,0,0,1,.31-0.14,6.4,6.4,0,0,0-.71.16c0.57-.25-0.34-0.25.7-0.47a2.32,2.32,0,0,1-.74.12c1.13-.22-0.23-0.1.29-0.28a2,2,0,0,0,.8-0.07c-1,.06.21-0.18,0-0.21-0.8,0-.35-0.13-0.6-0.26a4.51,4.51,0,0,0,.75-0.26l0.13,0c-0.8-.12-0.63-0.22-0.78-0.33a5.87,5.87,0,0,1,.87.22V328a1.2,1.2,0,0,1-.46-0.18l0.58,0.15c0-.07-0.64-0.35-0.22-0.35a7.17,7.17,0,0,1-1.83-.66,5.43,5.43,0,0,1,.89.34s-0.23-.13-0.09-0.11l0.46,0.23a1,1,0,0,0-.33-0.21c0.41,0.15.31,0.07,0.63,0.2,0,0-.18,0,0,0.05a1.59,1.59,0,0,1,.67.12,2.38,2.38,0,0,1-.58-0.27,2.2,2.2,0,0,1,.72.22,2.42,2.42,0,0,0-.55-0.34,2.08,2.08,0,0,1,.45.17,1.14,1.14,0,0,0-.6-0.51h0l0,0h0c-0.47-.51.52-0.13,0.38-0.42l0.17,0.13a1.59,1.59,0,0,0-.27-0.64,1.7,1.7,0,0,1,.53.39c-0.07-.17-0.24-0.35.1-0.18s0.26,0.22.14,0.25c0.21,0.06.46,0.31,0.13-.2,0.36,0.43.52,0.47,0.44,0.32l-0.31-.25c0-.1,0-0.09.11-0.09l0.46,0.57c0.35,0.29.16,0,0-.33s-0.19-.54.29,0c-0.24-.45-0.29-0.24-0.59-0.76a1.91,1.91,0,0,1,.46.44c0.18,0.21.35,0.42,0.36,0.41,0.3,0.29-.47-1-0.21-0.8a3.38,3.38,0,0,1-.51-1.09,3.1,3.1,0,0,1,.67,1.12s-0.06,0-.1-0.12a0.93,0.93,0,0,0,.21.44l-0.11-.23a1.37,1.37,0,0,1,.43.53,0.91,0.91,0,0,0-.27-0.49c0.27,0.29.16-.08,0.37,0.11a2,2,0,0,1-.2-0.4c0.3,0.23-.12-0.48,0-0.64,0.22,0.34.33,0.89,0.32,0.54a2.87,2.87,0,0,1,.31.85c-0.09-.51.28,0.25,0.35,0.33l0,0.21c0-.13,0-0.13,0-0.13l-0.18-.49a0.6,0.6,0,0,1,.14.28c-0.07-.34-0.28-0.82-0.35-1.29,0.12,0.24.06-.32,0.26,0.35-0.19-.19.2,0.67,0.13,0.81,0-.09,0-0.09.07,0a0.81,0.81,0,0,1,0,.18c0.26,0.57-.16-0.78,0-0.79a1.58,1.58,0,0,0,.2.63,3.06,3.06,0,0,1-.19-0.93c0.15,0.28,0-.24.11-0.22l-0.08-.13a0.55,0.55,0,0,1,0-.48c0.06,0.3,0,.22,0,0.35,0-.7.29,0.67,0.31,0.2,0.08,0.26.11,0.73,0.17,0.9,0-.52.16,0.52,0.22,0.09a2.43,2.43,0,0,1,0-.91l-0.15.39,0-.78a1.22,1.22,0,0,1-.14.26,1.94,1.94,0,0,0-.06-0.73c0.17,0.77.14-.48,0.29,0l0.09,1.29c0.16,0.58.2-.68,0.39-0.36l-0.06-.23c0-.52.12-0.07,0.18-0.28a6.94,6.94,0,0,0,0,.86,3,3,0,0,0,.18-0.83l0,0.57c0.11,0.25.27-1.21,0.42-1a7.83,7.83,0,0,1-.2,1.1s0.07,0.09.11-.21c0,0.27.21-.57,0.2-0.15a1.62,1.62,0,0,1,.18-0.59,2.13,2.13,0,0,1,0,.21,2.9,2.9,0,0,0,.17-0.75c-0.09,1.36.5,0,.35,1.17a0.79,0.79,0,0,1,.41-0.21c0,0.12-.07.21-0.07,0.16,0,0.43.49-1.15,0.5-.66a2,2,0,0,1-.26.59c-0.49,1.35.25-.13,0,0.69l-0.05.07c-0.14.47,0.37-.42,0.45-0.28s-0.06.11-.1,0.19a1.85,1.85,0,0,1,.89-0.85,3.62,3.62,0,0,0-.46.73,5.93,5.93,0,0,1,.63-0.87,5.59,5.59,0,0,1-.51,1.07l-0.1,0c-0.37.69,0.12,0,.09,0.19l-0.19.28c0.17,0,.67-0.72.78-0.57l0.14-.22c0.61-.62-0.23.43,0.24,0l-0.53.69a3.58,3.58,0,0,1,.92-0.53c-0.5.41-.81,0.58-1.11,0.83,0,0,.17.06,0.49-0.23-0.08,0-.24.18-0.17,0.07,0.51-.47.83-0.62,0.91-0.51-1.24,1.14-.08.53-1.06,1.41,0.6-.25,0,0.39.1,0.44a9.19,9.19,0,0,1,1.24-.61c0.1,0,.09,0,0,0.08l-0.33.24-0.34.22a5.46,5.46,0,0,1-.56.21,4.6,4.6,0,0,1-.83.41c0.44-.19.65-0.24,0.48-0.14l0.29-.13,0.28-.14c0.71-.14-1,0.45-0.35.3l-0.41.1a4.47,4.47,0,0,0,1.09-.06,4.43,4.43,0,0,1-.61.1,0.74,0.74,0,0,0,.45.12c0.24,0,.4.13,0.06,0.17l-0.33,0c0.09,0,.61.06,0.28,0.07l-0.35,0c0.11,0,.58.1,0.38,0.12l-0.36-.06c-0.45,0,.88.29,1,0.51a9.25,9.25,0,0,0-1.42-.26l-0.13,0c-0.15,0,.69.46,0.93,0.8-0.95-.43-0.55.05-1.1-0.2a4.1,4.1,0,0,1,.63.57c-0.17-.1.43,0.53-0.23-0.06h0c-0.67-.56-0.52-0.36-0.59-0.34l0.81,0.83c-0.67-.54-0.6-0.37-0.58-0.16s0.06,0.43-.42-0.16c0.14,0.26.09,0.29,0.22,0.55l-0.34-.52c-0.18-.08-0.26-0.12-0.3.08l-0.19-.4c-0.07,0,.77,1.62.69,1.7l-0.44-.82c-0.14.1-.58-0.61-0.41,0.22a2.45,2.45,0,0,1-.13-0.42c-0.07,0-.43-0.51,0,0.69-0.26-.79-0.17,0-0.17.35l-0.15-.6a2.92,2.92,0,0,1,.11,1.22c0-.07-0.14-0.47-0.06-0.33-0.16-.29.06,0.58-0.13,0.29l0-.39c-0.1,0,0,.18,0,0.64,0,0.26-.22-0.12-0.32-0.66,0,0.33,0,.79,0,0.64a1.93,1.93,0,0,1,0-.4c-0.2-.4-0.17.75-0.34,0.15a3.14,3.14,0,0,0,0-.36c0.12,0,.22,0,0.22.07a9.06,9.06,0,0,1-.18-1.43c0,0.44-.06,1.36-0.18,1.1l0-.19V331.3c0-.06,0,0-0.05.09a0.33,0.33,0,0,0-.08-0.17c0-.47-0.1-0.24-0.15-0.27a6.51,6.51,0,0,0,0,1,0.09,0.09,0,0,1,0-.1,0.18,0.18,0,0,0,0-.07v0.05l0.12,0c0,0.32-.07.58-0.13,0.24l-0.07,1c-0.08-.86-0.2-1.33-0.19-1.87a2.67,2.67,0,0,0-.56,1.35,0.92,0.92,0,0,1,0-.52,1,1,0,0,0,.1-0.26,1.5,1.5,0,0,0-.42.88c-0.06-.38.18-0.72,0-0.62l0.06-.24c0-.67-0.22-0.16-0.46.25s-0.52.79-.44-0.05a1.25,1.25,0,0,1,0,.29c-0.08-.42-0.32-0.31-0.55-0.29s-0.47,0-.34-0.62c0-.25-0.24.19-0.51,0.49l0.33-.57-0.51.58c-0.48.34,0.72-1.47-.06-0.75l-0.26.36c0-.11-0.36,0,0-0.34-0.06.06-.33,0.33-0.2,0.14l0.23-.26-0.27.16-0.27.14c0.08-.28,1-1,0.92-1.13a7.3,7.3,0,0,0-1,.71,1.18,1.18,0,0,1-.36.43l-0.19.06a7.48,7.48,0,0,0-2,2l0.6-.27-0.31.39-0.15-.11c-0.27.39,0.08,0.16,0.33,0a1.75,1.75,0,0,0-.32.45l0.42-.27,0.41-.28a2.7,2.7,0,0,0-.66.77,7.7,7.7,0,0,1,.86-0.83c-0.24.4-.51,0.67-0.16,0.45a1.23,1.23,0,0,1-.4.37,1.15,1.15,0,0,0,.69-0.3c-0.28.52,0.35,0.09-.24,0.86a2.27,2.27,0,0,1,.7-0.49c-0.81.85,0.25,0.25-.47,1.27,0.67-.8.67-0.14,1.15-0.53-0.05.07-.15,0.2-0.14,0.15a1.89,1.89,0,0,1-.06.65,7.81,7.81,0,0,1,1-1.29,10.08,10.08,0,0,1-.82,1.61,12.83,12.83,0,0,0,.74-1.07,4.09,4.09,0,0,1-.24.95c0.44-1,.18-0.12.52-0.7,0,0.55-.33,1,0,0.71A1.19,1.19,0,0,1,231.89,336.49Zm4.56-1.14h0l-0.08,0Zm0.33,0a0.28,0.28,0,0,0-.15,0,0.85,0.85,0,0,1,0-.42A1.18,1.18,0,0,0,236.79,335.32ZM236,331.07c0-.09,0,0,0,0.16a0.23,0.23,0,0,0-.05.08v-0.24Z" transform="translate(-76.81 -43.19)"/><path class="cls-12" d="M236,331.89a0.18,0.18,0,0,1,0,0l0,0.14v-0.19h0Z" transform="translate(-76.81 -43.19)"/><path class="cls-12" d="M230.92,326.88h0l-0.08,0Z" transform="translate(-76.81 -43.19)"/><polygon class="cls-12" points="165 291.47 164.9 291.35 164.96 291.48 165 291.47"/><path class="cls-12" d="M228.43,327.64h0Z" transform="translate(-76.81 -43.19)"/><path class="cls-12" d="M228.21,328.47l-0.22.12A1,1,0,0,0,228.21,328.47Z" transform="translate(-76.81 -43.19)"/><path class="cls-12" d="M227.94,329.16h0.27Z" transform="translate(-76.81 -43.19)"/><path class="cls-12" d="M233.92,321.23l0,0C234,321.07,233.95,321.12,233.92,321.23Z" transform="translate(-76.81 -43.19)"/><path class="cls-12" d="M231.7,323.59a2,2,0,0,1-.07-0.3C231.57,323.27,231.53,323.28,231.7,323.59Z" transform="translate(-76.81 -43.19)"/><path class="cls-12" d="M237.47,320.4h0Z" transform="translate(-76.81 -43.19)"/><path class="cls-12" d="M231.75,323.23c-0.1-.09-0.13,0-0.12.05S231.76,323.33,231.75,323.23Z" transform="translate(-76.81 -43.19)"/><path class="cls-12" d="M228.71,332.08v0l0.08-.05h-0.08Z" transform="translate(-76.81 -43.19)"/><path class="cls-12" d="M228.79,332.08h0.08S228.85,332,228.79,332.08Z" transform="translate(-76.81 -43.19)"/><path class="cls-12" d="M229,332l-0.17,0S228.89,332.12,229,332Z" transform="translate(-76.81 -43.19)"/><path class="cls-12" d="M228.51,331.15l-0.21.09Z" transform="translate(-76.81 -43.19)"/><path class="cls-12" d="M228.33,330.93c0,0.08-.37.35-0.2,0.38l0.16-.07C228,331.33,228.7,330.83,228.33,330.93Z" transform="translate(-76.81 -43.19)"/><path class="cls-12" d="M230.69,329.23l-0.15.17a1.61,1.61,0,0,1,.6-0.15C231.8,328.95,230.62,329.41,230.69,329.23Z" transform="translate(-76.81 -43.19)"/><path class="cls-12" d="M231,328.81a1.45,1.45,0,0,0,.48,0A1,1,0,0,0,231,328.81Z" transform="translate(-76.81 -43.19)"/><path class="cls-12" d="M231.85,326.43l0.41,0.38A2.19,2.19,0,0,0,231.85,326.43Z" transform="translate(-76.81 -43.19)"/><polygon class="cls-12" points="153.56 280.64 153.26 280.43 153.57 280.85 153.56 280.64"/><polygon class="cls-12" points="156.33 283.56 156.36 283.64 156.3 283.43 156.33 283.56"/><path class="cls-12" d="M237.19,325.88l0.15-.68A1.47,1.47,0,0,0,237.19,325.88Z" transform="translate(-76.81 -43.19)"/><path class="cls-12" d="M239.24,326.07c-0.19.29-.29,0.49-0.05,0.25C239.19,326.25,239.32,326,239.24,326.07Z" transform="translate(-76.81 -43.19)"/><polygon class="cls-12" points="162 286.75 161.86 286.56 161.96 286.74 162 286.75"/><path class="cls-10" d="M187.62,353.92a7.31,7.31,0,0,0,8.83,1.29c2.88-1.63,3.59-4.84,1.59-7.18a7.31,7.31,0,0,0-8.83-1.29C186.34,348.37,185.62,351.58,187.62,353.92Z" transform="translate(-76.81 -43.19)"/><ellipse class="cls-11" cx="191.15" cy="219.98" rx="6.34" ry="5.16"/><path class="cls-12" d="M260.15,263.17a0.79,0.79,0,0,0,.54-0.05l-0.73-.06Z" transform="translate(-76.81 -43.19)"/><path class="cls-12" d="M261.52,262.81a7.41,7.41,0,0,0-1.63-.27,12.35,12.35,0,0,0,1.22.29c0.08,0.06-.24.09-0.51,0.07,0.19,0-.17.1,0.29,0.14s0.6-.13.14-0.28A3,3,0,0,1,261.52,262.81Z" transform="translate(-76.81 -43.19)"/><path class="cls-12" d="M265,259.74l-0.07-.06A0.19,0.19,0,0,0,265,259.74Z" transform="translate(-76.81 -43.19)"/><path class="cls-12" d="M267.65,259.44a0.29,0.29,0,0,0,0,.16A0.34,0.34,0,0,0,267.65,259.44Z" transform="translate(-76.81 -43.19)"/><path class="cls-12" d="M268.08,260.24l0-.05C268.06,260.25,268.07,260.29,268.08,260.24Z" transform="translate(-76.81 -43.19)"/><path class="cls-12" d="M265,259.74l0.17,0.17C265.07,259.7,265.06,259.77,265,259.74Z" transform="translate(-76.81 -43.19)"/><path class="cls-12" d="M259.94,261.66a0.55,0.55,0,0,0,.17.11l-0.06-.08Z" transform="translate(-76.81 -43.19)"/><path class="cls-12" d="M264.41,260.84h0l0.18,0.23Z" transform="translate(-76.81 -43.19)"/><path class="cls-12" d="M264,261.46s-0.45-.39-0.66-0.56a2.29,2.29,0,0,1,.31.3Z" transform="translate(-76.81 -43.19)"/><path class="cls-12" d="M262.43,262.08l0.07,0Z" transform="translate(-76.81 -43.19)"/><path class="cls-12" d="M264.94,260.61l0.13,0.18Z" transform="translate(-76.81 -43.19)"/><path class="cls-12" d="M259,265.23l0.11,0A0.15,0.15,0,0,0,259,265.23Z" transform="translate(-76.81 -43.19)"/><polygon class="cls-12" points="184.96 219.98 185 220 185.34 220 184.96 219.98"/><path class="cls-12" d="M268.67,261.08h0C268.64,261.13,268.65,261.12,268.67,261.08Z" transform="translate(-76.81 -43.19)"/><path class="cls-12" d="M271.67,263.65c0.55,0.1.65,0.3,1.27,0.38A8.85,8.85,0,0,0,271.67,263.65Z" transform="translate(-76.81 -43.19)"/><path class="cls-12" d="M260,261.64a0.1,0.1,0,0,1,0-.06S260,261.62,260,261.64Z" transform="translate(-76.81 -43.19)"/><path class="cls-12" d="M272.93,264h0Z" transform="translate(-76.81 -43.19)"/><path class="cls-12" d="M270.1,261.14l0.11-.25Z" transform="translate(-76.81 -43.19)"/><path class="cls-12" d="M269.29,259.93V260A0.15,0.15,0,0,0,269.29,259.93Z" transform="translate(-76.81 -43.19)"/><path class="cls-12" d="M271,260.69s-0.06.12,0,.07l0-.07C271,260.75,271,260.78,271,260.69Z" transform="translate(-76.81 -43.19)"/><path class="cls-12" d="M271.55,261.09l0.08-.1h0Z" transform="translate(-76.81 -43.19)"/><path class="cls-12" d="M261.64,268.66a5.5,5.5,0,0,1,.32-0.46C261.68,268.55,261.43,268.54,261.64,268.66Z" transform="translate(-76.81 -43.19)"/><path class="cls-12" d="M260.27,261.74a0.7,0.7,0,0,1-.25-0.1l0,0Z" transform="translate(-76.81 -43.19)"/><path class="cls-12" d="M273.86,256.7l0.12,0.2A0.31,0.31,0,0,0,273.86,256.7Z" transform="translate(-76.81 -43.19)"/><path class="cls-12" d="M270.08,270.62l0,0.08S270.09,270.69,270.08,270.62Z" transform="translate(-76.81 -43.19)"/><path class="cls-12" d="M274.55,257.24a1.71,1.71,0,0,0-.19.41l0.12-.1Z" transform="translate(-76.81 -43.19)"/><path class="cls-12" d="M262,268.2h0Z" transform="translate(-76.81 -43.19)"/><path class="cls-12" d="M259.9,268.16c0.13,0.2.68-.42,1.07-0.68,0.33,0-.38.47-0.64,0.81a9.93,9.93,0,0,1,1-.33,1.18,1.18,0,0,1-.25.25c0.56-.33.37,0.32,1-0.17l-0.12.17c0.25-.32.52-0.64,0.72-0.85,0.07,0,.43-0.3.11,0.12a0.72,0.72,0,0,0-.29.23l0.21-.12a2.07,2.07,0,0,1-.62.55c0.29-.07.83-0.45,0.79-0.22-0.43.61-.39,0-0.66,0.65l0-.35c-0.63,1,0-.15-0.74.92,0.1,0.36.5-.1,0.6,0.25,0.29-.3.34-0.51,0.63-0.81,0.7-.41-0.78,1.73,0,1.06,0.33-.38.83-1.19,0.74-0.66l-0.48.7c0.2,0.22.71-1,.68-0.37a3.08,3.08,0,0,1-.32.26c-0.15.67,0.34-.37,0.45-0.31l-0.31.68a8.09,8.09,0,0,0,1.12-.38,1.82,1.82,0,0,0-.24.64c0.49-.2.74,0.34,1,0.88l0.29-.6a0.75,0.75,0,0,1-.07.41c0.09,0.27.1-.4,0.22-0.63a0.67,0.67,0,0,1-.07.56c0.38-.47.88-1,1.05-0.32l-0.07.18c0.18,0.28.36-1.29,0.48-.67l0,0.11c0.42,0.3.86-.27,1.23,0.68,0-.93.47,0.4,0.39-0.9a3,3,0,0,0,.68,1.23,6.76,6.76,0,0,0,.11-1l0.12,0.67,0-.73,0.24,0.78,0.08-.19a1,1,0,0,1-.18-0.47c0.1-.33.51,0.38,0.6,0.71l0.14-.33,0.12-.33a1.39,1.39,0,0,1,0,.56c0-.73.24,0.67,0.27,0a3,3,0,0,1-.14-0.52c0.22,0.36.46,0.3,0.56,0.07l0.13,0.45a2.86,2.86,0,0,0,.91-0.62,1.81,1.81,0,0,1-.48-1l0.35,0.63a3.51,3.51,0,0,1-.33-0.74,1.82,1.82,0,0,1,.48.93l0-.29c0.11,0.19.12,0.3,0.24,0.55-0.15-.42.61,0.5,0.33-0.24l0.11,0.18a3.16,3.16,0,0,0,.6-0.7,3.76,3.76,0,0,1-.4-0.92,1.18,1.18,0,0,0,1,0,2.29,2.29,0,0,0-.49-0.75,2.49,2.49,0,0,1,.72.58,1.14,1.14,0,0,0,.16-1,1.48,1.48,0,0,1-.44-0.3c0-.11.28,0,0.48,0.22l0,0.05c-0.18-.44.28-0.38,0.74-0.38s0.88-.1.47-0.56l0,0-0.17-.32-0.19-.31a3.58,3.58,0,0,1,.71.31c-0.33-.41-0.24-0.54-0.1-0.66a0.3,0.3,0,0,0,0-.52c0.84,0.11.9-.19,0.84-0.49s-0.18-.6.36-0.77h-0.39c-0.37-.14.23-0.11,0.33-0.19a1.49,1.49,0,0,1-.57,0,1.63,1.63,0,0,1,.12-1.35,5,5,0,0,0,.42-1.58c0-.39-2,0.51-1.24-0.19l0.72-.17a1.14,1.14,0,0,1-.81-0.73,0.82,0.82,0,0,0-.77-0.61,0.72,0.72,0,0,1,.36-0.15c0.34-.42-0.28-0.41-0.61-0.13a2.26,2.26,0,0,1,.41-0.45c0.14-.31-0.72.21-0.38-0.2a0.34,0.34,0,0,1,.2-0.1c-0.24.11-.23-0.34-0.6,0.15,0-.37-0.49-0.08-0.37-0.47-0.52.44-.07-0.5-0.71,0.23,0.64-.77.18-0.86-0.19-0.56,0.21-.22.08-0.32,0.36-0.63-0.14-.09-0.37,0-0.62.44,0.38-1.16-.94.54-0.33-0.86a11,11,0,0,1-1.58.52c0.37-.92.42,0.06,0.81-0.9-0.53.23-1,.95-1.24,0.62a1,1,0,0,1,.26-0.55c-0.47.29-.66-0.3-1.1,0.17a0.73,0.73,0,0,1,.12-0.25c-0.07,0-.11-0.17-0.2.27l0.08-.11a8.68,8.68,0,0,1-.57,1.63c0.33-1.25-.21-0.37.22-2a1.39,1.39,0,0,0-.18.58,0.9,0.9,0,0,1,.08-0.6,2.69,2.69,0,0,1-.44.66c0-.22.08-0.3,0.13-0.55-0.16.41-.3,0.82-0.44,0.62a0.49,0.49,0,0,1,.07-0.29c-0.3,0-.54,1.1-0.8.68a3.42,3.42,0,0,0-.1-1.14l-0.17.25,0.07,0.4c-0.15,0-.25.59-0.37,0.33l0.09-.34-0.26.17,0.16,0.3c-0.11.43,0.06,1-.11,0.82a1.42,1.42,0,0,1-.23-0.48h0c0,0.27-.08.55-0.19,0.36s-0.08-.9-0.12-1.08c0,0.69-.3.23-0.27,1a4.77,4.77,0,0,0-.09-0.69l0,0.56a1.44,1.44,0,0,1-.16-0.59c-0.21-.06.23,1-0.06,0.62a1.44,1.44,0,0,1,0-.22c-0.27-.18-0.34.43-0.6,0.21-0.27-.79.13-0.24-0.11-0.9-0.29.23-.35,1.12-0.67,1l0.08,0.07c0.36,1.11-.4-0.46-0.34.1a2.75,2.75,0,0,0-.16-0.49c-0.27-.1-0.29.43-0.38,0.89l-0.1-.28a0.73,0.73,0,0,0-.53,0,1.59,1.59,0,0,0,.29.63c-0.6-.63-0.67-0.33-0.66,0s0.06,0.66-.53.21a0.34,0.34,0,0,0-.11-0.25l0,0.21,0,0.21a3.54,3.54,0,0,0,.53.47,0.84,0.84,0,0,1,.22.52,2.18,2.18,0,0,0-.77-0.78c0.11,0.11.21,0.25,0.32,0.36-0.72-.57.67,0.77,0.12,0.45l-0.18-.2a0.76,0.76,0,0,1,.14.45,3.43,3.43,0,0,1-.49-0.59c-0.06.12,0.66,0.93,0.16,0.6-0.09-.14,0-0.2-0.13-0.34-0.58-.39-0.47-0.25-0.61-0.26h0l-0.38,0,0.18,0.08c1.09,1.09,0,.43.72,1.18a3,3,0,0,0-1-.74,1.58,1.58,0,0,1-.55-0.24c0.38,0.38-.46-0.07.12,0.48a1.12,1.12,0,0,1-.53-0.21,1.07,1.07,0,0,0,.56.31c0.26,0.28,0,.26-0.23.3s-0.44.13,0,.47a8.37,8.37,0,0,0,1.23,1,2,2,0,0,1-.72-0.3c-0.34,0-.31.13-0.11,0.3a2,2,0,0,0-.58-0.12c0,0.11.74,0.25,0.41,0.3a7.13,7.13,0,0,1-.82-0.29c0.17,0.17.54,0.37,0.71,0.51A2.13,2.13,0,0,1,260,262a1.12,1.12,0,0,0,.85.54l0.22,0a1.59,1.59,0,0,1-.61-0.1c-0.44-.19.23-0.13,0.44-0.1l0.12,0.1c1.25,0.14-.15-0.32,0-0.48l0.87,0.28-0.35-.16-0.34-.17a2.67,2.67,0,0,1,.85.25c0.46,0-.29-0.17.22-0.1a0.51,0.51,0,0,1,.15.05l-0.23-.16a1.35,1.35,0,0,1,.48.2c0.53,0.06-.57-0.46.1-0.25l0,0a10,10,0,0,0-1.26-.76l0.77,0.3,0.76,0.32-0.59-.32a0.43,0.43,0,0,1,.33.11,6.18,6.18,0,0,0-.63-0.37c0.59,0.2-.08-0.42.84,0.12a2.3,2.3,0,0,1-.63-0.41c1,0.59-.1-0.23.41,0a1.89,1.89,0,0,0,.65.48c-0.79-.62.28,0,0.16-0.16-0.63-.5-0.17-0.34-0.28-0.6a3.26,3.26,0,0,0,.76.26l0.09,0.1c-0.54-.6-0.34-0.57-0.39-0.75a4.88,4.88,0,0,1,.54.71l0.05-.05a1.18,1.18,0,0,1-.25-0.43l0.37,0.48c0-.08-0.28-0.68.07-0.44a7.18,7.18,0,0,1-1.1-1.61,5.27,5.27,0,0,1,.52.79s-0.1-.24,0-0.15l0.24,0.46a0.93,0.93,0,0,0-.14-0.37c0.25,0.36.21,0.23,0.4,0.52,0,0-.14-0.12-0.06,0a1.48,1.48,0,0,1,.49.47,2.17,2.17,0,0,1-.32-0.56,2.12,2.12,0,0,1,.48.58,1.89,1.89,0,0,0-.25-0.59,1.9,1.9,0,0,1,.28.39,1,1,0,0,0-.21-0.77l0,0v0h0c-0.11-.66.52,0.14,0.58-0.17l0.08,0.2a1.42,1.42,0,0,0,.1-0.7,1.68,1.68,0,0,1,.28.6c0-.18,0-0.42.19-0.11,0,0.39.12,0.31,0,.29,0.16,0.15.27,0.48,0.22-.13,0.11,0.55.25,0.65,0.25,0.49l-0.17-.37c0-.09.1-0.05,0.16,0l0.14,0.72c0.34,0.84.08-1.57,0.47-.11,0-.51-0.16-0.34-0.2-0.94a1.86,1.86,0,0,1,.22.59c0.07,0.27.13,0.53,0.15,0.53,0.15,0.39,0-1.09.18-.81a3.35,3.35,0,0,1,0-1.2,3,3,0,0,1,.13,1.3s0-.06,0-0.15a0.9,0.9,0,0,0,0,.49v-0.26a1.32,1.32,0,0,1,.17.66,0.86,0.86,0,0,0,0-.56c0.13,0.38.19,0,.31,0.26a1.94,1.94,0,0,1,0-.45c0.18,0.33.09-.49,0.24-0.6,0.06,0.4-.07.95,0.07,0.62a2.73,2.73,0,0,1-.07.9c0.14-.5.16,0.34,0.19,0.44l-0.07.2c0-.12.06-0.11,0.08-0.11l0-.52a0.58,0.58,0,0,1,0,.32c0.07-.34.08-0.87,0.2-1.32,0,0.27.19-.26,0.1,0.42-0.11-.25-0.09.69-0.21,0.79,0-.08.06-0.07,0.07,0a0.78,0.78,0,0,1,0,.18c0,0.62.17-.77,0.31-0.73a1.58,1.58,0,0,0-.08.66,3.06,3.06,0,0,1,.21-0.93c0,0.32.14-.2,0.19-0.16l0-.15a0.55,0.55,0,0,1,.24-0.42c-0.07.3-.11,0.19-0.12,0.33,0.25-.65,0,0.73.2,0.31,0,0.27-.2.71-0.22,0.89,0.24-.46-0.06.54,0.16,0.17a2.5,2.5,0,0,1,.33-0.84l-0.29.3,0.35-.69a1.24,1.24,0,0,1-.23.18,2,2,0,0,0,.24-0.69c-0.16.77,0.32-.39,0.25,0.16l-0.45,1.22c-0.1.59,0.45-.54,0.49-0.17l0-.23c0.23-.46.13,0,0.27-0.18a7.58,7.58,0,0,0-.33.8,3.38,3.38,0,0,0,.51-0.68l-0.21.54c0,0.27.76-1,.82-0.77a8.76,8.76,0,0,1-.66.91s0,0.11.19-.14c-0.13.24,0.43-.42,0.23-0.05a1.68,1.68,0,0,1,.42-0.45c0,0.07-.13.17-0.13,0.17a3.06,3.06,0,0,0,.49-0.6c-0.69,1.16.43,0.22-.24,1.18a0.7,0.7,0,0,1,.44,0c-0.1.08-.16,0.15-0.14,0.1-0.22.36,1-.77,0.76-0.35a2.17,2.17,0,0,1-.52.39c-1.09.92,0.25,0-.36,0.59l-0.08,0c-0.36.32,0.54-.2,0.51,0l-0.18.11a1.79,1.79,0,0,1,1.2-.26,3.83,3.83,0,0,0-.79.35,5.69,5.69,0,0,1,1-.38,5.45,5.45,0,0,1-1,.59l-0.06-.06c-0.7.35,0.07,0.08,0,.18l-0.32.12a2.64,2.64,0,0,1,.94,0l0.24-.09c0.85-.14-0.44.2,0.2,0.13l-0.84.22a3.21,3.21,0,0,1,1,.12c-0.65,0-1,0-1.38,0,0,0,.09.12,0.52,0.09-0.09,0-.3,0-0.17,0,0.69-.06,1,0,1,0.15-1.68.09-.4,0.33-1.72,0.35,0.62,0.18-.29.21-0.21,0.33A9.39,9.39,0,0,1,273,264c0.07,0.07,0,.09,0,0.07l-0.41,0-0.4-.07a5.88,5.88,0,0,1-.56-0.23,4.75,4.75,0,0,1-.88-0.27c0.45,0.16.63,0.27,0.45,0.22l0.6,0.19c0.61,0.38-1.07-.38-0.46,0l-0.37-.21a3.34,3.34,0,0,0,.82.72,3.79,3.79,0,0,1-.52-0.33c-0.18,0,.75.95,0.13,0.62l-0.24-.23c0.05,0.08.42,0.45,0.15,0.25a2.56,2.56,0,0,0-.25-0.24c0.08,0.08.36,0.46,0.2,0.35l-0.24-.29c-0.39-.22.45,0.81,0.45,1.11a4.75,4.75,0,0,0-1-1l-0.08-.11a5.21,5.21,0,0,0,.2,1.27c-0.6-.88-0.56-0.21-1-0.7a3.48,3.48,0,0,1,.26.81c-0.11-.17.09,0.68-0.19-0.16h0c-0.31-.81-0.31-0.58-0.39-0.58l0.32,1.12c-0.34-.78-0.39-0.6-0.48-0.41s-0.16.42-.34-0.32c0,0.29-.06.29-0.07,0.59l-0.08-.62c-0.14-.15-0.2-0.2-0.34-0.05V265c-0.07,0,0,1.8-.11,1.84l-0.06-.93c-0.18,0-.29-0.81-0.49,0a2.28,2.28,0,0,1,.06-0.44c-0.08,0-.2-0.65-0.31.62,0.09-.83-0.15-0.1-0.31.25l0.11-.6a3,3,0,0,1-.4,1.16c0-.08.07-0.49,0.07-0.33,0-.33-0.18.55-0.23,0.21l0.12-.37c-0.08-.07-0.12.14-0.28,0.57-0.12.23-.16-0.2,0-0.74-0.1.32-.27,0.74-0.29,0.57a2,2,0,0,1,.14-0.38c0-.44-0.45.62-0.36,0a3.25,3.25,0,0,0,.11-0.35c0.1,0.06.19,0.11,0.17,0.15a9.27,9.27,0,0,1,.42-1.38c-0.18.4-.61,1.22-0.6,0.94l0.06-.19,0-.06c0-.06,0,0-0.08.07a0.34,0.34,0,0,0,0-.18c0.17-.43,0-0.26,0-0.3a6.93,6.93,0,0,0-.43.94,0.09,0.09,0,0,1,.08-0.07,0.18,0.18,0,0,0,0,0l0,0h0.13c-0.15.28-.3,0.5-0.22,0.17-0.18.35-.38,0.71-0.48,0.87,0.29-.82.39-1.29,0.62-1.77a3,3,0,0,0-1.06,1,0.93,0.93,0,0,1,.22-0.47,1,1,0,0,0,.2-0.19,1.61,1.61,0,0,0-.75.61c0.12-.36.49-0.57,0.29-0.55l0.16-.19c0.28-.59-0.1-0.23-0.5,0s-0.83.46-.33-0.23a1.35,1.35,0,0,1-.18.22c0.13-.39-0.1-0.4-0.31-0.49s-0.37-.25.07-0.65c0.18-.18-0.29,0-0.68.13l0.6-.28-0.37.1-0.38.09c-0.3,0,.07-0.2.38-0.36s0.56-.28,0-0.24l-0.43.13c0.07-.08-0.3-0.17.21-0.25-0.08,0-.46.06-0.24,0l0.34-.06-0.31,0-0.31-.05c0.24-.16,1.37-0.13,1.43-0.27a10.45,10.45,0,0,0-1.25-.11,1.26,1.26,0,0,1-.56.09l-0.19-.08a6.88,6.88,0,0,0-2.78.22l0.32,0.1,0.32,0.09-0.49.11,0-.2c-0.46.14,0,.19,0.25,0.24a1.6,1.6,0,0,0-.54.15l0.5,0.06,0.5,0a2.43,2.43,0,0,0-1,.19,7.25,7.25,0,0,1,1.19-.11c-0.44.17-.82,0.22-0.4,0.27a1.11,1.11,0,0,1-.55,0,1.08,1.08,0,0,0,.73.22c-0.54.25,0.25,0.31-.69,0.58a2.17,2.17,0,0,1,.86,0c-1.16.21,0.06,0.39-1.1,0.8,1-.26.64,0.33,1.28,0.28-0.08,0-.24.08-0.2,0a1.79,1.79,0,0,1-.38.53,7.69,7.69,0,0,1,1.53-.54,9,9,0,0,1-1.55.93,10,10,0,0,0,1.2-.5,3.85,3.85,0,0,1-.69.69c0.89-.61.22,0,0.81-0.32-0.31.47-.77,0.66-0.38,0.62A1.05,1.05,0,0,1,259.9,268.16Zm4.78,1.21h0Zm0.32,0.11a0.29,0.29,0,0,0-.13-0.07A0.84,0.84,0,0,1,265,269,1.18,1.18,0,0,0,265,269.48Zm1-4.19c0.06-.07,0,0,0,0.16l-0.08.05,0,0.07Z" transform="translate(-76.81 -43.19)"/><path class="cls-12" d="M265.66,266l0,0,0,0.14,0.09-.17h0Z" transform="translate(-76.81 -43.19)"/><path class="cls-12" d="M264.92,259.66h0l-0.05-.07Z" transform="translate(-76.81 -43.19)"/><polygon class="cls-12" points="192.92 227.81 192.9 227.66 192.89 227.8 192.92 227.81"/><path class="cls-12" d="M262.45,258.82l-0.12-.1Z" transform="translate(-76.81 -43.19)"/><path class="cls-12" d="M261.79,259.29l-0.25-.06A0.94,0.94,0,0,0,261.79,259.29Z" transform="translate(-76.81 -43.19)"/><path class="cls-12" d="M261.15,259.61l0.21,0.16h0Z" transform="translate(-76.81 -43.19)"/><path class="cls-12" d="M270.17,255.89l0,0C270.29,255.76,270.24,255.8,270.17,255.89Z" transform="translate(-76.81 -43.19)"/><path class="cls-12" d="M267.21,257.11a1.93,1.93,0,0,1,.06-0.3C267.23,256.77,267.19,256.76,267.21,257.11Z" transform="translate(-76.81 -43.19)"/><polygon class="cls-12" points="197.03 213.49 197.02 213.5 197.04 213.52 197.03 213.49"/><path class="cls-12" d="M267.41,256.82c-0.06-.12-0.1-0.09-0.13,0S267.37,256.92,267.41,256.82Z" transform="translate(-76.81 -43.19)"/><path class="cls-12" d="M259.76,262.28l0,0,0.1,0Z" transform="translate(-76.81 -43.19)"/><path class="cls-12" d="M259.82,262.33l0.07,0S259.89,262.34,259.82,262.33Z" transform="translate(-76.81 -43.19)"/><path class="cls-12" d="M260,262.47l-0.14-.1S259.86,262.43,260,262.47Z" transform="translate(-76.81 -43.19)"/><path class="cls-12" d="M260.25,261.43l-0.21-.08Z" transform="translate(-76.81 -43.19)"/><path class="cls-12" d="M260.27,261.14c-0.07,0-.51,0-0.4.15l0.17,0.06C259.73,261.2,260.61,261.32,260.27,261.14Z" transform="translate(-76.81 -43.19)"/><path class="cls-12" d="M263.15,261.5l-0.23,0a1.53,1.53,0,0,1,.54.3C264.17,262,263,261.59,263.15,261.5Z" transform="translate(-76.81 -43.19)"/><path class="cls-12" d="M263.66,261.36a1.32,1.32,0,0,0,.39.29A0.93,0.93,0,0,0,263.66,261.36Z" transform="translate(-76.81 -43.19)"/><path class="cls-12" d="M266,259.73l0.17,0.54A1.89,1.89,0,0,0,266,259.73Z" transform="translate(-76.81 -43.19)"/><polygon class="cls-12" points="189.14 213.55 188.98 213.23 189.06 213.74 189.14 213.55"/><polygon class="cls-12" points="190.29 217.4 190.28 217.49 190.33 217.28 190.29 217.4"/><path class="cls-12" d="M271.1,261.42l0.45-.53A1.65,1.65,0,0,0,271.1,261.42Z" transform="translate(-76.81 -43.19)"/><path class="cls-12" d="M272.58,262.42c-0.33.12-.53,0.21-0.19,0.15A0.42,0.42,0,0,0,272.58,262.42Z" transform="translate(-76.81 -43.19)"/><polygon class="cls-12" points="192.44 222.23 192.41 222 192.4 222.2 192.44 222.23"/><ellipse class="cls-10" cx="232.16" cy="248.03" rx="6.34" ry="5.16"/><ellipse class="cls-10" cx="191.15" cy="254.31" rx="6.34" ry="5.16"/><line class="cls-10" x1="123.34" y1="280.22" x2="123.34" y2="280.22"/><path class="cls-10" d="M228.78,299.32a7.31,7.31,0,0,0,8.83,1.29c2.88-1.63,3.59-4.84,1.59-7.18a7.31,7.31,0,0,0-8.83-1.29C227.49,293.76,226.78,297,228.78,299.32Z" transform="translate(-76.81 -43.19)"/><path class="cls-10" d="M414.78,190.12c-3.5.18-6.15,2.64-5.92,5.48s3.24,5,6.74,4.81,6.15-2.64,5.92-5.48S418.27,189.94,414.78,190.12Z" transform="translate(-76.81 -43.19)"/><path class="cls-13" d="M113.55,180.43c0,18.65-4.4,18.65-4.4,37.3s4.4,18.65,4.4,37.3-4.4,18.65-4.4,37.3,4.4,18.65,4.4,37.3-4.4,18.65-4.4,37.31,4.4,18.65,4.4,37.31" transform="translate(-76.81 -43.19)"/><path class="cls-13" d="M83.41,376.29c35.1,0,35.1,4.4,70.2,4.4s35.1-4.4,70.2-4.4,35.1,4.4,70.2,4.4,35.1-4.4,70.2-4.4,35.1,4.4,70.21,4.4,35.1-4.4,70.21-4.4" transform="translate(-76.81 -43.19)"/><line class="cls-14" x1="115.05" y1="335.06" x2="115.05" y2="340.58"/><line class="cls-14" x1="159.08" y1="332.5" x2="159.08" y2="340.58"/><line class="cls-14" x1="197.49" y1="335.3" x2="197.49" y2="340.58"/><line class="cls-14" x1="232.16" y1="335.3" x2="232.16" y2="340.58"/><line class="cls-14" x1="262.82" y1="335.3" x2="262.82" y2="340.58"/><line class="cls-14" x1="300.24" y1="332.5" x2="300.24" y2="340.58"/><line class="cls-14" x1="338.38" y1="335.3" x2="338.38" y2="343.52"/><text class="cls-15" transform="translate(335.72 215.38) scale(0.84 1)">Wee<tspan class="cls-16" x="31.53" y="0">k</tspan><tspan x="39.47" y="0">end O</tspan><tspan x="83.43" y="0">u</tspan><tspan x="91.29" y="0">t</tspan><tspan x="97.8" y="0">l</tspan><tspan x="101.5" y="0">i</tspan><tspan x="104.73" y="0">er</tspan></text><path class="cls-11" d="M143.49,349.31c51.09-25.76,53.07-21.83,104.17-47.59S296.77,272,347.86,246.27,400.94,224.44,452,198.68" transform="translate(-76.81 -43.19)"/><path class="cls-17" d="M143.49,349.31c51.09-25.76,53.07-21.83,104.17-47.59S296.77,272,347.86,246.27,400.94,224.44,452,198.68" transform="translate(-76.81 -43.19)"/><text class="cls-18" transform="translate(143.2 111.56) scale(0.99 1)">D<tspan class="cls-19" x="18.88" y="0">a</tspan><tspan class="cls-19" x="32.36" y="0">t</tspan><tspan x="40.61" y="0">a An</tspan><tspan x="95.79" y="0">a</tspan><tspan x="110.83" y="0">l</tspan><tspan x="115.75" y="0">y</tspan><tspan x="128.83" y="0">st </tspan></text><text class="cls-20" transform="translate(112.59 70.82) scale(1.08 1)">Jon<tspan class="cls-21" x="60.78" y="0">a</tspan><tspan x="78.17" y="0">t</tspan><tspan x="90.47" y="0">h</tspan><tspan x="106.81" y="0">a</tspan><tspan x="125.99" y="0">n </tspan><tspan class="cls-22" x="151.95" y="0">T</tspan><tspan x="168.16" y="0">ow</tspan></text><text class="cls-23" transform="matrix(1.3, -0.36, 0.34, 0.94, 51.26, 38.22)">Im</text><text x="-76.81" y="-43.19"/></svg>