<svg id="Layer_3" data-name="Layer 3" xmlns="http://www.w3.org/2000/svg" viewBox="0 0 467.44 492.39"><defs><style>.cls-1,.cls-14,.cls-15,.cls-17,.cls-2,.cls-3,.cls-4,.cls-5{fill:none;}.cls-1,.cls-13{stroke:#28abe3;}.cls-1,.cls-10,.cls-13,.cls-14,.cls-15,.cls-17,.cls-2,.cls-23,.cls-3,.cls-4,.cls-5{stroke-miterlimit:10;}.cls-1,.cls-10,.cls-13,.cls-17,.cls-2,.cls-3,.cls-4{stroke-width:2.49px;}.cls-1{stroke-dasharray:29.89 4.98;opacity:0.3;}.cls-2,.cls-3,.cls-4,.cls-5{stroke:#c4c4c4;}.cls-3{stroke-dasharray:29.88 4.98;}.cls-4{stroke-dasharray:29.87 4.98;}.cls-5{stroke-width:1.87px;}.cls-6{fill:#c4c4c4;}.cls-7{font-size:21.41px;}.cls-16,.cls-18,.cls-20,.cls-7,.cls-9{fill:#616161;}.cls-16,.cls-18,.cls-20,.cls-22,.cls-23,.cls-7,.cls-9{font-family:Noteworthy;font-weight:700;}.cls-8{letter-spacing:-1.1px;}.cls-9{font-size:23.57px;}.cls-10,.cls-11,.cls-13{fill:#fff;}.cls-10,.cls-23{stroke:#1fda9a;}.cls-12{fill:#3bdfa7;}.cls-14{stroke:#565656;stroke-width:4.4px;}.cls-15{stroke:#606060;stroke-width:3.43px;}.cls-16{font-size:21.28px;}.cls-17{stroke:#5b5b5b;}.cls-18{font-size:31px;}.cls-19{letter-spacing:-1.14px;}.cls-20{font-size:38.69px;}.cls-21{letter-spacing:-6.84px;}.cls-22{font-size:32px;}.cls-22,.cls-23{fill:#1fda9a;}.cls-23{font-size:29px;}.cls-24{letter-spacing:-1.64px;}.cls-25{letter-spacing:-0.82px;}</style></defs><title>fit-model</title><line class="cls-1" x1="105.41" y1="318.9" x2="446.17" y2="318.9"/><line class="cls-1" x1="263.43" y1="427.68" x2="263.43" y2="215.01"/><path class="cls-2" d="M120.73,409.13c5.26,0,10.23,0,14.95,0" transform="translate(-36.59 -42.33)"/><path class="cls-3" d="M140.65,409.2c76.43,0.56,83,4.33,171.72,4.33,89.63,0,95.42-3.85,174.21-4.34" transform="translate(-36.59 -42.33)"/><path class="cls-2" d="M489.08,409.17c4.71,0,9.69,0,14.95,0" transform="translate(-36.59 -42.33)"/><path class="cls-2" d="M120.73,453.08c5.26,0,10.23,0,14.95,0" transform="translate(-36.59 -42.33)"/><path class="cls-3" d="M140.65,453.15c76.43,0.56,83,4.33,171.72,4.33,89.63,0,95.42-3.85,174.21-4.34" transform="translate(-36.59 -42.33)"/><path class="cls-2" d="M489.08,453.12c4.71,0,9.69,0,14.95,0" transform="translate(-36.59 -42.33)"/><path class="cls-2" d="M120.75,308.71c5.26,0,10.23,0,14.95,0" transform="translate(-36.59 -42.33)"/><path class="cls-4" d="M140.68,308.78c76.42,0.56,83,4.33,171.7,4.33,89.62,0,95.41-3.85,174.19-4.34" transform="translate(-36.59 -42.33)"/><path class="cls-2" d="M489.05,308.75c4.71,0,9.69,0,14.95,0" transform="translate(-36.59 -42.33)"/><path class="cls-2" d="M120.75,261.4c5.26,0,10.23,0,14.95,0" transform="translate(-36.59 -42.33)"/><path class="cls-4" d="M140.68,261.47c76.42,0.56,83,4.33,171.7,4.33,89.62,0,95.41-3.85,174.19-4.34" transform="translate(-36.59 -42.33)"/><path class="cls-2" d="M489.05,261.44c4.71,0,9.69,0,14.95,0" transform="translate(-36.59 -42.33)"/><path class="cls-5" d="M407.55,433.25c-17.59-35.15-4.91-73.84,29-87.24" transform="translate(-36.59 -42.33)"/><path class="cls-6" d="M409.8,417.82a0.93,0.93,0,0,0-1,.84l-1.41,14.2-12.27-7.28a0.93,0.93,0,0,0-1,1.6l13.53,8a0.93,0.93,0,0,0,1.4-.71l1.55-15.66A0.93,0.93,0,0,0,409.8,417.82Z" transform="translate(-36.59 -42.33)"/><text class="cls-7" transform="translate(211.71 483.07) scale(0.91 1)">C<tspan x="15.04" y="0">u</tspan><tspan x="25.51" y="0">p</tspan><tspan x="35.98" y="0">s </tspan><tspan x="50.99" y="0">o</tspan><tspan x="61.46" y="0">f C</tspan><tspan x="89.54" y="0">o</tspan><tspan class="cls-8" x="100.01" y="0">f</tspan><tspan class="cls-8" x="106.86" y="0">f</tspan><tspan x="114.33" y="0">ee</tspan></text><text class="cls-9" transform="matrix(-0.01, -0.85, 1, -0.02, 60.11, 363.52)">Work Do<tspan x="87.54" y="0">n</tspan><tspan x="100.24" y="0">e</tspan></text><path class="cls-10" d="M193.9,408.46a6.18,6.18,0,1,0,12.36,0c0-3.46.65-6.26-2.77-6.26S193.9,405,193.9,408.46Z" transform="translate(-36.59 -42.33)"/><ellipse class="cls-10" cx="306.7" cy="247.01" rx="6.18" ry="6.26"/><ellipse class="cls-10" cx="306.63" cy="304.06" rx="6.18" ry="6.26"/><ellipse class="cls-10" cx="275.79" cy="288.11" rx="6.18" ry="6.26"/><ellipse class="cls-11" cx="343.1" cy="318.79" rx="6.18" ry="6.26"/><path class="cls-12" d="M372,361.12a0.77,0.77,0,0,0,.54-0.05l-0.73-.06Z" transform="translate(-36.59 -42.33)"/><path class="cls-12" d="M373.41,360.73a6.88,6.88,0,0,0-1.63-.23c0.69,0.13.4,0.13,1.23,0.26,0.08,0.06-.24.1-0.51,0.08,0.19,0-.16.1,0.29,0.14s0.59-.15.13-0.29A2.88,2.88,0,0,1,373.41,360.73Z" transform="translate(-36.59 -42.33)"/><path class="cls-12" d="M376.69,356.86l-0.07-.05Z" transform="translate(-36.59 -42.33)"/><path class="cls-12" d="M379.37,356.29a0.29,0.29,0,0,0,0,.16A0.34,0.34,0,0,0,379.37,356.29Z" transform="translate(-36.59 -42.33)"/><path class="cls-12" d="M379.8,357.09l0-.05C379.78,357.1,379.79,357.14,379.8,357.09Z" transform="translate(-36.59 -42.33)"/><path class="cls-12" d="M376.69,356.86l0.19,0.14C376.75,356.8,376.75,356.88,376.69,356.86Z" transform="translate(-36.59 -42.33)"/><path class="cls-12" d="M371.77,359.64a0.58,0.58,0,0,0,.18.1l-0.07-.07Z" transform="translate(-36.59 -42.33)"/><path class="cls-12" d="M376.21,358.1v0l0.22,0.2Z" transform="translate(-36.59 -42.33)"/><path class="cls-12" d="M375.82,358.86s-0.5-.32-0.73-0.46a1.93,1.93,0,0,1,.34.25Z" transform="translate(-36.59 -42.33)"/><path class="cls-12" d="M374.28,359.86l0.08,0Z" transform="translate(-36.59 -42.33)"/><path class="cls-12" d="M376.73,357.75l0.15,0.16Z" transform="translate(-36.59 -42.33)"/><path class="cls-12" d="M370.81,363.06l0.11,0A0.15,0.15,0,0,0,370.81,363.06Z" transform="translate(-36.59 -42.33)"/><polygon class="cls-12" points="337.08 318.79 337.11 318.81 337.46 318.81 337.08 318.79"/><path class="cls-12" d="M380.32,357.93h0C380.29,358,380.3,358,380.32,357.93Z" transform="translate(-36.59 -42.33)"/><path class="cls-12" d="M383.23,361.9c0.56,0,.66.27,1.29,0.28A6.66,6.66,0,0,0,383.23,361.9Z" transform="translate(-36.59 -42.33)"/><path class="cls-12" d="M371.86,359.62a0.1,0.1,0,0,1,0-.06S371.83,359.6,371.86,359.62Z" transform="translate(-36.59 -42.33)"/><path class="cls-12" d="M384.52,362.19h0Z" transform="translate(-36.59 -42.33)"/><path class="cls-12" d="M381.67,358.12l0.14-.23Z" transform="translate(-36.59 -42.33)"/><path class="cls-12" d="M381,356.82v0.09A0.16,0.16,0,0,0,381,356.82Z" transform="translate(-36.59 -42.33)"/><path class="cls-12" d="M382.7,357.84s-0.07.11,0,.07l0-.06C382.68,357.9,382.64,357.93,382.7,357.84Z" transform="translate(-36.59 -42.33)"/><path class="cls-12" d="M383.17,358.37l0.09-.09h0Z" transform="translate(-36.59 -42.33)"/><path class="cls-12" d="M373,366.81a5.22,5.22,0,0,1,.39-0.4C373,366.71,372.76,366.65,373,366.81Z" transform="translate(-36.59 -42.33)"/><path class="cls-12" d="M372.11,359.7a0.74,0.74,0,0,1-.26-0.09l0,0Z" transform="translate(-36.59 -42.33)"/><path class="cls-12" d="M386.1,354.35l0.11,0.23A0.33,0.33,0,0,0,386.1,354.35Z" transform="translate(-36.59 -42.33)"/><path class="cls-12" d="M382.11,369.54l0,0.08S382.12,369.61,382.11,369.54Z" transform="translate(-36.59 -42.33)"/><path class="cls-12" d="M386.74,355a1.59,1.59,0,0,0-.24.37l0.14-.08Z" transform="translate(-36.59 -42.33)"/><path class="cls-12" d="M373.35,366.41h0Z" transform="translate(-36.59 -42.33)"/><path class="cls-12" d="M371.3,366c0.1,0.21.74-.31,1.17-0.51,0.32,0.09-.45.41-0.76,0.71,0.27,0,1-.28,1-0.17a1.14,1.14,0,0,1-.29.2c0.62-.24.33,0.39,1.07,0l-0.14.15c0.3-.28.62-0.54,0.85-0.73,0.06,0.05.49-.22,0.1,0.14a0.7,0.7,0,0,0-.33.18l0.23-.09a2,2,0,0,1-.71.44c0.31,0,.91-0.3.83-0.06-0.52.54-.39-0.06-0.76,0.52l0.07-.35c-0.77.9,0-.16-0.87,0.79,0.06,0.38.51,0,.58,0.38,0.34-.25.42-0.45,0.76-0.7,0.79-.29-1,1.61-0.13,1.08,0.39-.32,1-1,0.85-0.53l-0.58.62c0.19,0.25.86-.87,0.76-0.24a2.8,2.8,0,0,1-.37.2c-0.23.66,0.39-.3,0.5-0.22l-0.4.63a10.08,10.08,0,0,0,1.24-.18,1.63,1.63,0,0,0-.32.61c0.55-.13.78,0.48,1.08,1l0.36-.56a0.67,0.67,0,0,1-.1.41c0.09,0.28.13-.39,0.28-0.61a0.6,0.6,0,0,1-.1.56c0.46-.44,1-0.94,1.21-0.23l-0.09.18c0.21,0.3.44-1.27,0.56-.65l-0.05.11c0.47,0.32,1-.25,1.4.69,0-.93.55,0.38,0.43-0.92a2.72,2.72,0,0,0,.81,1.19,5.64,5.64,0,0,0,.09-1l0.16,0.66v-0.74l0.3,0.76,0.08-.2a0.93,0.93,0,0,1-.23-0.46c0.09-.34.59,0.32,0.71,0.64l0.14-.35,0.12-.35a1.23,1.23,0,0,1,.05.56c0-.74.31,0.65,0.3,0a2.62,2.62,0,0,1-.19-0.51c0.27,0.34.52,0.21,0.62,0l0.17,0.44a3.23,3.23,0,0,0,.94-0.78,1.65,1.65,0,0,1-.61-0.92l0.44,0.57a3.19,3.19,0,0,1-.43-0.69,1.66,1.66,0,0,1,.6.86v-0.31c0.13,0.17.16,0.28,0.31,0.51-0.2-.4.7,0.37,0.32-0.31l0.14,0.16a3.23,3.23,0,0,0,.54-0.84,3.49,3.49,0,0,1-.53-0.85,1.34,1.34,0,0,0,1-.15,2.21,2.21,0,0,0-.61-0.67c0.45,0.34.57,0.08,0.81,0.45a1.16,1.16,0,0,0,0-1,1.41,1.41,0,0,1-.48-0.22c0-.11.28,0,0.51,0.14l0,0c-0.24-.41.24-0.42,0.68-0.5s0.88-.2.39-0.61l0,0-0.22-.3-0.22-.28a3.62,3.62,0,0,1,.74.23c-0.74-.69.32-0.64-0.19-1.13,0.85,0,.86-0.24.79-0.51s-0.21-.56.32-0.73h-0.39c-0.38-.12.23-0.11,0.32-0.18a1.61,1.61,0,0,1-.57,0,1.37,1.37,0,0,1,.13-1.26,5.42,5.42,0,0,0,.54-1.45c0-.37-2,0.33-1.2-0.28l0.72-.1a1,1,0,0,1-.7-0.79,0.87,0.87,0,0,0-.68-0.71,0.7,0.7,0,0,1,.38-0.09c0.41-.37-0.23-0.44-0.59-0.22a2.2,2.2,0,0,1,.48-0.38c0.19-.29-0.74.08-0.34-0.27a0.33,0.33,0,0,1,.21-0.07c-0.26.07-.19-0.37-0.63,0,0.1-.36-0.47-0.18-0.3-0.55-0.6.35,0-.51-0.76,0.1,0.75-.65.32-0.86-0.12-0.61,0.25-.18.13-0.31,0.45-0.57-0.14-.11-0.38-0.08-0.7.32,0.55-1.12-1.05.37-.25-0.94a14.47,14.47,0,0,1-1.74.22c0.49-.88.44,0.14,1-0.77-0.59.11-1.17,0.8-1.41,0.41a0.92,0.92,0,0,1,.33-0.51c-0.53.2-.72-0.39-1.23,0a0.67,0.67,0,0,1,.15-0.24c-0.08,0-.12-0.18-0.24.25l0.1-.1a8.3,8.3,0,0,1-.71,1.58c0.43-1.22-.22-0.39.33-1.94a1.24,1.24,0,0,0-.23.56,0.81,0.81,0,0,1,.11-0.6c-0.3.18-.31,0.68-0.52,0.63a5.19,5.19,0,0,1,.17-0.54c-0.19.4-.36,0.8-0.51,0.59a0.44,0.44,0,0,1,.08-0.29c-0.34,0-.62,1.08-0.91.65,0.12-.94-0.1-0.32-0.11-1.14l-0.19.25,0.08,0.4c-0.17,0-.28.6-0.42,0.34l0.1-.34-0.29.17,0.19,0.3c-0.12.43,0.08,1-.11,0.82a1.44,1.44,0,0,1-.26-0.47h0c0,0.27-.07.55-0.2,0.37s-0.12-.9-0.16-1.07c0,0.69-.34.24-0.27,1a4.33,4.33,0,0,0-.12-0.68l0.06,0.56a1.28,1.28,0,0,1-.2-0.58c-0.23,0,.3,1,0,0.62a1.29,1.29,0,0,1,0-.22c-0.31-.16-0.36.46-0.65,0.28-0.34-.75.13-0.26-0.18-0.89-0.31.27-.31,1.17-0.66,1.14l0.09,0.06c0.49,1.06-.47-0.42-0.36.15a2.53,2.53,0,0,0-.22-0.47c-0.29,0-.27.49-0.32,1l-0.14-.27a0.87,0.87,0,0,0-.56.06,1.45,1.45,0,0,0,.37.58c-0.71-.54-0.73-0.19-0.69.13s0.14,0.65-.51.32a0.33,0.33,0,0,0-.15-0.23l0,0.43a3.37,3.37,0,0,0,.61.38,0.76,0.76,0,0,1,.28.48,2,2,0,0,0-.89-0.64c0.13,0.09.25,0.21,0.38,0.31-0.81-.43.79,0.65,0.19,0.44L374.3,357a0.69,0.69,0,0,1,.2.43,3.23,3.23,0,0,1-.57-0.51c-0.05.13,0.78,0.81,0.24,0.58-0.11-.13-0.08-0.2-0.18-0.33-0.64-.28-0.5-0.16-0.65-0.14h0l-0.38,0,0.19,0c1.24,0.91.06,0.43,0.87,1.08a2.84,2.84,0,0,0-1.06-.6,1.49,1.49,0,0,1-.57-0.15c0.44,0.33-.47,0,0.18.47a1.12,1.12,0,0,1-.55-0.14,1.06,1.06,0,0,0,.6.23c0.6,0.45-1,.18-0.18.81a11.91,11.91,0,0,0,1.32.88,1.88,1.88,0,0,1-.75-0.24c-0.33,0-.31.16-0.09,0.32a1.94,1.94,0,0,0-.58-0.07c0,0.11.76,0.2,0.43,0.27a7.69,7.69,0,0,1-.83-0.24c0.17,0.16.55,0.33,0.73,0.47a2.19,2.19,0,0,1-.79-0.22,1.15,1.15,0,0,0,.87.5l0.21-.06a1.56,1.56,0,0,1-.61-0.07c-0.44-.17.23-0.14,0.44-0.12l0.12,0.1c1.26,0.08-.16-0.32-0.06-0.5l0.89,0.22-0.72-.29a2.49,2.49,0,0,1,.87.19c0.46,0-.3-0.15.21-0.13a0.45,0.45,0,0,1,.15,0l-0.24-.15a1.15,1.15,0,0,1,.49.16c0.55,0-.6-0.43.08-0.3l0.05,0a7.79,7.79,0,0,0-1.33-.63l0.81,0.2,0.8,0.22-0.62-.25a0.41,0.41,0,0,1,.34.06,5.39,5.39,0,0,0-.67-0.29c0.6,0.11-.14-0.43.85,0a2.09,2.09,0,0,1-.68-0.32c1.06,0.45-.11-0.22.41-0.09a1.71,1.71,0,0,0,.71.38c-0.87-.51.27-0.07,0.14-0.21-0.69-.4-0.2-0.32-0.35-0.58a3.07,3.07,0,0,0,.82.11l0.11,0.08c-0.63-.5-0.43-0.52-0.5-0.7a4.36,4.36,0,0,1,.64.62l0-.06a1,1,0,0,1-.3-0.39l0.44,0.41c0-.09-0.38-0.65,0-0.47a6.63,6.63,0,0,1-1.33-1.41,4.85,4.85,0,0,1,.64.7s-0.14-.22,0-0.15l0.31,0.41c0.21,0.11-.27-0.33-0.19-0.34,0.3,0.31.25,0.19,0.48,0.45,0,0-.16-0.1-0.06,0a1.42,1.42,0,0,1,.57.38,2.05,2.05,0,0,1-.4-0.5,1.94,1.94,0,0,1,.56.49,1.83,1.83,0,0,0-.34-0.55,1.81,1.81,0,0,1,.34.34,1,1,0,0,0-.31-0.74l0,0v0h0c-0.2-.67.57,0.07,0.58-0.27l0.11,0.19a1.47,1.47,0,0,0,0-.71,1.57,1.57,0,0,1,.34.56c0-.18-0.08-0.43.19-0.14,0.06,0.38.16,0.3,0,.29,0.18,0.13.32,0.45,0.21-.14,0.16,0.53.31,0.63,0.3,0.46l-0.2-.35c0-.1.09-0.07,0.15,0l0.2,0.71c0.22,0.4.18,0,.18-0.29s0.05-.57.27,0.15c0-.51-0.18-0.34-0.25-0.93a1.8,1.8,0,0,1,.26.58c0.09,0.27.15,0.52,0.17,0.52,0.16,0.39,0-1.08.14-.82a3.16,3.16,0,0,1,0-1.2,2.91,2.91,0,0,1,.16,1.3s0-.06,0-0.15a0.89,0.89,0,0,0,0,.49v-0.26a1.31,1.31,0,0,1,.18.66,0.88,0.88,0,0,0,0-.56c0.13,0.38.18,0,.3,0.26a2,2,0,0,1,0-.45c0.17,0.33.1-.49,0.25-0.6,0.05,0.4-.09.95,0.06,0.62a2.85,2.85,0,0,1-.09.9c0.15-.5.14,0.36,0.16,0.45l-0.07.2c0-.12.06-0.11,0.08-0.11l0.05-.52a0.61,0.61,0,0,1,0,.31c0.09-.33.11-0.86,0.26-1.31,0,0.27.21-.26,0.08,0.43-0.09-.26-0.13.68-0.25,0.78,0-.08.06-0.07,0.06,0a0.87,0.87,0,0,1,0,.18c0,0.63.21-.75,0.34-0.7a1.7,1.7,0,0,0-.12.65,3.19,3.19,0,0,1,.27-0.91c0,0.31.16-.19,0.2-0.15v-0.15a0.5,0.5,0,0,1,.28-0.4c-0.09.29-.13,0.18-0.15,0.31,0.3-.62-0.08.73,0.17,0.33-0.06.26-.27,0.68-0.3,0.86,0.29-.44-0.13.53,0.13,0.19a2.5,2.5,0,0,1,.43-0.8l-0.32.25,0.21-.32,0.22-.32a1.28,1.28,0,0,1-.25.15,1.92,1.92,0,0,0,.31-0.66c-0.24.76,0.36-.33,0.24,0.2l-0.59,1.16c-0.17.55,0.52-.48,0.51-0.1l0.07-.22c0.29-.42.14,0,0.3-0.14a7.49,7.49,0,0,0-.44.74,3.24,3.24,0,0,0,.6-0.59l-0.28.51c0,0.26.91-.86,0.95-0.63a8.21,8.21,0,0,1-.79.79s0,0.12.21-.1c-0.17.22,0.5-.34,0.25,0a1.61,1.61,0,0,1,.49-0.38l-0.15.15a2.82,2.82,0,0,0,.58-0.51c-0.42.54-.34,0.6-0.22,0.66s0.25,0.1-.18.51a0.83,0.83,0,0,1,.46.1c-0.11.07-.18,0.12-0.15,0.08-0.27.33,1.1-.59,0.81-0.19a1.91,1.91,0,0,1-.57.3c-1.22.74,0.28,0.06-.41,0.56l-0.08,0c-0.41.28,0.56-.08,0.53,0.09l-0.2.09a1.74,1.74,0,0,1,1.24,0,3.38,3.38,0,0,0-.83.25,5.51,5.51,0,0,1,1.05-.24,5.2,5.2,0,0,1-1.08.49l-0.06-.09c-0.73.28,0.07,0.11-.05,0.21l-0.33.09c0.14,0.11,1-.09,1,0.11l0.25-.07c0.86-.06-0.46.18,0.18,0.17l-0.85.17a3.46,3.46,0,0,1,1,.23c-0.64,0-1-.11-1.39-0.13,0,0.06.09,0.18,0.53,0.17-0.09,0-.3,0-0.17-0.06,0.7,0,1,.09,1,0.24-1.68.06-.4,0.38-1.72,0.44,0.62,0.23-.29.35-0.22,0.54a7.93,7.93,0,0,1,1.35.31c0.08,0.08,0,.1,0,0.09h-0.83a3.53,3.53,0,0,1-.57-0.19,3.64,3.64,0,0,1-.92-0.14c0.47,0.11.66,0.21,0.47,0.21l0.61,0.1c0.65,0.36-1.11-.22-0.48.12l-0.39-.18a1.76,1.76,0,0,0,.87.71,2.76,2.76,0,0,1-.56-0.26c-0.19.05,0.83,0.91,0.17,0.7l-0.27-.19c0.06,0.08.49,0.39,0.19,0.24a2.11,2.11,0,0,0-.29-0.19c0.09,0.07.42,0.4,0.23,0.33l-0.28-.25c-0.43-.13.56,0.76,0.59,1.06a4.24,4.24,0,0,0-1.19-.83l-0.1-.1c-0.2,0,.33.8,0.37,1.23-0.71-.77-0.6-0.12-1-0.56a3.45,3.45,0,0,1,.35.77c-0.13-.16.17,0.67-0.2-0.14h0c-0.4-.78-0.36-0.52-0.43-0.53l0.43,1.08c-0.42-.75-0.44-0.56-0.51-0.36s-0.13.42-.34-0.3c0,0.3,0,.3,0,0.59l-0.11-.61c-0.14-.14-0.19-0.2-0.31,0V364c-0.06,0,0,1.79-.06,1.83l-0.07-.93c-0.18,0-.26-0.81-0.47,0a2.54,2.54,0,0,1,.07-0.44c-0.08,0-.15-0.65-0.32.61,0.12-.82-0.13-0.1-0.31.24l0.14-.6a2.79,2.79,0,0,1-.46,1.13c0-.08.1-0.48,0.1-0.32,0-.33-0.22.54-0.25,0.2l0.15-.36c-0.08-.07-0.13.14-0.32,0.55-0.14.21-.14-0.22,0-0.74-0.13.31-.35,0.71-0.35,0.54a2,2,0,0,1,.17-0.36c0-.43-0.52.54-0.37,0a3.19,3.19,0,0,0,.15-0.34,0.22,0.22,0,0,1,.15.18,9.45,9.45,0,0,1,.57-1.33c-0.21.37-.74,1.14-0.7,0.87l0.08-.18,0-.05c0-.06,0,0-0.09.06a0.38,0.38,0,0,0,0-.19c0.23-.41.05-0.27,0-0.31a6.72,6.72,0,0,0-.55.87,0.1,0.1,0,0,1,.09-0.06l0.05,0,0,0,0.12,0c-0.19.25-.37,0.45-0.24,0.13-0.23.32-.48,0.65-0.6,0.8a16,16,0,0,1,.85-1.67,3,3,0,0,0-1.22.81,0.9,0.9,0,0,1,.29-0.43,0.92,0.92,0,0,0,.23-0.15,1.52,1.52,0,0,0-.85.47c0.17-.34.57-0.48,0.37-0.5l0.19-.16c0.37-.56-0.06-0.27-0.53-0.07s-0.9.29-.32-0.32a1.16,1.16,0,0,1-.21.19c0.19-.38-0.06-0.45-0.27-0.6s-0.37-.34.12-0.72c0.18-.18-0.31,0-0.71,0l0.63-.22-0.76.1c-0.59-.07,1.49-0.66.44-0.65l-0.44.11c0.07-.09-0.3-0.23.21-0.28-0.08,0-.47,0-0.24,0l0.34,0-0.31-.07-0.3-.08a14.37,14.37,0,0,0,1.43-.28,6,6,0,0,0-1.25-.17,1.07,1.07,0,0,1-.56.1l-0.19-.09a7.24,7.24,0,0,0-2.78.21l0.64,0.19-0.49.1,0-.19c-0.46.13,0,.18,0.24,0.23a1.71,1.71,0,0,0-.54.13l0.49,0.07,0.49,0.06a2.58,2.58,0,0,0-1,.15,7.26,7.26,0,0,1,1.2-.06c-0.45.15-.83,0.17-0.42,0.24a1.17,1.17,0,0,1-.55,0,1.14,1.14,0,0,0,.72.24c-0.55.21,0.21,0.32-.74,0.51a2.17,2.17,0,0,1,.85.11c-1.17.1,0,.38-1.18,0.67,1-.15.61,0.37,1.24,0.4-0.08,0-.25.05-0.21,0a1.83,1.83,0,0,1-.46.48,7.31,7.31,0,0,1,1.6-.33,9.11,9.11,0,0,1-1.67.71,11.4,11.4,0,0,0,1.26-.33,3.79,3.79,0,0,1-.78.59c1-.48.21,0,0.85-0.19-0.37.41-.86,0.54-0.46,0.56A1.07,1.07,0,0,1,371.3,366Zm4.77,2.13h0Zm0.34,0.16a0.31,0.31,0,0,0-.14-0.09,0.77,0.77,0,0,1,.22-0.36A1.08,1.08,0,0,0,376.41,368.28Zm1.5-4c0.07-.06,0,0,0,0.16l-0.08,0,0,0.06Z" transform="translate(-36.59 -42.33)"/><path class="cls-12" d="M377.44,364.9l0,0-0.06.13,0.11-.16h0Z" transform="translate(-36.59 -42.33)"/><path class="cls-12" d="M376.6,356.8h0l-0.06-.06Z" transform="translate(-36.59 -42.33)"/><polygon class="cls-12" points="345.14 327.63 345.11 327.48 345.1 327.62 345.14 327.63"/><path class="cls-12" d="M373.94,356.43l-0.14-.08Z" transform="translate(-36.59 -42.33)"/><path class="cls-12" d="M373.34,357h-0.25A0.87,0.87,0,0,0,373.34,357Z" transform="translate(-36.59 -42.33)"/><path class="cls-12" d="M372.74,357.47L373,357.6h0Z" transform="translate(-36.59 -42.33)"/><path class="cls-12" d="M382.2,352.86l0,0C382.34,352.75,382.28,352.78,382.2,352.86Z" transform="translate(-36.59 -42.33)"/><path class="cls-12" d="M378.86,354a1.88,1.88,0,0,1,.06-0.3C378.86,353.64,378.82,353.63,378.86,354Z" transform="translate(-36.59 -42.33)"/><path class="cls-12" d="M386.09,354.33h0l0,0v0Z" transform="translate(-36.59 -42.33)"/><path class="cls-12" d="M379.07,353.68c-0.06-.12-0.11-0.09-0.14,0S379,353.77,379.07,353.68Z" transform="translate(-36.59 -42.33)"/><path class="cls-12" d="M371.62,360.26l0,0h0.1Z" transform="translate(-36.59 -42.33)"/><path class="cls-12" d="M371.69,360.3l0.07,0S371.76,360.31,371.69,360.3Z" transform="translate(-36.59 -42.33)"/><path class="cls-12" d="M371.91,360.44l-0.15-.09S371.74,360.4,371.91,360.44Z" transform="translate(-36.59 -42.33)"/><path class="cls-12" d="M372.05,359.4l-0.22-.06Z" transform="translate(-36.59 -42.33)"/><path class="cls-12" d="M372.06,359.11c-0.07,0-.51.05-0.39,0.18l0.17,0C371.52,359.22,372.41,359.26,372.06,359.11Z" transform="translate(-36.59 -42.33)"/><path class="cls-12" d="M375,359.09l-0.22.08a1.32,1.32,0,0,1,.57.23C376,359.49,374.82,359.23,375,359.09Z" transform="translate(-36.59 -42.33)"/><path class="cls-12" d="M375.48,358.82a1.13,1.13,0,0,0,.42.23A0.8,0.8,0,0,0,375.48,358.82Z" transform="translate(-36.59 -42.33)"/><path class="cls-12" d="M377.74,356.69l0.23,0.51A1.89,1.89,0,0,0,377.74,356.69Z" transform="translate(-36.59 -42.33)"/><polygon class="cls-12" points="340.85 311.37 340.66 311.07 340.78 311.57 340.85 311.37"/><polygon class="cls-12" points="342.3 315.13 342.3 315.22 342.32 315 342.3 315.13"/><path class="cls-12" d="M382.67,358.61l0.53-.45A1.47,1.47,0,0,0,382.67,358.61Z" transform="translate(-36.59 -42.33)"/><path class="cls-12" d="M384.16,360.14c-0.33.1-.54,0.19-0.2,0.16C384,360.25,384.25,360.15,384.16,360.14Z" transform="translate(-36.59 -42.33)"/><polygon class="cls-12" points="344.29 322.09 344.23 321.87 344.24 322.07 344.29 322.09"/><ellipse class="cls-10" cx="380.39" cy="403.08" rx="6.18" ry="6.26"/><ellipse class="cls-10" cx="343.78" cy="283.4" rx="6.18" ry="6.26"/><path class="cls-11" d="M237,428.95a6.13,6.13,0,0,0,8.6,1.57,6.31,6.31,0,0,0,1.55-8.71,6.13,6.13,0,0,0-8.6-1.57A6.31,6.31,0,0,0,237,428.95Z" transform="translate(-36.59 -42.33)"/><path class="cls-12" d="M235.83,429.77a0.77,0.77,0,0,0,.41-0.35l-0.63.36Z" transform="translate(-36.59 -42.33)"/><path class="cls-12" d="M236.74,428.68a6.88,6.88,0,0,0-1.47.74c0.65-.28.41-0.12,1.16-0.48,0.1,0-.14.22-0.37,0.35,0.17-.08-0.08.17,0.32,0,0.43-.38.4-0.46-0.05-0.31A2.87,2.87,0,0,1,236.74,428.68Z" transform="translate(-36.59 -42.33)"/><path class="cls-12" d="M237.26,423.62h0Z" transform="translate(-36.59 -42.33)"/><path class="cls-12" d="M239.13,421.61a0.28,0.28,0,0,0,.08.14A0.34,0.34,0,0,0,239.13,421.61Z" transform="translate(-36.59 -42.33)"/><path class="cls-12" d="M239.94,422l0,0C239.94,422,240,422.05,239.94,422Z" transform="translate(-36.59 -42.33)"/><path class="cls-12" d="M237.26,423.62h0.24C237.27,423.54,237.32,423.6,237.26,423.62Z" transform="translate(-36.59 -42.33)"/><path class="cls-12" d="M234.78,428.71a0.58,0.58,0,0,0,.2,0l-0.1,0Z" transform="translate(-36.59 -42.33)"/><path class="cls-12" d="M237.57,424.92v0l0.29,0Z" transform="translate(-36.59 -42.33)"/><path class="cls-12" d="M237.68,425.77s-0.59,0-.86,0a1.92,1.92,0,0,1,.42,0Z" transform="translate(-36.59 -42.33)"/><path class="cls-12" d="M237,427.47h0Z" transform="translate(-36.59 -42.33)"/><path class="cls-12" d="M237.8,424.33l0.22,0Z" transform="translate(-36.59 -42.33)"/><path class="cls-12" d="M235.93,432.08L236,432A0.15,0.15,0,0,0,235.93,432.08Z" transform="translate(-36.59 -42.33)"/><polygon class="cls-12" points="200.58 386.53 200.62 386.52 200.91 386.33 200.58 386.53"/><path class="cls-12" d="M240.86,422.39h0C240.87,422.45,240.87,422.44,240.86,422.39Z" transform="translate(-36.59 -42.33)"/><path class="cls-12" d="M245.46,423.94c0.48-.29.7-0.15,1.23-0.49A6.67,6.67,0,0,0,245.46,423.94Z" transform="translate(-36.59 -42.33)"/><path class="cls-12" d="M234.83,428.64a0.1,0.1,0,0,1,0-.05S234.8,428.64,234.83,428.64Z" transform="translate(-36.59 -42.33)"/><path class="cls-12" d="M246.68,423.45h0l0,0Z" transform="translate(-36.59 -42.33)"/><path class="cls-12" d="M242.07,421.75l0-.27Z" transform="translate(-36.59 -42.33)"/><path class="cls-12" d="M240.77,421.09l0.06,0.07A0.14,0.14,0,0,0,240.77,421.09Z" transform="translate(-36.59 -42.33)"/><path class="cls-12" d="M242.74,420.93s0,0.13,0,.05v-0.08C242.76,421,242.74,421,242.74,420.93Z" transform="translate(-36.59 -42.33)"/><path class="cls-12" d="M243.43,421.09l0-.12,0,0v0.1Z" transform="translate(-36.59 -42.33)"/><path class="cls-12" d="M239.86,433.94a5.19,5.19,0,0,1,.08-0.55C239.85,433.81,239.6,433.91,239.86,433.94Z" transform="translate(-36.59 -42.33)"/><path class="cls-12" d="M235.09,428.56a0.74,0.74,0,0,1-.26.07l0,0Z" transform="translate(-36.59 -42.33)"/><path class="cls-12" d="M243.5,416.12l0.22,0.12A0.34,0.34,0,0,0,243.5,416.12Z" transform="translate(-36.59 -42.33)"/><path class="cls-12" d="M248.9,430.86l0,0.09S248.95,430.91,248.9,430.86Z" transform="translate(-36.59 -42.33)"/><path class="cls-12" d="M244.42,416.3a1.59,1.59,0,0,0,0,.44,1.33,1.33,0,0,0,.07-0.15Z" transform="translate(-36.59 -42.33)"/><path class="cls-12" d="M239.94,433.38h0Z" transform="translate(-36.59 -42.33)"/><path class="cls-12" d="M238,434.22c0.21,0.11.43-.68,0.66-1.08,0.32-.11-0.13.59-0.21,1,0.24-.12.63-0.78,0.72-0.71a1.13,1.13,0,0,1-.12.33c0.37-.56.49,0.14,0.9-0.59a1.61,1.61,0,0,1,0,.2c0.08-.4.19-0.8,0.27-1.08,0.08,0,.27-0.46.16,0.06a0.7,0.7,0,0,0-.17.34l0.14-.2a2,2,0,0,1-.33.77c0.25-.2.57-0.77,0.65-0.53-0.12.74-.36,0.18-0.32,0.87l-0.15-.33c-0.11,1.18-.12-0.11-0.26,1.15,0.27,0.28.43-.28,0.69,0,0.14-.4.08-0.61,0.21-1,0.48-.69.09,1.91,0.53,1,0.13-.49.21-1.43,0.39-0.93l-0.12.84c0.3,0.1.2-1.21,0.48-.63a2.77,2.77,0,0,1-.18.37c0.19,0.67.14-.47,0.28-0.47l0,0.75a9.32,9.32,0,0,0,.91-0.87,1.63,1.63,0,0,0,.09.68c0.38-.42.91-0.07,1.48,0.22l0-.66a0.66,0.66,0,0,1,.16.39c0.24,0.17-.12-0.39-0.13-0.66a0.6,0.6,0,0,1,.24.51c0.12-.62.29-1.37,0.85-0.89l0,0.2c0.34,0.12-.38-1.29.08-0.85l0,0.12c0.57,0,.65-0.77,1.54-0.25-0.53-.75.67,0-0.18-1a2.75,2.75,0,0,0,1.35.51,5.86,5.86,0,0,0-.5-0.86l0.51,0.45-0.42-.6,0.68,0.45-0.05-.21a0.94,0.94,0,0,1-.45-0.24c-0.12-.33.66-0.08,0.95,0.11l-0.09-.37-0.1-.35a1.24,1.24,0,0,1,.36.43c-0.43-.6.62,0.35,0.23-0.2a2.64,2.64,0,0,1-.44-0.31c0.41,0.12.55-.12,0.49-0.38l0.39,0.26a3.23,3.23,0,0,0,.31-1.17,1.66,1.66,0,0,1-1-.41l0.69,0.22a3.22,3.22,0,0,1-.75-0.32,1.67,1.67,0,0,1,1,.36l-0.18-.26c0.2,0.06.3,0.14,0.55,0.24-0.4-.21.79-0.09,0.09-0.43l0.21,0.05a3.26,3.26,0,0,0,0-1,3.51,3.51,0,0,1-.92-0.4,1.34,1.34,0,0,0,.72-0.67,2.22,2.22,0,0,0-.88-0.21c0.56,0,.52-0.26.92-0.09a1.16,1.16,0,0,0-.57-0.85,1.42,1.42,0,0,1-.52.09c-0.1-.06.23-0.17,0.5-0.18l0.06,0c-0.43-.2,0-0.48.28-0.8s0.61-.66,0-0.72h0.06l-0.35-.12-0.34-.11a3.62,3.62,0,0,1,.74-0.23c-1-.15-0.09-0.71-0.8-0.83,0.73-.44.57-0.68,0.37-0.87s-0.49-.34-0.15-0.78l-0.32.22c-0.38.11,0.13-.22,0.16-0.33a1.6,1.6,0,0,1-.45.34,1.38,1.38,0,0,1-.61-1.12,5.38,5.38,0,0,0-.39-1.51c-0.2-.31-1.46,1.41-1.15.45L248,418a1,1,0,0,1-1-.26,0.88,0.88,0,0,0-1-.2,0.7,0.7,0,0,1,.26-0.3c0.12-.53-0.44-0.24-0.61.16a2.19,2.19,0,0,1,.17-0.59c0-.34-0.56.48-0.43,0a0.34,0.34,0,0,1,.14-0.18c-0.17.21-.37-0.2-0.49,0.4-0.13-.35-0.49.11-0.57-0.28-0.28.63-.31-0.41-0.56,0.52,0.24-1-.24-0.88-0.45-0.43,0.1-.29-0.08-0.33,0-0.73-0.18,0-.36.15-0.38,0.66-0.21-1.23-.65.91-0.75-0.62a15.33,15.33,0,0,1-1.29,1.2c-0.11-1,.44-0.15.33-1.18-0.41.43-.49,1.33-0.91,1.15a0.92,0.92,0,0,1,0-.6c-0.31.48-.82,0.1-1,0.73a0.67,0.67,0,0,1,0-.28c-0.06.05-.21-0.08,0,0.34l0-.14a8.27,8.27,0,0,1,.34,1.7c-0.36-1.24-.4-0.19-0.86-1.77a1.23,1.23,0,0,0,.14.59,0.81,0.81,0,0,1-.25-0.55c-0.14.32,0.14,0.73-.05,0.81a5.19,5.19,0,0,1-.18-0.54c0.07,0.44.17,0.86-.07,0.78a0.44,0.44,0,0,1-.1-0.28c-0.27.2,0.12,1.24-.36,1.05-0.45-.84-0.27-0.2-0.75-0.86v0.31l0.29,0.28c-0.14.09,0.12,0.65-.15,0.51l-0.12-.34-0.13.3,0.33,0.14c0.15,0.42.67,0.8,0.38,0.73a1.43,1.43,0,0,1-.48-0.23h0c0.12,0.24.26,0.49,0,.41s-0.62-.67-0.75-0.78c0.43,0.54-.14.39,0.35,1a4.34,4.34,0,0,0-.49-0.48l0.37,0.42a1.29,1.29,0,0,1-.5-0.35c-0.22.1,0.82,0.64,0.33,0.53a1.29,1.29,0,0,1-.13-0.18c-0.35,0,0,.58-0.37.6-0.71-.42,0-0.28-0.66-0.63-0.1.4,0.42,1.13,0.11,1.31h0.11c1,0.59-.63-0.07-0.21.33a2.54,2.54,0,0,0-.45-0.26c-0.26.13,0.06,0.56,0.29,1l-0.27-.14a0.86,0.86,0,0,0-.43.37,1.45,1.45,0,0,0,.64.26c-0.88,0-.71.26-0.49,0.5s0.49,0.46-.24.55a0.33,0.33,0,0,0-.25-0.11l0.23,0.36a3.37,3.37,0,0,0,.71,0,0.76,0.76,0,0,1,.51.24,2,2,0,0,0-1.1,0c0.16,0,.33,0,0.48,0-0.91.1,1,.09,0.4,0.26l-0.27,0a0.69,0.69,0,0,1,.4.24,3.24,3.24,0,0,1-.75-0.1c0,0.14,1.1.23,0.53,0.34-0.17,0-.18-0.12-0.33-0.17-0.69.13-.51,0.15-0.62,0.25h0l-0.3.24,0.18-.07c1.54,0.05.29,0.32,1.32,0.4a2.85,2.85,0,0,0-1.21.11,1.49,1.49,0,0,1-.56.2c0.55,0-.39.26,0.41,0.28a1.12,1.12,0,0,1-.53.2,1.06,1.06,0,0,0,.63-0.15c0.75,0-.74.72,0.31,0.77a11.86,11.86,0,0,0,1.58,0,1.88,1.88,0,0,1-.75.23c-0.25.23-.17,0.31,0.11,0.31a1.94,1.94,0,0,0-.52.27c0.1,0.07.74-.26,0.51,0a7.67,7.67,0,0,1-.82.27c0.23,0,.64,0,0.87,0a2.19,2.19,0,0,1-.78.26,1.15,1.15,0,0,0,1-.08l0.14-.17a1.56,1.56,0,0,1-.55.29c-0.46.11,0.11-.25,0.3-0.35h0.16c1.08-.65-0.31-0.18-0.33-0.38l0.86-.32-0.76.17a2.49,2.49,0,0,1,.82-0.33c0.38-.26-0.33,0,0.1-0.23a0.45,0.45,0,0,1,.15-0.06h-0.29a1.15,1.15,0,0,1,.49-0.15c0.44-.32-0.74,0-0.1-0.3h0.06a7.78,7.78,0,0,0-1.45.23l0.78-.29,0.79-.27-0.65.15a0.41,0.41,0,0,1,.32-0.14,5.39,5.39,0,0,0-.71.14c0.56-.25-0.36-0.28.69-0.5a2.09,2.09,0,0,1-.74.12c1.13-.23-0.22-0.12.29-0.31a1.71,1.71,0,0,0,.81-0.08c-1,.07.19-0.21,0-0.26-0.8.06-.34-0.15-0.62-0.28a3,3,0,0,0,.73-0.38h0.13c-0.8-.06-0.65-0.19-0.81-0.3a4.34,4.34,0,0,1,.88.14v-0.08a1,1,0,0,1-.47-0.15l0.6,0.09c0-.1-0.68-0.32-0.26-0.39a6.64,6.64,0,0,1-1.9-.4,4.84,4.84,0,0,1,.92.21s-0.24-.1-0.1-0.11l0.49,0.17c0.24,0-.41-0.12-0.35-0.17,0.43,0.09.31,0,.65,0.1,0,0-.19,0,0,0.07a1.42,1.42,0,0,1,.68,0,2,2,0,0,1-.61-0.19,1.94,1.94,0,0,1,.74.08,1.82,1.82,0,0,0-.59-0.26,1.81,1.81,0,0,1,.48.09,1,1,0,0,0-.67-0.43h0l0,0h0c-0.55-.43.5-0.27,0.32-0.56l0.2,0.09a1.48,1.48,0,0,0-.37-0.6,1.57,1.57,0,0,1,.6.26c-0.1-.16-0.3-0.3.07-0.22,0.27,0.28.3,0.15,0.19,0.22,0.22,0,.52.19,0.09-0.24,0.44,0.34.62,0.34,0.51,0.2l-0.36-.17c0-.09,0-0.11.1-0.12l0.57,0.46c0.4,0.19.16-.08,0-0.35s-0.29-.49.31,0c-0.33-.39-0.34-0.17-0.74-0.61a1.75,1.75,0,0,1,.54.32c0.22,0.17.43,0.34,0.44,0.33,0.35,0.22-.65-0.86-0.36-0.75a3.15,3.15,0,0,1-.72-1,2.91,2.91,0,0,1,.88,1s-0.07,0-.12-0.09a0.89,0.89,0,0,0,.29.4l-0.16-.21a1.31,1.31,0,0,1,.53.43,0.88,0.88,0,0,0-.36-0.43c0.32,0.23.15-.11,0.4,0a2,2,0,0,1-.27-0.36c0.34,0.17-.2-0.46-0.14-0.63,0.27,0.3.47,0.82,0.41,0.47a2.83,2.83,0,0,1,.45.79c-0.17-.5.32,0.2,0.39,0.27l0.06,0.2c0-.12,0-0.13,0-0.13l-0.26-.45a0.61,0.61,0,0,1,.18.26c-0.12-.32-0.41-0.77-0.55-1.22,0.15,0.22,0-.33.31,0.3-0.22-.15.29,0.63,0.25,0.78,0-.08,0-0.09.06,0a0.87,0.87,0,0,1,.06.17c0.33,0.53-.27-0.74-0.14-0.77a1.7,1.7,0,0,0,.28.6,3.18,3.18,0,0,1-.31-0.9c0.18,0.25,0-.25.08-0.23l-0.1-.11a0.52,0.52,0,0,1,0-.48c0.09,0.29,0,.22.06,0.34-0.12-.68.36,0.64,0.33,0.17,0.11,0.24.18,0.71,0.25,0.88,0-.52.2,0.5,0.21,0.08a2.5,2.5,0,0,1-.12-0.9l-0.11.39,0-.38v-0.38a1.55,1.55,0,0,1-.12.27,1.94,1.94,0,0,0-.13-0.72c0.25,0.75.1-.48,0.31,0l0.2,1.28c0.19,0.55.14-.7,0.35-0.38l-0.07-.22c0-.52.11-0.08,0.16-0.29a7.49,7.49,0,0,0,.07.86,3.33,3.33,0,0,0,.15-0.83l0.06,0.57c0.11,0.24.24-1.24,0.41-1.06a8.29,8.29,0,0,1-.19,1.1s0.07,0.1.11-.2c0,0.27.21-.56,0.19-0.15a1.6,1.6,0,0,1,.18-0.59,2.07,2.07,0,0,1,0,.21,2.87,2.87,0,0,0,.18-0.75c0,0.69.07,0.69,0.2,0.67s0.26-.06.15,0.52a0.85,0.85,0,0,1,.43-0.19c-0.05.12-.08,0.2-0.08,0.15,0,0.43.56-1.12,0.55-.62a1.92,1.92,0,0,1-.3.57c-0.57,1.31.26-.1,0,0.7l-0.06.06c-0.17.46,0.41-.39,0.48-0.23,0,0-.07.1-0.11,0.18a1.74,1.74,0,0,1,1-.74,3.39,3.39,0,0,0-.54.68,5.49,5.49,0,0,1,.72-0.8,5.19,5.19,0,0,1-.61,1l-0.1,0c-0.43.65,0.12,0.05,0.08,0.2l-0.22.26c0.17,0,.75-0.64.86-0.46l0.16-.2c0.68-.54-0.28.41,0.25,0l-0.6.63a3.44,3.44,0,0,1,1-.4c-0.54.35-.88,0.48-1.21,0.68,0,0,.18.09,0.53-0.16-0.08,0-.26.15-0.18,0,0.57-.4.9-0.51,1-0.38-1.35,1-.11.54-1.17,1.33,0.64-.16,0,0.45.12,0.57a7.94,7.94,0,0,1,1.29-.51c0.11,0,.09.06,0,0.1l-0.34.24-0.35.22a3.53,3.53,0,0,1-.58.17,3.64,3.64,0,0,1-.84.4c0.45-.17.66-0.19,0.51-0.09l0.56-.27c0.74-.07-1,0.45-0.33.37l-0.42.07a1.76,1.76,0,0,0,1.12.09,2.75,2.75,0,0,1-.61.1c-0.13.15,1.19,0.28,0.54,0.48h-0.33c0.1,0,.63,0,0.29.1a2.08,2.08,0,0,0-.35,0c0.11,0,.57.09,0.38,0.14l-0.37,0c-0.43.14,0.9,0.31,1.09,0.54a4.15,4.15,0,0,0-1.45,0l-0.13,0c-0.16.13,0.72,0.47,1,.81-1-.22-0.57.24-1.17,0.15a3.4,3.4,0,0,1,.73.43c-0.19-.06.52,0.45-0.25,0h0c-0.78-.4-0.6-0.22-0.66-0.18l1,0.64c-0.77-.37-0.69-0.21-0.62,0s0.13,0.42-.46,0c0.19,0.23.15,0.27,0.32,0.5l-0.44-.44c-0.2,0-.28-0.06-0.29.15l-0.27-.35c-0.07,0,1.07,1.43,1,1.53l-0.59-.72c-0.13.13-.68-0.5-0.36,0.3a2.52,2.52,0,0,1-.2-0.4c-0.07,0-.5-0.44.1,0.69-0.38-.74-0.17,0-0.12.38l-0.23-.57a2.78,2.78,0,0,1,.28,1.19c-0.06-.06-0.2-0.45-0.11-0.32-0.2-.27.13,0.57-0.09,0.31l-0.09-.39c-0.1,0,0,.19.06,0.64,0,0.25-.24-0.1-0.39-0.63,0.08,0.33.13,0.78,0,.64a1.94,1.94,0,0,1-.07-0.4c-0.23-.36-0.1.75-0.32,0.18a3.2,3.2,0,0,0-.08-0.36,0.22,0.22,0,0,1,.23.06,9.49,9.49,0,0,1-.31-1.41c0,0.42.07,1.35-.07,1.11l0-.19v-0.06c0-.05,0,0,0,0.1a0.39,0.39,0,0,0-.09-0.17c-0.05-.46-0.11-0.25-0.15-0.27a6.76,6.76,0,0,0,.06,1,0.1,0.1,0,0,1,0-.1,0.18,0.18,0,0,0,0-.07v0.05l0.12,0c0,0.31,0,.58-0.12.24,0,0.4,0,.81,0,1a15.81,15.81,0,0,1-.28-1.85,3,3,0,0,0-.52,1.36,0.91,0.91,0,0,1,0-.52,0.92,0.92,0,0,0,.1-0.25,1.52,1.52,0,0,0-.42.88c-0.06-.38.19-0.72,0-0.62l0.07-.24c0-.67-0.2-0.18-0.47.24s-0.56.76-.44-0.08a1.17,1.17,0,0,1-.06.28c-0.06-.42-0.31-0.34-0.56-0.34s-0.49-.07-0.31-0.66c0.05-.25-0.26.16-0.57,0.43l0.39-.54-0.57.52c-0.53.27,0.85-1.39,0-.78l-0.3.33c0-.12-0.38,0,0-0.35-0.07,0-.37.29-0.21,0.11l0.26-.23-0.29.12-0.29.11c0.1-.28,1.09-0.85,1-1a6,6,0,0,0-1.13.57,1.07,1.07,0,0,1-.4.4l-0.2,0a7.21,7.21,0,0,0-2.17,1.74l0.63-.2-0.35.36-0.14-.13c-0.31.37,0.07,0.18,0.33,0.06a1.71,1.71,0,0,0-.37.42l0.45-.22,0.44-.23a2.56,2.56,0,0,0-.74.69,7.24,7.24,0,0,1,1-.73c-0.28.38-.58,0.61-0.21,0.44a1.17,1.17,0,0,1-.45.32,1.14,1.14,0,0,0,.73-0.21c-0.34.49,0.35,0.15-.32,0.84a2.17,2.17,0,0,1,.76-0.4c-0.9.75,0.24,0.3-.59,1.23,0.76-.71.71,0,1.25-0.38-0.06.06-.17,0.18-0.16,0.13a1.83,1.83,0,0,1-.1.66,7.3,7.3,0,0,1,1.13-1.18,9.05,9.05,0,0,1-1,1.54,11.24,11.24,0,0,0,.85-1,3.78,3.78,0,0,1-.3.94c0.52-.94.19-0.1,0.59-0.65-0.07.55-.39,0.93-0.06,0.72A1.06,1.06,0,0,1,238,434.22Zm5.14-1h0l-0.09,0Zm0.37-.07a0.31,0.31,0,0,0-.16,0,0.77,0.77,0,0,1,0-.42A1.09,1.09,0,0,0,243.53,433.14ZM242.4,429c0-.09,0,0,0.05.16a0.21,0.21,0,0,0,0,.08V429Z" transform="translate(-36.59 -42.33)"/><path class="cls-12" d="M242.41,429.78a0.19,0.19,0,0,1,0,0l0,0.14v-0.19h0Z" transform="translate(-36.59 -42.33)"/><path class="cls-12" d="M237.15,423.62h0l-0.09,0Z" transform="translate(-36.59 -42.33)"/><polygon class="cls-12" points="212.24 389.09 212.12 388.99 212.2 389.1 212.24 389.09"/><path class="cls-12" d="M234.75,424.83h0Z" transform="translate(-36.59 -42.33)"/><path class="cls-12" d="M234.6,425.67l-0.21.13A0.87,0.87,0,0,0,234.6,425.67Z" transform="translate(-36.59 -42.33)"/><path class="cls-12" d="M234.35,426.36l0.27,0h0Z" transform="translate(-36.59 -42.33)"/><path class="cls-12" d="M239.45,417.17a0.06,0.06,0,0,0,0,0C239.49,417,239.46,417.06,239.45,417.17Z" transform="translate(-36.59 -42.33)"/><path class="cls-12" d="M237.38,420a1.88,1.88,0,0,1-.12-0.28C237.18,419.73,237.14,419.76,237.38,420Z" transform="translate(-36.59 -42.33)"/><path class="cls-12" d="M243.47,416.1h0Z" transform="translate(-36.59 -42.33)"/><path class="cls-12" d="M237.37,419.65c-0.12-.06-0.14,0-0.12.08S237.39,419.75,237.37,419.65Z" transform="translate(-36.59 -42.33)"/><path class="cls-12" d="M235,429.3v0l0.09,0H235Z" transform="translate(-36.59 -42.33)"/><path class="cls-12" d="M235.08,429.3h0.08S235.14,429.27,235.08,429.3Z" transform="translate(-36.59 -42.33)"/><path class="cls-12" d="M235.34,429.28h-0.18S235.18,429.35,235.34,429.28Z" transform="translate(-36.59 -42.33)"/><path class="cls-12" d="M234.87,428.34l-0.21.07Z" transform="translate(-36.59 -42.33)"/><path class="cls-12" d="M234.71,428.11c0,0.08-.39.33-0.22,0.37l0.17-.06C234.33,428.49,235.09,428,234.71,428.11Z" transform="translate(-36.59 -42.33)"/><path class="cls-12" d="M237.1,426.44l-0.14.19a1.32,1.32,0,0,1,.6-0.14C238.22,426.17,237.06,426.65,237.1,426.44Z" transform="translate(-36.59 -42.33)"/><path class="cls-12" d="M237.38,425.94a1.13,1.13,0,0,0,.48-0.05A0.79,0.79,0,0,0,237.38,425.94Z" transform="translate(-36.59 -42.33)"/><path class="cls-12" d="M238,422.88l0.48,0.29A1.87,1.87,0,0,0,238,422.88Z" transform="translate(-36.59 -42.33)"/><polygon class="cls-12" points="199.47 378.28 199.14 378.14 199.53 378.49 199.47 378.28"/><polygon class="cls-12" points="202.82 380.52 202.87 380.59 202.77 380.39 202.82 380.52"/><path class="cls-12" d="M243.16,421.57l0.17-.67A1.47,1.47,0,0,0,243.16,421.57Z" transform="translate(-36.59 -42.33)"/><path class="cls-12" d="M245.23,422c-0.22.27-.34,0.46-0.08,0.25C245.16,422.15,245.32,421.92,245.23,422Z" transform="translate(-36.59 -42.33)"/><polygon class="cls-12" points="208.35 385.06 208.18 384.9 208.3 385.06 208.35 385.06"/><path class="cls-10" d="M195.08,456.15a6.13,6.13,0,0,0,8.6,1.57,6.31,6.31,0,0,0,1.55-8.71,6.13,6.13,0,0,0-8.6-1.57A6.31,6.31,0,0,0,195.08,456.15Z" transform="translate(-36.59 -42.33)"/><ellipse class="cls-11" cx="236.78" cy="303.68" rx="6.18" ry="6.26"/><path class="cls-12" d="M265.72,346a0.77,0.77,0,0,0,.54-0.05l-0.73-.06Z" transform="translate(-36.59 -42.33)"/><path class="cls-12" d="M267.09,345.62a6.88,6.88,0,0,0-1.63-.23c0.69,0.13.4,0.13,1.23,0.26,0.08,0.06-.24.1-0.51,0.08,0.19,0-.16.1,0.29,0.14s0.59-.15.13-0.29A2.87,2.87,0,0,1,267.09,345.62Z" transform="translate(-36.59 -42.33)"/><path class="cls-12" d="M270.37,341.75l-0.07-.05Z" transform="translate(-36.59 -42.33)"/><path class="cls-12" d="M273.05,341.18a0.29,0.29,0,0,0,0,.16A0.34,0.34,0,0,0,273.05,341.18Z" transform="translate(-36.59 -42.33)"/><path class="cls-12" d="M273.48,342l0-.05C273.46,342,273.47,342,273.48,342Z" transform="translate(-36.59 -42.33)"/><path class="cls-12" d="M270.37,341.75l0.19,0.14C270.43,341.69,270.43,341.77,270.37,341.75Z" transform="translate(-36.59 -42.33)"/><path class="cls-12" d="M265.45,344.53a0.58,0.58,0,0,0,.18.1l-0.07-.07Z" transform="translate(-36.59 -42.33)"/><path class="cls-12" d="M269.9,343v0l0.22,0.2Z" transform="translate(-36.59 -42.33)"/><path class="cls-12" d="M269.5,343.75s-0.5-.32-0.73-0.46a1.92,1.92,0,0,1,.34.25Z" transform="translate(-36.59 -42.33)"/><path class="cls-12" d="M268,344.75l0.08,0Z" transform="translate(-36.59 -42.33)"/><path class="cls-12" d="M270.42,342.64l0.15,0.16Z" transform="translate(-36.59 -42.33)"/><path class="cls-12" d="M264.49,348l0.11,0A0.15,0.15,0,0,0,264.49,348Z" transform="translate(-36.59 -42.33)"/><polygon class="cls-12" points="230.76 303.68 230.79 303.7 231.14 303.7 230.76 303.68"/><path class="cls-12" d="M274,342.82h0C274,342.88,274,342.87,274,342.82Z" transform="translate(-36.59 -42.33)"/><path class="cls-12" d="M276.91,346.8c0.56,0,.66.27,1.29,0.28A6.67,6.67,0,0,0,276.91,346.8Z" transform="translate(-36.59 -42.33)"/><path class="cls-12" d="M265.54,344.51a0.1,0.1,0,0,1,0-.06S265.52,344.49,265.54,344.51Z" transform="translate(-36.59 -42.33)"/><path class="cls-12" d="M278.2,347.08h0Z" transform="translate(-36.59 -42.33)"/><path class="cls-12" d="M275.35,343l0.14-.23Z" transform="translate(-36.59 -42.33)"/><path class="cls-12" d="M274.68,341.71v0.09A0.16,0.16,0,0,0,274.68,341.71Z" transform="translate(-36.59 -42.33)"/><path class="cls-12" d="M276.38,342.73s-0.07.11,0,.07l0-.06C276.36,342.8,276.33,342.82,276.38,342.73Z" transform="translate(-36.59 -42.33)"/><path class="cls-12" d="M276.86,343.26l0.09-.09h0Z" transform="translate(-36.59 -42.33)"/><path class="cls-12" d="M266.64,351.7a5.22,5.22,0,0,1,.39-0.4C266.7,351.6,266.45,351.54,266.64,351.7Z" transform="translate(-36.59 -42.33)"/><path class="cls-12" d="M265.8,344.6a0.74,0.74,0,0,1-.26-0.09l0,0Z" transform="translate(-36.59 -42.33)"/><path class="cls-12" d="M279.79,339.24l0.11,0.23A0.33,0.33,0,0,0,279.79,339.24Z" transform="translate(-36.59 -42.33)"/><path class="cls-12" d="M275.79,354.43l0,0.08S275.8,354.5,275.79,354.43Z" transform="translate(-36.59 -42.33)"/><path class="cls-12" d="M280.43,339.93a1.59,1.59,0,0,0-.24.37l0.14-.08Z" transform="translate(-36.59 -42.33)"/><path class="cls-12" d="M267,351.3h0Z" transform="translate(-36.59 -42.33)"/><path class="cls-12" d="M265,350.89c0.1,0.21.74-.31,1.17-0.51,0.32,0.09-.45.41-0.76,0.71,0.27,0,1-.28,1-0.17a1.14,1.14,0,0,1-.29.2c0.62-.24.33,0.39,1.07,0l-0.14.15c0.3-.28.62-0.54,0.85-0.73,0.06,0.05.49-.22,0.1,0.14a0.7,0.7,0,0,0-.33.18l0.23-.09a2,2,0,0,1-.71.44c0.31,0,.91-0.3.83-0.06-0.52.54-.39-0.06-0.76,0.52l0.07-.35c-0.77.9,0-.16-0.87,0.79,0.06,0.38.51,0,.58,0.38,0.34-.25.42-0.45,0.76-0.7,0.79-.29-1,1.61-0.13,1.08,0.39-.32,1-1,0.85-0.53l-0.58.62c0.19,0.25.86-.87,0.76-0.24a2.8,2.8,0,0,1-.37.2c-0.23.66,0.39-.3,0.5-0.22l-0.4.63a10.07,10.07,0,0,0,1.24-.18,1.63,1.63,0,0,0-.32.61c0.55-.13.78,0.48,1.08,1l0.36-.56a0.67,0.67,0,0,1-.1.41c0.09,0.28.13-.39,0.28-0.61a0.6,0.6,0,0,1-.1.56c0.46-.44,1-0.94,1.21-0.23l-0.09.18c0.21,0.3.44-1.27,0.56-.65l-0.05.11c0.47,0.32,1-.25,1.4.69,0-.93.55,0.38,0.43-0.92a2.72,2.72,0,0,0,.81,1.19,5.64,5.64,0,0,0,.09-1l0.16,0.66V354l0.3,0.76,0.08-.2a0.93,0.93,0,0,1-.23-0.46c0.09-.34.59,0.32,0.71,0.64l0.14-.35,0.12-.35a1.23,1.23,0,0,1,.05.56c0-.74.31,0.65,0.3,0a2.63,2.63,0,0,1-.19-0.51c0.27,0.34.52,0.21,0.62,0l0.17,0.44a3.23,3.23,0,0,0,.94-0.78,1.65,1.65,0,0,1-.61-0.92l0.44,0.57a3.19,3.19,0,0,1-.43-0.69,1.66,1.66,0,0,1,.6.86v-0.31c0.13,0.17.16,0.28,0.31,0.51-0.2-.4.7,0.37,0.32-0.31l0.14,0.16a3.23,3.23,0,0,0,.54-0.84,3.49,3.49,0,0,1-.53-0.85,1.34,1.34,0,0,0,1-.15,2.21,2.21,0,0,0-.61-0.67c0.45,0.34.57,0.08,0.81,0.45a1.16,1.16,0,0,0,0-1,1.41,1.41,0,0,1-.48-0.22c0-.11.28,0,0.51,0.14l0,0c-0.24-.41.24-0.42,0.68-0.5s0.88-.2.39-0.61l0,0-0.22-.3-0.22-.28a3.62,3.62,0,0,1,.74.23c-0.74-.69.32-0.64-0.19-1.13,0.85,0,.86-0.24.79-0.51s-0.21-.56.32-0.73h-0.39c-0.38-.12.23-0.11,0.32-0.18a1.61,1.61,0,0,1-.57,0,1.37,1.37,0,0,1,.13-1.26,5.42,5.42,0,0,0,.54-1.45c0-.37-2,0.33-1.2-0.28l0.72-.1a1,1,0,0,1-.7-0.79,0.87,0.87,0,0,0-.68-0.71,0.7,0.7,0,0,1,.38-0.09c0.41-.37-0.23-0.44-0.59-0.22a2.2,2.2,0,0,1,.48-0.38c0.19-.29-0.74.08-0.34-0.27a0.33,0.33,0,0,1,.21-0.07c-0.26.07-.19-0.37-0.63,0,0.1-.36-0.47-0.18-0.3-0.55-0.6.35,0-.51-0.76,0.1,0.75-.65.32-0.86-0.12-0.61,0.25-.18.13-0.31,0.45-0.57-0.14-.11-0.38-0.08-0.7.32,0.55-1.12-1.05.37-.25-0.94a14.47,14.47,0,0,1-1.74.22c0.49-.88.44,0.14,1-0.77-0.59.11-1.17,0.8-1.41,0.41A0.92,0.92,0,0,1,277,338c-0.53.2-.72-0.39-1.23,0a0.67,0.67,0,0,1,.15-0.24c-0.08,0-.12-0.18-0.24.25l0.1-.1a8.3,8.3,0,0,1-.71,1.58c0.43-1.22-.22-0.39.33-1.94a1.24,1.24,0,0,0-.23.56,0.81,0.81,0,0,1,.11-0.6c-0.3.18-.31,0.68-0.52,0.63a5.19,5.19,0,0,1,.17-0.54c-0.19.4-.36,0.8-0.51,0.59a0.44,0.44,0,0,1,.08-0.29c-0.34,0-.62,1.08-0.91.65,0.12-.94-0.1-0.32-0.11-1.14l-0.19.25,0.08,0.4c-0.17,0-.28.6-0.42,0.34l0.1-.34-0.29.17,0.19,0.3c-0.12.43,0.08,1-.11,0.82a1.44,1.44,0,0,1-.26-0.47h0c0,0.27-.07.55-0.2,0.37s-0.12-.9-0.16-1.07c0,0.69-.34.24-0.27,1a4.33,4.33,0,0,0-.12-0.68l0.06,0.56a1.28,1.28,0,0,1-.2-0.58c-0.23,0,.3,1,0,0.62a1.29,1.29,0,0,1,0-.22c-0.31-.16-0.36.46-0.65,0.28-0.34-.75.13-0.26-0.18-0.89-0.31.27-.31,1.17-0.66,1.14l0.09,0.06c0.49,1.06-.47-0.42-0.36.15a2.53,2.53,0,0,0-.22-0.47c-0.29,0-.27.49-0.32,1l-0.14-.27a0.87,0.87,0,0,0-.56.06,1.45,1.45,0,0,0,.37.58c-0.71-.54-0.73-0.19-0.69.13s0.14,0.65-.51.32a0.33,0.33,0,0,0-.15-0.23l0,0.43a3.37,3.37,0,0,0,.61.38,0.76,0.76,0,0,1,.28.48,2,2,0,0,0-.89-0.64c0.13,0.09.25,0.21,0.38,0.31-0.81-.43.79,0.65,0.19,0.44L268,341.9a0.69,0.69,0,0,1,.2.43,3.23,3.23,0,0,1-.57-0.51c-0.05.13,0.78,0.81,0.24,0.58-0.11-.13-0.08-0.2-0.18-0.33-0.64-.28-0.5-0.16-0.65-0.14h0l-0.38,0,0.19,0c1.24,0.91.06,0.43,0.87,1.08a2.84,2.84,0,0,0-1.06-.6,1.49,1.49,0,0,1-.57-0.15c0.44,0.33-.47,0,0.18.47a1.12,1.12,0,0,1-.55-0.14,1.06,1.06,0,0,0,.6.23c0.6,0.45-1,.18-0.18.81a11.91,11.91,0,0,0,1.32.88,1.88,1.88,0,0,1-.75-0.24c-0.33,0-.31.16-0.09,0.32a1.94,1.94,0,0,0-.58-0.07c0,0.11.76,0.2,0.43,0.27a7.69,7.69,0,0,1-.83-0.24c0.17,0.16.55,0.33,0.73,0.47a2.19,2.19,0,0,1-.79-0.22,1.15,1.15,0,0,0,.87.5l0.21-.06a1.56,1.56,0,0,1-.61-0.07c-0.44-.17.23-0.14,0.44-0.12l0.12,0.1c1.26,0.08-.16-0.32-0.06-0.5l0.89,0.22-0.72-.29a2.49,2.49,0,0,1,.87.19c0.46,0-.3-0.15.21-0.13a0.45,0.45,0,0,1,.15,0l-0.24-.15a1.15,1.15,0,0,1,.49.16c0.55,0-.6-0.43.08-0.3l0.05,0a7.79,7.79,0,0,0-1.33-.63l0.81,0.2,0.8,0.22L268,344a0.41,0.41,0,0,1,.34.06,5.39,5.39,0,0,0-.67-0.29c0.6,0.11-.14-0.43.85,0a2.09,2.09,0,0,1-.68-0.32c1.06,0.45-.11-0.22.41-0.09a1.71,1.71,0,0,0,.71.38c-0.87-.51.27-0.07,0.14-0.21-0.69-.4-0.2-0.32-0.35-0.58a3.07,3.07,0,0,0,.82.11l0.11,0.08c-0.63-.5-0.43-0.52-0.5-0.7a4.36,4.36,0,0,1,.64.62l0-.06a1,1,0,0,1-.3-0.39L270,343c0-.09-0.38-0.65,0-0.47a6.63,6.63,0,0,1-1.33-1.41,4.84,4.84,0,0,1,.64.7s-0.14-.22,0-0.15l0.31,0.41c0.21,0.11-.27-0.33-0.19-0.34,0.3,0.31.25,0.19,0.48,0.45,0,0-.16-0.1-0.06,0a1.42,1.42,0,0,1,.57.38,2.05,2.05,0,0,1-.4-0.5,1.94,1.94,0,0,1,.56.49,1.83,1.83,0,0,0-.34-0.55,1.82,1.82,0,0,1,.34.34,1,1,0,0,0-.31-0.74l0,0v0h0c-0.2-.67.57,0.07,0.58-0.27l0.11,0.19a1.47,1.47,0,0,0,0-.71,1.57,1.57,0,0,1,.34.56c0-.18-0.08-0.43.19-0.14,0.06,0.38.16,0.3,0,.29,0.18,0.13.32,0.45,0.21-.14,0.16,0.53.31,0.63,0.3,0.46l-0.2-.35c0-.1.09-0.07,0.15,0l0.2,0.71c0.22,0.4.18,0,.18-0.29s0.05-.57.27,0.15c0-.51-0.18-0.34-0.25-0.93a1.8,1.8,0,0,1,.26.58c0.09,0.27.15,0.52,0.17,0.52,0.16,0.39,0-1.08.14-.82a3.16,3.16,0,0,1,0-1.2,2.91,2.91,0,0,1,.16,1.3s0-.06,0-0.15a0.89,0.89,0,0,0,0,.49v-0.26a1.31,1.31,0,0,1,.18.66,0.88,0.88,0,0,0,0-.56c0.13,0.38.18,0,.3,0.26a2,2,0,0,1,0-.45c0.17,0.33.1-.49,0.25-0.6,0.05,0.4-.09.95,0.06,0.62a2.85,2.85,0,0,1-.09.9c0.15-.5.14,0.36,0.16,0.45l-0.07.2c0-.12.06-0.11,0.08-0.11l0.05-.52a0.61,0.61,0,0,1,0,.31c0.09-.33.11-0.86,0.26-1.31,0,0.27.21-.26,0.08,0.43-0.09-.26-0.13.68-0.25,0.78,0-.08.06-0.07,0.06,0a0.87,0.87,0,0,1,0,.18c0,0.63.21-.75,0.34-0.7a1.7,1.7,0,0,0-.12.65,3.19,3.19,0,0,1,.27-0.91c0,0.31.16-.19,0.2-0.15v-0.15a0.5,0.5,0,0,1,.28-0.4c-0.09.29-.13,0.18-0.15,0.31,0.3-.62-0.08.73,0.17,0.33-0.06.26-.27,0.68-0.3,0.86,0.29-.44-0.13.53,0.13,0.19a2.5,2.5,0,0,1,.43-0.8l-0.32.25,0.21-.32,0.22-.32a1.28,1.28,0,0,1-.25.15,1.92,1.92,0,0,0,.31-0.66c-0.24.76,0.36-.33,0.24,0.2L275,342.51c-0.17.55,0.52-.48,0.51-0.1l0.07-.22c0.29-.42.14,0,0.3-0.14a7.49,7.49,0,0,0-.44.74,3.24,3.24,0,0,0,.6-0.59l-0.28.51c0,0.26.91-.86,0.95-0.63a8.2,8.2,0,0,1-.79.79s0,0.12.21-.1c-0.17.22,0.5-.34,0.25,0a1.6,1.6,0,0,1,.49-0.38l-0.15.15a2.82,2.82,0,0,0,.58-0.51c-0.42.54-.34,0.6-0.22,0.66s0.25,0.1-.18.51a0.83,0.83,0,0,1,.46.1c-0.11.07-.18,0.12-0.15,0.08-0.27.33,1.1-.59,0.81-0.19a1.91,1.91,0,0,1-.57.3c-1.22.74,0.28,0.06-.41,0.56L277,344c-0.41.28,0.56-.08,0.53,0.09l-0.2.09a1.74,1.74,0,0,1,1.24,0,3.38,3.38,0,0,0-.83.25,5.5,5.5,0,0,1,1.05-.24,5.2,5.2,0,0,1-1.08.49l-0.06-.09c-0.73.28,0.07,0.11-.05,0.21l-0.33.09c0.14,0.11,1-.09,1,0.11l0.25-.07c0.86-.06-0.46.18,0.18,0.17l-0.85.17a3.46,3.46,0,0,1,1,.23c-0.64,0-1-.11-1.39-0.13,0,0.06.09,0.18,0.53,0.17-0.09,0-.3,0-0.17-0.06,0.7,0,1,.09,1,0.24-1.68.06-.4,0.38-1.72,0.44,0.62,0.23-.29.35-0.22,0.54a7.92,7.92,0,0,1,1.35.31c0.08,0.08,0,.1,0,0.09h-0.83a3.53,3.53,0,0,1-.57-0.19,3.64,3.64,0,0,1-.92-0.14c0.47,0.11.66,0.21,0.47,0.21l0.61,0.1c0.65,0.36-1.11-.22-0.48.12L276.1,347a1.76,1.76,0,0,0,.87.71,2.76,2.76,0,0,1-.56-0.26c-0.19.05,0.83,0.91,0.17,0.7l-0.27-.19c0.06,0.08.49,0.39,0.19,0.24a2.11,2.11,0,0,0-.29-0.19c0.09,0.07.42,0.4,0.23,0.33l-0.28-.25c-0.43-.13.56,0.76,0.59,1.06a4.24,4.24,0,0,0-1.19-.83l-0.1-.1c-0.2,0,.33.8,0.37,1.23-0.71-.77-0.6-0.12-1-0.56a3.45,3.45,0,0,1,.35.77c-0.13-.16.17,0.67-0.2-0.14h0c-0.4-.78-0.36-0.52-0.43-0.53L275,350.1c-0.42-.75-0.44-0.56-0.51-0.36s-0.13.42-.34-0.3c0,0.3,0,.3,0,0.59l-0.11-.61c-0.14-.14-0.19-0.2-0.31,0v-0.44c-0.06,0,0,1.79-.06,1.83l-0.07-.93c-0.18,0-.26-0.81-0.47,0a2.54,2.54,0,0,1,.07-0.44c-0.08,0-.15-0.65-0.32.61,0.12-.82-0.13-0.1-0.31.24l0.14-.6a2.79,2.79,0,0,1-.46,1.13c0-.08.1-0.48,0.1-0.32,0-.33-0.22.54-0.25,0.2l0.15-.36c-0.08-.07-0.13.14-0.32,0.55-0.14.21-.14-0.22,0-0.74-0.13.31-.35,0.71-0.35,0.54a2,2,0,0,1,.17-0.36c0-.43-0.52.54-0.37,0a3.19,3.19,0,0,0,.15-0.34,0.22,0.22,0,0,1,.15.18,9.46,9.46,0,0,1,.57-1.33c-0.21.37-.74,1.14-0.7,0.87l0.08-.18,0-.05c0-.06,0,0-0.09.06a0.38,0.38,0,0,0,0-.19c0.23-.41.05-0.27,0-0.31a6.72,6.72,0,0,0-.55.87,0.1,0.1,0,0,1,.09-0.06l0.05,0,0,0,0.12,0c-0.19.25-.37,0.45-0.24,0.13-0.23.32-.48,0.65-0.6,0.8a16,16,0,0,1,.85-1.67,3,3,0,0,0-1.22.81,0.9,0.9,0,0,1,.29-0.43,0.92,0.92,0,0,0,.23-0.15,1.52,1.52,0,0,0-.85.47c0.17-.34.57-0.48,0.37-0.5l0.19-.16c0.37-.56-0.06-0.27-0.53-0.07s-0.9.29-.32-0.32a1.16,1.16,0,0,1-.21.19c0.19-.38-0.06-0.45-0.27-0.6s-0.37-.34.12-0.72c0.18-.18-0.31,0-0.71,0l0.63-.22-0.76.1c-0.59-.07,1.49-0.66.44-0.65l-0.44.11c0.07-.09-0.3-0.23.21-0.28-0.08,0-.47,0-0.24,0l0.34,0-0.31-.07-0.3-.08a14.36,14.36,0,0,0,1.43-.28,6,6,0,0,0-1.25-.17,1.07,1.07,0,0,1-.56.1l-0.19-.09a7.24,7.24,0,0,0-2.78.21l0.64,0.19-0.49.1,0-.19c-0.46.13,0,.18,0.24,0.23a1.71,1.71,0,0,0-.54.13l0.49,0.07,0.49,0.06a2.58,2.58,0,0,0-1,.15,7.26,7.26,0,0,1,1.2-.06c-0.45.15-.83,0.17-0.42,0.24a1.17,1.17,0,0,1-.55,0,1.14,1.14,0,0,0,.72.24c-0.55.21,0.21,0.32-.74,0.51a2.17,2.17,0,0,1,.85.11c-1.17.1,0,.38-1.18,0.67,1-.15.61,0.37,1.24,0.4-0.08,0-.25.05-0.21,0a1.83,1.83,0,0,1-.46.48,7.31,7.31,0,0,1,1.6-.33,9.11,9.11,0,0,1-1.67.71,11.4,11.4,0,0,0,1.26-.33,3.79,3.79,0,0,1-.78.59c1-.48.21,0,0.85-0.19-0.37.41-.86,0.54-0.46,0.56A1.07,1.07,0,0,1,265,350.89Zm4.77,2.13h0Zm0.34,0.16a0.31,0.31,0,0,0-.14-0.09,0.77,0.77,0,0,1,.22-0.36A1.08,1.08,0,0,0,270.09,353.17Zm1.5-4c0.07-.06,0,0,0,0.16l-0.08,0,0,0.06Z" transform="translate(-36.59 -42.33)"/><path class="cls-12" d="M271.12,349.79l0,0-0.06.13,0.11-.16h0Z" transform="translate(-36.59 -42.33)"/><path class="cls-12" d="M270.28,341.69h0l-0.06-.06Z" transform="translate(-36.59 -42.33)"/><polygon class="cls-12" points="238.82 312.52 238.79 312.37 238.78 312.51 238.82 312.52"/><path class="cls-12" d="M267.63,341.32l-0.14-.08Z" transform="translate(-36.59 -42.33)"/><path class="cls-12" d="M267,341.93h-0.25A0.87,0.87,0,0,0,267,341.93Z" transform="translate(-36.59 -42.33)"/><path class="cls-12" d="M266.43,342.36l0.23,0.13h0Z" transform="translate(-36.59 -42.33)"/><path class="cls-12" d="M275.88,337.76l0,0C276,337.64,276,337.67,275.88,337.76Z" transform="translate(-36.59 -42.33)"/><path class="cls-12" d="M272.54,338.87a1.88,1.88,0,0,1,.06-0.3C272.55,338.53,272.5,338.52,272.54,338.87Z" transform="translate(-36.59 -42.33)"/><path class="cls-12" d="M279.77,339.22h0l0,0v0Z" transform="translate(-36.59 -42.33)"/><path class="cls-12" d="M272.75,338.57c-0.06-.12-0.11-0.09-0.14,0S272.71,338.66,272.75,338.57Z" transform="translate(-36.59 -42.33)"/><path class="cls-12" d="M265.3,345.15l0,0h0.1Z" transform="translate(-36.59 -42.33)"/><path class="cls-12" d="M265.37,345.19l0.07,0S265.44,345.2,265.37,345.19Z" transform="translate(-36.59 -42.33)"/><path class="cls-12" d="M265.59,345.33l-0.15-.09S265.42,345.29,265.59,345.33Z" transform="translate(-36.59 -42.33)"/><path class="cls-12" d="M265.74,344.29l-0.22-.06Z" transform="translate(-36.59 -42.33)"/><path class="cls-12" d="M265.74,344c-0.07,0-.51.05-0.39,0.18l0.17,0C265.21,344.11,266.09,344.15,265.74,344Z" transform="translate(-36.59 -42.33)"/><path class="cls-12" d="M268.66,344l-0.22.08a1.32,1.32,0,0,1,.57.23C269.73,344.38,268.5,344.12,268.66,344Z" transform="translate(-36.59 -42.33)"/><path class="cls-12" d="M269.16,343.71a1.13,1.13,0,0,0,.42.23A0.8,0.8,0,0,0,269.16,343.71Z" transform="translate(-36.59 -42.33)"/><path class="cls-12" d="M271.42,341.59l0.23,0.51A1.89,1.89,0,0,0,271.42,341.59Z" transform="translate(-36.59 -42.33)"/><polygon class="cls-12" points="234.53 296.26 234.34 295.96 234.46 296.46 234.53 296.26"/><polygon class="cls-12" points="235.98 300.02 235.98 300.11 236.01 299.89 235.98 300.02"/><path class="cls-12" d="M276.36,343.5l0.53-.45A1.47,1.47,0,0,0,276.36,343.5Z" transform="translate(-36.59 -42.33)"/><path class="cls-12" d="M277.84,345c-0.33.1-.54,0.19-0.2,0.16C277.68,345.14,277.94,345,277.84,345Z" transform="translate(-36.59 -42.33)"/><polygon class="cls-12" points="237.97 306.98 237.91 306.76 237.93 306.96 237.97 306.98"/><ellipse class="cls-10" cx="276.75" cy="337.72" rx="6.18" ry="6.26"/><ellipse class="cls-10" cx="236.78" cy="345.34" rx="6.18" ry="6.26"/><line class="cls-13" x1="170.7" y1="376.78" x2="170.7" y2="376.78"/><path class="cls-10" d="M235.18,389.88a6.13,6.13,0,0,0,8.6,1.57,6.31,6.31,0,0,0,1.55-8.71,6.13,6.13,0,0,0-8.6-1.57A6.31,6.31,0,0,0,235.18,389.88Z" transform="translate(-36.59 -42.33)"/><path class="cls-10" d="M416.44,257.36A6.26,6.26,0,1,0,423,263.2,6.23,6.23,0,0,0,416.44,257.36Z" transform="translate(-36.59 -42.33)"/><path class="cls-14" d="M122.95,245.59c0,22.63-4.4,22.63-4.4,45.27s4.4,22.63,4.4,45.27-4.4,22.64-4.4,45.27,4.4,22.64,4.4,45.27-4.4,22.64-4.4,45.28,4.4,22.64,4.4,45.28" transform="translate(-36.59 -42.33)"/><path class="cls-14" d="M93.52,483.76c34.21,0,34.21,4.4,68.41,4.4s34.2-4.4,68.41-4.4,34.21,4.4,68.41,4.4,34.21-4.4,68.41-4.4,34.21,4.4,68.42,4.4,34.21-4.4,68.42-4.4" transform="translate(-36.59 -42.33)"/><line class="cls-15" x1="162.63" y1="443.34" x2="162.63" y2="450.04"/><line class="cls-15" x1="205.53" y1="440.24" x2="205.53" y2="450.04"/><line class="cls-15" x1="242.96" y1="443.63" x2="242.96" y2="450.04"/><line class="cls-15" x1="276.75" y1="443.63" x2="276.75" y2="450.04"/><line class="cls-15" x1="306.63" y1="443.63" x2="306.63" y2="450.04"/><line class="cls-15" x1="343.1" y1="440.24" x2="343.1" y2="450.04"/><line class="cls-15" x1="380.26" y1="443.63" x2="380.26" y2="453.61"/><text class="cls-16" transform="translate(377.67 298.1) scale(0.61 1)">Wee<tspan x="38.27" y="0">k</tspan><tspan x="47.9" y="0">end O</tspan><tspan x="101.25" y="0">u</tspan><tspan x="110.8" y="0">t</tspan><tspan x="118.69" y="0">l</tspan><tspan x="123.19" y="0">i</tspan><tspan x="127.1" y="0">er</tspan></text><path class="cls-11" d="M151.86,451.07c49.79-31.26,52.13-27.54,101.92-58.8s47.46-35,97.25-66.25,52.13-27.54,101.92-58.8" transform="translate(-36.59 -42.33)"/><path class="cls-17" d="M151.86,451.07c49.79-31.26,52.13-27.54,101.92-58.8s47.46-35,97.25-66.25,52.13-27.54,101.92-58.8" transform="translate(-36.59 -42.33)"/><text class="cls-18" transform="translate(171.41 142.07) scale(0.88 1)">D<tspan class="cls-19" x="21.54" y="0">a</tspan><tspan class="cls-19" x="36.93" y="0">t</tspan><tspan x="46.34" y="0">a An</tspan><tspan x="109.31" y="0">a</tspan><tspan x="126.48" y="0">l</tspan><tspan x="132.1" y="0">y</tspan><tspan x="147.02" y="0">st </tspan></text><text class="cls-20" transform="translate(153.41 70.07) scale(0.88 1)">Jon<tspan class="cls-19" x="67.12" y="0">a</tspan><tspan x="86.33" y="0">t</tspan><tspan x="99.91" y="0">h</tspan><tspan x="117.95" y="0">a</tspan><tspan x="139.14" y="0">n </tspan><tspan class="cls-21" x="167.81" y="0">T</tspan><tspan x="185.71" y="0">ow</tspan></text><text class="cls-22" transform="translate(99.41 43.07) rotate(-18.95) scale(1.22 1)">Im</text><text class="cls-23" transform="translate(9.41 160.07) rotate(-18.92) scale(1.22 1)"><tspan class="cls-24">F</tspan><tspan class="cls-25" x="15.88" y="0">r</tspan><tspan x="26.32" y="0">ee</tspan><tspan x="53.87" y="0">l</tspan><tspan x="59.41" y="0">a</tspan><tspan x="75.29" y="0">nce</tspan></text></svg>