<svg id="Layer_3" data-name="Layer 3" xmlns="http://www.w3.org/2000/svg" viewBox="0 0 427.84 433.52"><defs><style>.cls-1,.cls-13,.cls-14,.cls-16,.cls-2,.cls-3,.cls-4,.cls-5{fill:none;}.cls-1{stroke:#1fda9a;stroke-dasharray:29.89 4.98;opacity:0.3;}.cls-1,.cls-10,.cls-13,.cls-14,.cls-16,.cls-2,.cls-3,.cls-4,.cls-5{stroke-miterlimit:10;}.cls-1,.cls-10,.cls-16,.cls-2,.cls-3,.cls-4{stroke-width:2.49px;}.cls-2,.cls-3,.cls-4,.cls-5{stroke:#c4c4c4;}.cls-3{stroke-dasharray:30.72 5.12;}.cls-4{stroke-dasharray:30.72 5.12;}.cls-5{stroke-width:1.87px;}.cls-6{fill:#c4c4c4;}.cls-7{font-size:23.05px;}.cls-15,.cls-17,.cls-19,.cls-22,.cls-7,.cls-9{fill:#616161;font-family:Noteworthy;font-weight:700;}.cls-8{letter-spacing:-1.15px;}.cls-9{font-size:24.19px;}.cls-10,.cls-11{fill:#fff;}.cls-10{stroke:#28abe3;}.cls-12{fill:#43b6e7;}.cls-13{stroke:#565656;stroke-width:4.4px;}.cls-14{stroke:#606060;stroke-width:3.43px;}.cls-15{font-size:22.9px;}.cls-16{stroke:#5b5b5b;}.cls-17{font-size:27.16px;}.cls-18{letter-spacing:-1.01px;}.cls-19{font-size:35.03px;}.cls-20{letter-spacing:-0.93px;}.cls-21{letter-spacing:-6.5px;}.cls-22{font-size:29.33px;}</style></defs><title>fit-model</title><line class="cls-1" x1="56.33" y1="253.23" x2="406.01" y2="253.23"/><line class="cls-1" x1="218.49" y1="370.33" x2="218.49" y2="141.4"/><path class="cls-2" d="M111.33,348.15c5.25,0,10.22,0,14.95,0" transform="translate(-76.81 -43.19)"/><path class="cls-3" d="M131.39,348.22c78.79,0.55,85.45,4.33,176.6,4.33,92.12,0,97.94-3.86,179.16-4.35" transform="translate(-76.81 -43.19)"/><path class="cls-2" d="M489.7,348.19c4.72,0,9.69,0,14.95,0" transform="translate(-76.81 -43.19)"/><path class="cls-2" d="M111.33,395.46c5.25,0,10.22,0,14.95,0" transform="translate(-76.81 -43.19)"/><path class="cls-3" d="M131.39,395.53c78.79,0.55,85.45,4.33,176.6,4.33,92.12,0,97.94-3.86,179.16-4.35" transform="translate(-76.81 -43.19)"/><path class="cls-2" d="M489.7,395.5c4.72,0,9.69,0,14.95,0" transform="translate(-76.81 -43.19)"/><path class="cls-2" d="M111.35,240c5.25,0,10.22,0,14.95,0" transform="translate(-76.81 -43.19)"/><path class="cls-4" d="M131.42,240.12c78.78,0.55,85.44,4.33,176.57,4.33,92.11,0,97.93-3.86,179.13-4.35" transform="translate(-76.81 -43.19)"/><path class="cls-2" d="M489.68,240.09c4.72,0,9.69,0,14.95,0" transform="translate(-76.81 -43.19)"/><path class="cls-2" d="M111.35,189.13c5.25,0,10.22,0,14.95,0" transform="translate(-76.81 -43.19)"/><path class="cls-4" d="M131.42,189.19c78.78,0.55,85.44,4.33,176.57,4.33,92.11,0,97.93-3.86,179.13-4.35" transform="translate(-76.81 -43.19)"/><path class="cls-2" d="M489.68,189.16c4.72,0,9.69,0,14.95,0" transform="translate(-76.81 -43.19)"/><path class="cls-5" d="M405.72,374.08c-18.15-37.88-5.14-79.61,29.7-94" transform="translate(-76.81 -43.19)"/><path class="cls-6" d="M408.26,358.7a0.93,0.93,0,0,0-1,.82l-1.68,14.17-12.13-7.51a0.93,0.93,0,0,0-1,1.59L405.82,376a0.93,0.93,0,0,0,1.42-.68l1.85-15.63A0.93,0.93,0,0,0,408.26,358.7Z" transform="translate(-76.81 -43.19)"/><text class="cls-7" transform="translate(169.39 423.49) scale(0.87 1)">C<tspan x="16.19" y="0">u</tspan><tspan x="27.46" y="0">p</tspan><tspan x="38.73" y="0">s </tspan><tspan x="54.89" y="0">o</tspan><tspan x="66.16" y="0">f C</tspan><tspan x="96.39" y="0">o</tspan><tspan class="cls-8" x="107.65" y="0">f</tspan><tspan class="cls-8" x="115.03" y="0">f</tspan><tspan x="123.07" y="0">ee</tspan></text><text class="cls-9" transform="matrix(-0.01, -0.89, 1, -0.02, 23.81, 302.93)">Work Do<tspan x="89.83" y="0">n</tspan><tspan x="102.86" y="0">e</tspan></text><path class="cls-10" d="M186.42,347.26a6.35,6.35,0,1,0,12.69,0c0-3.72.66-6.74-2.84-6.74S186.42,343.54,186.42,347.26Z" transform="translate(-76.81 -43.19)"/><ellipse class="cls-10" cx="262.89" cy="175.85" rx="6.34" ry="6.74"/><ellipse class="cls-10" cx="262.82" cy="237.25" rx="6.34" ry="6.74"/><ellipse class="cls-10" cx="231.17" cy="220.08" rx="6.34" ry="6.74"/><ellipse class="cls-11" cx="300.24" cy="253.11" rx="6.34" ry="6.74"/><path class="cls-12" d="M369.25,296.3a0.75,0.75,0,0,0,.54-0.06l-0.73-.06Z" transform="translate(-76.81 -43.19)"/><path class="cls-12" d="M370.62,295.89a6.55,6.55,0,0,0-1.63-.22c0.69,0.13.4,0.13,1.23,0.26,0.08,0.07-.24.1-0.51,0.08,0.19,0-.16.1,0.29,0.15s0.59-.16.13-0.3A2.75,2.75,0,0,1,370.62,295.89Z" transform="translate(-76.81 -43.19)"/><path class="cls-12" d="M373.94,291.67l-0.08,0Z" transform="translate(-76.81 -43.19)"/><path class="cls-12" d="M376.73,291a0.27,0.27,0,0,0,0,.16A0.33,0.33,0,0,0,376.73,291Z" transform="translate(-76.81 -43.19)"/><path class="cls-12" d="M377.17,291.79l0-.05C377.16,291.81,377.17,291.84,377.17,291.79Z" transform="translate(-76.81 -43.19)"/><path class="cls-12" d="M373.94,291.67l0.2,0.13C374,291.61,374,291.69,373.94,291.67Z" transform="translate(-76.81 -43.19)"/><path class="cls-12" d="M369,294.79a0.57,0.57,0,0,0,.18.1l-0.07-.07Z" transform="translate(-76.81 -43.19)"/><path class="cls-12" d="M373.45,293v0l0.22,0.2Z" transform="translate(-76.81 -43.19)"/><path class="cls-12" d="M373,293.82s-0.51-.3-0.74-0.44a1.78,1.78,0,0,1,.35.24Z" transform="translate(-76.81 -43.19)"/><path class="cls-12" d="M371.49,295l0.08,0Z" transform="translate(-76.81 -43.19)"/><path class="cls-12" d="M374,292.59l0.16,0.15Z" transform="translate(-76.81 -43.19)"/><path class="cls-12" d="M368,298.27l0.11,0A0.15,0.15,0,0,0,368,298.27Z" transform="translate(-76.81 -43.19)"/><polygon class="cls-12" points="294.06 253.11 294.1 253.13 294.44 253.13 294.06 253.11"/><path class="cls-12" d="M377.71,292.64h0C377.68,292.7,377.69,292.69,377.71,292.64Z" transform="translate(-76.81 -43.19)"/><path class="cls-12" d="M380.76,297.19a13,13,0,0,0,1.3.27A6.06,6.06,0,0,0,380.76,297.19Z" transform="translate(-76.81 -43.19)"/><path class="cls-12" d="M369.06,294.76a0.1,0.1,0,0,1,0-.06S369,294.74,369.06,294.76Z" transform="translate(-76.81 -43.19)"/><path class="cls-12" d="M382.05,297.46h0Z" transform="translate(-76.81 -43.19)"/><path class="cls-12" d="M379.12,292.9l0.15-.23Z" transform="translate(-76.81 -43.19)"/><path class="cls-12" d="M378.43,291.55v0.09A0.16,0.16,0,0,0,378.43,291.55Z" transform="translate(-76.81 -43.19)"/><path class="cls-12" d="M380.19,292.68s-0.08.11,0,.07l0-.06C380.17,292.75,380.14,292.77,380.19,292.68Z" transform="translate(-76.81 -43.19)"/><path class="cls-12" d="M380.68,293.27l0.09-.08h0Z" transform="translate(-76.81 -43.19)"/><path class="cls-12" d="M370.1,302.17a5.2,5.2,0,0,1,.4-0.39C370.17,302.07,369.92,302,370.1,302.17Z" transform="translate(-76.81 -43.19)"/><path class="cls-12" d="M369.32,294.85a0.72,0.72,0,0,1-.26-0.08l0,0Z" transform="translate(-76.81 -43.19)"/><path class="cls-12" d="M383.72,289.32l0.1,0.24A0.33,0.33,0,0,0,383.72,289.32Z" transform="translate(-76.81 -43.19)"/><path class="cls-12" d="M379.62,305.16l0,0.09S379.62,305.23,379.62,305.16Z" transform="translate(-76.81 -43.19)"/><path class="cls-12" d="M384.36,290.05a1.66,1.66,0,0,0-.25.37l0.14-.07Z" transform="translate(-76.81 -43.19)"/><path class="cls-12" d="M370.51,301.78h0Z" transform="translate(-76.81 -43.19)"/><path class="cls-12" d="M368.44,301.27c0.1,0.22.75-.29,1.18-0.47,0.32,0.1-.46.4-0.77,0.69a9,9,0,0,1,1-.13,1.11,1.11,0,0,1-.29.19c0.63-.22.32,0.41,1.09,0.08l-0.15.14c0.31-.27.63-0.52,0.87-0.7,0.06,0.06.49-.2,0.1,0.15a0.69,0.69,0,0,0-.34.17l0.24-.08a1.94,1.94,0,0,1-.73.42c0.32,0,.93-0.26.85,0-0.54.52-.4-0.08-0.78,0.49l0.07-.35c-0.8.88,0-.16-0.9,0.76,0.05,0.39.53,0,.57,0.42,0.35-.23.43-0.44,0.78-0.67,0.81-.25-1.07,1.58-0.14,1.09,0.4-.31,1-1,0.88-0.49l-0.61.6c0.19,0.26.9-.83,0.78-0.2a2.79,2.79,0,0,1-.38.18c-0.25.65,0.41-.29,0.52-0.2l-0.42.62a10.27,10.27,0,0,0,1.28-.11,1.55,1.55,0,0,0-.34.6c0.58-.11.81,0.52,1.11,1.1l0.38-.55a0.64,0.64,0,0,1-.11.41c0.09,0.29.14-.38,0.3-0.6a0.57,0.57,0,0,1-.11.56c0.49-.43,1.09-0.91,1.28-0.2l-0.09.18c0.22,0.3.46-1.26,0.59-.64l-0.05.11c0.5,0.33,1-.24,1.48.7,0-.93.58,0.37,0.46-0.93a2.66,2.66,0,0,0,.86,1.18,5.55,5.55,0,0,0,.1-1l0.17,0.66v-0.74l0.32,0.75,0.08-.2a0.9,0.9,0,0,1-.24-0.45c0.1-.34.62,0.3,0.75,0.62l0.14-.36,0.12-.36a1.18,1.18,0,0,1,.06.56c0-.74.33,0.64,0.32,0a2.51,2.51,0,0,1-.2-0.5,0.35,0.35,0,0,0,.65-0.06l0.18,0.43a3.48,3.48,0,0,0,1-.84,1.58,1.58,0,0,1-.64-0.9l0.46,0.55a3.08,3.08,0,0,1-.46-0.68,1.6,1.6,0,0,1,.63.83v-0.31a5.9,5.9,0,0,1,.33.5c-0.22-.4.72,0.34,0.33-0.33l0.15,0.16a3.76,3.76,0,0,0,.53-0.88,3.48,3.48,0,0,1-.56-0.84,1.36,1.36,0,0,0,1-.2,2.16,2.16,0,0,0-.63-0.65c0.46,0.33.58,0.06,0.83,0.41a1.19,1.19,0,0,0,0-1,1.38,1.38,0,0,1-.49-0.2c0-.11.29,0,0.52,0.12l0,0c-0.25-.41.23-0.44,0.68-0.54s0.87-.24.38-0.63l0,0-0.22-.3L385,299.1a3.53,3.53,0,0,1,.74.21c-0.76-.68.31-0.65-0.2-1.15,0.85,0,.85-0.25.79-0.53s-0.22-.57.32-0.74h-0.39c-0.38-.12.23-0.11,0.32-0.18a1.59,1.59,0,0,1-.57,0c-0.43-.81.54-1.71,0.68-2.75,0-.37-2,0.3-1.2-0.31l0.73-.08a1,1,0,0,1-.69-0.82,0.9,0.9,0,0,0-.66-0.75,0.69,0.69,0,0,1,.38-0.08c0.42-.36-0.22-0.46-0.59-0.25a2.14,2.14,0,0,1,.49-0.37c0.2-.28-0.75,0-0.34-0.29A0.33,0.33,0,0,1,385,291c-0.26.05-.18-0.39-0.64,0,0.1-.36-0.48-0.21-0.29-0.57-0.6.32,0-.52-0.77,0.07,0.77-.62.33-0.85-0.11-0.63,0.25-.17.13-0.31,0.47-0.56-0.14-.12-0.39-0.1-0.72.29,0.3-.54,0-0.48-0.22-0.43s-0.43.11,0-.54a14.18,14.18,0,0,1-1.8.13c0.51-.86.45,0.17,1-0.72-0.61.08-1.22,0.74-1.46,0.35a0.89,0.89,0,0,1,.35-0.5c-0.55.17-.75-0.42-1.28,0a0.63,0.63,0,0,1,.16-0.23c-0.08,0-.13-0.19-0.25.24l0.11-.1a8,8,0,0,1-.76,1.57c0.46-1.21-.23-0.4.36-1.93a1.18,1.18,0,0,0-.24.56,0.77,0.77,0,0,1,.12-0.59c-0.32.17-.32,0.66-0.55,0.61a4.92,4.92,0,0,1,.18-0.54c-0.21.4-.38,0.8-0.54,0.59a0.42,0.42,0,0,1,.09-0.29c-0.36,0-.66,1.07-1,0.64,0.13-.94-0.11-0.32-0.12-1.14l-0.2.25,0.08,0.39c-0.18,0-.29.6-0.44,0.34l0.1-.34-0.3.17,0.2,0.3c-0.13.43,0.09,1-.12,0.82a1.42,1.42,0,0,1-.28-0.47h0c0,0.27-.07.55-0.21,0.37s-0.12-.9-0.17-1.07c0,0.69-.35.24-0.28,1a4.11,4.11,0,0,0-.13-0.68l0.06,0.56a1.22,1.22,0,0,1-.21-0.57c-0.24,0,.32,1,0,0.62a1.23,1.23,0,0,1,0-.22c-0.33-.16-0.37.47-0.67,0.3-0.36-.74.13-0.27-0.19-0.89-0.33.28-.31,1.19-0.68,1.18l0.1,0.05c0.52,1-.5-0.4-0.37.18a2.41,2.41,0,0,0-.23-0.47c-0.3,0-.28.5-0.32,1l-0.15-.27a0.93,0.93,0,0,0-.58.09,1.39,1.39,0,0,0,.39.57c-0.72-.5-0.75-0.15-0.7.17s0.16,0.67-.52.36a0.32,0.32,0,0,0-.15-0.23v0.44a3.23,3.23,0,0,0,.62.35,0.78,0.78,0,0,1,.3.48,2,2,0,0,0-.91-0.61c0.13,0.08.26,0.2,0.39,0.29-0.83-.4.81,0.62,0.19,0.44l-0.21-.16a0.67,0.67,0,0,1,.2.43,3.11,3.11,0,0,1-.58-0.49c-0.06.13,0.81,0.8,0.25,0.59-0.11-.13-0.08-0.2-0.19-0.33-0.65-.25-0.51-0.14-0.65-0.11h0l-0.39.05,0.19,0c1.26,0.88.07,0.44,0.89,1.07a2.73,2.73,0,0,0-1.08-.57,1.45,1.45,0,0,1-.58-0.13c0.44,0.32-.47,0,0.19.47a1.09,1.09,0,0,1-.56-0.12,1,1,0,0,0,.61.22c0.61,0.45-1,.22-0.16.84a13,13,0,0,0,1.33.88,1.8,1.8,0,0,1-.75-0.23c-0.34.06-.31,0.17-0.08,0.33a1.88,1.88,0,0,0-.58-0.06c0,0.11.76,0.19,0.43,0.27a7.61,7.61,0,0,1-.84-0.23c0.18,0.16.56,0.33,0.73,0.47a2.14,2.14,0,0,1-.79-0.22,1.15,1.15,0,0,0,.88.5l0.21-.07a1.51,1.51,0,0,1-.61-0.07c-0.45-.17.23-0.15,0.44-0.13l0.12,0.1c1.26,0.06-.16-0.34-0.06-0.51l0.89,0.22-0.72-.29a2.37,2.37,0,0,1,.87.18c0.46,0-.3-0.16.21-0.14a0.42,0.42,0,0,1,.15,0l-0.24-.15a1.08,1.08,0,0,1,.49.15c0.55,0-.6-0.44.09-0.32l0.05,0a7.18,7.18,0,0,0-1.34-.62l0.81,0.18,0.81,0.2-0.63-.23a0.4,0.4,0,0,1,.35,0,5,5,0,0,0-.67-0.28c0.61,0.09-.15-0.45.86-0.06a2,2,0,0,1-.68-0.3c1.07,0.42-.12-0.22.41-0.11a1.6,1.6,0,0,0,.72.37c-0.88-.48.27-0.09,0.14-0.24-0.7-.38-0.2-0.32-0.36-0.59a3,3,0,0,0,.83.06l0.11,0.08c-0.65-.48-0.44-0.51-0.51-0.7a4.09,4.09,0,0,1,.67.6l0-.07a1,1,0,0,1-.31-0.38l0.46,0.4c0-.1-0.39-0.64,0-0.49a6.34,6.34,0,0,1-1.38-1.37,4.61,4.61,0,0,1,.66.68s-0.14-.22,0-0.15l0.32,0.4c0.22,0.1-.28-0.32-0.2-0.34,0.31,0.3.25,0.18,0.49,0.43,0,0-.17-0.09-0.06,0a1.38,1.38,0,0,1,.59.36,1.93,1.93,0,0,1-.41-0.49,1.86,1.86,0,0,1,.59.47,1.72,1.72,0,0,0-.35-0.55,1.69,1.69,0,0,1,.36.33,0.93,0.93,0,0,0-.32-0.73l0,0v0h0c-0.21-.67.58,0,0.6-0.31l0.11,0.19a1.52,1.52,0,0,0,0-.72,1.5,1.5,0,0,1,.36.55c0-.19-0.08-0.42.19-0.15,0.07,0.38.16,0.29,0,.29,0.18,0.12.33,0.44,0.22-.15,0.17,0.53.33,0.62,0.31,0.45l-0.21-.35c0-.1.09-0.07,0.16,0l0.21,0.7c0.23,0.38.18,0,.19-0.3s0-.57.28,0.15c0-.51-0.19-0.33-0.27-0.92a1.69,1.69,0,0,1,.27.57c0.09,0.26.16,0.52,0.18,0.52,0.17,0.38,0-1.08.14-.82a3,3,0,0,1,0-1.2,2.78,2.78,0,0,1,.17,1.3s0-.06,0-0.15a0.86,0.86,0,0,0,0,.49v-0.26a1.27,1.27,0,0,1,.18.66,0.85,0.85,0,0,0,0-.56c0.13,0.37.19,0,.31,0.26a1.92,1.92,0,0,1,0-.45c0.18,0.34.1-.49,0.26-0.6,0.05,0.4-.1.95,0.06,0.62a2.75,2.75,0,0,1-.1.9c0.15-.5.14,0.36,0.16,0.45l-0.07.2c0-.12.06-0.11,0.08-0.11l0.06-.52a0.59,0.59,0,0,1,0,.31c0.09-.33.12-0.86,0.28-1.31,0,0.27.22-.25,0.08,0.43-0.09-.26-0.14.68-0.26,0.77,0-.08.06-0.08,0.07,0a0.82,0.82,0,0,1-.05.18c0,0.63.22-.75,0.35-0.69a1.63,1.63,0,0,0-.13.64,3.06,3.06,0,0,1,.29-0.91c0,0.31.17-.19,0.21-0.14v-0.16a0.49,0.49,0,0,1,.29-0.38c-0.1.29-.13,0.17-0.15,0.31,0.32-.61-0.08.73,0.18,0.34-0.06.26-.28,0.68-0.32,0.85,0.3-.42-0.14.53,0.13,0.2a2.38,2.38,0,0,1,.45-0.79l-0.34.24,0.22-.32,0.23-.31a1.15,1.15,0,0,1-.26.13,1.81,1.81,0,0,0,.33-0.65c-0.26.75,0.38-.32,0.25,0.21l-0.62,1.14c-0.18.55,0.54-.45,0.53-0.07l0.07-.22c0.31-.41.14,0,0.32-0.13a7,7,0,0,0-.46.73,3,3,0,0,0,.63-0.57l-0.29.5c0,0.26.95-.82,1-0.58a7.59,7.59,0,0,1-.82.76s0,0.12.22-.09c-0.17.21,0.52-.32,0.26,0a1.47,1.47,0,0,1,.51-0.35l-0.16.15a2.63,2.63,0,0,0,.6-0.49c-0.44.53-.35,0.6-0.23,0.66s0.24,0.13-.19.52a0.81,0.81,0,0,1,.47.14c-0.11.06-.18,0.11-0.16,0.07-0.27.33,1.12-.55,0.83-0.15a1.79,1.79,0,0,1-.58.28c-1.24.71,0.28,0.08-.42,0.57h-0.09c-0.41.28,0.57-.05,0.54,0.13l-0.2.08a1.73,1.73,0,0,1,1.25,0,3.17,3.17,0,0,0-.83.23,5.3,5.3,0,0,1,1.06-.22,5,5,0,0,1-1.09.48l-0.06-.1c-0.73.27,0.06,0.13-.05,0.23l-0.33.08c0.14,0.12,1-.06,1,0.15l0.25-.07c0.86,0-.46.18,0.18,0.19l-0.85.17a3.45,3.45,0,0,1,1,.27c-0.64,0-1-.13-1.39-0.16,0,0.06.1,0.2,0.53,0.2-0.08,0-.3,0-0.17-0.07,0.7,0,1,.11,1,0.27-1.68,0-.4.41-1.72,0.47,0.62,0.25-.29.4-0.23,0.62a7.36,7.36,0,0,1,1.35.3c0.08,0.09,0,.11,0,0.1l-0.42,0h-0.41a3.09,3.09,0,0,1-.57-0.18,3.33,3.33,0,0,1-.93-0.11c0.47,0.1.66,0.21,0.47,0.22l0.62,0.07c0.65,0.37-1.12-.18-0.49.17l-0.39-.18a1.55,1.55,0,0,0,.87.73,2.47,2.47,0,0,1-.57-0.24c-0.11.05,0.11,0.26,0.26,0.47s0.22,0.38-.1.28l-0.27-.18c0.07,0.08.5,0.38,0.19,0.25a1.89,1.89,0,0,0-.3-0.18c0.09,0.08.43,0.39,0.24,0.33l-0.28-.24c-0.46-.11.57,0.77,0.6,1.07a3.75,3.75,0,0,0-1.23-.77l-0.1-.1c-0.22,0,.34.81,0.38,1.25-0.74-.74-0.63-0.09-1.09-0.5a3.26,3.26,0,0,1,.38.76c-0.13-.15.18,0.66-0.22-0.13h0c-0.43-.76-0.38-0.51-0.46-0.51l0.45,1.07c-0.44-.74-0.47-0.56-0.53-0.34s-0.14.42-.36-0.3c0,0.3,0,.31,0,0.6l-0.12-.61c-0.15-.14-0.2-0.2-0.33,0l0-.44c-0.06,0,.05,1.79-0.06,1.83l-0.07-.93c-0.18,0-.27-0.81-0.48,0a2.48,2.48,0,0,1,.07-0.44c-0.08,0-.15-0.66-0.33.61,0.13-.82-0.14-0.1-0.33.23l0.15-.59a2.68,2.68,0,0,1-.49,1.12c0-.09.11-0.48,0.1-0.32,0-.33-0.24.54-0.27,0.19l0.16-.36c-0.08-.07-0.13.13-0.34,0.54-0.15.2-.15-0.22,0.05-0.74-0.14.31-.37,0.7-0.37,0.53a1.86,1.86,0,0,1,.18-0.36c0-.44-0.54.52-0.38-0.07a3,3,0,0,0,.16-0.33,0.23,0.23,0,0,1,.16.19,9,9,0,0,1,.6-1.31c-0.22.36-.78,1.12-0.74,0.84l0.09-.18,0,0c0-.06,0,0-0.09,0a0.36,0.36,0,0,0,0-.19c0.24-.4.05-0.27,0-0.31a6.33,6.33,0,0,0-.58.85,0.1,0.1,0,0,1,.09-0.06l0.05,0,0,0,0.13,0c-0.2.25-.38,0.44-0.25,0.12-0.24.32-.5,0.64-0.63,0.78a15.7,15.7,0,0,1,.89-1.65,2.85,2.85,0,0,0-1.27.74,0.85,0.85,0,0,1,.3-0.43,0.89,0.89,0,0,0,.24-0.14,1.48,1.48,0,0,0-.89.43c0.18-.35.59-0.45,0.38-0.5l0.2-.15c0.39-.55-0.08-0.28-0.54-0.12s-0.92.25-.33-0.36a1.13,1.13,0,0,1-.22.19c0.21-.4-0.07-0.48-0.27-0.65s-0.37-.38.12-0.77c0.18-.18-0.31,0-0.72,0l0.63-.21-0.77.07c-0.59-.09,1.5-0.66.44-0.68l-0.44.1c0.07-.1-0.3-0.25.21-0.3-0.08,0-.47,0-0.24,0l0.34,0-0.31-.08-0.3-.09c0.24-.19,1.38-0.08,1.43-0.29a5.26,5.26,0,0,0-1.25-.19,1,1,0,0,1-.56.11l-0.19-.09a7.1,7.1,0,0,0-2.78.21l0.64,0.2-0.49.1,0-.19c-0.46.13,0,.18,0.24,0.24a1.69,1.69,0,0,0-.54.13l0.49,0.07,0.49,0.06a2.55,2.55,0,0,0-1,.15,7,7,0,0,1,1.2-.05c-0.45.15-.83,0.17-0.42,0.24a1.16,1.16,0,0,1-.55,0,1.15,1.15,0,0,0,.72.26c-0.55.2,0.2,0.33-.75,0.51a2.13,2.13,0,0,1,.85.13c-1.17.08,0,.39-1.19,0.66,1-.13.6,0.39,1.23,0.44-0.08,0-.25,0-0.21,0a1.78,1.78,0,0,1-.47.47,7,7,0,0,1,1.61-.28,8.92,8.92,0,0,1-1.68.67,11.54,11.54,0,0,0,1.27-.29,3.65,3.65,0,0,1-.8.57c1-.45.22,0,0.86-0.16-0.38.41-.87,0.51-0.48,0.55A1.05,1.05,0,0,1,368.44,301.27Zm4.82,2.41h0l-0.1,0h0.11Zm0.35,0.17a0.34,0.34,0,0,0-.14-0.1,0.74,0.74,0,0,1,.23-0.36A1,1,0,0,0,373.62,303.85Zm1.6-4c0.07-.06,0,0-0.05.16l-0.08,0,0,0.06Z" transform="translate(-76.81 -43.19)"/><path class="cls-12" d="M374.72,300.48l0,0-0.06.13,0.12-.15h0Z" transform="translate(-76.81 -43.19)"/><path class="cls-12" d="M373.85,291.62h0l-0.06-.06Z" transform="translate(-76.81 -43.19)"/><polygon class="cls-12" points="302.4 262.4 302.37 262.25 302.36 262.39 302.4 262.4"/><path class="cls-12" d="M371.12,291.4l-0.14-.07Z" transform="translate(-76.81 -43.19)"/><path class="cls-12" d="M370.52,292.06h-0.25A0.87,0.87,0,0,0,370.52,292.06Z" transform="translate(-76.81 -43.19)"/><path class="cls-12" d="M369.93,292.53l0.23,0.13h0Z" transform="translate(-76.81 -43.19)"/><path class="cls-12" d="M379.71,287.62l0,0C379.85,287.51,379.79,287.54,379.71,287.62Z" transform="translate(-76.81 -43.19)"/><path class="cls-12" d="M376.19,288.69a1.81,1.81,0,0,1,.07-0.31C376.19,288.35,376.14,288.34,376.19,288.69Z" transform="translate(-76.81 -43.19)"/><path class="cls-12" d="M383.71,289.3h0l0,0v0Z" transform="translate(-76.81 -43.19)"/><path class="cls-12" d="M376.4,288.38c-0.07-.12-0.12-0.09-0.15,0S376.37,288.48,376.4,288.38Z" transform="translate(-76.81 -43.19)"/><path class="cls-12" d="M368.83,295.42l0,0h0.1Z" transform="translate(-76.81 -43.19)"/><path class="cls-12" d="M368.9,295.46l0.07,0S369,295.47,368.9,295.46Z" transform="translate(-76.81 -43.19)"/><path class="cls-12" d="M369.12,295.6l-0.15-.09S368.95,295.57,369.12,295.6Z" transform="translate(-76.81 -43.19)"/><path class="cls-12" d="M369.26,294.53l-0.22-.06Z" transform="translate(-76.81 -43.19)"/><path class="cls-12" d="M369.26,294.24c-0.07.05-.51,0.06-0.39,0.19l0.17,0C368.72,294.36,369.61,294.38,369.26,294.24Z" transform="translate(-76.81 -43.19)"/><path class="cls-12" d="M372.19,294.11l-0.22.09a1.23,1.23,0,0,1,.58.22C373.27,294.48,372,294.27,372.19,294.11Z" transform="translate(-76.81 -43.19)"/><path class="cls-12" d="M372.7,293.8a1,1,0,0,0,.43.22A0.74,0.74,0,0,0,372.7,293.8Z" transform="translate(-76.81 -43.19)"/><path class="cls-12" d="M375,291.45l0.24,0.51A1.79,1.79,0,0,0,375,291.45Z" transform="translate(-76.81 -43.19)"/><polygon class="cls-12" points="297.88 245.26 297.68 244.96 297.8 245.47 297.88 245.26"/><polygon class="cls-12" points="299.41 248.99 299.42 249.07 299.44 248.85 299.41 248.99"/><path class="cls-12" d="M380.17,293.49l0.54-.43A1.36,1.36,0,0,0,380.17,293.49Z" transform="translate(-76.81 -43.19)"/><path class="cls-12" d="M381.69,295.23c-0.33.09-.55,0.19-0.21,0.17C381.53,295.35,381.79,295.24,381.69,295.23Z" transform="translate(-76.81 -43.19)"/><polygon class="cls-12" points="301.47 256.87 301.42 256.64 301.43 256.85 301.47 256.87"/><ellipse class="cls-10" cx="338.51" cy="343.85" rx="6.34" ry="6.74"/><ellipse class="cls-10" cx="300.94" cy="215.01" rx="6.34" ry="6.74"/><path class="cls-11" d="M230.68,369.31a6.11,6.11,0,0,0,8.83,1.69,7,7,0,0,0,1.59-9.38,6.11,6.11,0,0,0-8.83-1.69A7,7,0,0,0,230.68,369.31Z" transform="translate(-76.81 -43.19)"/><path class="cls-12" d="M229.46,370.12a0.74,0.74,0,0,0,.42-0.34l-0.64.35h0.22Z" transform="translate(-76.81 -43.19)"/><path class="cls-12" d="M230.38,369a6.55,6.55,0,0,0-1.49.7c0.65-.27.41-0.11,1.17-0.45,0.1,0-.14.22-0.38,0.35,0.17-.08-0.08.18,0.32,0,0.43-.37.41-0.46-0.05-0.33A2.74,2.74,0,0,1,230.38,369Z" transform="translate(-76.81 -43.19)"/><path class="cls-12" d="M230.85,363.64h0Z" transform="translate(-76.81 -43.19)"/><path class="cls-12" d="M232.74,361.38a0.26,0.26,0,0,0,.08.13A0.31,0.31,0,0,0,232.74,361.38Z" transform="translate(-76.81 -43.19)"/><path class="cls-12" d="M233.59,361.72l0,0S233.62,361.77,233.59,361.72Z" transform="translate(-76.81 -43.19)"/><path class="cls-12" d="M230.85,363.64h0.24C230.87,363.56,230.91,363.62,230.85,363.64Z" transform="translate(-76.81 -43.19)"/><path class="cls-12" d="M228.4,369a0.57,0.57,0,0,0,.2,0l-0.1,0Z" transform="translate(-76.81 -43.19)"/><path class="cls-12" d="M231.17,365v0l0.29,0Z" transform="translate(-76.81 -43.19)"/><path class="cls-12" d="M231.29,366s-0.59,0-.86,0a1.76,1.76,0,0,1,.42,0Z" transform="translate(-76.81 -43.19)"/><path class="cls-12" d="M230.61,367.77h0Z" transform="translate(-76.81 -43.19)"/><path class="cls-12" d="M231.41,364.38l0.22,0Z" transform="translate(-76.81 -43.19)"/><path class="cls-12" d="M229.54,372.47l0.08-.08A0.15,0.15,0,0,0,229.54,372.47Z" transform="translate(-76.81 -43.19)"/><polygon class="cls-12" points="154 326.04 154.04 326.04 154.33 325.85 154 326.04"/><path class="cls-12" d="M234.56,362.06h0C234.57,362.12,234.58,362.1,234.56,362.06Z" transform="translate(-76.81 -43.19)"/><path class="cls-12" d="M239.36,363.8a13,13,0,0,0,1.23-.48A6.09,6.09,0,0,0,239.36,363.8Z" transform="translate(-76.81 -43.19)"/><path class="cls-12" d="M228.46,368.92a0.1,0.1,0,0,1,0-.06S228.43,368.92,228.46,368.92Z" transform="translate(-76.81 -43.19)"/><path class="cls-12" d="M240.59,363.33h0l0,0Z" transform="translate(-76.81 -43.19)"/><path class="cls-12" d="M235.8,361.37l0-.27Z" transform="translate(-76.81 -43.19)"/><path class="cls-12" d="M234.44,360.75l0.06,0.07A0.14,0.14,0,0,0,234.44,360.75Z" transform="translate(-76.81 -43.19)"/><path class="cls-12" d="M236.49,360.55s0,0.13,0,.06v-0.08C236.51,360.61,236.49,360.65,236.49,360.55Z" transform="translate(-76.81 -43.19)"/><path class="cls-12" d="M237.21,360.71l0-.12,0,0v0.1Z" transform="translate(-76.81 -43.19)"/><path class="cls-12" d="M233.61,374.5a4.92,4.92,0,0,1,.08-0.55C233.59,374.38,233.34,374.47,233.61,374.5Z" transform="translate(-76.81 -43.19)"/><path class="cls-12" d="M228.72,368.85a0.72,0.72,0,0,1-.26.07l0,0Z" transform="translate(-76.81 -43.19)"/><path class="cls-12" d="M237.24,355.73l0.23,0.13A0.37,0.37,0,0,0,237.24,355.73Z" transform="translate(-76.81 -43.19)"/><path class="cls-12" d="M243,371l0,0.09S243,371.1,243,371Z" transform="translate(-76.81 -43.19)"/><path class="cls-12" d="M238.22,355.93a1.53,1.53,0,0,0,0,.45,1.27,1.27,0,0,0,.07-0.15Z" transform="translate(-76.81 -43.19)"/><path class="cls-12" d="M233.69,373.94h0Z" transform="translate(-76.81 -43.19)"/><path class="cls-12" d="M231.69,374.73c0.22,0.12.44-.67,0.69-1.07,0.33-.1-0.14.6-0.22,1,0.25-.12.65-0.76,0.75-0.7a1.08,1.08,0,0,1-.12.33c0.39-.55.52,0.15,0.94-0.57a1.53,1.53,0,0,1,0,.2c0.08-.4.19-0.8,0.28-1.08,0.09,0,.28-0.46.17,0.06a0.67,0.67,0,0,0-.17.33l0.15-.2a1.9,1.9,0,0,1-.34.77c0.26-.19.59-0.76,0.68-0.52-0.12.74-.37,0.17-0.33,0.86l-0.16-.33c-0.11,1.19-.12-0.11-0.26,1.15,0.29,0.29.44-.27,0.73,0,0.14-.4.08-0.61,0.21-1,0.5-.69.12,1.92,0.57,1,0.13-.49.21-1.43,0.4-0.93l-0.11.84c0.32,0.1.2-1.21,0.5-.63a2.66,2.66,0,0,1-.19.38c0.21,0.67.15-.47,0.29-0.48l0.05,0.75a8.17,8.17,0,0,0,1-.89,1.54,1.54,0,0,0,.11.68c0.39-.43,1-0.11,1.57.17l0-.67a0.63,0.63,0,0,1,.17.38c0.25,0.16-.13-0.39-0.14-0.65a0.58,0.58,0,0,1,.26.5c0.12-.62.28-1.4,0.87-0.94l0,0.2c0.36,0.11-.42-1.27.06-0.87l0,0.12c0.6,0,.65-0.83,1.58-0.35-0.56-.72.67-0.07-0.22-1a2.66,2.66,0,0,0,1.39.43,5.92,5.92,0,0,0-.53-0.85l0.53,0.42-0.44-.59,0.71,0.41-0.06-.21a0.92,0.92,0,0,1-.46-0.22c-0.13-.33.66-0.12,1,0.06l-0.1-.36-0.11-.35a1.2,1.2,0,0,1,.38.41c-0.45-.58.64,0.33,0.22-0.21a2.59,2.59,0,0,1-.46-0.29c0.41,0.1.55-.15,0.49-0.41l0.4,0.24a3.46,3.46,0,0,0,.28-1.2,1.63,1.63,0,0,1-1-.37l0.69,0.19a3.14,3.14,0,0,1-.76-0.29,1.63,1.63,0,0,1,1,.32l-0.18-.25c0.21,0.05.3,0.13,0.56,0.23-0.4-.2.79-0.12,0.08-0.44l0.21,0a4,4,0,0,0-.06-1,3.5,3.5,0,0,1-.93-0.39,1.34,1.34,0,0,0,.71-0.7,2.2,2.2,0,0,0-.88-0.2c0.56,0,.52-0.27.92-0.11a1.18,1.18,0,0,0-.58-0.86,1.39,1.39,0,0,1-.52.09c-0.1-.07.23-0.18,0.5-0.18l0.06,0c-0.43-.21,0-0.49.28-0.81s0.61-.67,0-0.74h0.06l-0.35-.13-0.34-.12a3.53,3.53,0,0,1,.74-0.22c-1-.16-0.09-0.72-0.79-0.86,0.73-.43.58-0.68,0.37-0.88s-0.49-.36-0.14-0.8l-0.33.21c-0.38.1,0.13-.22,0.17-0.33a1.57,1.57,0,0,1-.46.33,1.46,1.46,0,0,1-.61-1.16,5.54,5.54,0,0,0-.38-1.55c-0.2-.32-1.5,1.37-1.18.4l0.55-.48a1.09,1.09,0,0,1-1.06-.3,1,1,0,0,0-1-.24,0.69,0.69,0,0,1,.27-0.29c0.12-.53-0.46-0.25-0.64.14a2.1,2.1,0,0,1,.18-0.59c0-.35-0.58.47-0.45,0a0.33,0.33,0,0,1,.14-0.17c-0.18.2-.39-0.21-0.51,0.39-0.14-.35-0.51.1-0.6-0.29-0.29.63-.33-0.42-0.58,0.51,0.24-1-.26-0.88-0.48-0.43,0.1-.29-0.08-0.33,0-0.73-0.19,0-.37.15-0.4,0.66-0.09-.62-0.29-0.39-0.45-0.2s-0.27.34-.35-0.42c-0.55.53-1,.92-1.35,1.22-0.13-1,.46-0.17.34-1.19-0.43.46-.5,1.34-0.94,1.19a0.9,0.9,0,0,1,0-.61c-0.31.51-.86,0.13-1,0.79a0.64,0.64,0,0,1,0-.28c-0.06.06-.22-0.07,0,0.34l0-.14a7.84,7.84,0,0,1,.39,1.69c-0.4-1.23-.43-0.18-0.93-1.73a1.2,1.2,0,0,0,.16.59,0.77,0.77,0,0,1-.28-0.54c-0.13.34,0.17,0.73,0,.82a4.94,4.94,0,0,1-.2-0.53c0.09,0.43.2,0.86-.06,0.78a0.42,0.42,0,0,1-.11-0.28c-0.27.24,0.16,1.25-.35,1.09-0.48-.82-0.28-0.18-0.79-0.82v0.32l0.31,0.26c-0.14.1,0.14,0.64-.14,0.53l-0.13-.33s-0.14.31-.13,0.32l0.34,0.12c0.17,0.42.7,0.76,0.41,0.72a1.27,1.27,0,0,1-.5-0.2h0c0.13,0.24.28,0.48,0.06,0.41s-0.64-.64-0.79-0.74c0.44,0.52-.12.41,0.38,1a4.15,4.15,0,0,0-.52-0.46l0.39,0.41a1.25,1.25,0,0,1-.52-0.33c-0.22.11,0.86,0.6,0.35,0.51a1.23,1.23,0,0,1-.14-0.17c-0.36.06,0,.6-0.35,0.64-0.74-.39-0.05-0.29-0.68-0.6-0.1.4,0.47,1.14,0.15,1.33h0.11c1,0.55-.63,0-0.2.36a2.44,2.44,0,0,0-.46-0.25c-0.26.15,0.06,0.56,0.32,1l-0.27-.13a0.92,0.92,0,0,0-.43.4,1.42,1.42,0,0,0,.64.25c-0.87,0-.7.29-0.48,0.53s0.5,0.46-.23.58a0.32,0.32,0,0,0-.25-0.11l0.23,0.37a3.23,3.23,0,0,0,.71-0.05,0.78,0.78,0,0,1,.52.24,2,2,0,0,0-1.1,0c0.16,0,.33,0,0.48,0-0.91.12,1,.08,0.4,0.26l-0.27,0a0.67,0.67,0,0,1,.4.24,3.14,3.14,0,0,1-.75-0.09c0,0.14,1.11.23,0.53,0.35-0.17,0-.17-0.12-0.34-0.17-0.68.14-.51,0.16-0.61,0.26h0l-0.3.25,0.18-.07c1.54,0.05.3,0.32,1.33,0.41a2.73,2.73,0,0,0-1.21.11,1.45,1.45,0,0,1-.56.2c0.55,0-.39.27,0.41,0.29a1.09,1.09,0,0,1-.53.2,1,1,0,0,0,.63-0.14c0.76,0-.74.73,0.31,0.79a12.91,12.91,0,0,0,1.59,0,1.8,1.8,0,0,1-.75.21c-0.25.23-.17,0.31,0.11,0.32a1.88,1.88,0,0,0-.52.26c0.1,0.07.74-.25,0.51,0a7.55,7.55,0,0,1-.83.26c0.23,0,.65,0,0.87,0a2.13,2.13,0,0,1-.78.24,1.14,1.14,0,0,0,1-.05l0.14-.17a1.5,1.5,0,0,1-.55.28c-0.46.1,0.11-.25,0.3-0.35h0.16c1.09-.63-0.31-0.2-0.33-0.4l0.87-.3-0.77.15a2.37,2.37,0,0,1,.83-0.32c0.38-.26-0.34,0,0.1-0.23a0.42,0.42,0,0,1,.15-0.05h-0.29a1.08,1.08,0,0,1,.5-0.14c0.45-.33-0.74,0-0.1-0.32h0.06a7.15,7.15,0,0,0-1.46.2l0.78-.28,0.79-.27-0.66.14a0.4,0.4,0,0,1,.32-0.15,5,5,0,0,0-.72.13c0.56-.25-0.36-0.3.69-0.52a2,2,0,0,1-.74.12c1.13-.23-0.22-0.12.29-0.32a1.6,1.6,0,0,0,.81-0.08c-1,.07.18-0.22,0-0.28-0.8.07-.34-0.16-0.62-0.3a2.92,2.92,0,0,0,.73-0.41h0.13c-0.81,0-.65-0.19-0.81-0.31a4,4,0,0,1,.89.14V365a1,1,0,0,1-.47-0.15l0.6,0.08c0-.11-0.67-0.32-0.26-0.42a6.36,6.36,0,0,1-1.91-.36,4.62,4.62,0,0,1,.93.19s-0.24-.1-0.11-0.11l0.49,0.16c0.23,0-.41-0.11-0.35-0.17,0.43,0.08.31,0,.65,0.08,0,0-.19,0,0,0.07a1.38,1.38,0,0,1,.69,0,1.9,1.9,0,0,1-.62-0.18,1.85,1.85,0,0,1,.75.06,1.65,1.65,0,0,0-.6-0.25,1.64,1.64,0,0,1,.48.07,0.9,0.9,0,0,0-.67-0.42h0l0,0h0c-0.55-.43.49-0.32,0.32-0.61l0.2,0.09a1.51,1.51,0,0,0-.39-0.61,1.5,1.5,0,0,1,.62.23c-0.1-.16-0.3-0.29.07-0.24,0.28,0.27.31,0.14,0.2,0.22,0.22,0,.52.15,0.09-0.26,0.45,0.33.64,0.31,0.53,0.17l-0.38-.15c0-.1,0-0.12.11-0.13l0.59,0.44c0.42,0.17.15-.11,0-0.37s-0.29-.48.32-0.06c-0.35-.38-0.35-0.14-0.77-0.57a1.62,1.62,0,0,1,.56.28c0.24,0.15.45,0.31,0.46,0.3,0.37,0.2-.68-0.83-0.38-0.74a3,3,0,0,1-.76-0.94,2.76,2.76,0,0,1,.93.92s-0.07,0-.13-0.09a0.86,0.86,0,0,0,.31.39l-0.17-.2a1.26,1.26,0,0,1,.55.41,0.83,0.83,0,0,0-.38-0.41c0.34,0.21.16-.12,0.41,0a1.83,1.83,0,0,1-.28-0.35c0.35,0.14-.22-0.45-0.16-0.63,0.29,0.28.51,0.8,0.44,0.45a2.66,2.66,0,0,1,.48.77c-0.18-.48.33,0.17,0.41,0.24l0.07,0.2c0-.12,0-0.13,0-0.13l-0.28-.44a0.59,0.59,0,0,1,.2.25c-0.13-.32-0.44-0.75-0.59-1.2,0.17,0.21,0-.33.33,0.29-0.23-.14.32,0.62,0.27,0.77,0-.08,0-0.09.07,0a0.82,0.82,0,0,1,.07.17c0.36,0.51-.3-0.74-0.16-0.77a1.65,1.65,0,0,0,.3.59,3,3,0,0,1-.34-0.89c0.2,0.25,0-.25.08-0.24l-0.11-.11a0.53,0.53,0,0,1,0-.49c0.1,0.29,0,.22.07,0.34-0.14-.69.39,0.62,0.35,0.15,0.12,0.24.2,0.71,0.28,0.87,0-.51.22,0.48,0.22,0.07a2.4,2.4,0,0,1-.14-0.9s-0.11.39-.11,0.4l0-.39,0-.39a1.68,1.68,0,0,1-.11.28,1.85,1.85,0,0,0-.15-0.72c0.27,0.74.1-.49,0.32,0l0.23,1.28c0.2,0.55.13-.71,0.36-0.39l-0.08-.22c0-.52.11-0.08,0.17-0.29a7.27,7.27,0,0,0,.09.86,3.43,3.43,0,0,0,.14-0.84l0.07,0.58c0.12,0.24.24-1.24,0.41-1.07a8,8,0,0,1-.19,1.1s0.08,0.1.11-.2c0,0.27.21-.56,0.2-0.15a1.53,1.53,0,0,1,.19-0.59,2,2,0,0,1,0,.21,2.75,2.75,0,0,0,.18-0.75c0,0.68.08,0.69,0.21,0.67s0.27-.06.16,0.52a0.91,0.91,0,0,1,.45-0.18c-0.06.12-.08,0.2-0.08,0.15,0,0.43.58-1.11,0.57-.61a1.82,1.82,0,0,1-.31.57c-0.59,1.3.27-.09,0,0.7l-0.06.06c-0.18.46,0.42-.37,0.5-0.21,0,0-.07.1-0.12,0.18a1.69,1.69,0,0,1,1-.71,3.21,3.21,0,0,0-.55.66,5.25,5.25,0,0,1,.75-0.78,5,5,0,0,1-.62,1l-0.11,0c-0.45.64,0.12,0.06,0.08,0.21l-0.23.25c0.18,0,.78-0.61.88-0.43l0.17-.2c0.7-.52-0.28.4,0.26,0l-0.62.61a3.38,3.38,0,0,1,1-.36c-0.55.33-.91,0.44-1.24,0.64,0,0.05.19,0.11,0.54-.13-0.08,0-.27.14-0.18,0,0.58-.38.92-0.48,1-0.34-1.38,1-.11.56-1.19,1.33,0.65-.13,0,0.48.14,0.63a7.4,7.4,0,0,1,1.3-.48c0.11,0,.1.07,0,0.1l-0.34.24-0.35.23a3.12,3.12,0,0,1-.58.16,3.34,3.34,0,0,1-.84.41c0.45-.17.67-0.18,0.51-0.07l0.56-.27c0.75,0-1,.45-0.32.41l-0.42.06a1.55,1.55,0,0,0,1.13.14,2.43,2.43,0,0,1-.61.1c-0.07.11,0.23,0.17,0.47,0.26s0.4,0.2.07,0.3h-0.33c0.1,0,.62,0,0.29.11a1.83,1.83,0,0,0-.35,0c0.12,0,.57.1,0.38,0.15l-0.37,0c-0.44.17,0.9,0.34,1.09,0.58a3.51,3.51,0,0,0-1.45.05l-0.13,0c-0.16.16,0.73,0.51,1,.85-1-.18-0.58.31-1.19,0.26a3.08,3.08,0,0,1,.75.4c-0.2,0,.52.44-0.26,0h0c-0.79-.37-0.62-0.19-0.68-0.13l1,0.6c-0.79-.33-0.72-0.16-0.65.05s0.14,0.43-.48,0c0.19,0.22.15,0.27,0.34,0.5l-0.46-.42c-0.21,0-.3,0-0.3.18l-0.29-.34c-0.07,0,1.14,1.4,1.07,1.5l-0.63-.69c-0.14.13-.71-0.44-0.38,0.33a2.33,2.33,0,0,1-.22-0.39c-0.08,0-.53-0.4.11,0.69-0.41-.72-0.18,0-0.12.38l-0.25-.56a2.67,2.67,0,0,1,.32,1.19c-0.06-.06-0.22-0.44-0.12-0.31-0.21-.26.15,0.56-0.09,0.31l-0.1-.38c-0.11,0,0,.18.07,0.64,0,0.27-.26-0.08-0.42-0.61,0.09,0.33.15,0.78,0,.64a1.85,1.85,0,0,1-.08-0.4c-0.25-.36-0.09.77-0.34,0.19a3.09,3.09,0,0,0-.09-0.36,0.26,0.26,0,0,1,.23,0,9,9,0,0,1-.35-1.4c0.06,0.43.09,1.35,0,1.11l0-.19v-0.06c0-.05,0,0,0,0.1a0.34,0.34,0,0,0-.09-0.16c-0.06-.46-0.12-0.25-0.16-0.27a6.5,6.5,0,0,0,.08,1,0.09,0.09,0,0,1,0-.1,0.17,0.17,0,0,0,0-.06v0.05l0.12,0c0,0.32,0,.58-0.12.24,0,0.4,0,.81,0,1a15,15,0,0,1-.31-1.84,2.89,2.89,0,0,0-.53,1.36,0.88,0.88,0,0,1,0-.52,0.87,0.87,0,0,0,.1-0.25,1.47,1.47,0,0,0-.43.87c-0.07-.38.19-0.73,0-0.62l0.07-.24c0-.67-0.21-0.19-0.49.23s-0.58.74-.46-0.09a1.12,1.12,0,0,1-.06.28c-0.07-.42-0.32-0.35-0.59-0.36s-0.51-.09-0.33-0.69c0.05-.25-0.27.15-0.59,0.41l0.4-.53-0.59.5c-0.54.25,0.87-1.38,0-.8l-0.31.33c0-.12-0.39,0,0-0.36-0.07,0-.37.28-0.22,0.1l0.26-.22-0.3.11-0.3.09c0.1-.29,1.11-0.82,1-1a5.49,5.49,0,0,0-1.15.54,1,1,0,0,1-.41.4l-0.21,0a7,7,0,0,0-2.21,1.7l0.64-.18-0.36.35-0.14-.14c-0.32.36,0.07,0.18,0.34,0.07a1.67,1.67,0,0,0-.38.41l0.45-.21,0.45-.22a2.49,2.49,0,0,0-.76.68,7,7,0,0,1,1-.7c-0.29.37-.6,0.6-0.21,0.44a1.13,1.13,0,0,1-.45.31,1.13,1.13,0,0,0,.75-0.18c-0.34.48,0.36,0.17-.33,0.84a2.11,2.11,0,0,1,.78-0.37c-0.93.72,0.24,0.31-.6,1.22,0.78-.69.73,0,1.28-0.33-0.06.06-.18,0.18-0.17,0.12a1.8,1.8,0,0,1-.11.66,7,7,0,0,1,1.16-1.15,8.65,8.65,0,0,1-1,1.51,10.84,10.84,0,0,0,.88-1,3.63,3.63,0,0,1-.31.93c0.54-.93.2-0.09,0.61-0.63-0.07.56-.41,0.92-0.06,0.73A1,1,0,0,1,231.69,374.73Zm5.4-1h0l-0.09.05Zm0.39-.08a0.34,0.34,0,0,0-.17,0,0.73,0.73,0,0,1,0-.42A1.05,1.05,0,0,0,237.48,373.68Zm-1.25-4.13c0-.09,0,0,0.06.16a0.2,0.2,0,0,0,0,.08v0.08Z" transform="translate(-76.81 -43.19)"/><path class="cls-12" d="M236.24,370.35a0.18,0.18,0,0,1,0,0l0,0.14v-0.19h0Z" transform="translate(-76.81 -43.19)"/><path class="cls-12" d="M230.74,363.65h-0.07Z" transform="translate(-76.81 -43.19)"/><polygon class="cls-12" points="166.09 328.43 165.97 328.33 166.05 328.44 166.09 328.43"/><path class="cls-12" d="M228.36,365l-0.16,0Z" transform="translate(-76.81 -43.19)"/><path class="cls-12" d="M228.22,365.86L228,366A0.87,0.87,0,0,0,228.22,365.86Z" transform="translate(-76.81 -43.19)"/><path class="cls-12" d="M228,366.57l0.26,0h0Z" transform="translate(-76.81 -43.19)"/><path class="cls-12" d="M233,356.88a0.06,0.06,0,0,0,0,0C233,356.71,233,356.77,233,356.88Z" transform="translate(-76.81 -43.19)"/><path class="cls-12" d="M230.91,359.89a1.81,1.81,0,0,1-.13-0.28C230.7,359.62,230.66,359.64,230.91,359.89Z" transform="translate(-76.81 -43.19)"/><path class="cls-12" d="M237.22,355.72h0Z" transform="translate(-76.81 -43.19)"/><path class="cls-12" d="M230.89,359.52c-0.12-.05-0.14,0-0.11.1S230.92,359.62,230.89,359.52Z" transform="translate(-76.81 -43.19)"/><path class="cls-12" d="M228.62,369.6v0l0.09,0h-0.08Z" transform="translate(-76.81 -43.19)"/><path class="cls-12" d="M228.7,369.6h0.08S228.76,369.57,228.7,369.6Z" transform="translate(-76.81 -43.19)"/><path class="cls-12" d="M229,369.59h-0.18S228.8,369.66,229,369.59Z" transform="translate(-76.81 -43.19)"/><path class="cls-12" d="M228.49,368.62l-0.21.07Z" transform="translate(-76.81 -43.19)"/><path class="cls-12" d="M228.34,368.37c0,0.08-.39.33-0.23,0.37l0.17-.06C228,368.76,228.71,368.3,228.34,368.37Z" transform="translate(-76.81 -43.19)"/><path class="cls-12" d="M230.73,366.68l-0.13.2a1.22,1.22,0,0,1,.6-0.13C231.85,366.41,230.69,366.9,230.73,366.68Z" transform="translate(-76.81 -43.19)"/><path class="cls-12" d="M231,366.14a1,1,0,0,0,.48-0.05A0.73,0.73,0,0,0,231,366.14Z" transform="translate(-76.81 -43.19)"/><path class="cls-12" d="M231.62,362.81l0.49,0.27A1.72,1.72,0,0,0,231.62,362.81Z" transform="translate(-76.81 -43.19)"/><polygon class="cls-12" points="152.77 317.4 152.43 317.28 152.83 317.61 152.77 317.4"/><polygon class="cls-12" points="156.23 319.46 156.28 319.53 156.18 319.33 156.23 319.46"/><path class="cls-12" d="M236.93,361.19l0.18-.67A1.41,1.41,0,0,0,236.93,361.19Z" transform="translate(-76.81 -43.19)"/><path class="cls-12" d="M239.09,361.69c-0.22.26-.35,0.46-0.08,0.25C239,361.87,239.18,361.64,239.09,361.69Z" transform="translate(-76.81 -43.19)"/><polygon class="cls-12" points="162.05 324.55 161.87 324.39 162 324.55 162.05 324.55"/><path class="cls-10" d="M187.62,398.6a6.11,6.11,0,0,0,8.83,1.69,7,7,0,0,0,1.59-9.38,6.11,6.11,0,0,0-8.83-1.69A7,7,0,0,0,187.62,398.6Z" transform="translate(-76.81 -43.19)"/><ellipse class="cls-11" cx="191.15" cy="236.85" rx="6.34" ry="6.74"/><path class="cls-12" d="M260.15,280a0.75,0.75,0,0,0,.54-0.06l-0.73-.06Z" transform="translate(-76.81 -43.19)"/><path class="cls-12" d="M261.52,279.63a6.55,6.55,0,0,0-1.63-.22c0.69,0.13.4,0.13,1.23,0.26,0.08,0.07-.24.1-0.51,0.08,0.19,0-.16.1,0.29,0.15s0.59-.16.13-0.3A2.75,2.75,0,0,1,261.52,279.63Z" transform="translate(-76.81 -43.19)"/><path class="cls-12" d="M264.84,275.41l-0.08,0Z" transform="translate(-76.81 -43.19)"/><path class="cls-12" d="M267.63,274.73a0.27,0.27,0,0,0,0,.16A0.33,0.33,0,0,0,267.63,274.73Z" transform="translate(-76.81 -43.19)"/><path class="cls-12" d="M268.08,275.52l0-.05C268.06,275.54,268.07,275.58,268.08,275.52Z" transform="translate(-76.81 -43.19)"/><path class="cls-12" d="M264.84,275.41l0.2,0.13C264.9,275.35,264.9,275.43,264.84,275.41Z" transform="translate(-76.81 -43.19)"/><path class="cls-12" d="M259.88,278.52a0.57,0.57,0,0,0,.18.1l-0.07-.07Z" transform="translate(-76.81 -43.19)"/><path class="cls-12" d="M264.35,276.72v0l0.22,0.2Z" transform="translate(-76.81 -43.19)"/><path class="cls-12" d="M263.95,277.55s-0.51-.3-0.74-0.44a1.78,1.78,0,0,1,.35.24Z" transform="translate(-76.81 -43.19)"/><path class="cls-12" d="M262.39,278.7l0.08,0Z" transform="translate(-76.81 -43.19)"/><path class="cls-12" d="M264.89,276.32l0.16,0.15Z" transform="translate(-76.81 -43.19)"/><path class="cls-12" d="M258.91,282l0.11,0A0.15,0.15,0,0,0,258.91,282Z" transform="translate(-76.81 -43.19)"/><polygon class="cls-12" points="184.96 236.85 185 236.87 185.34 236.87 184.96 236.85"/><path class="cls-12" d="M268.61,276.38h0C268.58,276.43,268.59,276.42,268.61,276.38Z" transform="translate(-76.81 -43.19)"/><path class="cls-12" d="M271.66,280.93a13,13,0,0,0,1.3.27A6.06,6.06,0,0,0,271.66,280.93Z" transform="translate(-76.81 -43.19)"/><path class="cls-12" d="M260,278.5a0.1,0.1,0,0,1,0-.06S259.94,278.48,260,278.5Z" transform="translate(-76.81 -43.19)"/><path class="cls-12" d="M273,281.19h0Z" transform="translate(-76.81 -43.19)"/><path class="cls-12" d="M270,276.64l0.15-.23Z" transform="translate(-76.81 -43.19)"/><path class="cls-12" d="M269.33,275.28v0.09A0.16,0.16,0,0,0,269.33,275.28Z" transform="translate(-76.81 -43.19)"/><path class="cls-12" d="M271.09,276.42s-0.08.11,0,.07l0-.06C271.08,276.48,271,276.5,271.09,276.42Z" transform="translate(-76.81 -43.19)"/><path class="cls-12" d="M271.58,277l0.09-.08h0Z" transform="translate(-76.81 -43.19)"/><path class="cls-12" d="M261,285.91a5.21,5.21,0,0,1,.4-0.39C261.07,285.8,260.82,285.72,261,285.91Z" transform="translate(-76.81 -43.19)"/><path class="cls-12" d="M260.22,278.58a0.72,0.72,0,0,1-.26-0.08l0,0Z" transform="translate(-76.81 -43.19)"/><path class="cls-12" d="M274.62,273.06l0.1,0.24A0.33,0.33,0,0,0,274.62,273.06Z" transform="translate(-76.81 -43.19)"/><path class="cls-12" d="M270.52,288.89l0,0.09S270.53,289,270.52,288.89Z" transform="translate(-76.81 -43.19)"/><path class="cls-12" d="M275.26,273.79a1.66,1.66,0,0,0-.25.37l0.14-.07Z" transform="translate(-76.81 -43.19)"/><path class="cls-12" d="M261.41,285.51h0Z" transform="translate(-76.81 -43.19)"/><path class="cls-12" d="M259.35,285c0.1,0.22.75-.29,1.18-0.47,0.32,0.1-.46.4-0.77,0.69a9,9,0,0,1,1-.13,1.11,1.11,0,0,1-.29.19c0.63-.22.32,0.41,1.09,0.08l-0.15.14c0.31-.27.63-0.52,0.87-0.7,0.06,0.06.49-.2,0.1,0.15a0.69,0.69,0,0,0-.34.17l0.24-.08a1.94,1.94,0,0,1-.73.42c0.32,0,.93-0.26.85,0-0.54.52-.4-0.08-0.78,0.49l0.07-.35c-0.8.88,0-.16-0.9,0.76,0.05,0.39.53,0,.57,0.42,0.35-.23.43-0.44,0.78-0.67,0.81-.25-1.07,1.58-0.14,1.09,0.4-.31,1-1,0.88-0.49l-0.61.6c0.19,0.26.9-.83,0.78-0.2a2.79,2.79,0,0,1-.38.18c-0.25.65,0.41-.29,0.52-0.2l-0.42.62a10.27,10.27,0,0,0,1.28-.11,1.55,1.55,0,0,0-.34.6c0.58-.11.81,0.52,1.11,1.1l0.38-.55a0.64,0.64,0,0,1-.11.41c0.09,0.29.14-.38,0.3-0.6a0.57,0.57,0,0,1-.11.56c0.49-.43,1.09-0.91,1.28-0.2l-0.09.18c0.22,0.3.46-1.26,0.59-.64l-0.05.11c0.5,0.33,1-.24,1.48.7,0-.93.58,0.37,0.46-0.93a2.66,2.66,0,0,0,.86,1.18,5.55,5.55,0,0,0,.1-1l0.17,0.66v-0.74l0.32,0.75,0.08-.2a0.9,0.9,0,0,1-.24-0.45c0.1-.34.62,0.3,0.75,0.62l0.14-.36,0.12-.36a1.18,1.18,0,0,1,.06.56c0-.74.33,0.64,0.32,0a2.51,2.51,0,0,1-.2-0.5,0.35,0.35,0,0,0,.65-0.06l0.18,0.43a3.48,3.48,0,0,0,1-.84,1.58,1.58,0,0,1-.64-0.9l0.46,0.55a3.08,3.08,0,0,1-.46-0.68,1.6,1.6,0,0,1,.63.83v-0.31a5.9,5.9,0,0,1,.33.5c-0.22-.4.72,0.34,0.33-0.33L274,287.8a3.76,3.76,0,0,0,.53-0.88,3.48,3.48,0,0,1-.56-0.84,1.36,1.36,0,0,0,1-.2,2.16,2.16,0,0,0-.63-0.65c0.46,0.33.58,0.06,0.83,0.41a1.19,1.19,0,0,0,0-1,1.38,1.38,0,0,1-.49-0.2c0-.11.29,0,0.52,0.12l0,0c-0.25-.41.23-0.44,0.68-0.54s0.87-.24.38-0.63l0,0-0.22-.3-0.23-.28a3.53,3.53,0,0,1,.74.21c-0.76-.68.31-0.65-0.2-1.15,0.85,0,.85-0.25.79-0.53s-0.22-.57.32-0.74h-0.39c-0.38-.12.23-0.11,0.32-0.18a1.59,1.59,0,0,1-.57,0c-0.43-.81.54-1.71,0.68-2.75,0-.37-2,0.3-1.2-0.31l0.73-.08a1,1,0,0,1-.69-0.82,0.9,0.9,0,0,0-.66-0.75,0.69,0.69,0,0,1,.38-0.08c0.42-.36-0.22-0.46-0.59-0.25a2.14,2.14,0,0,1,.49-0.37c0.2-.28-0.75,0-0.34-0.29a0.33,0.33,0,0,1,.21-0.06c-0.26.05-.18-0.39-0.64,0,0.1-.36-0.48-0.21-0.29-0.57-0.6.32,0-.52-0.77,0.07,0.77-.62.33-0.85-0.11-0.63,0.25-.17.13-0.31,0.47-0.56-0.14-.12-0.39-0.1-0.72.29,0.3-.54,0-0.48-0.22-0.43s-0.43.11,0-.54a14.18,14.18,0,0,1-1.8.13c0.51-.86.45,0.17,1-0.72-0.61.08-1.22,0.74-1.46,0.35a0.89,0.89,0,0,1,.35-0.5c-0.55.17-.75-0.42-1.28,0a0.63,0.63,0,0,1,.16-0.23c-0.08,0-.13-0.19-0.25.24l0.11-.1a8,8,0,0,1-.76,1.57c0.46-1.21-.23-0.4.36-1.93a1.18,1.18,0,0,0-.24.56,0.77,0.77,0,0,1,.12-0.59c-0.32.17-.32,0.66-0.55,0.61a4.92,4.92,0,0,1,.18-0.54c-0.21.4-.38,0.8-0.54,0.59a0.42,0.42,0,0,1,.09-0.29c-0.36,0-.66,1.07-1,0.64,0.13-.94-0.11-0.32-0.12-1.14l-0.2.25,0.08,0.39c-0.18,0-.29.6-0.44,0.34l0.1-.34-0.3.17,0.2,0.3c-0.13.43,0.09,1-.12,0.82a1.42,1.42,0,0,1-.28-0.47h0c0,0.27-.07.55-0.21,0.37s-0.12-.9-0.17-1.07c0,0.69-.35.24-0.28,1a4.11,4.11,0,0,0-.13-0.68l0.06,0.56a1.22,1.22,0,0,1-.21-0.57c-0.24,0,.32,1,0,0.62a1.23,1.23,0,0,1,0-.22c-0.33-.16-0.37.47-0.67,0.3-0.36-.74.13-0.27-0.19-0.89-0.33.28-.31,1.19-0.68,1.18l0.1,0.05c0.52,1-.5-0.4-0.37.18a2.41,2.41,0,0,0-.23-0.47c-0.3,0-.28.5-0.32,1l-0.15-.27a0.93,0.93,0,0,0-.58.09,1.39,1.39,0,0,0,.39.57c-0.72-.5-0.75-0.15-0.7.17s0.16,0.67-.52.36a0.32,0.32,0,0,0-.15-0.23v0.44a3.23,3.23,0,0,0,.62.35,0.78,0.78,0,0,1,.3.48,2,2,0,0,0-.91-0.61c0.13,0.08.26,0.2,0.39,0.29-0.83-.4.81,0.62,0.19,0.44l-0.21-.16a0.67,0.67,0,0,1,.2.43,3.11,3.11,0,0,1-.58-0.49c-0.06.13,0.81,0.8,0.25,0.59-0.11-.13-0.08-0.2-0.19-0.33-0.65-.25-0.51-0.14-0.65-0.11h0l-0.39.05,0.19,0c1.26,0.88.07,0.44,0.89,1.07a2.73,2.73,0,0,0-1.08-.57,1.45,1.45,0,0,1-.58-0.13c0.44,0.32-.47,0,0.19.47a1.09,1.09,0,0,1-.56-0.12,1,1,0,0,0,.61.22c0.61,0.45-1,.22-0.16.84a13,13,0,0,0,1.33.88,1.8,1.8,0,0,1-.75-0.23c-0.34.06-.31,0.17-0.08,0.33a1.88,1.88,0,0,0-.58-0.06c0,0.11.76,0.19,0.43,0.27a7.61,7.61,0,0,1-.84-0.23c0.18,0.16.56,0.33,0.73,0.47a2.14,2.14,0,0,1-.79-0.22,1.15,1.15,0,0,0,.88.5l0.21-.07a1.51,1.51,0,0,1-.61-0.07c-0.45-.17.23-0.15,0.44-0.13l0.12,0.1c1.26,0.06-.16-0.34-0.06-0.51l0.89,0.22-0.72-.29a2.37,2.37,0,0,1,.87.18c0.46,0-.3-0.16.21-0.14a0.42,0.42,0,0,1,.15,0l-0.24-.15a1.08,1.08,0,0,1,.49.15c0.55,0-.6-0.44.09-0.32l0.05,0a7.17,7.17,0,0,0-1.34-.62l0.81,0.18,0.81,0.2-0.63-.23a0.4,0.4,0,0,1,.35,0,5,5,0,0,0-.67-0.28c0.61,0.09-.15-0.45.86-0.06a2,2,0,0,1-.68-0.3c1.07,0.42-.12-0.22.41-0.11a1.6,1.6,0,0,0,.72.37c-0.88-.48.27-0.09,0.14-0.24-0.7-.38-0.2-0.32-0.36-0.59a3,3,0,0,0,.83.06l0.11,0.08c-0.65-.48-0.44-0.51-0.51-0.7a4.09,4.09,0,0,1,.67.6l0-.07a1,1,0,0,1-.31-0.38l0.46,0.4c0-.1-0.39-0.64,0-0.49a6.34,6.34,0,0,1-1.38-1.37,4.61,4.61,0,0,1,.66.68s-0.14-.22,0-0.15l0.32,0.4c0.22,0.1-.28-0.32-0.2-0.34,0.31,0.3.25,0.18,0.49,0.43,0,0-.17-0.09-0.06,0a1.38,1.38,0,0,1,.59.36,1.93,1.93,0,0,1-.41-0.49,1.86,1.86,0,0,1,.59.47,1.72,1.72,0,0,0-.35-0.55,1.69,1.69,0,0,1,.36.33,0.93,0.93,0,0,0-.32-0.73l0,0v0h0c-0.21-.67.58,0,0.6-0.31l0.11,0.19a1.52,1.52,0,0,0,0-.72,1.5,1.5,0,0,1,.36.55c0-.19-0.08-0.42.19-0.15,0.07,0.38.16,0.29,0,.29,0.18,0.12.33,0.44,0.22-.15,0.17,0.53.33,0.62,0.31,0.45l-0.21-.35c0-.1.09-0.07,0.16,0l0.21,0.7c0.23,0.38.18,0,.19-0.3s0-.57.28,0.15c0-.51-0.19-0.33-0.27-0.92a1.69,1.69,0,0,1,.27.57c0.09,0.26.16,0.52,0.18,0.52,0.17,0.38,0-1.08.14-.82a3,3,0,0,1,0-1.2,2.78,2.78,0,0,1,.17,1.3s0-.06,0-0.15a0.86,0.86,0,0,0,0,.49v-0.26a1.27,1.27,0,0,1,.18.66,0.85,0.85,0,0,0,0-.56c0.13,0.37.19,0,.31,0.26a1.91,1.91,0,0,1,0-.45c0.18,0.34.1-.49,0.26-0.6,0.05,0.4-.1.95,0.06,0.62a2.75,2.75,0,0,1-.1.9c0.15-.5.14,0.36,0.16,0.45l-0.07.2c0-.12.06-0.11,0.08-0.11l0.06-.52a0.59,0.59,0,0,1,0,.31c0.09-.33.12-0.86,0.28-1.31,0,0.27.22-.25,0.08,0.43-0.09-.26-0.14.68-0.26,0.77,0-.08.06-0.08,0.07,0a0.82,0.82,0,0,1-.05.18c0,0.63.22-.75,0.35-0.69a1.63,1.63,0,0,0-.13.64,3.06,3.06,0,0,1,.29-0.91c0,0.31.17-.19,0.21-0.14v-0.16a0.49,0.49,0,0,1,.29-0.38c-0.1.29-.13,0.17-0.15,0.31,0.32-.61-0.08.73,0.18,0.34-0.06.26-.28,0.68-0.32,0.85,0.3-.42-0.14.53,0.13,0.2a2.38,2.38,0,0,1,.45-0.79l-0.34.24,0.22-.32,0.23-.31a1.15,1.15,0,0,1-.26.13,1.81,1.81,0,0,0,.33-0.65c-0.26.75,0.38-.32,0.25,0.21l-0.62,1.14c-0.18.55,0.54-.45,0.53-0.07l0.07-.22c0.31-.41.14,0,0.32-0.13a7,7,0,0,0-.46.73,3,3,0,0,0,.63-0.57l-0.29.5c0,0.26.95-.82,1-0.58a7.6,7.6,0,0,1-.82.76s0,0.12.22-.09c-0.17.21,0.52-.32,0.26,0a1.47,1.47,0,0,1,.51-0.35l-0.16.15a2.63,2.63,0,0,0,.6-0.49c-0.44.53-.35,0.6-0.23,0.66s0.24,0.13-.19.52a0.81,0.81,0,0,1,.47.14c-0.11.06-.18,0.11-0.16,0.07-0.27.33,1.12-.55,0.83-0.15a1.79,1.79,0,0,1-.58.28c-1.24.71,0.28,0.08-.42,0.57h-0.09c-0.41.28,0.57-.05,0.54,0.13l-0.2.08a1.73,1.73,0,0,1,1.25,0,3.17,3.17,0,0,0-.83.23,5.3,5.3,0,0,1,1.06-.22,5,5,0,0,1-1.09.48l-0.06-.1c-0.73.27,0.06,0.13-.05,0.23l-0.33.08c0.14,0.12,1-.06,1,0.15l0.25-.07c0.86,0-.46.18,0.18,0.19l-0.85.17a3.45,3.45,0,0,1,1,.27c-0.64,0-1-.13-1.39-0.16,0,0.06.1,0.2,0.53,0.2-0.08,0-.3,0-0.17-0.07,0.7,0,1,.11,1,0.27-1.68,0-.4.41-1.72,0.47,0.62,0.25-.29.4-0.23,0.62a7.36,7.36,0,0,1,1.35.3c0.08,0.09,0,.11,0,0.1l-0.42,0h-0.41a3.09,3.09,0,0,1-.57-0.18,3.33,3.33,0,0,1-.93-0.11c0.47,0.1.66,0.21,0.47,0.22l0.62,0.07c0.65,0.37-1.12-.18-0.49.17l-0.39-.17a1.55,1.55,0,0,0,.87.73,2.47,2.47,0,0,1-.57-0.24c-0.11.05,0.11,0.26,0.26,0.47s0.22,0.38-.1.28l-0.27-.18c0.07,0.08.5,0.38,0.19,0.25a1.88,1.88,0,0,0-.3-0.18c0.09,0.08.43,0.39,0.24,0.33l-0.28-.24c-0.46-.11.57,0.77,0.6,1.07a3.75,3.75,0,0,0-1.23-.77l-0.1-.1c-0.22,0,.34.81,0.38,1.25-0.74-.74-0.63-0.09-1.09-0.5a3.26,3.26,0,0,1,.38.76c-0.13-.15.18,0.66-0.22-0.13h0c-0.43-.76-0.38-0.51-0.46-0.51l0.45,1.07c-0.44-.74-0.47-0.56-0.53-0.34s-0.14.42-.36-0.3c0,0.3,0,.31,0,0.6l-0.12-.61c-0.15-.14-0.2-0.2-0.33,0l0-.44c-0.06,0,.05,1.79-0.06,1.83l-0.07-.93c-0.18,0-.27-0.81-0.48,0a2.48,2.48,0,0,1,.07-0.44c-0.08,0-.15-0.66-0.33.61,0.13-.82-0.14-0.1-0.33.23l0.15-.59a2.68,2.68,0,0,1-.49,1.12c0-.09.11-0.48,0.1-0.32,0-.33-0.24.54-0.27,0.19l0.16-.36c-0.08-.07-0.13.13-0.34,0.54-0.15.2-.15-0.22,0.05-0.74-0.14.31-.37,0.7-0.37,0.53a1.86,1.86,0,0,1,.18-0.36c0-.44-0.54.52-0.38-0.07a3,3,0,0,0,.16-0.33,0.23,0.23,0,0,1,.16.19,9,9,0,0,1,.6-1.31c-0.22.36-.78,1.12-0.74,0.84l0.09-.18,0,0c0-.06,0,0-0.09,0a0.36,0.36,0,0,0,0-.19c0.24-.4.05-0.27,0-0.31a6.33,6.33,0,0,0-.58.85,0.1,0.1,0,0,1,.09-0.06l0.05,0,0,0,0.13,0c-0.2.25-.38,0.44-0.25,0.12-0.24.32-.5,0.64-0.63,0.78a15.7,15.7,0,0,1,.89-1.65,2.85,2.85,0,0,0-1.27.74,0.85,0.85,0,0,1,.3-0.43,0.89,0.89,0,0,0,.24-0.14,1.48,1.48,0,0,0-.89.43c0.18-.35.59-0.45,0.38-0.5l0.2-.15c0.39-.55-0.08-0.28-0.54-0.12s-0.92.25-.33-0.36a1.13,1.13,0,0,1-.22.19c0.21-.4-0.07-0.48-0.27-0.65s-0.37-.38.12-0.77c0.18-.18-0.31,0-0.72,0l0.63-.21-0.77.07c-0.59-.09,1.5-0.66.44-0.68l-0.44.1c0.07-.1-0.3-0.25.21-0.3-0.08,0-.47,0-0.24,0l0.34,0-0.31-.08-0.3-.09c0.24-.19,1.38-0.08,1.43-0.29a5.26,5.26,0,0,0-1.25-.19,1,1,0,0,1-.56.11l-0.19-.09a7.1,7.1,0,0,0-2.78.21l0.64,0.2-0.49.1,0-.19c-0.46.13,0,.18,0.24,0.24a1.69,1.69,0,0,0-.54.13l0.49,0.07,0.49,0.06a2.55,2.55,0,0,0-1,.15A7,7,0,0,1,260,281c-0.45.15-.83,0.17-0.42,0.24a1.16,1.16,0,0,1-.55,0,1.15,1.15,0,0,0,.72.26c-0.55.2,0.2,0.33-.75,0.51a2.13,2.13,0,0,1,.85.13c-1.17.08,0,.39-1.19,0.66,1-.13.6,0.39,1.23,0.44-0.08,0-.25,0-0.21,0a1.78,1.78,0,0,1-.47.47,7,7,0,0,1,1.61-.28,8.92,8.92,0,0,1-1.68.67,11.53,11.53,0,0,0,1.27-.29,3.65,3.65,0,0,1-.8.57c1-.45.22,0,0.86-0.16-0.38.41-.87,0.51-0.48,0.55A1.05,1.05,0,0,1,259.35,285Zm4.82,2.41h0l-0.1,0h0.11Zm0.35,0.17a0.34,0.34,0,0,0-.14-0.1,0.74,0.74,0,0,1,.23-0.36A1,1,0,0,0,264.52,287.59Zm1.6-4c0.07-.06,0,0-0.05.16l-0.08,0,0,0.06Z" transform="translate(-76.81 -43.19)"/><path class="cls-12" d="M265.62,284.22l0,0-0.06.13,0.12-.15h0Z" transform="translate(-76.81 -43.19)"/><path class="cls-12" d="M264.75,275.35h0l-0.06-.06Z" transform="translate(-76.81 -43.19)"/><polygon class="cls-12" points="193.31 246.13 193.27 245.98 193.26 246.12 193.31 246.13"/><path class="cls-12" d="M262,275.14l-0.14-.07Z" transform="translate(-76.81 -43.19)"/><path class="cls-12" d="M261.43,275.79h-0.25A0.87,0.87,0,0,0,261.43,275.79Z" transform="translate(-76.81 -43.19)"/><path class="cls-12" d="M260.83,276.26l0.23,0.13h0Z" transform="translate(-76.81 -43.19)"/><path class="cls-12" d="M270.61,271.35l0,0C270.76,271.25,270.7,271.28,270.61,271.35Z" transform="translate(-76.81 -43.19)"/><path class="cls-12" d="M267.09,272.42a1.81,1.81,0,0,1,.07-0.31C267.09,272.08,267,272.08,267.09,272.42Z" transform="translate(-76.81 -43.19)"/><path class="cls-12" d="M274.61,273h0l0,0v0Z" transform="translate(-76.81 -43.19)"/><path class="cls-12" d="M267.31,272.12c-0.07-.12-0.12-0.09-0.15,0S267.27,272.21,267.31,272.12Z" transform="translate(-76.81 -43.19)"/><path class="cls-12" d="M259.73,279.15l0,0h0.1Z" transform="translate(-76.81 -43.19)"/><path class="cls-12" d="M259.8,279.2l0.07,0S259.87,279.21,259.8,279.2Z" transform="translate(-76.81 -43.19)"/><path class="cls-12" d="M260,279.33l-0.15-.09S259.85,279.3,260,279.33Z" transform="translate(-76.81 -43.19)"/><path class="cls-12" d="M260.16,278.26l-0.22-.06Z" transform="translate(-76.81 -43.19)"/><path class="cls-12" d="M260.16,278c-0.07.05-.51,0.06-0.39,0.19l0.17,0C259.63,278.09,260.51,278.12,260.16,278Z" transform="translate(-76.81 -43.19)"/><path class="cls-12" d="M263.09,277.84l-0.22.09a1.23,1.23,0,0,1,.58.22C264.18,278.22,262.93,278,263.09,277.84Z" transform="translate(-76.81 -43.19)"/><path class="cls-12" d="M263.6,277.54a1,1,0,0,0,.43.22A0.74,0.74,0,0,0,263.6,277.54Z" transform="translate(-76.81 -43.19)"/><path class="cls-12" d="M265.93,275.18l0.24,0.51A1.79,1.79,0,0,0,265.93,275.18Z" transform="translate(-76.81 -43.19)"/><polygon class="cls-12" points="188.78 228.99 188.58 228.7 188.7 229.2 188.78 228.99"/><polygon class="cls-12" points="190.32 232.72 190.32 232.81 190.34 232.59 190.32 232.72"/><path class="cls-12" d="M271.07,277.22l0.54-.43A1.36,1.36,0,0,0,271.07,277.22Z" transform="translate(-76.81 -43.19)"/><path class="cls-12" d="M272.59,279c-0.33.09-.55,0.19-0.21,0.17C272.43,279.08,272.69,279,272.59,279Z" transform="translate(-76.81 -43.19)"/><polygon class="cls-12" points="192.38 240.6 192.32 240.38 192.33 240.58 192.38 240.6"/><ellipse class="cls-10" cx="232.16" cy="273.49" rx="6.34" ry="6.74"/><ellipse class="cls-10" cx="191.15" cy="281.69" rx="6.34" ry="6.74"/><line class="cls-10" x1="123.34" y1="315.54" x2="123.34" y2="315.54"/><path class="cls-10" d="M228.78,327.26a6.11,6.11,0,0,0,8.83,1.69,7,7,0,0,0,1.59-9.38,6.11,6.11,0,0,0-8.83-1.69A7,7,0,0,0,228.78,327.26Z" transform="translate(-76.81 -43.19)"/><path class="cls-10" d="M414.78,184.6a6.61,6.61,0,0,0-5.92,7.16,6.49,6.49,0,0,0,6.74,6.29,6.61,6.61,0,0,0,5.92-7.16A6.49,6.49,0,0,0,414.78,184.6Z" transform="translate(-76.81 -43.19)"/><path class="cls-13" d="M113.55,171.93c0,24.37-4.4,24.37-4.4,48.73s4.4,24.37,4.4,48.73-4.4,24.37-4.4,48.73,4.4,24.37,4.4,48.73-4.4,24.37-4.4,48.74,4.4,24.37,4.4,48.74" transform="translate(-76.81 -43.19)"/><path class="cls-13" d="M83.41,428.49c35.1,0,35.1,4.4,70.2,4.4s35.1-4.4,70.2-4.4,35.1,4.4,70.2,4.4,35.1-4.4,70.2-4.4,35.1,4.4,70.21,4.4,35.1-4.4,70.21-4.4" transform="translate(-76.81 -43.19)"/><line class="cls-14" x1="115.05" y1="387.19" x2="115.05" y2="394.4"/><line class="cls-14" x1="159.08" y1="383.85" x2="159.08" y2="394.4"/><line class="cls-14" x1="197.49" y1="387.5" x2="197.49" y2="394.4"/><line class="cls-14" x1="232.16" y1="387.5" x2="232.16" y2="394.4"/><line class="cls-14" x1="262.82" y1="387.5" x2="262.82" y2="394.4"/><line class="cls-14" x1="300.24" y1="383.85" x2="300.24" y2="394.4"/><line class="cls-14" x1="338.38" y1="387.5" x2="338.38" y2="398.24"/><text class="cls-15" transform="translate(335.72 230.84) scale(0.58 1)">Wee<tspan x="41.2" y="0">k</tspan><tspan x="51.56" y="0">end O</tspan><tspan x="108.99" y="0">u</tspan><tspan x="119.27" y="0">t</tspan><tspan x="127.77" y="0">l</tspan><tspan x="132.61" y="0">i</tspan><tspan x="136.82" y="0">er</tspan></text><path class="cls-11" d="M143.27,393.3c51.09-33.65,53.51-30,104.6-63.63s48.68-37.33,99.77-71,53.51-30,104.61-63.64" transform="translate(-76.81 -43.19)"/><path class="cls-16" d="M143.27,393.3c51.09-33.65,53.51-30,104.6-63.63s48.68-37.33,99.77-71,53.51-30,104.61-63.64" transform="translate(-76.81 -43.19)"/><text class="cls-17" transform="translate(143.2 111.56) scale(0.99 1)">D<tspan class="cls-18" x="18.88" y="0">a</tspan><tspan class="cls-18" x="32.36" y="0">t</tspan><tspan x="40.61" y="0">a An</tspan><tspan x="95.79" y="0">a</tspan><tspan x="110.83" y="0">l</tspan><tspan x="115.75" y="0">y</tspan><tspan x="128.83" y="0">st </tspan></text><text class="cls-19" transform="translate(112.59 70.82) scale(1.08 1)">Jon<tspan class="cls-20" x="60.78" y="0">a</tspan><tspan x="78.17" y="0">t</tspan><tspan x="90.47" y="0">h</tspan><tspan x="106.81" y="0">a</tspan><tspan x="125.99" y="0">n </tspan><tspan class="cls-21" x="151.95" y="0">T</tspan><tspan x="168.16" y="0">ow</tspan></text><text class="cls-22" transform="matrix(1.3, -0.36, 0.34, 0.94, 51.26, 38.22)">Im</text><text x="-76.81" y="-43.19"/></svg>